<?xml version="1.0" encoding="utf-8"?>
<!-- Generator: Adobe Illustrator 27.1.1, SVG Export Plug-In . SVG Version: 6.00 Build 0)  -->
<svg version="1.1" id="Layer_1" xmlns="http://www.w3.org/2000/svg" xmlns:xlink="http://www.w3.org/1999/xlink" x="0px" y="0px"
	 viewBox="0 0 602 602" style="enable-background:new 0 0 602 602;" xml:space="preserve">
<circle style="fill:none;stroke:#FFFFFF;stroke-linecap:round;stroke-linejoin:round;stroke-miterlimit:10;" cx="301" cy="301" r="204.56"/>
<circle style="fill:none;stroke:#FFFFFF;stroke-linecap:round;stroke-linejoin:round;stroke-miterlimit:10;" cx="301" cy="301" r="235.44"/>
<g>
	<path style="fill:#FFFFFF;" d="M306.04,163.9c-0.09-0.11,0.41-0.59,0.92-1.09c0.51-0.49,1.04-1.01,0.91-1.11l-2.46,1.94
		c0.49-0.19-0.11,0.39-0.4,0.71C304.71,164.69,304.72,164.78,306.04,163.9z"/>
	<path style="fill:#FFFFFF;" d="M267.76,170.45c-0.01-0.02-0.02-0.03-0.03-0.04c0.18,1.01,0.07,2.74,0.48,3.5
		c-0.09-1.69,0.05-3.18-0.29-4.69L267.76,170.45z"/>
	<path style="fill:#FFFFFF;" d="M333.33,177.57c-0.04-0.31-0.07-0.89-0.09-1.58c-0.01-0.03-0.02-0.05-0.02-0.07
		c-0.13-1.11-0.17-2.28-0.07-3.41c-0.07-0.42-0.02-0.85,0.1-1.28c0.05-1.38-0.04-2.74-0.05-4.12c0,0,0,0-0.01,0v-0.65
		c-0.01-0.22-0.01-0.43,0-0.65v-1.56c0.08-0.49,0.09-1,0.08-1.49c-0.09-0.83-0.21-1.67-0.25-2.51c-0.03-0.61,0.06-1.03,0.12-1.63
		c0.04-0.41,0-0.79,0.05-1.19v-0.34c0.28-0.71,0.13-1.31,0-1.97v-1.56c0.06,0.13,0.14,0.42,0.16,0.15l-0.16-1.42v-4.22
		c-0.05-0.92-0.17-1.84-0.18-2.77c-0.01-0.85,0.36-3.44-0.39-4.15h-0.14c-0.25-0.47-0.44-0.34-0.61,0h-3.46
		c-0.24-0.05-0.42-0.1-0.53-0.14c-0.56-0.05-2.78-0.24-2.36,0.11c-0.78-0.14-1.61-0.21-2.45-0.26c-0.22-0.01-0.44-0.02-0.66-0.03
		c-0.25-0.01-0.5-0.01-0.75-0.02l-0.66-0.01c-0.02,0-0.03,0.01-0.05,0.01c-0.34,0.05-0.44,0.11-0.65,0.39
		c-0.09,0.12-0.16,0.23-0.2,0.36c-0.02,0.49-0.03,0.98-0.06,1.48c-0.01,0.21-0.02,0.33-0.04,0.5c-0.02,0.15-0.03,0.31-0.05,0.46
		c-0.04,0.31-0.08,0.6-0.13,0.9c0.1,2.18-0.09,3.23-0.25,4.25c-0.08,0.51-0.15,1.02-0.18,1.65c-0.01,0.32-0.01,0.67,0,1.07
		c0.01,0.2,0.02,0.41,0.04,0.64c0.01,0.11,0.02,0.23,0.03,0.35c0.01,0.06,0.02,0.13,0.04,0.2c-0.08,0.24-0.22,0.14-0.34,0.15
		c-0.06-0.01-0.13-0.01-0.2,0.01c-0.04,0.01-0.08,0.03-0.11,0.04l-0.05,0.02c-0.01,0.01-0.01,0-0.03,0.02l-0.07,0.05
		c-0.19,0.14-0.37,0.29-0.53,0.44c-0.33,0.3-0.61,0.62-0.86,0.94c-0.5,0.64-0.89,1.28-1.27,1.84c-0.98,0.71-2.13,1.83-2.52,1.71
		c-0.19,0.06-0.35,0.16-0.57,0.15c-0.01,0-0.03,0-0.04,0c-0.09,0.17-0.17,0.34-0.26,0.5c-0.07,0.13-0.15,0.24-0.24,0.35
		c-0.25,0.57-1.36,1.64-2.16,2.5l-1.28,0.99c-0.08-0.1-0.01-0.31,0.01-0.47c0.02-0.15,0.01-0.26-0.17-0.21
		c-0.09,0.02-0.22,0.08-0.41,0.19c-0.21,0.13-0.57,0.39-1.01,0.71c-0.23,0.48-0.92,1-1.8,1.62c-0.25,0.18-0.53,0.37-0.79,0.56
		c0.21,0.42,0.12,0.71-0.04,1.08c0.07,0.14,0.18,0.32,0.29,0.42c0.08-0.04,0.16-0.07,0.23-0.1l0,0h5.24
		c0.02,0.02,0.02,0.04,0.03,0.06c0.33-0.01,0.68,0.06,0.83,0.39c0,0,0,0,0,0.01c0.5,0.08,1,0.15,1.48,0.22
		c0.41,0.05,0.82,0.06,1.22,0.2c1.14,0.08,1.92,0.31,2.93,0.52c0.26-0.01,0.54-0.04,0.83-0.07c0.27-0.03,0.67-0.07,0.71-0.1
		c0.25-0.07,0.58-0.14,0.85-0.14c0,0.16-0.02,0.33-0.08,0.48c0.1,0.06,0.2,0.15,0.3,0.32c0.03,0.04,0.05,0.09,0.07,0.14
		c0.02,0.05,0.05,0.16,0.07,0.24c0.04,0.17,0.08,0.36,0.12,0.55c0.07,0.39,0.11,0.81,0.1,1.29c-0.09,0.48-0.2,0.07-0.28-0.09
		c0.29,2.45,0.55,5.15,0.74,7.97c0.05,0.17,0.13,0.33,0.23,0.45c0.16,0.2,0.28,0.16,0.53,0.18c0.23,0.01,0.46,0.05,0.68,0.11
		c0.88,0.01,1.97,0.04,2.61,0.12c0.51-0.04,1.03-0.21,1.5-0.07c0.55,0.16,1.11,0.47,1.72,0.6c1.26,0.26,2.2,0.33,3.27,0.2
		c0.07-0.04,0.15-0.08,0.22-0.13c0.02-0.01,0.03-0.02,0.04-0.03c0-0.08,0.02-0.17,0.05-0.24c-0.06-0.01-0.12-0.02-0.17-0.03
		c-0.08-0.02-0.15-0.04-0.21-0.06c-0.12-0.04-0.18-0.1-0.16-0.17l1.22-0.2c0.01,0,0.02,0,0.03,0h1.19
		C333.18,179.29,333.48,178.67,333.33,177.57z"/>
	<path style="fill:#FFFFFF;" d="M297.69,154.48c-0.04-0.08-0.34-0.2-0.41-0.26c-0.3-0.23-0.42-0.41-0.83-0.46
		c-0.04,0-0.07-0.01-0.1-0.02c-0.03,0.04-0.06,0.08-0.1,0.13h-2.27c-0.24-0.05-0.42-0.1-0.53-0.14c-0.56-0.05-2.78-0.24-2.36,0.11
		c-1.36-0.25-2.87-0.28-4.38-0.32c-0.76-0.02-1.51-0.04-2.25-0.08c-0.62-0.04-1.12-0.11-1.47-0.24l0-0.02
		c-0.02-0.34-0.03-0.67-0.02-0.96c0-0.15,0.01-0.28,0.02-0.41c0.01-0.19,0.02-0.36,0.03-0.53c0.05-0.66,0.14-1.18,0.22-1.69
		c0.16-1.02,0.29-2.02,0.07-4.09c0.11-0.7,0.35-0.29,0.46-0.99c0.04-0.33,0.05-0.64,0.05-0.94c-0.01-0.17-0.01-0.34-0.02-0.51
		c-0.01-0.25-0.03-0.49-0.05-0.72c-0.08-0.92-0.21-1.68-0.36-2.25c-0.96,0.16-1.74,0.34-2.37,0.49c-0.2,0-0.41,0-0.63-0.01
		c-0.18,0-0.35,0.01-0.53,0.01c-0.34,0.01-0.67,0.02-0.97,0.01c-0.59,0-1.04-0.05-1.11-0.25c0.25-0.19,1.12-0.13,1.44-0.24
		c0.69-0.95-0.37-0.67-1.74-0.33c-0.05,0.03-0.1,0.06-0.18,0.07c-0.19,0.03-0.44,0.09-0.67,0.13c-0.02,0-0.04,0.01-0.06,0.01
		c0.05,0.25-0.06,0.52-0.33,0.55c-0.6,0.28-2.06,0.44-3.17,0.62h-1.62c-0.01-0.12,0.17-0.25,0.3-0.37c0.16-0.21,0.44-0.38-1.83-0.43
		c-0.21,0.12-0.53,0.18-0.93,0.2c0.03,0.67-0.02,1.39-0.05,2.17c-0.01,0.19-0.01,0.37-0.02,0.55c0,0.14-0.01,0.29,0,0.42
		c0.01,0.28,0.03,0.53,0.08,0.76l0.17-0.14c0.06,1.13-0.11,1.6-0.34,1.88c0,0.03,0,0.06,0.01,0.1c0.02,0.24,0.11,0.35,0.24,0.5
		c0.04-0.01,0.08-0.03,0.12-0.04c0.2-0.04,0.39,0.12,0.39,0.33v0.51c-0.03,0.26-0.08,0.48-0.13,0.61c-0.19,0.49-0.26,1.14-0.21,1.55
		c0.06,0.41,0.32,0.88,0.33,2.2c-0.08,0.06-0.16,0.08-0.23,0.07c-0.01,0.02-0.02,0.04-0.03,0.05c0,0.07-0.01,0.14-0.02,0.21
		c-0.02,0.17-0.16,0.26-0.31,0.3l-0.05,0.72l-0.28-0.09c0.24,2.63-0.14,3.66-0.48,5.22c0.06,1.37,0.47,3.21,0.23,4.4
		c0.29,0.76,0.68,1.75,0.66,3.17c-0.02,0.13-0.05,0.19-0.08,0.21l0,0.02c0.03,0.17-0.02,0.33-0.12,0.44
		c0.2,1.77,0.39,3.65,0.54,5.61c0.06,0.75,0.11,1.52,0.16,2.3v3.67c-0.01,0.29-0.03,0.5-0.06,0.67c0.22,0.07,0.43,0.16,0.6,0.27
		c0.37,0.23,0.53,0.6,0.64,0.99c0.11,0,0.22,0,0.34,0c0.15,0,0.29,0.01,0.44,0.01c0.11,0.01,0.22,0.01,0.33,0.02
		c0.83,0.05,1.7,0.14,2.51,0.2c1.62,0.12,3.78,0,3.49-0.52l-0.63-0.06c-0.13-0.01-0.25-0.04-0.38-0.06
		c-0.71-0.14-1.75-0.05-1.67-0.31l1.25-0.2h1.66c1.5,0.09,3.65,0.3,3.65,0.3l0.52,0.17c0.22,0.07,0.42,0.11,0.6,0.12
		c0.02-0.3-0.04-0.66-0.1-0.98c-0.06-0.33-0.1-0.61-0.04-0.88c0.1,0.08,0.17-0.04,0.21-0.28c0.02-0.12,0.04-0.28,0.05-0.46
		c0.01-0.15,0.02-0.28,0.02-0.44c0.02-0.62,0-1.36,0.07-1.78c-0.1-3.03-0.46-3.21-0.8-3.29v-2.87c0.05-0.32,0.09-0.65,0.09-0.97
		c0.01-0.41-0.01-0.77-0.05-1.16c0.04-0.1,0.1-0.22,0.14-0.33l3.64-2.82c0.73-0.21,1.12-0.7,1.56-1.2l1.24-0.96
		c-0.07,0.13-0.25,0.36-0.02,0.22l1.02-1l6.71-5.19c0.03-0.01,0.05-0.01,0.08-0.02c0.22-0.29,0.52-0.48,0.82-0.71
		C297.68,154.68,297.82,154.7,297.69,154.48z"/>
	<path style="fill:#FFFFFF;" d="M268.99,197.91c-0.02,0.11-0.04,0.26-0.06,0.4c-0.02,0.08-0.05,0.14-0.08,0.08l-0.01,0.91
		c0.12-0.14,0.13-0.87,0.24-0.96c-0.02-0.18-0.03-0.35-0.04-0.41C269.09,197.82,269.06,197.84,268.99,197.91z"/>
	<path style="fill:#FFFFFF;" d="M284.41,188.29c-0.12-0.02-0.25-0.03-0.36-0.05c-0.11-0.01-0.21-0.02-0.29-0.03
		c-0.27,0.09-0.45,0.2-0.78,0.21c-0.02,0.02-0.03,0.04-0.05,0.05c-0.22,0.16-0.44,0.22-0.66,0.23c0,0.01,0.01,0.03,0.01,0.04h-0.44
		v0.74c-0.01,0-0.01,0-0.02,0c0.02,0.24,0,0.48-0.06,0.76c-0.06,0.29-0.1,0.6-0.21,0.86c0.05,0.3,0.17,0.06,0.29,0.06v0.37
		c-0.06,0.21-0.11,0.47-0.19,0.63c-0.03,0.15-0.06,0.3-0.1,0.44c0.12,0.07,0.05,0.41,0.07,0.68c-0.16,0.29-0.42,0.63-0.33,1.09
		c0.04,0.16,0.13,0.07,0.17,0.22c-0.17,0.94,0.2,0.9,0.12,1.89c0.19,0.62,0.06,1.37,0.25,1.99c-0.14-0.09-0.06,0.41-0.04,0.54
		c0.02,0.02,0.04,0.07,0.05,0.12v0.58c-0.08,0.06-0.1,0.14,0,0.23v0.27h2.53c0.06,0.01,0.13,0.02,0.2,0.03
		c0.02-0.04,0.05-0.08,0.08-0.11v-0.28c0.01-0.02,0.01-0.03,0.02-0.05c0.04-0.1,0.07-0.25-0.02-0.39v-1.04
		c0.04-0.18,0.05-0.39,0-0.58v-0.65c0.09-0.01,0.18-0.04,0.24-0.27c-0.05-0.08-0.08-0.16-0.08-0.26c-0.01-0.01-0.03-0.02-0.04-0.04
		c-0.16-0.21-0.2-0.45-0.13-0.7c0-0.01,0-0.02,0.01-0.04v-1.72l0.02-0.08c-0.01-0.1-0.01-0.2,0.05-0.28c0.08-0.11,0.1-0.21,0.1-0.34
		c-0.01-0.04-0.03-0.09-0.05-0.13c0,0,0,0-0.01-0.01c-0.04-0.05-0.08-0.1-0.1-0.17c-0.01-0.02-0.01-0.04-0.02-0.06
		c0,0.01,0,0.01,0,0.02v-0.03c-0.03-0.1-0.03-0.2,0-0.29v-1.27c0.07-0.7,0.18-1.36,0.3-1.96c-0.03,0.04-0.07,0.13-0.11,0.02
		c-0.01-0.22,0.05-0.44,0.12-0.67c0.04-0.15,0.09-0.3,0.14-0.44c-0.01-0.04-0.02-0.08-0.03-0.13
		C284.86,188.34,284.65,188.32,284.41,188.29z"/>
	<path style="fill:#FFFFFF;" d="M269.23,198.33c-0.02,0.11-0.04,0.26-0.06,0.4c-0.02,0.08-0.05,0.14-0.08,0.08l-0.01,0.9
		c0.12-0.14,0.13-0.86,0.24-0.96c-0.02-0.18-0.03-0.34-0.04-0.41C269.33,198.25,269.3,198.26,269.23,198.33z"/>
	<path style="fill:#FFFFFF;" d="M278.83,199.14c-0.01-0.14-0.02-0.28-0.03-0.43c-0.02-0.31-0.03-0.69-0.03-1.02
		c-0.91,0.02-1.57,0.02-2.23,0.13c0.18-0.14-0.78-0.06-1.03-0.04c-0.05,0.02-0.13,0.04-0.23,0.05h-1.19c-0.51,0-0.88,0.05-0.88,0.05
		v-0.03c0,0,0.39-0.34,0.88-1.04l1.97-2.8l0.41-0.47c0.06-0.1-0.03-0.02-0.09,0.02l0.39-0.55c0.2-0.2,0.4-0.38,0.49-0.7l1.15-1.63
		c0.05-0.06,0.1-0.11,0.15-0.18c0.02-0.3,0.02-0.6-0.02-0.9v-0.85h-0.39c0.01-0.03,0.01-0.06,0-0.09c-0.03-0.05-0.12-0.1-0.39-0.13
		c-0.21-0.04-0.53-0.07-1.03-0.08c-0.06,0.01-0.13,0.01-0.21,0.01c-0.03,0.1-0.09,0.18-0.2,0.23c-0.06,0.03-0.12,0.04-0.18,0.06
		c0,0,0,0,0.01,0h-0.02c-0.41,0.13-0.89,0.1-1.36,0h-2.41l-0.54-0.08c-0.04-0.11,0.51-0.11,0.82-0.19l0.34,0.03
		c-0.18-0.22-0.66-0.24-1.25-0.22c-0.29,0.01-0.61,0.04-0.93,0.07c-0.12,0.01-0.42,0.02-0.63,0.03c-0.1,0-0.19,0-0.28,0.01
		c-0.02,0.14-0.07,0.28-0.13,0.41l0.02,0.47c0,0,0.1,1.42,0.1,1.89h0.12c0.3,0.02,0.6,0.04,0.9,0.05c0.33,0.02,0.66,0.05,0.99,0.07
		c0.32,0.03,0.64,0.06,0.95,0.08c0.15,0.01,0.31,0.03,0.46,0.04c0.11,0.01,0.2,0.03,0.29,0.05c-0.02-0.03-0.14-0.07,0.03-0.11
		c0.32,0,0.51,0.04,0.52,0.12c0,0.02,0,0.04-0.01,0.06c-0.01,0.01-0.01,0.01-0.02,0.03c-0.02,0.02-0.05,0.04-0.08,0.05
		c0.01,0.02-0.03,0.07-0.09,0.13c-0.03,0.03-0.06,0.06-0.09,0.09l-0.08,0.07c-0.06,0.05-0.13,0.11-0.19,0.16l-0.04,0.03
		c-0.01,0.01-0.05,0.06-0.07,0.08c-0.05,0.07-0.1,0.13-0.15,0.19c-0.26,0.57-0.4,1-0.99,1.75c0.01,0.06,0.01,0.12-0.02,0.18
		c-0.02,0.04-0.04,0.07-0.05,0.11c0,0,0,0,0.01,0c-0.02,0.03-0.03,0.05-0.04,0.08c-0.01,0.02-0.02,0.05-0.03,0.07
		c-0.04,0.11-0.07,0.23-0.1,0.34c0.02,0.02,0.04,0.04,0.05,0.07l-1.31,1.86c-0.01-0.01-0.02-0.02-0.04-0.03
		c-0.08,0.07-0.17,0.11-0.28,0.14c-0.01,0.01-0.01,0.01-0.02,0.02c-0.02,0.02-0.03,0.02-0.05,0.04c-0.03,0.14-0.13,0.32-0.34,0.6
		l-0.02-0.09c-0.1,0.1-0.2,0.23-0.3,0.38c-0.11,0.17-0.22,0.35-0.34,0.52c0,0.1,0,0.2,0.01,0.29c0,0.09,0,0.15-0.01,0.22
		c-0.01,0.13-0.03,0.24-0.07,0.33c0,0.09,0.01,0.16,0.01,0.23c0.01,0.09,0.01,0.16,0.01,0.23c0.01,0.13,0.02,0.2,0.04,0.24
		c0.03,0.08,0.06,0.03,0.1-0.05c0.04-0.09,0.09-0.18,0.14-0.19v0.55h0.16c0.09,0.02,0.2,0.03,0.32,0.05
		c0.18,0.02,0.39,0.05,0.54,0.07c0.32,0.05,0.58,0.11,0.61,0.2c0.07,0.03,0.13,0.07,0.19,0.12c0.02,0,0.03,0,0.05,0
		c0-0.01,0.13-0.08,0.15-0.09c0.06-0.03,0.12-0.04,0.18-0.05c0.11-0.13,0.79-0.06,1.31-0.07c0.56,0.16,1.21,0.42,2.09,0.33
		c0.31-0.04,0.12-0.13,0.43-0.17c0.77,0.07,1.2,0.05,1.59,0c0.19-0.03,0.39-0.05,0.6-0.08c0.29-0.02,0.6-0.04,0.99-0.05
		c0-0.26,0-0.55,0.01-0.91C278.86,199.43,278.85,199.28,278.83,199.14z"/>
	<g>
		<path style="fill:#FFFFFF;" d="M311.24,199.52c0.17,0.29,0.34,0.59,0.53,0.9c-0.29,0.02-0.57,0.04-0.86,0.08
			c-0.44-0.01-0.82-0.01-1.02-0.01c-0.23,0.01-0.43,0.02-0.61,0.04c-0.17,0.02-0.33,0.04-0.49,0.06c-0.22,0.02-0.45,0.04-0.71,0.05
			c-0.07-0.12-0.14-0.24-0.21-0.36c-0.06-0.12-0.13-0.24-0.2-0.38c-0.11-0.21-0.22-0.46-0.35-0.76c-0.19-0.27-0.18-0.06-0.37-0.32
			c-0.51-0.79-0.59-1.52-0.73-2.12c-0.3-0.41-0.59-0.41-0.64-0.41c-0.02,0-0.04,0-0.04,0.01c-0.01,0-0.01-0.01-0.01-0.01
			c-0.15,0-0.47,0.14-0.47,0.14c-0.03,0.07-0.31,0.8-0.32,1.18c0.13,0,0.27-0.65,0.3,0.48c-0.09,0.19-0.09,0.53-0.07,0.89
			c0.01,0.19,0.02,0.35,0.02,0.56c0,0.08,0,0.16,0,0.24c-0.07,0.05-0.13,0.1-0.18,0.17c-0.01,0.01-0.06,0.11-0.1,0.19
			c-0.05-0.04-0.17-0.07-0.23-0.07c-0.12,0-0.23,0.02-0.34,0.05c-0.14,0.04-0.25,0.09-0.35,0.13h-1.48
			c-0.07-0.08-0.15-0.15-0.25-0.22c-0.05-0.04-0.1-0.07-0.13-0.09v-0.07c0,0,0,0-0.01,0c0.01-0.06,0.01-0.12,0-0.18
			c-0.02-0.18-0.12-0.26-0.18-0.41c-0.05-0.1-0.05-0.08-0.04-0.21c0-0.1,0.02-0.19,0.02-0.3c0-0.12-0.05-0.2-0.11-0.28
			c-0.01-0.68-0.11-1.08-0.21-1.62c0.02-0.63,0.18-1.48,0.09-2.03c0.11-0.35,0.26-0.8,0.25-1.46c-0.04-0.22-0.08-0.03-0.11,0.04
			c0.07-0.71,0.13-1.46,0.19-2.24c0.03-0.39,0.05-0.79,0.08-1.19c0.01-0.19,0.02-0.39,0.03-0.58v-0.43c0.25,0,0.51-0.12,0.73-0.22
			h0.58c0.35,0.08,0.72,0.1,1.07,0.02c0.2-0.05,0.37-0.14,0.52-0.27c0.07-0.05,0.12-0.09,0.18-0.13c0.04,0,0.07,0,0.11,0
			c0.02,0.39,0.04,0.8,0.06,1.18c0.02,0.26,0.03,0.51,0.03,0.74c0,0.45-0.05,0.81-0.23,0.96l0.03-0.36
			c-0.08-0.32-0.09-0.91-0.19-0.87l-0.08,0.57v1.89c0.01,0.06,0.06,0.32,0.12,0.38c0.02,0.03,0.04,0.05,0.07,0.07
			c0.01,0.01,0.02,0.02,0.03,0.04c0.24-0.07,0.3,0.09,0.53,0.04c-0.02-0.04,0.05-0.06,0.07-0.08c0.02-0.02,0.1-0.02,0.18-0.03
			c0.04-0.09,0.09-0.18,0.14-0.28c0.07-0.14,0.14-0.27,0.18-0.37c0.69-1.21,0.85-1.22,0.99-1.19l0.63-1.18
			c0.14-0.37,0.35-0.72,0.54-1.02l0.07-0.12h1.99c0.21-0.06,0.42-0.07,0.58-0.05c0.13,0.01,0.23,0.03,0.33,0.05h0.06
			c-0.26,0.41-0.46,0.85-0.66,1.29l-0.6,1.06c-0.25,0.35-0.53,0.67-0.78,1.02c-0.24,0.34-0.31,0.74-0.43,1.11l-0.57,1.01v0.03
			l1.05,1.9c0.07,0.09,0.13,0.15,0.17,0.19c0.14,0.22,0.7,1.08,0.49,0.98c0.31,0.41,0.6,0.88,0.88,1.37L311.24,199.52z"/>
		<path style="fill:#FFFFFF;" d="M301.92,197.18c-0.03,0.26-0.05,0.55-0.01,1c0-0.01,0.01-0.02,0.01-0.03V197.18z"/>
	</g>
	<path style="fill:#FFFFFF;" d="M321.85,199.36c-0.03-0.34-0.06-0.65-0.03-1.51c-0.01-0.08-0.02-0.17-0.03-0.25
		c-0.39,0.04-0.77,0.06-1.09,0.07c-0.3,0.01-0.6,0.02-0.9,0.03c-0.61,0.01-1.21,0.03-1.75,0.12c0.09-0.07-0.11-0.08-0.34-0.08
		c-0.21,0-0.49,0.03-0.61,0.04c-0.03,0.01-0.06,0.02-0.11,0.03c-0.01-0.03-0.02-0.07-0.03-0.11v-2.03h3.5v-1.25l0.06-0.6
		c-0.01-0.12-0.04,0.02-0.06,0.08v-0.64h-0.02c-0.22-0.05-0.53-0.11-0.83,0h-1.96c-0.21-0.02-0.43-0.04-0.65-0.03
		c0-0.12-0.02-0.24-0.03-0.36v-1.21c0.01,0,0.02,0,0.03,0c0.08,0.01,0.16-0.04,0.21-0.24c0.08,0.02,0.18,0.03,0.28,0.04
		c0.05,0,0.11,0.01,0.16,0.02c0.03,0,0.06,0,0.09,0.01c0.05,0,0.1,0,0.15,0.01c0.36-0.05,1.26,0.03,1.2-0.14
		c0.25-0.06,0.49,0.14,0.76,0.01l0.14-0.07c0,0,0.01,0,0.02-0.01c0.03,0,0.7-0.08,1.03-0.01c0.35,0.06,0.55-0.12,0.55-0.12
		c0.08-0.02,0.14-0.15,0.17-0.36c0.02-0.1,0.03-0.23,0.04-0.37c0.01-0.11,0.01-0.19,0.01-0.29c0-0.1,0-0.2-0.01-0.31
		c-0.01-0.12-0.01-0.25-0.02-0.38c-0.02-0.34-0.04-0.7-0.05-1.06c-0.37,0.02-0.72,0.03-1.05,0.04c-0.06,0-0.12,0-0.18,0
		c-1.28-0.13-2.4,0.35-2.4,0.35c-0.14-0.01-0.28-0.01-0.42-0.02c-0.59-0.04-1.17-0.08-1.72-0.13c-0.28-0.03-0.55-0.05-0.82-0.07
		l-0.2-0.02l-0.15-0.01c-0.11,0.04-0.23,0.07-0.36,0.07c-0.03,0-0.11,0-0.16-0.01c-0.01,0-0.01,0-0.01,0
		c-0.02,0.01-0.04,0.03-0.05,0.03c-0.09,0.06-0.18,0.09-0.28,0.12c-0.03,0.3-0.07,0.59-0.13,0.83c0.03,0.08,0.04,0.17,0.03,0.26
		c0.04,0.12,0.04,0.27-0.03,0.38c-0.02,0.03-0.04,0.06-0.06,0.09c-0.01,0.46-0.1,1.01-0.12,1.45c0.13,0.66,0.27,1.1,0.18,2.22
		l0.11-0.04l0.06,0.9c0.02-0.22,0.01,0.96,0.01,0.96c-0.01,0.18,0.07,0.44,0,0.58c0.05,0.62,0.07,1.24,0.01,1.86
		c0.05,0.22,0.09,0.44,0.11,0.66c0.02,0.24-0.04,0.56-0.01,0.83c0.16,0.06,0.29,0.19,0.29,0.42v0.01c0,0.04-0.01,0.07-0.02,0.1h0.13
		c0.05,0.01,0.11,0.02,0.17,0.03c0.19,0.03,0.39,0.05,0.58,0.08l0,0c0.46-0.03,0.92-0.12,1.37,0.04c0.07,0.03,0.15,0.04,0.22,0.07
		c0.27-0.01,0.64,0.01,0.95,0c0.55,0.16,1.18,0.42,2.05,0.33c0.3-0.04,0.12-0.13,0.42-0.17c0.51,0.06,1.32,0.05,1.75,0.02
		c-0.01-0.24-0.03-0.46-0.05-0.67C321.89,199.77,321.88,199.57,321.85,199.36z"/>
	<path style="fill:#FFFFFF;" d="M298.7,194.03c-0.04-0.37-0.13-0.15-0.17-0.52c0.08-1.08,0.03-1.6-0.03-2.14
		c-0.03-0.27-0.06-0.54-0.08-0.88c-0.01-0.17-0.02-0.36-0.02-0.58c0-0.11,0-0.23,0-0.35c0-0.16,0.01-0.34,0.01-0.52
		c-0.02-0.17-0.03-0.33-0.05-0.5c-0.3,0.02-0.59,0.03-0.87,0.05c-0.24,0.01-0.48,0.01-0.73,0.02c-0.51,0.01-1.03,0.02-1.54,0.03
		c0.01,0.28,0.02,0.55,0.04,0.8c0.02,0.25,0.04,0.46,0.07,0.67c-0.14-0.22-0.06,0.94-0.04,1.23c0.02,0.05,0.04,0.15,0.05,0.28v2.5
		c0,0.72,0.13,1.96,0.13,1.96h-0.03c0,0-0.51-1.21-0.96-1.96l-0.83-1.4l-0.32-0.67c-0.08-0.12-0.03,0.02-0.01,0.1l-0.42-0.7
		c-0.13-0.32-0.24-0.62-0.52-0.88l-1.08-1.81h-0.3c-0.4-0.03-0.86-0.05-1.3,0h-1.24v0.28c-0.03-0.01-0.06-0.01-0.09,0
		c-0.05,0.03-0.1,0.14-0.13,0.46c-0.03,0.18-0.05,0.41-0.06,0.72c0.31,0.45,0.41,1.02,0.37,1.57c-0.01,0.13-0.04,0.25-0.08,0.37
		c0.03,0.14,0.05,0.27,0.05,0.42c0,0.15-0.02,0.29-0.05,0.43v3.01l-0.03,0.28c0.02,0.18,0.03,0.36,0,0.56
		c-0.06,0.49-0.22,0.77-0.16,1.22c0.03,0.07,0.06,0.14,0.08,0.23c0.12,0.07,0.2,0.19,0.2,0.37c0,0.25-0.01,0.5,0.01,0.75
		c0,0.13-0.04,0.22-0.1,0.29v0.55h1.78c0.36,0.02,0.73,0.03,1.09,0.05c0.02-0.32,0.04-0.65,0.05-0.96c0.02-0.3,0.04-0.6,0.06-0.89
		c0.03-0.43,0.07-0.84,0.1-1.25c-0.01-0.09-0.02-0.19-0.02-0.28c-0.02,0.02-0.03,0-0.05-0.11c-0.01-0.75,0.14-1.26,0.25-1.66
		c-0.01-0.12-0.02-0.25-0.03-0.39c0.03,0.05,0.06,0.1,0.09,0.16c0.01-0.05,0.02-0.1,0.03-0.14l-0.03,0.15
		c0.11,0.2,0.23,0.42,0.36,0.67l0.07-0.09l0.13,0.2c0.17-0.01,0.33,0.08,0.44,0.22c0.08,0.11,0.14,0.23,0.18,0.36l1.16,1.94
		c0.13,0.13,0.19,0.3,0.23,0.48c0.24,0.36,0.38,0.76,0.5,1.19c0.01,0.02,0,0.03,0.01,0.05c0.11,0.18,0.23,0.37,0.35,0.55
		c0.63-0.02,0.98-0.03,1.22,0.07c1.29-0.03,0.55-0.17,0.55-0.3h0.84c0.12,0.01,0.24,0.03,0.39,0.04c0.02-0.17,0.04-0.34,0.06-0.5
		c0.02-0.18,0.04-0.36,0.06-0.49c0.03-0.17,0.06-0.3,0.1-0.39c0.04-0.32,0.01-0.58-0.01-0.88c-0.06-0.27-0.02-0.94-0.03-1.48
		C298.52,195.86,298.79,195.09,298.7,194.03z"/>
	<path style="fill:#FFFFFF;" d="M295.83,200.58c-0.18,0.01-0.3,0.02-0.4,0.03c-0.1,0.01-0.15,0.02-0.18,0.03
		c-0.05,0.02,0.04,0.03,0.18,0.05c0.12,0.02,0.35,0.03,0.4,0.05c0.08,0.02,0.12,0.04,0.06,0.07l0.95,0.01
		C296.87,200.69,295.92,200.68,295.83,200.58z"/>
	<g>
		<path style="fill:#FFFFFF;" d="M334.27,200.37c-0.33,0.01-0.67,0.01-1,0.03c-0.17,0.01-0.34,0.02-0.51,0.03
			c-0.16,0.01-0.28,0.03-0.42,0.06c-0.35-0.02-0.62-0.01-0.85,0c-0.14,0.01-0.26,0.02-0.39,0.03c-0.13,0.01-0.26,0.02-0.39,0.04
			c-0.09-0.14-0.18-0.27-0.27-0.4c-0.08-0.12-0.15-0.24-0.23-0.36c-0.14-0.23-0.29-0.51-0.46-0.94c-0.16-0.22-0.17-0.03-0.33-0.25
			c-0.44-0.64-0.48-1.29-0.56-1.77c-0.13-0.04-0.25-0.04-0.36-0.03c-0.01,0.09-0.03,0.15-0.05,0.18c-0.02,0.04-0.03,0.04-0.05,0.02
			l-0.02-0.02c-0.04-0.01-0.07-0.01-0.07-0.02c-0.02-0.02-0.04-0.04-0.07-0.06c0,0-0.01-0.01-0.02-0.01
			c-0.57,0.32-0.68,1.33-0.68,1.33c0.13,0,0.27-0.54,0.3,0.4c-0.09,0.16-0.09,0.44-0.07,0.74c0.01,0.23,0.03,0.54,0.02,0.79
			c-0.08,0.05-0.14,0.13-0.17,0.23c-0.09,0-0.18,0-0.25,0.01c-0.16-0.02-0.32-0.03-0.48-0.02c-0.27,0.01-0.52,0.11-0.77,0.17
			c-0.57-0.05-1.59-0.1-1.59-0.1l-0.04-0.69l-0.11,0.08c0.02-0.41,0.03-0.58,0.03-0.77c0-0.19-0.02-0.35-0.04-0.5
			c-0.04-0.3-0.11-0.55-0.17-0.84c0.02-0.53,0.18-1.23,0.09-1.68c0.11-0.29,0.26-0.67,0.25-1.21c-0.04-0.18-0.08-0.02-0.11,0.03
			c0.11-0.9,0.2-1.88,0.27-2.91c0.01-0.15,0.02-0.32,0.03-0.47v-1.53c0.02-0.29,0.06-0.57,0.09-0.86c0.01-0.09,0.01-0.17,0.01-0.26
			c0.1-0.05,0.19-0.13,0.24-0.26c0.01-0.02,0.02-0.03,0.05-0.04c0,0,3.88,0.08,3.97,0.15c0.09,0.07,2.96,0.11,3.11,0.22
			c0.15,0.11,0.95-0.17,1.06,0c0.11,0.17-0.13,0.32,0,0.6c0,0,0.02,0.82,0.11,1.06c0.09,0.24-0.16,1.64-0.16,1.64
			c-0.01,0.06-0.01,0.11-0.02,0.17c-0.02,0.13-0.04,0.26-0.07,0.39c-0.06,0.59-0.27,1.18-0.6,1.68c-0.01,0.01-0.02,0.03-0.03,0.04
			c-0.29,0.43-0.67,0.79-1.13,1.03v0.03c0,0,0.16,0.21,0.43,0.69l0.89,1.6c0.06,0.07,0.11,0.12,0.15,0.15
			c0.12,0.18,0.6,0.88,0.4,0.81C333.56,199.16,333.93,199.78,334.27,200.37z"/>
		<path style="fill:#FFFFFF;" d="M333.17,192.2l-0.02,0v0.04C333.16,192.23,333.16,192.22,333.17,192.2z"/>
	</g>
</g>
<g>
	<path style="fill:#FFFFFF;" d="M376.61,303.44c-2.71,0.27-5.42,0.55-8.13,0.83c-0.95-1.66-1.9-3.32-2.84-4.98
		c-1.41-3.26-2.91-6.78-3.84-6.73c-3.46,0.2-6.91,0.44-10.37,0.7c1.12-0.29,2.23-0.58,3.35-0.87c-1.01-1.76-2.01-3.52-3.02-5.28
		c-1.49-3.33-3.09-6.97-3.91-6.85c-39.16,5.79-79.85,9.23-117.43,22.28c0.71-0.25,6.02,12.45,6.93,12.13
		c3.67-1.28,7.38-2.44,11.11-3.54c1.04,2,2.41,4.71,3.52,6.71c-0.59,0.25-1.19,0.5-1.78,0.76c0.84,1.47,1.68,2.94,2.52,4.41
		c1.7,3.51,3.74,7.82,4.41,7.73c42.03-5.91,84.18-10.96,126.42-15.15C381.74,315.75,378.6,303.24,376.61,303.44z"/>
	
		<rect x="212.14" y="250.67" transform="matrix(0.99 -0.141 0.141 0.99 -34.3619 45.0578)" style="fill:none;stroke:#FFFFFF;stroke-linecap:round;stroke-linejoin:round;stroke-miterlimit:10;" width="177.1" height="28.55"/>
	
		<rect x="224.6" y="343.04" transform="matrix(0.99 -0.141 0.141 0.99 -47.9585 37.9528)" style="fill:none;stroke:#FFFFFF;stroke-linecap:round;stroke-linejoin:round;stroke-miterlimit:10;" width="38.34" height="28.55"/>
	
		<rect x="262.06" y="330.55" transform="matrix(0.99 -0.141 0.141 0.99 -45.3208 50.1923)" style="fill:none;stroke:#FFFFFF;stroke-linecap:round;stroke-linejoin:round;stroke-miterlimit:10;" width="138.76" height="28.55"/>
	
		<rect x="218.03" y="278.81" transform="matrix(0.99 -0.141 0.141 0.99 -40.1268 46.3002)" style="fill:none;stroke:#FFFFFF;stroke-linecap:round;stroke-linejoin:round;stroke-miterlimit:10;" width="177.1" height="54.86"/>
	
		<text transform="matrix(0.99 -0.141 0.141 0.99 224.8157 280.1058)" style="fill:#FFFFFF; font-family:'MuseoSansCyrl-500'; font-size:13.5569px;">Защищено от подделок</text>
	<g>
		<path style="fill:#FFFFFF;" d="M237.51,365.83c0.07,0.46,0.06,0.9,0,1.32c-0.07,0.42-0.21,0.8-0.42,1.14
			c-0.22,0.34-0.53,0.63-0.93,0.86c-0.4,0.24-0.9,0.4-1.5,0.48l-4.76,0.68l-3.08-21.6l4.76-0.68c0.6-0.09,1.13-0.07,1.58,0.05
			c0.45,0.12,0.83,0.31,1.13,0.57c0.3,0.26,0.54,0.59,0.73,0.98c0.18,0.39,0.31,0.81,0.37,1.27L237.51,365.83z M234.31,367.24
			c0.33-0.05,0.56-0.18,0.68-0.38c0.12-0.21,0.16-0.43,0.12-0.68l-2.13-14.94c-0.04-0.25-0.14-0.46-0.31-0.62
			c-0.17-0.17-0.42-0.23-0.76-0.18l-2.37,0.34l2.39,16.81L234.31,367.24z"/>
		<path style="fill:#FFFFFF;" d="M246.76,363.69l-4.26,0.61l0.09,4.21l-2.4,0.34l-0.62-21.95l5.1-0.73l5.57,21.24l-2.43,0.35
			L246.76,363.69z M246.2,361.55l-3.33-12.67l-0.81,0.12l0.37,13.09L246.2,361.55z"/>
		<path style="fill:#FFFFFF;" d="M257.68,344.32l0.34,2.4l-3.95,0.56l2.74,19.2l-2.4,0.34l-2.74-19.2l-3.95,0.56l-0.34-2.4
			L257.68,344.32z"/>
	</g>
	
		<circle style="fill:none;stroke:#FFFFFF;stroke-linecap:round;stroke-linejoin:round;stroke-miterlimit:10;" cx="262.75" cy="354.61" r="4.97"/>
	<path style="fill:#FFFFFF;" d="M262.05,349.69l1.4,9.85c2.72-0.39,4.61-2.91,4.22-5.62C267.29,351.19,264.77,349.3,262.05,349.69z"
		/>
	<g>
		
			<text transform="matrix(0.99 -0.141 0.141 0.99 274.4893 356.2252)" style="fill:#FFFFFF; font-family:'MuseoSansCyrl-900'; font-size:8.1335px;">система бренд-контроля</text>
	</g>
	<g>
		<defs>
			<path id="SVGID_1_" d="M376.61,303.44c-2.71,0.27-5.42,0.55-8.13,0.83c-0.95-1.66-1.9-3.32-2.84-4.98
				c-1.41-3.26-2.91-6.78-3.84-6.73c-3.46,0.2-6.91,0.44-10.37,0.7c1.12-0.29,2.23-0.58,3.35-0.87c-1.01-1.76-2.01-3.52-3.02-5.28
				c-1.49-3.33-3.09-6.97-3.91-6.85c-39.16,5.79-79.85,9.23-117.43,22.28c0.71-0.25,6.02,12.45,6.93,12.13
				c3.67-1.28,7.38-2.44,11.11-3.54c1.04,2,2.41,4.71,3.52,6.71c-0.59,0.25-1.19,0.5-1.78,0.76c0.84,1.47,1.68,2.94,2.52,4.41
				c1.7,3.51,3.74,7.82,4.41,7.73c42.03-5.91,84.18-10.96,126.42-15.15C381.74,315.75,378.6,303.24,376.61,303.44z"/>
		</defs>
		<clipPath id="SVGID_00000110449672980564135850000002597993810477227423_">
			<use xlink:href="#SVGID_1_"  style="overflow:visible;"/>
		</clipPath>
		<g style="clip-path:url(#SVGID_00000110449672980564135850000002597993810477227423_);">
			<path style="fill:#C1C9D7;" d="M238.8,325.17l6.08-0.87l-1.7-11.92c-0.15-1.08-0.27-2.21-0.27-2.21l-0.08,0.01
				c0,0-0.25,0.85-0.9,1.68l-1.5,1.81l-4.66-3.74l6.69-8.34l6.04-0.86l3.22,22.6l6.12-0.87l0.85,6l-19.04,2.71L238.8,325.17z"/>
			<path style="fill:#C1C9D7;" d="M260.98,324.99c-1.5-10.56,10.59-14.2,10-18.32c-0.28-2-2.01-2.61-3.48-2.4
				c-1.84,0.26-3.2,1.92-3.81,3.64l-5.7-2.74c1.22-3.48,4.04-6.86,9.2-7.6c4.68-0.67,10.14,1.29,11.01,7.37
				c1.27,8.92-10.04,12.29-9.88,16.02l12.36-1.76l0.85,6l-19.8,2.82C261.38,326.94,261.12,325.95,260.98,324.99z"/>
			<path style="fill:#C1C9D7;" d="M286.83,315.6c1.64,1.2,4.04,2.04,6.24,1.72c2.6-0.37,3.9-1.86,3.68-3.42
				c-0.32-2.24-2.69-2.84-5.77-2.4l-2,0.28l-1.96-3.19l3.12-5.06c1.13-1.83,2.1-3.03,2.1-3.03l-0.01-0.08c0,0-0.89,0.33-2.69,0.59
				l-6.84,0.97l-0.85-6l18.04-2.57l0.62,4.36l-4.85,7.51c4.37,0.32,7.53,3.29,8.1,7.29c0.7,4.88-2.05,10.25-9.21,11.27
				c-3.44,0.49-7.37-0.13-10.3-2.37L286.83,315.6z"/>
			<path style="fill:#C1C9D7;" d="M306.16,310.31l8.56-19.01l8.56-1.22l2.26,15.88l3.4-0.48l0.83,5.8l-3.4,0.48l0.99,6.92
				l-6.92,0.99l-0.99-6.92l-12.68,1.81L306.16,310.31z M318.62,306.95l-0.91-6.4c-0.22-1.56-0.22-3.23-0.22-3.23l-0.08,0.01
				c0,0-0.35,1.85-0.98,3.16l-3.38,7.18l0.01,0.08L318.62,306.95z"/>
			<path style="fill:#C1C9D7;" d="M335.72,308.63c1.59,1.12,4,2.04,6.17,1.73c1.88-0.27,3.83-1.73,3.5-4.09
				c-0.32-2.24-2.47-3.28-5.07-2.91c-1.32,0.19-2.59,0.74-3.7,1.51l-3.92-0.87l-0.97-15.13l16-2.28l0.85,6l-9.92,1.41l0.22,2.66
				c0.04,0.57,0,1.14,0,1.14l0.08-0.01c0.3-0.17,1.52-0.5,2.04-0.58c6.8-0.97,10.84,2.78,11.58,7.94
				c0.84,5.92-2.91,10.82-9.15,11.71c-3.52,0.5-7.3-0.23-10.3-2.37L335.72,308.63z"/>
			<path style="fill:#C1C9D7;" d="M366.7,283.41c2.04-0.29,4.53-0.28,6.5,0.34l-1.02,6.27c-0.69-0.27-2.76-0.46-4.04-0.28
				c-3.36,0.48-4.98,2.83-5.49,5.6l0.08-0.01c0.61-0.58,2.42-1.36,3.78-1.56c5.96-0.85,10.05,3.55,10.76,8.47
				c0.69,4.84-2.19,10.15-8.39,11.03c-5.76,0.82-12.22-2.71-13.55-12.03C354.21,293.47,357.82,284.67,366.7,283.41z M370.38,303.25
				c-0.29-2.04-1.84-4.02-4.92-3.58c-1.6,0.23-2.9,0.82-2.72,2.14c0.48,3.4,3.21,5.34,5.21,5.05
				C369.72,306.61,370.62,304.93,370.38,303.25z"/>
		</g>
	</g>
</g>
<g>
	
		<line style="fill:none;stroke:#FFFFFF;stroke-linecap:round;stroke-linejoin:round;stroke-miterlimit:10;" x1="270.58" y1="432.22" x2="283.71" y2="432.22"/>
	
		<line style="fill:none;stroke:#FFFFFF;stroke-linecap:round;stroke-linejoin:round;stroke-miterlimit:10;" x1="270.58" y1="438.16" x2="283.71" y2="438.16"/>
	
		<line style="fill:none;stroke:#FFFFFF;stroke-linecap:round;stroke-linejoin:round;stroke-miterlimit:10;" x1="270.58" y1="444.1" x2="283.71" y2="444.1"/>
	<g>
		
			<line style="fill:none;stroke:#FFFFFF;stroke-linecap:round;stroke-linejoin:round;stroke-miterlimit:10;" x1="289.03" y1="432.22" x2="315.53" y2="432.22"/>
		
			<line style="fill:none;stroke:#FFFFFF;stroke-linecap:round;stroke-linejoin:round;stroke-miterlimit:10;" x1="289.03" y1="438.16" x2="331.42" y2="438.16"/>
		
			<line style="fill:none;stroke:#FFFFFF;stroke-linecap:round;stroke-linejoin:round;stroke-miterlimit:10;" x1="289.03" y1="444.1" x2="323" y2="444.1"/>
		
			<line style="fill:none;stroke:#FFFFFF;stroke-linecap:round;stroke-linejoin:round;stroke-miterlimit:10;" x1="270.58" y1="450.04" x2="283.71" y2="450.04"/>
		
			<line style="fill:none;stroke:#FFFFFF;stroke-linecap:round;stroke-linejoin:round;stroke-miterlimit:10;" x1="289.03" y1="450.04" x2="310.88" y2="450.04"/>
	</g>
</g>
</svg>
