<svg xmlns="http://www.w3.org/2000/svg" viewBox="0 0 602 602"><path d="M313.2 31.42l20.59-24.7c7.7-9.24 22.48-6.9 26.95 4.27l11.95 29.86c3.69 9.21 14.82 12.83 23.21 7.54l27.22-17.13c10.18-6.41 23.52.38 24.32 12.39l2.14 32.09c.66 9.9 10.13 16.78 19.75 14.35l31.18-7.88c11.66-2.95 22.25 7.63 19.3 19.3l-7.88 31.18c-2.43 9.62 4.45 19.09 14.35 19.75l32.09 2.14c12 .8 18.8 14.13 12.39 24.32l-17.13 27.22c-5.28 8.4-1.67 19.53 7.54 23.21l29.86 11.95c11.17 4.47 13.51 19.25 4.27 26.95l-24.7 20.59c-7.62 6.35-7.62 18.06 0 24.41l24.7 20.59c9.24 7.7 6.9 22.48-4.27 26.95l-29.86 11.95c-9.21 3.69-12.83 14.82-7.54 23.21l17.13 27.22c6.41 10.18-.39 23.52-12.39 24.32l-32.09 2.14c-9.9.66-16.78 10.13-14.35 19.75l7.88 31.18c2.95 11.66-7.63 22.25-19.3 19.3l-31.18-7.88c-9.62-2.43-19.09 4.45-19.75 14.35l-2.14 32.09c-.8 12-14.13 18.8-24.32 12.39l-27.22-17.13c-8.4-5.28-19.53-1.67-23.21 7.54l-11.95 29.86c-4.47 11.17-19.25 13.51-26.95 4.27l-20.59-24.7c-6.35-7.62-18.06-7.62-24.41 0l-20.59 24.7c-7.7 9.24-22.48 6.9-26.95-4.27L229.3 561.2c-3.69-9.21-14.82-12.83-23.21-7.54l-27.22 17.13c-10.18 6.41-23.52-.39-24.32-12.39l-2.14-32.09c-.66-9.9-10.13-16.78-19.75-14.35l-31.18 7.88c-11.66 2.95-22.25-7.63-19.3-19.3l7.88-31.18c2.43-9.62-4.45-19.09-14.35-19.75l-32.09-2.14c-12-.8-18.8-14.13-12.39-24.32l17.13-27.22c5.28-8.4 1.67-19.53-7.54-23.21l-29.86-11.95c-11.17-4.47-13.51-19.25-4.27-26.95l24.7-20.59c7.62-6.35 7.62-18.06 0-24.41l-24.7-20.59c-9.24-7.7-6.9-22.48 4.27-26.95l29.86-11.95c9.21-3.69 12.83-14.82 7.54-23.21L31.23 178.9c-6.41-10.18.38-23.52 12.39-24.32l32.09-2.14c9.9-.66 16.78-10.13 14.35-19.75l-7.88-31.18c-2.95-11.66 7.63-22.25 19.3-19.3l31.18 7.88c9.62 2.43 19.09-4.45 19.75-14.35l2.14-32.09c.8-12 14.13-18.8 24.32-12.39l27.22 17.13c8.4 5.28 19.53 1.67 23.21-7.54l11.95-29.86C245.72-.18 260.5-2.52 268.2 6.72l20.59 24.7c6.36 7.62 18.06 7.62 24.41 0z" fill="none" stroke="#fff" stroke-linecap="round" stroke-linejoin="round" stroke-miterlimit="10"/></svg>