<svg xmlns="http://www.w3.org/2000/svg" xmlns:xlink="http://www.w3.org/1999/xlink" viewBox="0 0 602 602"><circle cx="301" cy="301" r="204.56" fill="none" stroke="#fff" stroke-linecap="round" stroke-linejoin="round" stroke-miterlimit="10"/><circle cx="301" cy="301" r="235.44" fill="none" stroke="#fff" stroke-linecap="round" stroke-linejoin="round" stroke-miterlimit="10"/><g fill="#fff"><path d="M306.04 163.9c-.09-.11.41-.59.92-1.09.51-.49 1.04-1.01.91-1.11l-2.46 1.94c.49-.19-.11.39-.4.71-.3.34-.29.43 1.03-.45zm-38.28 6.55c-.01-.02-.02-.03-.03-.04.18 1.01.07 2.74.48 3.5-.09-1.69.05-3.18-.29-4.69l-.16 1.23z"/><path d="M333.33 177.57c-.04-.31-.07-.89-.09-1.58-.01-.03-.02-.05-.02-.07-.13-1.11-.17-2.28-.07-3.41-.07-.42-.02-.85.1-1.28.05-1.38-.04-2.74-.05-4.12h-.01v-.65c-.01-.22-.01-.43 0-.65v-1.56c.08-.49.09-1 .08-1.49-.09-.83-.21-1.67-.25-2.51-.03-.61.06-1.03.12-1.63.04-.41 0-.79.05-1.19v-.34c.28-.71.13-1.31 0-1.97v-1.56c.06.13.14.42.16.15l-.16-1.42v-4.22c-.05-.92-.17-1.84-.18-2.77-.01-.85.36-3.44-.39-4.15h-.14c-.25-.47-.44-.34-.61 0h-3.46c-.24-.05-.42-.1-.53-.14-.56-.05-2.78-.24-2.36.11-.78-.14-1.61-.21-2.45-.26l-.66-.03c-.25-.01-.5-.01-.75-.02l-.66-.01c-.02 0-.03.01-.05.01-.34.05-.44.11-.65.39-.09.12-.16.23-.2.36-.02.49-.03.98-.06 1.48-.01.21-.02.33-.04.5-.02.15-.03.31-.05.46-.04.31-.08.6-.13.9.1 2.18-.09 3.23-.25 4.25-.08.51-.15 1.02-.18 1.65-.01.32-.01.67 0 1.07.01.2.02.41.04.64l.03.35c.01.06.02.13.04.2-.08.24-.22.14-.34.15a.458.458 0 00-.2.01c-.04.01-.08.03-.11.04l-.05.02c-.01.01-.01 0-.03.02l-.07.05c-.19.14-.37.29-.53.44-.33.3-.61.62-.86.94-.5.64-.89 1.28-1.27 1.84-.98.71-2.13 1.83-2.52 1.71-.19.06-.35.16-.57.15h-.04c-.09.17-.17.34-.26.5-.07.13-.15.24-.24.35-.25.57-1.36 1.64-2.16 2.5l-1.28.99c-.08-.1-.01-.31.01-.47.02-.15.01-.26-.17-.21-.09.02-.22.08-.41.19-.21.13-.57.39-1.01.71-.23.48-.92 1-1.8 1.62-.25.18-.53.37-.79.56.21.42.12.71-.04 1.08.07.14.18.32.29.42.08-.04.16-.07.23-.1h5.24c.02.02.02.04.03.06.33-.01.68.06.83.39v.01c.5.08 1 .15 1.48.22.41.05.82.06 1.22.2 1.14.08 1.92.31 2.93.52.26-.01.54-.04.83-.07.27-.03.67-.07.71-.1.25-.07.58-.14.85-.14 0 .16-.02.33-.08.48.1.06.2.15.3.32.03.04.05.09.07.14.02.05.05.16.07.24.04.17.08.36.12.55.07.39.11.81.1 1.29-.09.48-.2.07-.28-.09.29 2.45.55 5.15.74 7.97.05.17.13.33.23.45.16.2.28.16.53.18.23.01.46.05.68.11.88.01 1.97.04 2.61.12.51-.04 1.03-.21 1.5-.07.55.16 1.11.47 1.72.6 1.26.26 2.2.33 3.27.2.07-.04.15-.08.22-.13.02-.01.03-.02.04-.03 0-.08.02-.17.05-.24-.06-.01-.12-.02-.17-.03-.08-.02-.15-.04-.21-.06-.12-.04-.18-.1-.16-.17l1.22-.2h1.22c-.01 0 .29-.62.14-1.72zm-35.64-23.09c-.04-.08-.34-.2-.41-.26-.3-.23-.42-.41-.83-.46-.04 0-.07-.01-.1-.02-.03.04-.06.08-.1.13h-2.27c-.24-.05-.42-.1-.53-.14-.56-.05-2.78-.24-2.36.11-1.36-.25-2.87-.28-4.38-.32-.76-.02-1.51-.04-2.25-.08-.62-.04-1.12-.11-1.47-.24v-.02c-.02-.34-.03-.67-.02-.96 0-.15.01-.28.02-.41l.03-.53c.05-.66.14-1.18.22-1.69.16-1.02.29-2.02.07-4.09.11-.7.35-.29.46-.99.04-.33.05-.64.05-.94-.01-.17-.01-.34-.02-.51-.01-.25-.03-.49-.05-.72-.08-.92-.21-1.68-.36-2.25-.96.16-1.74.34-2.37.49-.2 0-.41 0-.63-.01-.18 0-.35.01-.53.01-.34.01-.67.02-.97.01-.59 0-1.04-.05-1.11-.25.25-.19 1.12-.13 1.44-.24.69-.95-.37-.67-1.74-.33-.05.03-.1.06-.18.07-.19.03-.44.09-.67.13-.02 0-.04.01-.06.01.05.25-.06.52-.33.55-.6.28-2.06.44-3.17.62h-1.62c-.01-.12.17-.25.3-.37.16-.21.44-.38-1.83-.43-.21.12-.53.18-.93.2.03.67-.02 1.39-.05 2.17-.01.19-.01.37-.02.55 0 .14-.01.29 0 .42.01.28.03.53.08.76l.17-.14c.06 1.13-.11 1.6-.34 1.88 0 .03 0 .06.01.1.02.24.11.35.24.5.04-.01.08-.03.12-.04.2-.04.39.12.39.33v.51c-.03.26-.08.48-.13.61-.19.49-.26 1.14-.21 1.55.06.41.32.88.33 2.2a.31.31 0 01-.23.07c-.01.02-.02.04-.03.05 0 .07-.01.14-.02.21-.02.17-.16.26-.31.3l-.05.72-.28-.09c.24 2.63-.14 3.66-.48 5.22.06 1.37.47 3.21.23 4.4.29.76.68 1.75.66 3.17-.02.13-.05.19-.08.21v.02c.03.17-.02.33-.12.44a155.682 155.682 0 01.7 7.91v3.67c-.01.29-.03.5-.06.67.22.07.43.16.6.27.37.23.53.6.64.99h.34c.15 0 .29.01.44.01.11.01.22.01.33.02.83.05 1.7.14 2.51.2 1.62.12 3.78 0 3.49-.52l-.63-.06c-.13-.01-.25-.04-.38-.06-.71-.14-1.75-.05-1.67-.31l1.25-.2h1.66c1.5.09 3.65.3 3.65.3l.52.17c.22.07.42.11.6.12.02-.3-.04-.66-.1-.98-.06-.33-.1-.61-.04-.88.1.08.17-.04.21-.28.02-.12.04-.28.05-.46.01-.15.02-.28.02-.44.02-.62 0-1.36.07-1.78-.1-3.03-.46-3.21-.8-3.29v-2.87c.05-.32.09-.65.09-.97.01-.41-.01-.77-.05-1.16.04-.1.1-.22.14-.33l3.64-2.82c.73-.21 1.12-.7 1.56-1.2l1.24-.96c-.07.13-.25.36-.02.22l1.02-1 6.71-5.19c.03-.01.05-.01.08-.02.22-.29.52-.48.82-.71.18-.05.32-.03.19-.25zm-28.7 43.43c-.02.11-.04.26-.06.4-.02.08-.05.14-.08.08l-.01.91c.12-.14.13-.87.24-.96-.02-.18-.03-.35-.04-.41.05-.11.02-.09-.05-.02zm15.42-9.62c-.12-.02-.25-.03-.36-.05-.11-.01-.21-.02-.29-.03-.27.09-.45.2-.78.21-.02.02-.03.04-.05.05-.22.16-.44.22-.66.23 0 .01.01.03.01.04h-.44v.74h-.02c.02.24 0 .48-.06.76-.06.29-.1.6-.21.86.05.3.17.06.29.06v.37c-.06.21-.11.47-.19.63-.03.15-.06.3-.1.44.12.07.05.41.07.68-.16.29-.42.63-.33 1.09.04.16.13.07.17.22-.17.94.2.9.12 1.89.19.62.06 1.37.25 1.99-.14-.09-.06.41-.04.54.02.02.04.07.05.12v.58c-.08.06-.1.14 0 .23v.27h2.53l.2.03c.02-.04.05-.08.08-.11v-.28c.01-.02.01-.03.02-.05.04-.1.07-.25-.02-.39v-1.04c.04-.18.05-.39 0-.58v-.65c.09-.01.18-.04.24-.27a.47.47 0 01-.08-.26c-.01-.01-.03-.02-.04-.04a.768.768 0 01-.13-.7c0-.01 0-.02.01-.04v-1.72l.02-.08c-.01-.1-.01-.2.05-.28.08-.11.1-.21.1-.34a.694.694 0 00-.05-.13l-.01-.01c-.04-.05-.08-.1-.1-.17-.01-.02-.01-.04-.02-.06v.02-.03c-.03-.1-.03-.2 0-.29v-1.27c.07-.7.18-1.36.3-1.96-.03.04-.07.13-.11.02-.01-.22.05-.44.12-.67.04-.15.09-.3.14-.44-.01-.04-.02-.08-.03-.13-.2.05-.41.03-.65 0zm-15.18 10.04c-.02.11-.04.26-.06.4-.02.08-.05.14-.08.08l-.01.9c.12-.14.13-.86.24-.96-.02-.18-.03-.34-.04-.41.05-.09.02-.08-.05-.01zm9.6.81l-.03-.43c-.02-.31-.03-.69-.03-1.02-.91.02-1.57.02-2.23.13.18-.14-.78-.06-1.03-.04a.89.89 0 01-.23.05h-1.19c-.51 0-.88.05-.88.05v-.03s.39-.34.88-1.04l1.97-2.8.41-.47c.06-.1-.03-.02-.09.02l.39-.55c.2-.2.4-.38.49-.7l1.15-1.63c.05-.06.1-.11.15-.18.02-.3.02-.6-.02-.9v-.85h-.39c.01-.03.01-.06 0-.09-.03-.05-.12-.1-.39-.13-.21-.04-.53-.07-1.03-.08-.06.01-.13.01-.21.01a.35.35 0 01-.2.23c-.06.03-.12.04-.18.06h.01-.02c-.41.13-.89.1-1.36 0h-2.41l-.54-.08c-.04-.11.51-.11.82-.19l.34.03c-.18-.22-.66-.24-1.25-.22-.29.01-.61.04-.93.07-.12.01-.42.02-.63.03-.1 0-.19 0-.28.01-.02.14-.07.28-.13.41l.02.47s.1 1.42.1 1.89h.12c.3.02.6.04.9.05.33.02.66.05.99.07.32.03.64.06.95.08.15.01.31.03.46.04.11.01.2.03.29.05-.02-.03-.14-.07.03-.11.32 0 .51.04.52.12 0 .02 0 .04-.01.06-.01.01-.01.01-.02.03-.02.02-.05.04-.08.05.01.02-.03.07-.09.13l-.09.09-.08.07-.19.16-.04.03c-.01.01-.05.06-.07.08-.05.07-.1.13-.15.19-.26.57-.4 1-.99 1.75.01.06.01.12-.02.18-.02.04-.04.07-.05.11h.01a.3.3 0 00-.04.08c-.01.02-.02.05-.03.07-.04.11-.07.23-.1.34.02.02.04.04.05.07l-1.31 1.86a.138.138 0 00-.04-.03c-.08.07-.17.11-.28.14l-.02.02c-.02.02-.03.02-.05.04-.03.14-.13.32-.34.6l-.02-.09c-.1.1-.2.23-.3.38-.11.17-.22.35-.34.52 0 .1 0 .2.01.29 0 .09 0 .15-.01.22-.01.13-.03.24-.07.33 0 .09.01.16.01.23.01.09.01.16.01.23.01.13.02.2.04.24.03.08.06.03.1-.05.04-.09.09-.18.14-.19v.55h.16c.09.02.2.03.32.05.18.02.39.05.54.07.32.05.58.11.61.2.07.03.13.07.19.12h.05c0-.01.13-.08.15-.09.06-.03.12-.04.18-.05.11-.13.79-.06 1.31-.07.56.16 1.21.42 2.09.33.31-.04.12-.13.43-.17.77.07 1.2.05 1.59 0 .19-.03.39-.05.6-.08.29-.02.6-.04.99-.05 0-.26 0-.55.01-.91-.04-.17-.05-.32-.07-.46zm32.41.38c.17.29.34.59.53.9-.29.02-.57.04-.86.08-.44-.01-.82-.01-1.02-.01-.23.01-.43.02-.61.04l-.49.06c-.22.02-.45.04-.71.05l-.21-.36c-.06-.12-.13-.24-.2-.38-.11-.21-.22-.46-.35-.76-.19-.27-.18-.06-.37-.32-.51-.79-.59-1.52-.73-2.12-.3-.41-.59-.41-.64-.41-.02 0-.04 0-.04.01-.01 0-.01-.01-.01-.01-.15 0-.47.14-.47.14-.03.07-.31.8-.32 1.18.13 0 .27-.65.3.48-.09.19-.09.53-.07.89.01.19.02.35.02.56v.24c-.07.05-.13.1-.18.17-.01.01-.06.11-.1.19a.476.476 0 00-.23-.07c-.12 0-.23.02-.34.05-.14.04-.25.09-.35.13h-1.48c-.07-.08-.15-.15-.25-.22-.05-.04-.1-.07-.13-.09v-.07h-.01c.01-.06.01-.12 0-.18-.02-.18-.12-.26-.18-.41-.05-.1-.05-.08-.04-.21 0-.1.02-.19.02-.3 0-.12-.05-.2-.11-.28-.01-.68-.11-1.08-.21-1.62.02-.63.18-1.48.09-2.03.11-.35.26-.8.25-1.46-.04-.22-.08-.03-.11.04.07-.71.13-1.46.19-2.24.03-.39.05-.79.08-1.19l.03-.58v-.43c.25 0 .51-.12.73-.22h.58c.35.08.72.1 1.07.02.2-.05.37-.14.52-.27.07-.05.12-.09.18-.13h.11l.06 1.18c.02.26.03.51.03.74 0 .45-.05.81-.23.96l.03-.36c-.08-.32-.09-.91-.19-.87l-.08.57v1.89c.01.06.06.32.12.38.02.03.04.05.07.07.01.01.02.02.03.04.24-.07.3.09.53.04-.02-.04.05-.06.07-.08.02-.02.1-.02.18-.03.04-.09.09-.18.14-.28.07-.14.14-.27.18-.37.69-1.21.85-1.22.99-1.19l.63-1.18c.14-.37.35-.72.54-1.02l.07-.12h1.99c.21-.06.42-.07.58-.05.13.01.23.03.33.05h.06c-.26.41-.46.85-.66 1.29l-.6 1.06c-.25.35-.53.67-.78 1.02-.24.34-.31.74-.43 1.11l-.57 1.01v.03l1.05 1.9c.07.09.13.15.17.19.14.22.7 1.08.49.98.31.41.6.88.88 1.37l.44.81z"/><path d="M301.92 197.18c-.03.26-.05.55-.01 1 0-.01.01-.02.01-.03v-.97zm19.93 2.18c-.03-.34-.06-.65-.03-1.51l-.03-.25c-.39.04-.77.06-1.09.07l-.9.03c-.61.01-1.21.03-1.75.12.09-.07-.11-.08-.34-.08-.21 0-.49.03-.61.04-.03.01-.06.02-.11.03-.01-.03-.02-.07-.03-.11v-2.03h3.5v-1.25l.06-.6c-.01-.12-.04.02-.06.08v-.64h-.02c-.22-.05-.53-.11-.83 0h-1.96c-.21-.02-.43-.04-.65-.03 0-.12-.02-.24-.03-.36v-1.21h.03c.08.01.16-.04.21-.24.08.02.18.03.28.04.05 0 .11.01.16.02.03 0 .06 0 .09.01.05 0 .1 0 .15.01.36-.05 1.26.03 1.2-.14.25-.06.49.14.76.01l.14-.07s.01 0 .02-.01c.03 0 .7-.08 1.03-.01.35.06.55-.12.55-.12.08-.02.14-.15.17-.36.02-.1.03-.23.04-.37.01-.11.01-.19.01-.29 0-.1 0-.2-.01-.31-.01-.12-.01-.25-.02-.38-.02-.34-.04-.7-.05-1.06-.37.02-.72.03-1.05.04h-.18c-1.28-.13-2.4.35-2.4.35-.14-.01-.28-.01-.42-.02-.59-.04-1.17-.08-1.72-.13-.28-.03-.55-.05-.82-.07l-.2-.02-.15-.01c-.11.04-.23.07-.36.07-.03 0-.11 0-.16-.01h-.01c-.02.01-.04.03-.05.03-.09.06-.18.09-.28.12-.03.3-.07.59-.13.83.03.08.04.17.03.26.04.12.04.27-.03.38l-.06.09c-.01.46-.1 1.01-.12 1.45.13.66.27 1.1.18 2.22l.11-.04.06.9c.02-.22.01.96.01.96-.01.18.07.44 0 .58.05.62.07 1.24.01 1.86.05.22.09.44.11.66.02.24-.04.56-.01.83.16.06.29.19.29.42v.01c0 .04-.01.07-.02.1h.13c.05.01.11.02.17.03.19.03.39.05.58.08.46-.03.92-.12 1.37.04.07.03.15.04.22.07.27-.01.64.01.95 0 .55.16 1.18.42 2.05.33.3-.04.12-.13.42-.17.51.06 1.32.05 1.75.02-.01-.24-.03-.46-.05-.67-.06-.21-.07-.41-.1-.62zm-23.15-5.33c-.04-.37-.13-.15-.17-.52.08-1.08.03-1.6-.03-2.14-.03-.27-.06-.54-.08-.88-.01-.17-.02-.36-.02-.58v-.35c0-.16.01-.34.01-.52-.02-.17-.03-.33-.05-.5-.3.02-.59.03-.87.05-.24.01-.48.01-.73.02l-1.54.03c.01.28.02.55.04.8s.04.46.07.67c-.14-.22-.06.94-.04 1.23.02.05.04.15.05.28v2.5c0 .72.13 1.96.13 1.96h-.03s-.51-1.21-.96-1.96l-.83-1.4-.32-.67c-.08-.12-.03.02-.01.1l-.42-.7c-.13-.32-.24-.62-.52-.88l-1.08-1.81h-.3c-.4-.03-.86-.05-1.3 0h-1.24v.28a.139.139 0 00-.09 0c-.05.03-.1.14-.13.46-.03.18-.05.41-.06.72.31.45.41 1.02.37 1.57-.01.13-.04.25-.08.37.03.14.05.27.05.42 0 .15-.02.29-.05.43v3.01l-.03.28c.02.18.03.36 0 .56-.06.49-.22.77-.16 1.22.03.07.06.14.08.23.12.07.2.19.2.37 0 .25-.01.5.01.75 0 .13-.04.22-.1.29v.55h1.78c.36.02.73.03 1.09.05.02-.32.04-.65.05-.96l.06-.89c.03-.43.07-.84.1-1.25-.01-.09-.02-.19-.02-.28-.02.02-.03 0-.05-.11-.01-.75.14-1.26.25-1.66a33.2 33.2 0 01-.03-.39c.03.05.06.1.09.16.01-.05.02-.1.03-.14l-.03.15c.11.2.23.42.36.67l.07-.09.13.2c.17-.01.33.08.44.22.08.11.14.23.18.36l1.16 1.94c.13.13.19.3.23.48.24.36.38.76.5 1.19.01.02 0 .03.01.05.11.18.23.37.35.55.63-.02.98-.03 1.22.07 1.29-.03.55-.17.55-.3h.84c.12.01.24.03.39.04l.06-.5c.02-.18.04-.36.06-.49.03-.17.06-.3.1-.39.04-.32.01-.58-.01-.88-.06-.27-.02-.94-.03-1.48.12-.73.39-1.5.3-2.56zm-2.87 6.55c-.18.01-.3.02-.4.03a.89.89 0 00-.18.03c-.05.02.04.03.18.05.12.02.35.03.4.05.08.02.12.04.06.07l.95.01c.03-.13-.92-.14-1.01-.24zm38.44-.21c-.33.01-.67.01-1 .03l-.51.03c-.16.01-.28.03-.42.06-.35-.02-.62-.01-.85 0l-.39.03c-.13.01-.26.02-.39.04-.09-.14-.18-.27-.27-.4-.08-.12-.15-.24-.23-.36-.14-.23-.29-.51-.46-.94-.16-.22-.17-.03-.33-.25-.44-.64-.48-1.29-.56-1.77a.91.91 0 00-.36-.03c-.01.09-.03.15-.05.18-.02.04-.03.04-.05.02l-.02-.02c-.04-.01-.07-.01-.07-.02a.435.435 0 00-.07-.06s-.01-.01-.02-.01c-.57.32-.68 1.33-.68 1.33.13 0 .27-.54.3.4-.09.16-.09.44-.07.74.01.23.03.54.02.79-.08.05-.14.13-.17.23-.09 0-.18 0-.25.01-.16-.02-.32-.03-.48-.02-.27.01-.52.11-.77.17-.57-.05-1.59-.1-1.59-.1l-.04-.69-.11.08c.02-.41.03-.58.03-.77 0-.19-.02-.35-.04-.5-.04-.3-.11-.55-.17-.84.02-.53.18-1.23.09-1.68.11-.29.26-.67.25-1.21-.04-.18-.08-.02-.11.03.11-.9.2-1.88.27-2.91l.03-.47v-1.53c.02-.29.06-.57.09-.86.01-.09.01-.17.01-.26.1-.05.19-.13.24-.26.01-.02.02-.03.05-.04 0 0 3.88.08 3.97.15.09.07 2.96.11 3.11.22.15.11.95-.17 1.06 0 .11.17-.13.32 0 .6 0 0 .02.82.11 1.06.09.24-.16 1.64-.16 1.64-.01.06-.01.11-.02.17-.02.13-.04.26-.07.39-.06.59-.27 1.18-.6 1.68-.01.01-.02.03-.03.04-.29.43-.67.79-1.13 1.03v.03s.16.21.43.69l.89 1.6c.06.07.11.12.15.15.12.18.6.88.4.81.33.36.7.98 1.04 1.57z"/><path d="M333.17 192.2h-.02v.04c.01-.01.01-.02.02-.04z"/></g><path d="M376.61 303.44c-2.71.27-5.42.55-8.13.83-.95-1.66-1.9-3.32-2.84-4.98-1.41-3.26-2.91-6.78-3.84-6.73-3.46.2-6.91.44-10.37.7l3.35-.87c-1.01-1.76-2.01-3.52-3.02-5.28-1.49-3.33-3.09-6.97-3.91-6.85-39.16 5.79-79.85 9.23-117.43 22.28.71-.25 6.02 12.45 6.93 12.13 3.67-1.28 7.38-2.44 11.11-3.54 1.04 2 2.41 4.71 3.52 6.71-.59.25-1.19.5-1.78.76l2.52 4.41c1.7 3.51 3.74 7.82 4.41 7.73 42.03-5.91 84.18-10.96 126.42-15.15-1.81.16-4.95-12.35-6.94-12.15z" fill="#fff"/><path fill="none" stroke="#fff" stroke-linecap="round" stroke-linejoin="round" stroke-miterlimit="10" d="M211.001 263.31l175.33-24.972 4.025 28.265-175.33 24.97zm11.763 82.584l37.957-5.406 4.025 28.264-37.956 5.406zm37.962-5.408L398.1 320.921l4.025 28.265-137.372 19.565zm-45.691-48.906l175.33-24.971 7.734 54.311-175.329 24.971z"/><text transform="rotate(-8.11 2089.138 -1446.272)" fill="#fff" font-family="MuseoSansCyrl-500" font-size="13.557">Защищено от подделок</text><path d="M237.51 365.83c.07.46.06.9 0 1.32-.07.42-.21.8-.42 1.14-.22.34-.53.63-.93.86-.4.24-.9.4-1.5.48l-4.76.68-3.08-21.6 4.76-.68c.6-.09 1.13-.07 1.58.05.45.12.83.31 1.13.57.3.26.54.59.73.98.18.39.31.81.37 1.27l2.12 14.93zm-3.2 1.41c.33-.05.56-.18.68-.38.12-.21.16-.43.12-.68l-2.13-14.94c-.04-.25-.14-.46-.31-.62-.17-.17-.42-.23-.76-.18l-2.37.34 2.39 16.81 2.38-.35zm12.45-3.55l-4.26.61.09 4.21-2.4.34-.62-21.95 5.1-.73 5.57 21.24-2.43.35-1.05-4.07zm-.56-2.14l-3.33-12.67-.81.12.37 13.09 3.77-.54zm11.48-17.23l.34 2.4-3.95.56 2.74 19.2-2.4.34-2.74-19.2-3.95.56-.34-2.4 10.3-1.46z" fill="#fff"/><circle cx="262.75" cy="354.61" r="4.97" fill="none" stroke="#fff" stroke-linecap="round" stroke-linejoin="round" stroke-miterlimit="10"/><path d="M262.05 349.69l1.4 9.85c2.72-.39 4.61-2.91 4.22-5.62a4.96 4.96 0 00-5.62-4.23z" fill="#fff"/><text transform="rotate(-8.11 2651.15 -1758.708)" fill="#fff" font-family="MuseoSansCyrl-900" font-size="8.133">система бренд-контроля</text><defs><path id="a" d="M376.61 303.44c-2.71.27-5.42.55-8.13.83-.95-1.66-1.9-3.32-2.84-4.98-1.41-3.26-2.91-6.78-3.84-6.73-3.46.2-6.91.44-10.37.7l3.35-.87c-1.01-1.76-2.01-3.52-3.02-5.28-1.49-3.33-3.09-6.97-3.91-6.85-39.16 5.79-79.85 9.23-117.43 22.28.71-.25 6.02 12.45 6.93 12.13 3.67-1.28 7.38-2.44 11.11-3.54 1.04 2 2.41 4.71 3.52 6.71-.59.25-1.19.5-1.78.76l2.52 4.41c1.7 3.51 3.74 7.82 4.41 7.73 42.03-5.91 84.18-10.96 126.42-15.15-1.81.16-4.95-12.35-6.94-12.15z"/></defs><clipPath id="b"><use xlink:href="#a" overflow="visible"/></clipPath><g clip-path="url(#b)" fill="#c1c9d7"><path d="M238.8 325.17l6.08-.87-1.7-11.92c-.15-1.08-.27-2.21-.27-2.21l-.08.01s-.25.85-.9 1.68l-1.5 1.81-4.66-3.74 6.69-8.34 6.04-.86 3.22 22.6 6.12-.87.85 6-19.04 2.71-.85-6zm22.18-.18c-1.5-10.56 10.59-14.2 10-18.32-.28-2-2.01-2.61-3.48-2.4-1.84.26-3.2 1.92-3.81 3.64l-5.7-2.74c1.22-3.48 4.04-6.86 9.2-7.6 4.68-.67 10.14 1.29 11.01 7.37 1.27 8.92-10.04 12.29-9.88 16.02l12.36-1.76.85 6-19.8 2.82c-.35-1.08-.61-2.07-.75-3.03zm25.85-9.39c1.64 1.2 4.04 2.04 6.24 1.72 2.6-.37 3.9-1.86 3.68-3.42-.32-2.24-2.69-2.84-5.77-2.4l-2 .28-1.96-3.19 3.12-5.06c1.13-1.83 2.1-3.03 2.1-3.03l-.01-.08s-.89.33-2.69.59l-6.84.97-.85-6 18.04-2.57.62 4.36-4.85 7.51c4.37.32 7.53 3.29 8.1 7.29.7 4.88-2.05 10.25-9.21 11.27-3.44.49-7.37-.13-10.3-2.37l2.58-5.87zm19.33-5.29l8.56-19.01 8.56-1.22 2.26 15.88 3.4-.48.83 5.8-3.4.48.99 6.92-6.92.99-.99-6.92-12.68 1.81-.61-4.25zm12.46-3.36l-.91-6.4c-.22-1.56-.22-3.23-.22-3.23l-.08.01s-.35 1.85-.98 3.16l-3.38 7.18.01.08 5.56-.8zm17.1 1.68c1.59 1.12 4 2.04 6.17 1.73 1.88-.27 3.83-1.73 3.5-4.09-.32-2.24-2.47-3.28-5.07-2.91-1.32.19-2.59.74-3.7 1.51l-3.92-.87-.97-15.13 16-2.28.85 6-9.92 1.41.22 2.66c.04.57 0 1.14 0 1.14l.08-.01c.3-.17 1.52-.5 2.04-.58 6.8-.97 10.84 2.78 11.58 7.94.84 5.92-2.91 10.82-9.15 11.71-3.52.5-7.3-.23-10.3-2.37l2.59-5.86zm30.98-25.22c2.04-.29 4.53-.28 6.5.34l-1.02 6.27c-.69-.27-2.76-.46-4.04-.28-3.36.48-4.98 2.83-5.49 5.6l.08-.01c.61-.58 2.42-1.36 3.78-1.56 5.96-.85 10.05 3.55 10.76 8.47.69 4.84-2.19 10.15-8.39 11.03-5.76.82-12.22-2.71-13.55-12.03-1.12-7.77 2.49-16.57 11.37-17.83zm3.68 19.84c-.29-2.04-1.84-4.02-4.92-3.58-1.6.23-2.9.82-2.72 2.14.48 3.4 3.21 5.34 5.21 5.05 1.77-.25 2.67-1.93 2.43-3.61z"/></g><path d="M270.58 432.22h13.13m-13.13 5.94h13.13m-13.13 5.94h13.13m5.32-11.88h26.5m-26.5 5.94h42.39m-42.39 5.94H323m-52.42 5.94h13.13m5.32 0h21.85" fill="none" stroke="#fff" stroke-linecap="round" stroke-linejoin="round" stroke-miterlimit="10"/></svg>