<svg xmlns="http://www.w3.org/2000/svg" viewBox="0 0 150 150"><path d="M73.3 46.1l-4 3.9v-.7c0-1.9-1.6-3.5-3.5-3.5H49.4c-1.9 0-3.5 1.6-3.5 3.5v16.4c0 1.9 1.6 3.5 3.5 3.5h16.4c1.9 0 3.5-1.6 3.5-3.5V52.8l5.4-5.4c.4-.4.4-1 0-1.4s-1-.3-1.4.1zm-6 5.9l-9.1 9.1-3.8-3.8c-.4-.4-1-.4-1.4 0s-.4 1 0 1.4l4.5 4.5c.2.2.4.3.7.3s.5-.1.7-.3l8.4-8.4v10.9c0 .8-.7 1.5-1.5 1.5H49.4c-.8 0-1.5-.7-1.5-1.5V49.3c0-.8.7-1.5 1.5-1.5h16.4c.8 0 1.5.7 1.5 1.5V52zM84 69.3h16.4c1.9 0 3.5-1.6 3.5-3.5v-13l5.4-5.4c.4-.4.4-1 0-1.4s-1-.4-1.4 0l-3.9 4v-.7c0-1.9-1.6-3.5-3.5-3.5H84c-1.9 0-3.5 1.6-3.5 3.5v16.4c0 2 1.5 3.6 3.5 3.6zm-1.5-20c0-.8.7-1.5 1.5-1.5h16.4c.8 0 1.5.7 1.5 1.5V52l-9.1 9.1-3.8-3.7c-.4-.4-1-.4-1.4 0s-.4 1 0 1.4l4.5 4.5c.2.2.4.3.7.3s.5-.1.7-.3l8.4-8.4v10.9c0 .8-.7 1.5-1.5 1.5H84c-.8 0-1.5-.7-1.5-1.5V49.3zM73.3 81l-4 4v-.7c0-1.9-1.6-3.5-3.5-3.5H49.4c-1.9 0-3.5 1.6-3.5 3.5v16.4c0 1.9 1.6 3.5 3.5 3.5h16.4c1.9 0 3.5-1.6 3.5-3.5V87.8l5.4-5.4c.4-.4.4-1 0-1.4s-1-.4-1.4 0zm-6 6l-9.1 9.1-3.8-3.8c-.4-.4-1-.4-1.4 0s-.4 1 0 1.4l4.5 4.5c.2.2.5.3.7.3s.5-.1.7-.3l8.4-8.4v10.9c0 .8-.7 1.5-1.5 1.5H49.4c-.8 0-1.5-.7-1.5-1.5V84.3c0-.8.7-1.5 1.5-1.5h16.4c.8 0 1.5.7 1.5 1.5V87zm40.6-6l-3.9 4v-.7c0-1.9-1.6-3.5-3.5-3.5H84c-1.9 0-3.5 1.6-3.5 3.5v16.4c0 1.9 1.6 3.5 3.5 3.5h16.4c1.9 0 3.5-1.6 3.5-3.5V87.8l5.4-5.4c.4-.4.4-1 0-1.4s-1-.4-1.4 0zm-5.9 6l-9.1 9.1-3.9-3.8c-.4-.4-1-.4-1.4 0s-.4 1 0 1.4l4.5 4.5c.2.2.5.3.7.3s.5-.1.7-.3l8.4-8.4v10.9c0 .8-.7 1.5-1.5 1.5H84c-.8 0-1.5-.7-1.5-1.5V84.3c0-.8.7-1.5 1.5-1.5h16.4c.8 0 1.5.7 1.5 1.5V87z" fill="#778a97"/></svg>