<svg xmlns="http://www.w3.org/2000/svg" viewBox="0 0 150 150"><path d="M106.4 104.6H89.5v-14c.5.1 1 .1 1.4.1 2.4 0 4.8-1 6.6-2.7 2.3-2.3 3.3-5.8 2.4-9-.1-.3-.4-.6-.7-.7-.6-.2-1.1-.2-1.7-.3 2.3-2.3 3.3-5.8 2.4-9-.1-.3-.4-.6-.7-.7-.5-.1-1-.2-1.4-.3 2.1-2.3 3-5.6 2.1-8.7-.1-.3-.4-.6-.7-.7-2-.5-4.1-.4-5.9.4.3-.9.4-1.7.4-2.7 0-3.3-1.8-6.4-4.7-8-.3-.2-.7-.2-1 0-2.9 1.7-4.7 4.7-4.7 8 0 .9.1 1.8.4 2.7-1.9-.8-4-.9-6-.4-.3.1-.6.4-.7.7-.8 3.1 0 6.3 2.1 8.7-.5.1-1 .1-1.4.3-.3.1-.6.4-.7.7-.9 3.2.1 6.6 2.4 9-.6 0-1.2.1-1.7.3-.3.1-.6.4-.7.7-.9 3.2.1 6.6 2.4 9 1.8 1.8 4.1 2.7 6.6 2.7.5 0 .9 0 1.4-.1v14H62.5V85.7c.5.1 1 .1 1.4.1 2.4 0 4.8-1 6.6-2.7 2.3-2.3 3.3-5.8 2.4-9-.1-.3-.4-.6-.7-.7-.6-.2-1.1-.2-1.7-.3 2.3-2.3 3.3-5.8 2.4-9-.1-.3-.4-.6-.7-.7-.5-.1-1-.2-1.4-.3 2.1-2.3 3-5.6 2.1-8.7-.1-.3-.4-.6-.7-.7-2-.5-4.1-.4-6 .4.3-.9.4-1.7.4-2.7 0-3.3-1.8-6.4-4.7-8-.3-.2-.7-.2-1 0-2.9 1.7-4.7 4.7-4.7 8 0 .9.1 1.8.4 2.7-1.9-.8-4-.9-6-.4-.3.1-.6.4-.7.7-.8 3.1 0 6.3 2.1 8.7-.5.1-1 .1-1.4.3-.3.1-.6.4-.7.7-.9 3.2.1 6.6 2.4 9-.6 0-1.2.1-1.7.3-.3.1-.6.4-.7.7-.9 3.2.1 6.6 2.4 9 1.8 1.8 4.1 2.7 6.6 2.7.5 0 .9 0 1.4-.1v18.9H43.6c-.6 0-1 .4-1 1s.4 1 1 1h62.8c.6 0 1-.4 1-1s-.4-1-1-1zM88.5 70.8l1.5.3c-.6.6-1.1 1.4-1.5 2.1-.4-.8-.9-1.5-1.5-2.1.6-.1 1-.2 1.5-.3zm0 9.6c.6.2 1.2.2 1.8.3-.7.7-1.3 1.5-1.7 2.4-.4-.9-1-1.7-1.7-2.4.5 0 1-.1 1.6-.3zm7.6 6.2c-1.7 1.7-4.1 2.4-6.5 2-.4-2.3.3-4.8 2-6.5 1.7-1.7 4.1-2.4 6.5-2 .5 2.4-.3 4.8-2 6.5zm0-10c-1.7 1.7-4.1 2.4-6.5 2-.4-2.3.3-4.8 2-6.5 1.7-1.7 4.1-2.4 6.5-2 .5 2.4-.3 4.8-2 6.5zm2-16.1c.4 2.3-.3 4.8-2 6.5-1.7 1.7-4.1 2.4-6.5 2-.4-2.3.3-4.8 2-6.5 1.8-1.7 4.2-2.4 6.5-2zm-9.6-10c2 1.4 3.2 3.6 3.2 6s-1.2 4.6-3.2 6c-2-1.4-3.1-3.6-3.1-6s1.2-4.7 3.1-6zm-9.6 10c2.3-.4 4.8.3 6.5 2 1.7 1.7 2.4 4.1 2 6.5-2.3.4-4.8-.3-6.5-2-1.7-1.7-2.4-4.1-2-6.5zm0 9.7c2.3-.4 4.8.3 6.5 2 1.7 1.7 2.4 4.1 2 6.5-2.3.4-4.8-.3-6.5-2-1.7-1.8-2.4-4.2-2-6.5zm8.5 18.4c-2.3.4-4.8-.3-6.5-2-1.7-1.7-2.4-4.1-2-6.5 2.3-.4 4.8.3 6.5 2 1.7 1.8 2.4 4.2 2 6.5zm-26-22.7c.1 0 .1 0 0 0 .1 0 .1 0 0 0l1.5.3c-.6.6-1.1 1.4-1.5 2.1-.4-.8-.9-1.5-1.5-2.1.6-.1 1.1-.2 1.5-.3zm0 9.7c.1 0 .1 0 0 0 .1 0 .1 0 0 0 .6.2 1.2.2 1.8.3-.7.7-1.3 1.5-1.7 2.4-.4-.9-1-1.7-1.7-2.4.5-.1 1.1-.2 1.6-.3zm7.7 6.1c-1.7 1.7-4.1 2.4-6.5 2-.4-2.3.3-4.8 2-6.5 1.7-1.7 4.1-2.4 6.5-2 .4 2.4-.3 4.8-2 6.5zm0-10c-1.7 1.7-4.1 2.4-6.5 2-.4-2.3.3-4.8 2-6.5 1.7-1.7 4.1-2.4 6.5-2 .4 2.4-.3 4.8-2 6.5zm2-16.1c.4 2.3-.3 4.8-2 6.5-1.7 1.7-4.1 2.4-6.5 2-.4-2.3.3-4.8 2-6.5 1.7-1.7 4.1-2.4 6.5-2zm-9.6-10c2 1.3 3.1 3.6 3.1 6s-1.2 4.6-3.1 6c-2-1.4-3.1-3.6-3.1-6-.1-2.4 1.1-4.7 3.1-6zm-9.6 10c2.3-.4 4.8.3 6.5 2 1.7 1.7 2.4 4.1 2 6.5-2.3.4-4.8-.3-6.5-2-1.7-1.7-2.5-4.1-2-6.5zm0 9.7c2.3-.4 4.8.3 6.5 2 1.7 1.7 2.4 4.1 2 6.5-2.3.4-4.8-.3-6.5-2-1.7-1.8-2.5-4.2-2-6.5zm8.5 18.4c-2.3.4-4.8-.3-6.5-2-1.7-1.7-2.4-4.1-2-6.5 2.3-.4 4.8.3 6.5 2 1.6 1.8 2.4 4.2 2 6.5z" fill="#778a97"/></svg>