<?xml version="1.0" encoding="utf-8"?>
<!-- Generator: Adobe Illustrator 27.1.1, SVG Export Plug-In . SVG Version: 6.00 Build 0)  -->
<svg version="1.1" id="Layer_1" xmlns="http://www.w3.org/2000/svg" xmlns:xlink="http://www.w3.org/1999/xlink" x="0px" y="0px"
	 viewBox="0 0 150 150" style="enable-background:new 0 0 150 150;" xml:space="preserve">
<g>
	<g>
		<path style="fill:#778A97;" d="M86.8,75.1h-7.6c-0.4-1.5-1.6-2.7-3.1-3.1V61.2c0-0.6-0.5-1.1-1.1-1.1c-0.6,0-1.1,0.5-1.1,1.1V72
			c-1.8,0.5-3.2,2.1-3.2,4.1c0,2.4,1.9,4.3,4.3,4.3c2,0,3.6-1.4,4.1-3.2h7.6c0.6,0,1.1-0.5,1.1-1.1S87.4,75.1,86.8,75.1z M75,78.3
			c-1.2,0-2.1-1-2.1-2.1c0-1.2,1-2.1,2.1-2.1s2.1,1,2.1,2.1C77.1,77.3,76.2,78.3,75,78.3z"/>
		<path style="fill:#778A97;" d="M97.6,54.3l4.4,4.4c0.2,0.2,0.5,0.3,0.8,0.3s0.6-0.1,0.8-0.3c3.4-3.4,3.4-8.9,0-12.3
			c-3.4-3.4-8.9-3.4-12.3,0c-0.2,0.2-0.3,0.5-0.3,0.8c0,0.3,0.1,0.6,0.3,0.8l4.9,4.9l-1.8,1.8c-5.1-4.6-11.9-7.4-19.3-7.4
			s-14.1,2.8-19.3,7.4l-1.8-1.8l4.9-4.9c0.2-0.2,0.3-0.5,0.3-0.8c0-0.3-0.1-0.6-0.3-0.8c-3.4-3.4-8.9-3.4-12.3,0
			c-3.4,3.4-3.4,8.9,0,12.3c0.2,0.2,0.5,0.3,0.8,0.3c0.3,0,0.6-0.1,0.8-0.3l4.4-4.4l1.8,1.8c-5,5.2-8.1,12.3-8.1,20
			c0,10.6,5.7,19.9,14.3,24.9l-3.2,3.2c-0.4,0.4-0.4,1.1,0,1.5c0.2,0.2,0.5,0.3,0.8,0.3c0.3,0,0.5-0.1,0.8-0.3l3.7-3.7
			c3.8,1.9,8.1,2.9,12.7,2.9s8.8-1.1,12.7-2.9l3.7,3.7c0.2,0.2,0.5,0.3,0.8,0.3s0.5-0.1,0.8-0.3c0.4-0.4,0.4-1.1,0-1.5l-3.2-3.2
			c8.5-5,14.3-14.3,14.3-24.9c0-7.8-3.1-14.8-8.1-20L97.6,54.3z M102,47.9c2.3,2.3,2.5,5.9,0.7,8.4l-9.1-9.1
			C96.1,45.4,99.7,45.6,102,47.9z M47.3,56.4c-1.8-2.6-1.6-6.1,0.7-8.4c2.3-2.3,5.9-2.5,8.4-0.7L47.3,56.4z M75,102.9
			c-14.7,0-26.7-12-26.7-26.7s12-26.7,26.7-26.7s26.7,12,26.7,26.7S89.7,102.9,75,102.9z"/>
		<path style="fill:#778A97;" d="M96.3,63.8c-2.2-3.7-5.2-6.8-8.9-8.9c0,0,0,0,0,0c0,0,0,0-0.1,0c-3.6-2.1-7.8-3.3-12.2-3.3
			s-8.6,1.2-12.2,3.3c0,0,0,0-0.1,0c0,0,0,0,0,0c-3.7,2.2-6.8,5.2-8.9,8.9c0,0,0,0,0,0c0,0,0,0,0,0.1c-2.1,3.6-3.3,7.8-3.3,12.2
			s1.2,8.6,3.3,12.2c0,0,0,0,0,0.1c0,0,0,0,0.1,0.1c2.2,3.7,5.2,6.7,8.9,8.9c0,0,0,0,0,0c0,0,0.1,0,0.1,0c3.6,2.1,7.8,3.3,12.2,3.3
			s8.6-1.2,12.2-3.3c0,0,0.1,0,0.1,0c0,0,0,0,0,0c3.7-2.1,6.8-5.2,8.9-8.9c0,0,0,0,0.1-0.1c0,0,0,0,0-0.1c2.1-3.6,3.3-7.8,3.3-12.2
			s-1.2-8.6-3.3-12.2C96.3,63.9,96.3,63.9,96.3,63.8C96.3,63.8,96.3,63.8,96.3,63.8z M87.1,95l-0.5-0.9c-0.3-0.5-0.9-0.7-1.5-0.4
			c-0.5,0.3-0.7,0.9-0.4,1.5l0.5,0.9c-2.8,1.4-5.9,2.3-9.2,2.5v-1c0-0.6-0.5-1.1-1.1-1.1c-0.6,0-1.1,0.5-1.1,1.1v1
			c-3.3-0.2-6.4-1-9.2-2.5l0.5-0.9c0.3-0.5,0.1-1.2-0.4-1.5c-0.5-0.3-1.2-0.1-1.5,0.4L62.9,95c-2.7-1.7-5-4-6.7-6.7l0.9-0.5
			c0.5-0.3,0.7-0.9,0.4-1.5c-0.3-0.5-0.9-0.7-1.5-0.4l-0.9,0.5c-1.4-2.8-2.3-5.9-2.5-9.2h1c0.6,0,1.1-0.5,1.1-1.1s-0.5-1.1-1.1-1.1
			h-1c0.2-3.3,1-6.4,2.5-9.2l0.9,0.5c0.2,0.1,0.4,0.1,0.5,0.1c0.4,0,0.7-0.2,0.9-0.5c0.3-0.5,0.1-1.2-0.4-1.5L56.1,64
			c1.7-2.7,4-5,6.7-6.7l0.5,0.9c0.2,0.3,0.6,0.5,0.9,0.5c0.2,0,0.4,0,0.5-0.1c0.5-0.3,0.7-0.9,0.4-1.5l-0.5-0.9
			c2.8-1.4,5.9-2.3,9.2-2.5v1c0,0.6,0.5,1.1,1.1,1.1c0.6,0,1.1-0.5,1.1-1.1v-1c3.3,0.2,6.4,1,9.2,2.5l-0.5,0.9
			c-0.3,0.5-0.1,1.2,0.4,1.5c0.2,0.1,0.4,0.1,0.5,0.1c0.4,0,0.7-0.2,0.9-0.5l0.5-0.9c2.7,1.7,5,4,6.7,6.7L93,64.5
			c-0.5,0.3-0.7,0.9-0.4,1.5c0.2,0.3,0.6,0.5,0.9,0.5c0.2,0,0.4,0,0.5-0.1l0.9-0.5c1.4,2.8,2.3,5.9,2.5,9.2h-1
			c-0.6,0-1.1,0.5-1.1,1.1c0,0.6,0.5,1.1,1.1,1.1h1c-0.2,3.3-1,6.4-2.5,9.2l-0.9-0.5c-0.5-0.3-1.2-0.1-1.5,0.4
			c-0.3,0.5-0.1,1.2,0.4,1.5l0.9,0.5C92.1,91,89.8,93.3,87.1,95z"/>
	</g>
</g>
</svg>
