<svg xmlns="http://www.w3.org/2000/svg" viewBox="0 0 150 150"><g fill="#778a97"><path d="M106.5 68.3v-3.2c0-.6-.4-1-1-1h-5.6v-6.2c0-.6-.4-1-1-1h-6.3L79.7 36.4c-.3-.5-.9-.6-1.4-.3L57.1 49.3c-.2.1-.4.4-.4.6-.1.3 0 .5.1.8l3.9 6.2h-9.6c-.6 0-1 .4-1 1v6.2h-5.6c-.6 0-1 .4-1 1v3.2c-2 .2-3.6 1.9-3.6 4v6.5c0 5.7 4.6 10.3 10.2 10.5v23.9c0 .6.4 1 1 1h47.8c.6 0 1-.4 1-1v-24c5.6-.1 10.2-4.8 10.2-10.5v-6.5c0-2-1.6-3.7-3.6-3.9zm-2-2.2v6.3h-4.6v-6.3h4.6zm-26-27.8L90.2 57H72.9l-6.8-10.9 12.4-7.8zM59 50.5l5.4-3.4 6.1 9.8H63l-4-6.4zM45.5 66.1h4.6v6.3h-4.6v-6.3zm-3.6 12.6v-6.5c0-1 .7-1.8 1.6-2v3.1c0 .6.4 1 1 1h5.6v12.8c-4.5 0-8.2-3.8-8.2-8.4zm10.2 33.4v-53h28.4v6.7c0 .6.4 1 1 1s1-.4 1-1v-6.7h15.4v53H52.1zm56-33.4c0 4.6-3.7 8.3-8.2 8.5V74.4h5.6c.6 0 1-.4 1-1v-3.1c.9.2 1.6 1 1.6 2v6.4z"/><path d="M90 76.1h-6.5c-.6 0-1 .4-1 1v4.5l-8.2 6.6c-.3.3-.5.7-.3 1.1s.5.7.9.7h7.6v3.9c0 .6.4 1 1 1H90c.6 0 1-.4 1-1V77.1c0-.5-.4-1-1-1zm-1 16.8h-4.5V89c0-.6-.4-1-1-1h-5.8l6.4-5.1.2-.2v-.1c0-.1.1-.1.1-.2v-4.3H89v14.8zM76 81.7c-.1-.4-.5-.7-.9-.7h-7.6v-3.9c0-.6-.4-1-1-1H60c-.6 0-1 .4-1 1v16.8c0 .6.4 1 1 1h6.5c.6 0 1-.4 1-1v-4.5l8.2-6.6c.3-.2.5-.7.3-1.1zm-10.2 6.5l.6.7-.6-.7c-.3.2-.4.6-.4 1V93H61V78.1h4.5V82c0 .6.4 1 1 1h5.8l-6.5 5.2z"/></g></svg>