<?xml version="1.0" encoding="utf-8"?>
<!-- Generator: Adobe Illustrator 27.1.1, SVG Export Plug-In . SVG Version: 6.00 Build 0)  -->
<svg version="1.1" id="Layer_1" xmlns="http://www.w3.org/2000/svg" xmlns:xlink="http://www.w3.org/1999/xlink" x="0px" y="0px"
	 viewBox="0 0 150 150" style="enable-background:new 0 0 150 150;" xml:space="preserve">
<g>
	<path style="fill:#778A97;" d="M112.67,72.36c0.09-1.06-0.27-2.13-1-2.92c-0.73-0.8-1.78-1.26-2.86-1.26h-0.83v-2.82
		c0-0.55-0.45-1-1-1h-5.26v-6.66c0-0.02-0.01-0.04-0.01-0.07c-0.06-5.49-7.93-10.02-19.67-11.38l-4.08-9.47
		c-0.22-0.51-0.81-0.74-1.31-0.52l-16.65,7.15c-0.24,0.1-0.44,0.3-0.53,0.55c-0.1,0.25-0.09,0.52,0.01,0.77l1.25,2.9
		c-7.8,2.15-12.43,5.88-12.43,10.08c0,0.04,0.01,0.07,0.01,0.1v6.56h-5.26c-0.55,0-1,0.45-1,1v2.82h-0.83
		c-1.09,0-2.13,0.46-2.86,1.26c-0.72,0.79-1.09,1.85-0.99,2.92c0.73,8.39,4.7,13.37,10.95,13.85v15.73
		c0,6.66,11.73,11.88,26.71,11.88s26.71-5.22,26.71-11.88V86.22C107.96,85.74,111.94,80.76,112.67,72.36z M105.98,66.36v5.65h-4.26
		v-5.65H105.98z M99.71,57.7c0,0.21-0.02,0.41-0.05,0.61c0,0.01,0,0.02,0,0.02c-0.03,0.17-0.08,0.33-0.13,0.49
		c-0.02,0.05-0.03,0.1-0.04,0.15c-0.05,0.15-0.12,0.3-0.19,0.45c-0.02,0.05-0.05,0.1-0.07,0.15c-0.08,0.15-0.16,0.29-0.25,0.44
		c-0.02,0.04-0.05,0.08-0.08,0.11c-0.1,0.15-0.21,0.3-0.32,0.44c-0.01,0.01-0.02,0.03-0.04,0.04c-0.39,0.48-0.85,0.92-1.3,1.29
		c-0.08-0.05-0.16-0.1-0.24-0.15c-0.15-0.1-0.3-0.19-0.45-0.28c-0.21-0.13-0.42-0.25-0.64-0.37c-0.16-0.09-0.32-0.18-0.48-0.26
		c-0.23-0.12-0.48-0.24-0.72-0.36c-0.17-0.08-0.33-0.16-0.5-0.24c-0.27-0.12-0.55-0.24-0.83-0.36c-0.16-0.07-0.32-0.14-0.48-0.2
		c-0.35-0.14-0.71-0.27-1.08-0.4c-0.11-0.04-0.21-0.08-0.31-0.11C91,59.01,90.5,58.86,90,58.71c-0.14-0.04-0.28-0.07-0.41-0.11
		c-0.38-0.11-0.76-0.21-1.15-0.31c-0.2-0.05-0.4-0.09-0.6-0.14c-0.25-0.06-0.5-0.12-0.76-0.18l-4.13-9.59
		C92.76,49.73,99.71,53.55,99.71,57.7z M71.88,67.5c-0.31-0.02-0.62-0.04-0.93-0.06c-0.21-0.01-0.42-0.03-0.63-0.04
		c-0.29-0.02-0.58-0.05-0.87-0.08c-0.23-0.02-0.45-0.04-0.68-0.07c-0.27-0.03-0.54-0.06-0.81-0.09c-0.23-0.03-0.47-0.06-0.7-0.09
		c-0.26-0.04-0.52-0.07-0.78-0.11c-0.24-0.04-0.47-0.07-0.7-0.11c-0.25-0.04-0.49-0.08-0.74-0.13c-0.24-0.04-0.48-0.09-0.71-0.14
		c-0.23-0.05-0.46-0.09-0.69-0.14c-0.24-0.05-0.48-0.11-0.73-0.16c-0.21-0.05-0.42-0.1-0.63-0.15c-0.25-0.06-0.5-0.13-0.75-0.2
		c-0.19-0.05-0.37-0.1-0.56-0.15c-0.29-0.08-0.57-0.17-0.86-0.26c-0.13-0.04-0.27-0.08-0.4-0.12c-0.41-0.13-0.82-0.27-1.21-0.41
		c-0.04-0.02-0.08-0.03-0.13-0.05c-0.35-0.13-0.69-0.26-1.02-0.4c-0.1-0.04-0.2-0.09-0.3-0.13c-0.27-0.11-0.53-0.23-0.78-0.35
		c-0.11-0.05-0.22-0.11-0.33-0.16c-0.23-0.12-0.47-0.23-0.69-0.35c-0.11-0.06-0.21-0.12-0.31-0.18c-0.14-0.08-0.27-0.16-0.4-0.24
		c0.38-0.23,0.78-0.45,1.2-0.66c0.12-0.06,0.26-0.12,0.39-0.18c0.32-0.15,0.64-0.3,0.98-0.45c0.17-0.07,0.34-0.14,0.51-0.21
		c0.32-0.13,0.65-0.26,0.99-0.38c0.18-0.07,0.37-0.13,0.56-0.2c0.37-0.13,0.75-0.25,1.13-0.36c0.17-0.05,0.33-0.1,0.5-0.15
		c0.56-0.16,1.13-0.31,1.72-0.46c0.03-0.01,0.05-0.01,0.08-0.02c0.56-0.13,1.14-0.26,1.74-0.37c0.2-0.04,0.4-0.07,0.59-0.11
		c0.29-0.05,0.58-0.1,0.87-0.15l1.77,4.1c0.16,0.37,0.52,0.6,0.92,0.6h8.09c0.14,0,0.27-0.03,0.4-0.08l9.63-4.15
		c0.29,0.06,0.58,0.13,0.87,0.2c0.13,0.03,0.26,0.06,0.38,0.09c0.48,0.12,0.95,0.24,1.4,0.37c0.12,0.04,0.24,0.07,0.36,0.11
		c0.34,0.1,0.67,0.2,0.99,0.31c0.15,0.05,0.3,0.1,0.45,0.16c0.29,0.1,0.57,0.2,0.85,0.31c0.14,0.06,0.29,0.11,0.43,0.17
		c0.29,0.12,0.57,0.24,0.85,0.36c0.11,0.05,0.22,0.09,0.32,0.14c0.37,0.17,0.74,0.35,1.08,0.53c0.06,0.03,0.11,0.06,0.17,0.09
		c0.23,0.13,0.46,0.26,0.68,0.39c-0.03,0.02-0.06,0.04-0.09,0.05c-0.25,0.15-0.51,0.29-0.78,0.43c-0.03,0.02-0.07,0.04-0.1,0.05
		c-1.84,0.96-4.06,1.76-6.55,2.39c-0.03,0.01-0.06,0.01-0.08,0.02c-0.36,0.09-0.74,0.18-1.11,0.26c-0.08,0.02-0.16,0.04-0.24,0.05
		c-0.35,0.08-0.71,0.15-1.07,0.22c-0.11,0.02-0.21,0.04-0.32,0.06c-0.35,0.06-0.7,0.12-1.06,0.18c-0.12,0.02-0.25,0.04-0.38,0.06
		c-0.35,0.05-0.7,0.1-1.05,0.15c-0.14,0.02-0.27,0.04-0.41,0.05c-0.35,0.04-0.71,0.09-1.06,0.12c-0.14,0.01-0.28,0.03-0.42,0.04
		c-0.36,0.04-0.73,0.07-1.09,0.1c-0.13,0.01-0.27,0.02-0.4,0.03c-0.38,0.03-0.76,0.05-1.14,0.07c-0.11,0.01-0.21,0.01-0.32,0.01
		c-0.91,0.04-1.83,0.07-2.76,0.07c-0.87,0-1.73-0.02-2.59-0.06C72.23,67.51,72.05,67.51,71.88,67.5z M76.51,38.49l6.43,14.91
		l2.15,4.99l-8.72,3.76h-7.22l-1.81-4.22c0,0,0,0,0,0l-3.07-7.13l-2.56-5.95L76.51,38.49z M61.5,49.48l0.41,0.96l3.06,7.11
		c-0.17,0.03-0.34,0.07-0.51,0.1c-0.27,0.05-0.53,0.1-0.79,0.15c-0.41,0.08-0.82,0.17-1.22,0.27c-0.25,0.06-0.49,0.11-0.73,0.17
		c-0.42,0.1-0.82,0.21-1.23,0.33c-0.21,0.06-0.42,0.11-0.62,0.18c-0.5,0.15-0.98,0.31-1.45,0.47c-0.09,0.03-0.19,0.06-0.29,0.1
		c-0.56,0.2-1.1,0.41-1.62,0.63c-0.15,0.06-0.29,0.13-0.43,0.19c-0.36,0.16-0.72,0.32-1.07,0.49c-0.18,0.09-0.35,0.18-0.52,0.27
		c-0.29,0.15-0.58,0.31-0.85,0.47c-0.17,0.1-0.34,0.21-0.51,0.31c-0.12,0.08-0.26,0.15-0.38,0.23c-0.34-0.28-0.69-0.6-1-0.94
		c0,0-0.01-0.01-0.01-0.01c-0.15-0.17-0.3-0.34-0.44-0.53c-0.02-0.02-0.03-0.05-0.05-0.07c-0.12-0.17-0.24-0.34-0.34-0.52
		c-0.02-0.03-0.04-0.06-0.05-0.09c-0.1-0.18-0.19-0.37-0.27-0.56c-0.01-0.03-0.02-0.05-0.03-0.08c-0.17-0.44-0.27-0.91-0.27-1.4
		c0-0.01-0.01-0.02-0.01-0.03C50.3,54.49,54.67,51.32,61.5,49.48z M44.02,66.36h4.26v5.65h-4.26V66.36z M39.33,72.19
		c-0.04-0.51,0.12-1.01,0.48-1.39c0.36-0.39,0.86-0.61,1.39-0.61h0.83v2.82c0,0.55,0.45,1,1,1h5.26V84.2
		C41.38,83.57,39.7,76.5,39.33,72.19z M99.71,101.94c0,5.35-11.32,9.88-24.71,9.88s-24.71-4.52-24.71-9.88V73.01v-7.65v-3.05
		c0.02,0.02,0.04,0.04,0.06,0.06c0.22,0.23,0.45,0.46,0.7,0.69c0.04,0.04,0.08,0.08,0.12,0.12c0.3,0.27,0.62,0.53,0.97,0.78
		c0,0,0,0,0,0c1.81,1.32,4.14,2.44,6.85,3.33c4.51,1.48,10.08,2.3,16.02,2.3c9.5,0,18.04-2.1,22.86-5.62
		c0.56-0.41,1.05-0.85,1.49-1.29c0.07-0.07,0.14-0.13,0.2-0.2c0.05-0.05,0.11-0.11,0.16-0.16v3.05v7.65V101.94z M101.71,84.2V74.01
		h5.26c0.55,0,1-0.45,1-1v-2.82h0.83c0.53,0,1.03,0.22,1.39,0.61c0.35,0.38,0.52,0.88,0.48,1.39
		C110.3,76.5,108.61,83.57,101.71,84.2z"/>
	<path style="fill:#778A97;" d="M75.94,88.64c-0.14-0.39-0.52-0.65-0.94-0.65c-2.95,0-5.9-0.3-8.79-0.89v-5.68
		c0-0.47-0.33-0.87-0.78-0.98c-2.38-0.53-4.73-1.27-6.99-2.19c-0.31-0.13-0.66-0.09-0.94,0.1c-0.28,0.19-0.44,0.5-0.44,0.83v20.7
		c0,0.41,0.25,0.77,0.62,0.93c2.37,0.96,4.83,1.74,7.31,2.29c0.07,0.02,0.15,0.02,0.22,0.02c0.23,0,0.45-0.08,0.62-0.22
		c0.24-0.19,0.38-0.48,0.38-0.78v-5.28c3.17-2.07,6.35-4.45,9.44-7.08C75.97,89.47,76.08,89.03,75.94,88.64z M64.67,95.45
		c-0.29,0.18-0.46,0.5-0.46,0.84v4.56c-1.75-0.44-3.47-1-5.15-1.65V80.63c1.68,0.62,3.41,1.15,5.15,1.57v5.7
		c0,0.47,0.33,0.87,0.78,0.98c2.41,0.54,4.86,0.88,7.33,1.03C69.79,91.94,67.23,93.8,64.67,95.45z"/>
	<path style="fill:#778A97;" d="M92.5,78.34c-0.28-0.19-0.63-0.22-0.94-0.1c-2.26,0.92-4.61,1.66-6.99,2.19
		c-0.46,0.1-0.78,0.51-0.78,0.98v6.1c-3.04,3.29-6.23,6.36-9.48,9.12c-0.32,0.27-0.44,0.71-0.29,1.11c0.15,0.41,0.57,0.65,0.98,0.66
		c2.95,0,5.9-0.29,8.79-0.85v4.56c0,0.3,0.14,0.59,0.38,0.78c0.18,0.14,0.4,0.22,0.62,0.22c0.07,0,0.15-0.01,0.22-0.02
		c2.49-0.55,4.95-1.33,7.31-2.29c0.38-0.15,0.62-0.52,0.62-0.93v-20.7C92.95,78.84,92.78,78.53,92.5,78.34z M90.95,99.19
		c-1.68,0.66-3.41,1.21-5.15,1.65v-4.52c0-0.3-0.14-0.59-0.38-0.78c-0.18-0.14-0.4-0.22-0.62-0.22c-0.07,0-0.15,0.01-0.22,0.02
		c-2.25,0.5-4.55,0.83-6.85,0.97c2.67-2.4,5.29-4.99,7.81-7.74c0.17-0.18,0.26-0.43,0.26-0.68v-5.7c1.74-0.42,3.47-0.95,5.15-1.57
		V99.19z"/>
</g>
</svg>
