<?xml version="1.0" encoding="utf-8"?>
<!-- Generator: Adobe Illustrator 27.1.1, SVG Export Plug-In . SVG Version: 6.00 Build 0)  -->
<svg version="1.1" id="Layer_1" xmlns="http://www.w3.org/2000/svg" xmlns:xlink="http://www.w3.org/1999/xlink" x="0px" y="0px"
	 viewBox="0 0 16 16" style="enable-background:new 0 0 16 16;" xml:space="preserve">
<g>
	<path d="M12.79,4.63l1.2-0.25c0,0-1,1.17-1.2,1.25c-0.02,0.57,0,0.75,0,0.75c-2.3,10.29-10.77,5.75-10.77,5.75
		c3.09,0.07,3.35-1.25,3.35-1.25c-1.8-0.28-2.15-1.5-2.15-1.5c0.62,0.3,0.96-0.25,0.96-0.25C2.23,8.6,2.5,6.62,2.5,6.62
		c0.33,0.3,0.86,0.43,1.17,0.47C3.45,6.82,1.63,4.55,2.74,3.38c0,0,1.34,2.5,4.86,2.72l0.24-0.05C7.78,5.88,7.78,5.7,7.78,5.5
		c0-1.45,1.12-2.62,2.51-2.62c1.67,0,2.03,1,2.03,1l1.2-0.75C13.5,3.13,13.38,4.38,12.79,4.63"/>
</g>
</svg>
