<svg xmlns="http://www.w3.org/2000/svg" viewBox="0 0 80 80"><g fill="#778a97"><path d="M11.91 28.69l-1.67-.71.24-.57 2.04-.17.58-1.35-2.14.22c-.26.03-.38.06-.38.06l-.01-.01c-.04-.6-.51-1.09-1.03-1.32-.72-.31-1.38-.17-1.83.3-.17.18-.31.41-.53.91l-.73 1.72 4.95 2.11.51-1.19zm-2.48-1.68l-.23.53-1.2-.52.17-.41c.09-.2.17-.34.26-.43.19-.19.4-.17.65-.07.4.18.51.51.35.9zm59.82 5.17l1.76-.43.15.6-1.53 1.36.35 1.43 1.58-1.47c.19-.18.27-.27.27-.27h.01c.39.45 1.06.57 1.62.43.76-.19 1.2-.69 1.28-1.34.03-.25.01-.51-.13-1.05l-.45-1.82-5.23 1.28.32 1.28zm4.13-1.02l.11.43c.05.21.07.37.05.5-.04.26-.22.38-.48.44-.42.1-.71-.1-.81-.51l-.14-.56 1.27-.3zM48.99 9.34c.1-.46 0-1.05-.56-1.37v-.01c.45-.14.76-.54.86-.98.2-.9-.43-1.54-1.48-1.77l-1.93-.43-1.16 5.26 1.93.43c1.04.22 2.09.02 2.34-1.13zm-2.08-3.17l.64.14c.35.08.44.31.39.56-.06.25-.25.45-.57.38l-.66-.15.2-.93zm-.43 1.96l.78.17c.37.08.5.36.43.66-.06.29-.31.51-.68.43l-.77-.17.24-1.09zm5.08 3.88l.8-2.06 2.81-2.32-1.4-.54-1.03.99c-.29.28-.58.61-.58.61l-.01-.01s.01-.43-.02-.84l-.1-1.43-1.4-.54.51 3.6-.8 2.06 1.22.48zm7.583 4.538l3.494-4.09 1.004.857-3.494 4.09zM58.77 11.6l-3.36 1.3-.46.69 3.5 2.32.62-.94-1.77-1.17c-.2-.13-.36-.21-.36-.21l.01-.01s.24-.03.62-.18l3.37-1.31.45-.68L58 9.16l-.62.94 1.65 1.09c.2.13.36.21.36.21l-.01.01c.01.01-.23.04-.61.19zm3.17 7.53l1.87-1.67c.25-.23.64-.66.64-.66l.01.01s-.26.56-.38.95l-.87 2.79.88.99 4.01-3.59-.88-.98-1.88 1.67c-.25.23-.64.66-.64.66l-.01-.01s.26-.56.38-.95l.88-2.79-.89-.99-4.01 3.59.89.98zm6.72 10.94l1.04-.43-.83-2 .94-.39.63 1.52 1.04-.44-.63-1.51.9-.38.8 1.9 1.04-.44-1.3-3.11-4.97 2.07zm-3.22-6.49l1.86-1.14.28.46-1.26 2.11.78 1.26 1.57-2.77.01-.01 2.96-.12-.75-1.2-2.35.14-.29-.46 1.77-1.09-.69-1.12-4.58 2.82zm-54.53.59c1.32.87 2.98.6 3.9-.79.92-1.39.52-3.03-.79-3.9-1.29-.85-2.92-.56-3.85.83-.92 1.38-.55 3 .74 3.86zm.27-3.2c.47-.71 1.35-.85 2.09-.36.77.51 1.01 1.39.54 2.1-.47.71-1.38.83-2.15.32-.73-.49-.95-1.35-.48-2.06zm14.65-7.62c.86-.48 1.28-1.18 1.46-1.84l-1.06-.52c-.15.5-.47 1.01-.93 1.27-.91.5-1.73.01-2.11-.68-.37-.68-.35-1.56.59-2.08.42-.23 1-.27 1.45-.17l.05-1.16c-.71-.2-1.5-.04-2.13.31-1.46.8-1.89 2.42-1.14 3.79.77 1.39 2.3 1.91 3.82 1.08zm-2.9 1.58l-.69-.89-1.71 1.33-.62-.81 1.29-1-.69-.9-1.3 1.01-.6-.77 1.62-1.26-.69-.89-2.66 2.07 3.3 4.25zm-8.41 1.77l3.08 2.93.91-.96-3.08-2.93 1.12-1.18-.81-.78-3.16 3.32.82.78zm24.56-6.95c1.69-.03 2.76-1.06 2.72-2.76-.03-1.69-1.14-2.66-2.83-2.62l-1.91.03.11 5.38 1.91-.03zm-.14-4.26c.89-.02 1.48.5 1.5 1.52.02 1.03-.53 1.58-1.44 1.6l-.54.01-.06-3.12.54-.01zM36.31 9.9l-.21-1.11-2.12.39-.19-1 1.61-.3-.2-1.11-1.61.3-.18-.96 2.02-.38-.21-1.11-3.31.62.98 5.29zm-8.28-2.29l1.4 4.01 1.24-.43-1.4-4.02 1.55-.53-.38-1.07-4.33 1.51.38 1.06zM17.8 65.07l.8-.83-1.21-1.17.69-.72 1.51 1.46.8-.83-2.48-2.39-3.81 3.96 2.56 2.46.8-.83-1.59-1.53.72-.75zm28.84 4.36l-.48 5.78 1.34-.34.04-1.2 1.66-.42.61 1.04 1.34-.34-3.14-4.88-1.37.36zm2 2.86l-1.05.26.05-1.11c.01-.36-.01-.97-.01-.97h.01s.26.55.45.86l.55.96zm6.25-2.36l-.01-.01c.38-.48.37-1.17.13-1.7-.33-.73-.92-1.08-1.58-1.04-.25.01-.52.09-1.03.32l-1.74.79 2.27 5 1.22-.56-.76-1.69.57-.26 1.65 1.28 1.36-.62-1.77-1.31c-.2-.15-.31-.2-.31-.2zm-1.45-.18l-.53.24-.55-1.22.41-.19c.2-.09.36-.14.49-.14.27-.01.42.15.53.4.19.41.05.74-.35.91zm-25.69-2.19L26 66.78l-2.23 5.02 1.23.55.75-1.69.58.26.14 2.08 1.37.61-.2-2.19c-.03-.26-.06-.39-.06-.39l.01-.01c.61-.03 1.12-.5 1.36-1.04.32-.73.19-1.4-.28-1.87-.18-.18-.41-.32-.92-.55zm-.09 1.95c-.18.4-.52.51-.91.33l-.53-.24.54-1.22.41.18c.2.09.34.18.43.28.2.2.17.41.06.67zm15.06 4c-.06.34-.05.58-.05.58h-.02s-.02-.24-.11-.57l-.94-3.4-1.08.04-.73 3.46c-.07.34-.07.58-.07.58h-.02s-.01-.24-.09-.57l-.81-3.41-1.41.05 1.52 5.44 1.51-.05.6-2.8c.07-.36.09-.65.09-.65h.02s.03.29.13.64l.79 2.75 1.5-.05 1.2-5.54-1.39.05-.64 3.45zM32.4 70.37c.42.11.83.43 1.06.77l.82-.93c-.36-.53-.92-.87-1.52-1.02-1.12-.28-2.09.16-2.34 1.14-.42 1.67 1.96 2.14 1.78 2.9-.05.21-.28.33-.65.23-.48-.12-.91-.54-1.14-.87l-.94.82c.38.63 1.04 1.07 1.74 1.25 1.23.31 2.09-.29 2.31-1.18.42-1.68-1.97-2.1-1.78-2.86.05-.23.27-.35.66-.25zm27.57-3.58l-.01-.01c.29-.54.16-1.22-.18-1.7-.45-.66-1.1-.9-1.74-.74-.25.06-.49.18-.95.5l-1.57 1.09 3.12 4.52 1.11-.76-1.05-1.52.52-.36 1.86.97 1.23-.85-1.97-.97c-.25-.13-.37-.17-.37-.17zm-1.45.09l-.48.33-.76-1.1.37-.26c.18-.13.33-.2.46-.23.27-.06.44.07.6.3.25.37.17.72-.19.96zM69.9 44.65l-.36 1.49 1.14.91c.32.26.69.51.69.51v.02s-.44.05-.85.14L69.1 48l-.36 1.49 3.57-1.01 2.19.52.31-1.31-2.19-.52-2.72-2.52z"/><path d="M68.28 11.72C60.73 4.16 50.68 0 40 0 29.31 0 19.27 4.16 11.71 11.72 4.16 19.27 0 29.32 0 40s4.16 20.73 11.72 28.28C19.27 75.84 29.31 80 40 80c10.68 0 20.73-4.16 28.28-11.72S80 50.68 80 40s-4.16-20.73-11.72-28.28zm-55.03 1.54C20.4 6.11 29.9 2.18 40 2.18c10.1 0 19.6 3.93 26.74 11.08 6.87 6.87 10.77 15.91 11.06 25.58h-2.52c-.42-.81-1.27-1.37-2.25-1.37s-1.83.56-2.25 1.37h-2.72C67.45 23.88 55.1 11.91 40 11.91c-15.1 0-27.45 11.97-28.06 26.92H9.37a2.537 2.537 0 00-2.25-1.37c-.98 0-1.83.56-2.25 1.37H2.2c.29-9.66 4.19-18.71 11.05-25.57zM65.91 40c0 14.29-11.62 25.91-25.91 25.91-14.29 0-25.91-11.62-25.91-25.91 0-14.29 11.62-25.91 25.91-25.91 14.29 0 25.91 11.62 25.91 25.91zm.83 26.74C59.6 73.89 50.1 77.82 40 77.82c-10.1 0-19.6-3.93-26.74-11.08-6.9-6.9-10.81-16.01-11.06-25.73h2.6a2.53 2.53 0 004.64 0h2.49C12.46 56.03 24.85 68.09 40 68.09s27.53-12.06 28.07-27.08h2.64c.39.9 1.29 1.52 2.32 1.52s1.93-.63 2.32-1.52h2.45c-.25 9.73-4.15 18.83-11.06 25.73z"/><path d="M60.78 61.86l2.55 5.21.98-.98-.58-1.05 1.21-1.21 1.06.58.98-.98-5.2-2.57-1 1zm1.39.38s.51.34.82.51l.97.54-.77.76-.53-.98c-.17-.32-.51-.83-.51-.83h.02zm7.5-11.95l-1.06-.45-1.86 4.29 1.06.46.66-1.53 3.98 1.72.54-1.23L69 51.82zm-4.16 5.83l2.12 1.44c.29.19.81.48.81.48l-.01.01s-.61-.12-1.03-.15l-2.98-.18-.76 1.12 4.54 3.09.76-1.11-2.12-1.44c-.29-.19-.81-.48-.81-.48l.01-.01s.61.12 1.03.15l2.98.17.76-1.12L66.27 55l-.76 1.12zm-26 3.64c-6.87-2.51-11.26-6.62-13.42-12.57-1.88-5.2-1.77-10.98-1.68-16.07.02-.81.03-1.56.04-2.31l-1.57-1.57c-.1.2-.16.43-.16.67 0 1.02-.02 2.07-.04 3.18-.2 10.35-.47 24.53 16.8 30.52.01 0 .02.01.04.01v-1.86z"/><path d="M54.6 31.13v-.03c-.01-.68-.03-1.37-.03-2.05-5.94-.2-10.61-1.97-14.62-5.54-4.02 3.57-8.68 5.34-14.62 5.54l-.03 2.07c-.2 10.01-.44 22.44 14.64 27.88 15.09-5.44 14.85-17.87 14.66-27.87zm-24.16 8.95l.01.01.05-.35c.1.43.06.86.08 1.34-.12-.22-.09-.71-.14-1zm.32 8.25v-.26c.01.02.02 0 .02-.02.01-.04.01-.08.02-.11.02-.02.03-.02.01 0 0 .02.01.07.01.12-.03.02-.03.23-.06.27zm2.8.22c-.11 0-.2.01-.28.01-.06.01-.12.02-.17.02-.11.01-.23.02-.46 0-.09.01-.04.04-.12.05-.25.03-.44-.05-.6-.1-.15 0-.35-.02-.38.02-.02 0-.04.01-.05.02-.01 0-.05.02-.04.03h-.01c-.02-.01-.03-.03-.05-.03-.01-.03-.08-.04-.18-.06-.05-.01-.1-.01-.16-.02-.03 0-.06-.01-.09-.01h-.05v-.16c-.01 0-.03.03-.04.06-.01.02-.02.04-.03.01 0-.01-.01-.03-.01-.07v-.14c.01-.02.02-.06.02-.09v-.14c.03-.05.07-.1.1-.15.03-.04.06-.08.09-.11l.01.03c.06-.08.09-.13.1-.17l.01-.01v-.01c.03-.01.06-.02.08-.04l.01.01.38-.53c0-.01-.01-.02-.01-.02l.03-.1c0-.01.01-.01.01-.02s.01-.02.01-.02c0-.01.01-.02.01-.03.01-.02.01-.03 0-.05.17-.21.21-.34.28-.5.01-.02.03-.04.04-.05l.02-.02.01-.01c.02-.02.04-.03.05-.05l.02-.02.02-.02c.02-.02.03-.03.03-.04.01 0 .02-.01.02-.02.01-.01 0-.01.01-.01v-.02c0-.02-.06-.03-.15-.03-.05.01-.01.02-.01.03-.02 0-.05-.01-.08-.01-.04 0-.09-.01-.13-.01-.09-.01-.18-.02-.27-.02-.09-.01-.19-.01-.28-.02-.09-.01-.17-.01-.26-.02h-.03c0-.13-.03-.54-.03-.54v-.13c.02-.04.03-.08.04-.12h.08c.06 0 .14-.01.18-.01.09-.01.18-.01.27-.02.17-.01.31 0 .36.06l-.1-.01c-.09.02-.25.02-.23.06l.16.02h.69c.14.03.27.04.39 0h.01c.02-.01.04-.01.05-.02.03-.01.05-.04.06-.07h.06c.14 0 .24.01.3.02.08.01.1.02.11.04v.03h.11v.24c.01.08.01.17.01.26-.01.02-.03.03-.04.05l-.36.45c-.03.09-.08.14-.14.2l-.11.16c.02-.01.04-.03.03 0l-.12.13-.57.8c-.14.2-.25.3-.25.3v.01s.11-.01.25-.01h.34c.03-.01.05-.01.07-.02.07-.01.35-.03.29.01.19-.03.38-.03.64-.04 0 .1 0 .2.01.29 0 .04.01.08.01.12 0 .04.01.08.02.13-.01.11-.01.19-.01.27zm1.75-3.32c-.02.06-.03.13-.03.19.01.03.02 0 .03-.01-.03.17-.07.36-.09.56v.36a.11.11 0 000 .08v.01c0 .01 0 .01.01.02.01.02.02.03.03.05.01.01.01.02.01.04 0 .04 0 .07-.03.1-.02.02-.02.05-.02.08l-.01.02v.5a.21.21 0 00.04.2l.01.01c0 .03.01.05.02.07-.02.07-.04.08-.07.08v.19c.02.06.01.11 0 .17v.3c.03.04.02.08.01.11 0 .01 0 .01-.01.02v.08c-.01.01-.02.02-.02.03-.02 0-.04-.01-.06-.01h-.72v-.08c-.03-.03-.02-.05 0-.07v-.17c-.01-.02-.01-.03-.02-.03-.01-.04-.03-.18.01-.15-.05-.18-.02-.39-.07-.57.02-.28-.08-.27-.04-.54-.01-.05-.04-.02-.05-.06-.03-.13.05-.23.1-.31 0-.08.01-.18-.02-.2.01-.04.02-.08.03-.13.02-.05.04-.12.05-.18v-.11c-.03 0-.07.07-.08-.02.03-.08.04-.16.06-.25.02-.08.02-.15.02-.22h.01v-.21h.13v-.01c.06 0 .13-.02.19-.07.01 0 .01-.01.02-.02.09 0 .15-.03.22-.06.02 0 .05.01.08.01s.07.01.1.01c.07.01.13.02.19.01 0 .01 0 .03.01.04-.01.05-.03.1-.04.14zm.39-7.09l-1.04.8c-.01.03-.03.06-.04.09.01.11.02.21.01.33 0 .09-.01.19-.03.28v.82c.1.02.2.07.23.94-.02.12-.01.33-.02.51 0 .05 0 .08-.01.13 0 .05-.01.1-.01.13-.01.07-.03.1-.06.08-.02.08 0 .16.01.25.02.09.04.2.03.28-.05 0-.11-.01-.17-.03l-.15-.05s-.61-.06-1.04-.09h-.47l-.36.06c-.02.07.27.05.48.09.04.01.07.01.11.02l.18.02c.08.15-.53.18-1 .15l-.72-.06h-.33c-.03-.11-.08-.22-.18-.28a.886.886 0 00-.17-.08c.01-.05.01-.11.02-.19v-1.05c-.01-.22-.03-.44-.04-.66-.04-.56-.1-1.1-.15-1.6.03-.03.04-.08.03-.13v-.01c.01-.01.01-.02.02-.06.01-.41-.11-.69-.19-.91.07-.34-.05-.87-.07-1.26.1-.44.2-.74.14-1.49l.08.03.02-.2c.04-.01.08-.04.09-.09 0-.02.01-.04 0-.06 0 0 .01-.01.01-.02.02 0 .04 0 .07-.02 0-.38-.08-.51-.09-.63-.02-.12.01-.3.06-.44.01-.04.03-.1.04-.17v-.15c0-.06-.05-.1-.11-.09-.01 0-.02.01-.03.01a.235.235 0 01-.07-.14v-.03c.07-.08.12-.22.1-.54l-.05.04c-.01-.06-.02-.14-.02-.22v-.12c0-.05 0-.1.01-.16.01-.22.02-.43.01-.62.11-.01.21-.02.27-.06.65.01.57.06.52.12-.04.03-.09.07-.09.1h.46c.32-.05.73-.1.9-.18.08-.01.11-.09.09-.16H33c.07-.01.14-.03.19-.04.02 0 .04-.01.05-.02.39-.1.69-.18.5.09-.09.03-.34.01-.41.07.02.06.15.07.32.07h.61c.18-.04.4-.09.68-.14.04.16.08.38.1.64.01.07.01.13.01.2 0 .05 0 .1.01.14 0 .09 0 .18-.01.27-.03.2-.1.08-.13.28.06.59.03.88-.02 1.17-.02.15-.05.29-.06.48 0 .05-.01.1-.01.15 0 .04 0 .08-.01.12 0 .08 0 .18.01.28v.01c.1.03.24.05.42.07.21.01.43.02.64.02.43.01.86.02 1.25.09-.12-.1.52-.05.68-.03.03.01.08.03.15.04h.65c.01-.01.02-.02.03-.04.01 0 .02.01.03.01.12.01.15.06.24.13.02.02.1.05.12.07.04.06 0 .06-.04.08-.09.06-.17.12-.23.2-.01 0-.01 0-.02.01l-1.92 1.48-.29.28c-.07.04-.01-.02.01-.06l-.35.27c-.18.18-.29.32-.5.38zm2.74 10.5c.02-.01 0-.01-.02-.02-.01-.01-.08-.01-.12-.01-.04 0-.06-.01-.05-.01.01 0 .02 0 .05-.01.03 0 .06 0 .11-.01.03.03.3.03.29.07l-.26-.01zm.72-.8c0 .09.01.16 0 .25a.53.53 0 00-.03.11c-.01.04-.01.09-.02.14-.01.05-.01.1-.02.14-.04 0-.08-.01-.11-.01h-.24c0 .04.21.08-.16.09-.07-.03-.17-.02-.35-.02-.03-.05-.07-.11-.1-.16v-.01a1.73 1.73 0 00-.14-.34.267.267 0 00-.07-.14l-.33-.56a.313.313 0 00-.05-.1c-.03-.04-.08-.07-.13-.06l-.04-.06-.02.03c-.04-.07-.07-.13-.1-.19l.01-.04c0 .01-.01.03-.01.04-.01-.02-.02-.03-.03-.05 0 .04 0 .08.01.11-.03.11-.08.26-.07.48 0 .03.01.04.01.03 0 .03 0 .05.01.08l-.03.36c-.01.08-.01.17-.02.26s-.01.18-.02.28c-.1 0-.21-.01-.31-.01h-.51v-.16c.02-.02.03-.05.03-.08-.01-.07 0-.14 0-.22 0-.05-.02-.08-.06-.11-.01-.02-.01-.04-.02-.06-.02-.13.03-.21.05-.35.01-.06 0-.11 0-.16l.01-.08v-.87c.01-.04.02-.08.02-.12 0-.04-.01-.08-.02-.12a.706.706 0 00-.09-.56c0-.09.01-.16.02-.21.01-.09.02-.12.04-.13h.03v-.08h.36c.13-.01.26-.01.37 0h.09l.31.52c.08.08.11.16.15.25l.12.2c0-.02-.02-.06 0-.03l.09.19.24.4c.13.22.28.56.28.56h.01s-.04-.35-.04-.56v-.72c-.01-.04-.01-.06-.02-.08-.01-.08-.03-.42.01-.35-.01-.06-.01-.12-.02-.19 0-.07-.01-.15-.01-.23.15 0 .29-.01.44-.01.07 0 .14 0 .21-.01.08 0 .16-.01.25-.01 0 .05.01.09.01.14v.25c0 .06 0 .12.01.17.01.1.02.18.02.25.02.15.03.3.01.61.01.11.04.04.05.15.03.3-.05.53-.1.72.02.17 0 .36.02.44zm1.93-9.49c.08-.09.25-.26.11-.2l.7-.55c.04.03-.11.18-.26.32-.15.14-.29.28-.26.31-.38.24-.38.22-.29.12zm1.66 10.2h-.29c-.07 0-.12.01-.17.01-.05.01-.1.01-.14.02-.06.01-.13.01-.2.02-.02-.03-.04-.07-.06-.1-.02-.03-.04-.07-.06-.11-.03-.06-.06-.13-.1-.22-.05-.08-.05-.02-.1-.09-.15-.23-.17-.44-.21-.61-.09-.12-.17-.12-.18-.12h-.01a.62.62 0 00-.14.04c-.01.02-.09.23-.09.34.04 0 .08-.19.09.14-.03.05-.02.15-.02.25 0 .05.01.1.01.16v.07a.12.12 0 00-.05.05s-.02.03-.03.05c-.01-.01-.05-.02-.07-.02-.03 0-.06.01-.1.02-.04.01-.07.03-.1.04h-.42a.435.435 0 00-.07-.06c-.02-.01-.03-.02-.04-.03v-.07c-.01-.05-.03-.07-.05-.12-.01-.03-.01-.02-.01-.06 0-.03.01-.06 0-.09 0-.03-.01-.06-.03-.08 0-.2-.03-.31-.06-.46.01-.18.05-.42.03-.58l-.03.09.02-.11v.02c.03-.1.07-.23.07-.42-.01-.06-.02-.01-.03.01.02-.2.04-.42.05-.64.01-.11.01-.23.02-.34 0-.06.01-.11.01-.17v-.12c.07 0 .14-.03.21-.06h.17c.1.02.21.03.31.01.06-.01.1-.04.15-.08.02-.02.04-.03.05-.04h.03c.01.11.01.23.02.34.01.08.01.15.01.21 0 .13-.01.23-.06.28l.01-.1c-.02-.09-.02-.26-.06-.25l-.02.16v.54c0 .02.02.09.03.11l.02.02.01.01c.07-.02.09.03.15.01-.01-.01.01-.02.02-.02s.03-.01.05-.01c.01-.02.03-.05.04-.08.02-.04.04-.08.05-.11.2-.35.25-.35.28-.34l.18-.34c.04-.1.1-.21.16-.29l.02-.04h.57c.06-.02.12-.02.17-.02a.2.2 0 01.09.02h.02c-.08.12-.13.24-.19.37l-.17.3c-.07.1-.15.19-.22.29-.07.1-.09.21-.12.32l-.16.29v.01l.3.55.05.05c.04.06.2.31.14.28.09.12.17.25.25.39l.13.23c.05.08.1.17.15.26-.11 0-.2.01-.28.02zm.15-9.43c0-.01 0-.01 0 0-.04-.1-.14-.12-.24-.12 0-.01 0-.01-.01-.02h-1.5c-.02.01-.04.02-.07.03a.502.502 0 01-.08-.12c.05-.1.07-.19.01-.31.08-.05.15-.11.23-.16.25-.18.45-.33.51-.46.12-.09.23-.16.29-.2.05-.03.09-.05.12-.06.05-.01.05.02.05.06-.01.05-.02.11 0 .14l.36-.28c.23-.24.55-.55.62-.71.02-.03.05-.06.07-.1.03-.05.05-.09.07-.14h.01c.06 0 .11-.03.16-.04.11.04.44-.28.72-.49.11-.16.22-.34.36-.53.07-.09.15-.18.25-.27.05-.04.1-.09.15-.13l.02-.02c.01-.01.01 0 .01-.01l.01-.01c.01 0 .02-.01.03-.01.02-.01.04-.01.06 0 .03 0 .08.03.1-.04 0-.02-.01-.04-.01-.06 0-.03-.01-.07-.01-.1 0-.07-.01-.13-.01-.18v-.31c.01-.18.03-.33.05-.47.05-.29.1-.59.07-1.21.02-.08.03-.17.04-.26 0-.04.01-.09.01-.13 0-.05.01-.08.01-.14.01-.14.01-.28.02-.42.01-.04.03-.07.06-.1.06-.08.09-.1.19-.11h.2c.07 0 .14 0 .21.01.06 0 .13.01.19.01.24.01.48.03.7.07-.12-.1.52-.05.68-.03.03.01.08.03.15.04h.99c.05-.1.1-.13.17 0h.04c.21.2.11.94.11 1.18 0 .26.04.53.05.79v1.2l.05.41c-.01.08-.03 0-.05-.04v.45c.04.19.08.36 0 .56v.1c-.01.11 0 .22-.01.34-.02.17-.04.29-.03.47.01.24.04.48.07.72 0 .14 0 .29-.02.43v.83c0 .39.03.78.01 1.18-.04.12-.05.24-.03.36-.03.32-.02.66.02.97 0 .01 0 .01.01.02.01.2.01.36.03.45.04.31-.04.49-.04.49h-.35l-.35.06c-.01.02.01.04.04.05.02.01.04.01.06.02.01 0 .03.01.05.01-.01.02-.01.04-.02.07l-.01.01a.21.21 0 00-.06.04c-.31.04-.57.02-.93-.06-.17-.04-.33-.13-.49-.17-.14-.04-.28.01-.43.02-.18-.02-.49-.03-.75-.04a.628.628 0 00-.19-.03c-.07 0-.1.01-.15-.05a.539.539 0 01-.07-.13c-.05-.81-.13-1.58-.21-2.28.02.04.05.16.08.03 0-.14-.01-.26-.03-.37-.01-.06-.02-.11-.03-.16-.01-.02-.01-.05-.02-.07-.01-.01-.01-.03-.02-.04-.03-.05-.06-.08-.09-.09.02-.04.02-.09.02-.14-.08 0-.17.02-.24.04-.01.01-.13.02-.2.03-.08.01-.16.02-.24.02-.29-.06-.51-.13-.84-.15-.11-.04-.23-.04-.35-.06-.12-.04-.27-.06-.41-.08zm2.52 9.47c-.09.01-.03.04-.12.05-.25.03-.43-.05-.59-.1h-.27c-.02-.01-.04-.01-.06-.02-.13-.05-.26-.02-.39-.01-.06-.01-.11-.02-.17-.02-.02 0-.03-.01-.05-.01h-.04c0-.01.01-.02.01-.03 0-.06-.04-.1-.08-.12-.01-.08.01-.17 0-.24l-.03-.19c.02-.18.01-.36 0-.53.02-.04 0-.12 0-.17v-.28l-.02-.26-.03.01c.03-.32-.02-.45-.05-.64 0-.13.03-.28.03-.42.01-.01.01-.02.02-.03.02-.03.02-.07.01-.11 0-.03 0-.05-.01-.08.02-.07.03-.15.04-.24.03-.01.05-.02.08-.03l.01-.01h.04c.04 0 .07-.01.1-.02h.04l.06.01c.08.01.16.01.24.02.16.01.33.03.49.04.04 0 .08 0 .12.01 0 0 .32-.14.69-.1h.05c.09 0 .19-.01.3-.01.01.1.01.21.02.3 0 .04 0 .07.01.11v.17c0 .04-.01.08-.01.11-.01.06-.03.1-.05.1 0 0-.06.05-.16.04-.1-.02-.29 0-.3 0h-.01l-.04.02c-.08.04-.15-.02-.22 0 .02.05-.24.03-.34.04h-.12c-.03 0-.06-.01-.08-.01-.02.06-.04.07-.06.07h-.01v.35c.01.03.01.07.01.1.06 0 .13 0 .19.01h.56c.09-.03.18-.01.24 0h.01v.18c.01-.02.02-.06.02-.02l-.02.17v.36h-1v.58c0 .01.01.02.01.03.01 0 .02-.01.03-.01.03 0 .11-.01.18-.01.07 0 .12 0 .1.02.16-.03.33-.03.5-.03.09 0 .17 0 .26-.01.09 0 .2-.01.31-.02 0 .02.01.05.01.07-.01.25 0 .33.01.43.01.06.01.12.02.17.01.06.01.12.02.19-.13.03-.36.03-.51.02zm3.01-.02c-.03-.04-.05-.08-.08-.11-.02-.03-.04-.07-.07-.1-.04-.06-.08-.15-.13-.27-.05-.06-.05-.01-.09-.07-.13-.18-.14-.37-.16-.51-.04-.01-.07-.01-.1-.01 0 .02-.01.04-.01.05l-.01.01h-.01c-.01 0-.02 0-.02-.01l-.02-.02h-.01c-.16.09-.2.38-.2.38.04 0 .08-.16.09.12-.03.05-.02.13-.02.21 0 .07.01.15 0 .23-.02.01-.04.04-.05.07h-.07c-.05 0-.09-.01-.14-.01-.08 0-.15.03-.22.05-.16-.02-.46-.03-.46-.03l-.01-.2-.03.02c.01-.12.01-.17.01-.22 0-.05 0-.1-.01-.14-.01-.09-.03-.16-.05-.24.01-.15.05-.35.03-.48.03-.08.07-.19.07-.35-.01-.05-.02-.01-.03.01.03-.26.06-.54.08-.84 0-.04 0-.09.01-.14v-.44c.01-.08.02-.16.02-.25v-.07c.03-.01.05-.04.07-.08l.01-.01s1.11.02 1.14.04c.03.02.85.03.89.06.04.03.27-.05.3 0 .03.05-.04.09 0 .17 0 0 .01.23.03.3.03.07-.04.47-.04.47 0 .02 0 .03-.01.05 0 .04-.01.07-.02.11-.02.17-.08.34-.17.48 0 0 0 .01-.01.01a.92.92 0 01-.32.3v.01s.05.06.12.2l.27.46c.02.02.03.04.04.04.03.05.17.25.11.23.09.11.2.29.29.46-.1 0-.19 0-.29.01-.05 0-.1.01-.15.01-.05 0-.08.01-.12.02h-.24c-.04 0-.08.01-.11.01s-.06.01-.1.01zm.7-2.39z"/><path d="M40.38 22.73c3.94 3.56 8.54 5.3 14.44 5.46l1.57-1.57c-.2-.1-.42-.16-.66-.16-6.17 0-10.87-1.77-14.78-5.58a1.52 1.52 0 00-.57-.34v2.19zM17.84 68.04l1.14.78.92-.77 1.42.96-.37 1.14 1.14.78 1.55-5.59-1.17-.8-4.63 3.5zm4.17-1.15l-.35 1.06-.9-.61.86-.71c.28-.23.72-.66.72-.66l.01.01c.01 0-.23.57-.34.91zm18.16-19s0-.01 0 0v-.29c-.01.08-.01.16 0 .29zm-15.1-19.7c5.9-.16 10.5-1.9 14.44-5.46v-2.19c-.21.07-.4.18-.57.34-3.91 3.81-8.61 5.58-14.78 5.58-.24 0-.46.06-.66.16l1.57 1.57zm-14.58 5.03l-1.62-.4.22-.89c.25-1.02-.34-1.89-1.39-2.15-1.05-.26-1.97.24-2.22 1.26l-.53 2.17 5.23 1.29.31-1.28zm-2.56-1.3l-.15.63-1.42-.35.16-.65c.1-.42.44-.57.86-.47.42.11.66.4.55.84zm8.44 26.83l-1.43.3c-.41.08-.83.21-.83.21l-.01-.01s.24-.37.44-.74l.69-1.29-.91-1.23-1.52 3.39-1.81 1.34.8 1.08 1.81-1.34 3.68-.48-.91-1.23zm-6.04-6.67l-.01-.01s.11-.02.21-.06l.48-.17.74 1.75 1.06-.45-1.2-2.83-2.73.91.03.78c.2.17.36.37.46.61.19.46.11.91-.29 1.07-.42.18-.78-.11-.92-.44-.16-.39-.11-.88.02-1.22l-1.21-.19c-.25.66-.2 1.38.06 2.01.47 1.1 1.55 1.55 2.6 1.11.91-.39 1.41-1.31.9-2.51-.04-.1-.16-.31-.2-.36zM57.17 27.9c0-.24-.06-.47-.16-.67l-1.57 1.57c.01.74.02 1.49.04 2.27v.03c.1 5.1.21 10.87-1.68 16.07-2.16 5.95-6.55 10.07-13.42 12.58v1.85c.01 0 .02-.01.04-.01 17.27-5.98 17-20.17 16.8-30.52-.03-1.1-.05-2.15-.05-3.17zM6.35 47.65c.7-.1 1.54 1.98 3.21 1.58 1.14-.27 1.41-1.34 1.2-2.22-.23-.96-.92-1.44-1.6-1.61l-.42 1.13c.34.09.68.31.76.66.07.28-.02.61-.39.7-.77.18-1.67-2.04-3.65-1.57-.18.04-.36.11-.56.2l.89 3.7 1.12-.27-.56-2.3z"/></g></svg>