<?xml version="1.0" encoding="utf-8"?>
<!-- Generator: Adobe Illustrator 27.1.1, SVG Export Plug-In . SVG Version: 6.00 Build 0)  -->
<svg version="1.1" id="Layer_1" xmlns="http://www.w3.org/2000/svg" xmlns:xlink="http://www.w3.org/1999/xlink" x="0px" y="0px"
	 viewBox="0 0 150 150" style="enable-background:new 0 0 150 150;" xml:space="preserve">
<style type="text/css">
	.st0{fill:#778A97;}
</style>
<path class="st0" d="M104.5,67.1v-9c0-0.5-0.3-0.9-0.8-1l-6.2-1.6L89,38.1c-0.2-0.3-0.5-0.6-0.9-0.6H73c-0.4,0-0.8,0.3-0.9,0.7
	l-2.6,7.3c-0.1,0.3-0.1,0.6,0.1,0.9c0.2,0.3,0.5,0.4,0.8,0.4h4c0.4,0,0.8-0.3,0.9-0.6l1-2.6h6.1l3.2,6.6l-10,5.1l-4.9-2.4
	c0,0,0,0,0,0c0,0,0,0-0.1,0c-0.1,0-0.2-0.1-0.3-0.1c0,0,0,0,0,0h-7.6c0,0-0.1,0-0.1,0L47,41.8c-0.3-0.2-0.7-0.2-1-0.1
	c-0.3,0.2-0.5,0.5-0.5,0.9v8.5c0,0.3,0.2,0.7,0.5,0.8l10.5,6.8v7.6l-10.5,6.8c-0.3,0.2-0.5,0.5-0.5,0.8v8.5c0,0.4,0.2,0.7,0.5,0.9
	c0.1,0.1,0.3,0.1,0.5,0.1c0.2,0,0.4-0.1,0.6-0.2l15.7-10.9c0,0,0.1,0,0.1,0h7.6c0.2,0,0.3,0,0.4-0.1c0,0,0,0,0,0l3.9-1.9v2.9
	l-8.9,2.4c-2.3,0.6-4,2.7-4,5.2V104c0,2.7,1,5,2.8,6.5c1.4,1.1,3.1,1.7,5.1,1.7c0.7,0,1.5-0.1,2.2-0.2l18.6-3.5l0.8,4.4
	c0.1,0.5,0.5,0.8,1,0.8c0.1,0,0.1,0,0.2,0c0.5-0.1,0.9-0.6,0.8-1.2l-0.8-4.4l3.7-0.7l0.8,4.4c0.1,0.5,0.6,0.9,1.2,0.8
	c0.5-0.1,0.9-0.6,0.8-1.2l-0.8-4.4l1.1-0.2c0.5-0.1,0.8-0.5,0.8-1c0-0.1,0-0.1,0-0.1l-4.6-24.9l1.7-0.3c0.1,0,0.1,0,0.1-0.1
	c0,0,0,0,0.1,0c0.1,0,0.2-0.1,0.2-0.2c0,0,0,0,0.1,0c0.1-0.1,0.1-0.1,0.2-0.2c0,0,0,0,0-0.1c0-0.1,0-0.2,0.1-0.2c0,0,0-0.1,0-0.1
	c0-0.3,0.4-3.4,5.7-3.4c0.6,0,1-0.4,1-1v-3.2c0-0.4-0.2-0.8-0.6-0.9l-4-1.8l3.9-1C104.2,67.9,104.5,67.5,104.5,67.1z M88,50.2l-4-8
	c-0.2-0.3-0.5-0.6-0.9-0.6h-7.4c-0.4,0-0.8,0.3-0.9,0.6l-1,2.6h-1.9l1.9-5.3h13.8l8.4,17v11.1H76.7V57l10.8-5.5
	C88,51.3,88.2,50.7,88,50.2z M47.5,74.6l10.5-6.8c0.3-0.2,0.5-0.5,0.5-0.8v-8.7c0-0.3-0.2-0.7-0.5-0.8l-10.5-6.8v-6l14.3,10v16
	l-14.3,10V74.6z M63.8,54.7h5.6v15.7h-5.6V54.7z M71.4,55.4l3.3,1.7v11.1l-3.3,1.7V55.4z M90,106.4l-4.4-23.8l7.8-1.6l4.4,23.9
	L90,106.4z M88,106.8l-16.5,3.1c-2.2,0.5-4.2,0.1-5.6-1c-1.3-1.1-2.1-2.8-2.1-4.9V80.8c0-1.5,1-2.8,2.5-3.2l7.1-1.9l-2.8,4.2
	c-0.2,0.3-0.2,0.7,0,1l4.1,7.7v4.7c0,3.6-1.4,7-4,9.6l-1,1c-0.4,0.4-0.4,1,0,1.4c0.2,0.2,0.5,0.3,0.7,0.3s0.5-0.1,0.7-0.3l1-1
	c2.9-2.9,4.6-6.8,4.6-11v-4.9c0,0,0,0,0,0V74v-4.3h3.8v12.6c0,0.3,0.1,0.6,0.4,0.8c0.2,0.1,0.4,0.2,0.6,0.2c0.1,0,0.1,0,0.2,0
	l1.9-0.4L88,106.8z M74.7,77.3v7l-2.1-3.9L74.7,77.3z M95.9,78.5l-13.4,2.7V69.8h13.4V78.5z M102.5,74c-2.2,0.2-3.7,0.8-4.7,1.6
	v-5.3l4.7,2.1V74z M102.5,66.3l-4.7,1.2v-9.8l4.7,1.2V66.3z"/>
</svg>
