<?xml version="1.0" encoding="utf-8"?>
<!-- Generator: Adobe Illustrator 27.1.1, SVG Export Plug-In . SVG Version: 6.00 Build 0)  -->
<svg version="1.1" id="Layer_1" xmlns="http://www.w3.org/2000/svg" xmlns:xlink="http://www.w3.org/1999/xlink" x="0px" y="0px"
	 viewBox="0 0 51 13" style="enable-background:new 0 0 51 13;" xml:space="preserve">
<path style="fill:#778A97;" d="M50.96,6.69c0.05-0.12,0.05-0.26,0-0.38c-0.03-0.06-0.06-0.12-0.11-0.16l-6-6
	c-0.2-0.2-0.51-0.2-0.71,0s-0.2,0.51,0,0.71L49.29,6H4.95C4.72,4.86,3.71,4,2.5,4C1.12,4,0,5.12,0,6.5S1.12,9,2.5,9
	c1.21,0,2.22-0.86,2.45-2h44.34l-5.15,5.15c-0.2,0.2-0.2,0.51,0,0.71c0.1,0.1,0.23,0.15,0.35,0.15s0.26-0.05,0.35-0.15l6-6
	C50.9,6.81,50.94,6.75,50.96,6.69z M2.5,8C1.67,8,1,7.33,1,6.5S1.67,5,2.5,5S4,5.67,4,6.5S3.33,8,2.5,8z"/>
</svg>
