<?xml version="1.0" encoding="utf-8"?>
<!-- Generator: Adobe Illustrator 27.1.1, SVG Export Plug-In . SVG Version: 6.00 Build 0)  -->
<svg version="1.1" id="Layer_1" xmlns="http://www.w3.org/2000/svg" xmlns:xlink="http://www.w3.org/1999/xlink" x="0px" y="0px"
	 viewBox="0 0 150 150" style="enable-background:new 0 0 150 150;" xml:space="preserve">
<g>
	<path style="fill:#778A97;" d="M55.59,51.31h0.02c0.29,0,0.57-0.13,0.76-0.35c0.19-0.22,0.28-0.51,0.23-0.8
		c0-0.04-0.01-0.07-0.01-0.11v-0.13c0-0.86,0.44-1.73,1.29-2.57c1.23-1.19,3.22-2.25,5.76-3.05c2.93-0.95,6.45-1.49,10.21-1.58v1.67
		c0,0.43,0.28,0.82,0.69,0.95c0.41,0.14,0.86-0.01,1.12-0.36l4.4-5.99c0.26-0.35,0.26-0.83,0-1.18l-4.4-5.99
		c-0.26-0.35-0.71-0.49-1.12-0.36c-0.41,0.13-0.69,0.52-0.69,0.95v1.75c-10.88,0.26-19.26,4.22-19.26,9.2v6.57v0.39
		C54.59,50.87,55.04,51.31,55.59,51.31z M56.59,43.36c0-3.46,7.34-7.18,18.26-7.21c0.46,0,0.84-0.31,0.96-0.73l2.19,2.99l-2.2,3
		c-0.05-0.15-0.13-0.29-0.25-0.4c-0.19-0.19-0.44-0.29-0.71-0.29c0,0,0,0,0,0c-4.35,0.01-8.44,0.6-11.82,1.69
		c-2.76,0.87-4.98,2.05-6.44,3.42V43.36z"/>
	<path style="fill:#778A97;" d="M112.67,77.13c0.09-1.06-0.27-2.13-1-2.92c-0.73-0.8-1.78-1.26-2.86-1.26h-0.83v-2.82
		c0-0.55-0.45-1-1-1h-5.26v-6.59c0-0.02,0-0.04,0-0.07c0-3.31-2.95-6.4-8.14-8.6c1.05-1.06,1.64-2.23,1.76-3.43
		c0.01-0.06,0.03-0.11,0.03-0.17c0.02-0.11,0.04-0.22,0.04-0.34c0-0.19-0.02-0.36-0.04-0.58v-5.91c0-0.55-0.45-1-1-1s-1,0.45-1,1
		c0,0.86-0.44,1.73-1.29,2.57c-1.23,1.2-3.22,2.25-5.75,3.05c-2.93,0.94-6.39,1.48-10,1.57l-0.21,0v-1.66
		c0-0.43-0.28-0.82-0.69-0.95c-0.41-0.13-0.86,0.01-1.12,0.36l-1.68,2.29c-13.88,0.51-24.29,5.53-24.34,11.78
		c0,0.01-0.01,0.02-0.01,0.03v6.66h-5.26c-0.55,0-1,0.45-1,1v2.82h-0.83c-1.09,0-2.13,0.46-2.86,1.26
		c-0.72,0.79-1.09,1.85-0.99,2.92c0.73,8.39,4.7,13.37,10.95,13.85v15.73c0,6.66,11.73,11.88,26.71,11.88s26.71-5.22,26.71-11.88
		V90.98C107.96,90.51,111.94,85.52,112.67,77.13z M105.98,71.13v5.65h-4.26v-5.65H105.98z M99.72,62.46c0,0.01,0,0.01,0,0.02
		c0,0.25-0.03,0.49-0.07,0.73c0,0,0,0.01,0,0.01c-0.05,0.23-0.11,0.45-0.2,0.67c-0.01,0.02-0.02,0.04-0.02,0.06
		c-0.08,0.2-0.18,0.4-0.29,0.6c-0.01,0.01-0.01,0.03-0.02,0.04c-0.48,0.82-1.18,1.53-1.87,2.11c-0.04-0.03-0.09-0.05-0.13-0.08
		c-0.18-0.12-0.37-0.23-0.55-0.35c-0.13-0.08-0.26-0.16-0.4-0.24c-0.2-0.12-0.41-0.23-0.63-0.35c-0.13-0.07-0.26-0.14-0.39-0.2
		c-0.23-0.12-0.46-0.23-0.7-0.34c-0.12-0.06-0.25-0.11-0.37-0.17c-0.26-0.12-0.52-0.23-0.79-0.34c-0.11-0.04-0.22-0.09-0.33-0.13
		c-0.29-0.12-0.59-0.23-0.9-0.34c-0.08-0.03-0.16-0.06-0.25-0.09c-0.34-0.12-0.69-0.24-1.04-0.35c-0.03-0.01-0.05-0.02-0.08-0.02
		c-3.35-1.06-7.26-1.77-11.46-2.05c-0.01,0-0.02,0-0.03,0c-0.52-0.03-1.04-0.06-1.56-0.08c-0.02,0-0.03,0-0.05,0
		c-0.53-0.02-1.06-0.04-1.59-0.04c0,0-0.01,0-0.01,0c0.03-0.05,0.05-0.1,0.07-0.15c0.01-0.03,0.03-0.05,0.04-0.08
		c0.03-0.09,0.05-0.19,0.05-0.3v-1.76c0.77-0.02,1.53-0.06,2.28-0.11c0.04,0,0.08,0,0.12-0.01c0.72-0.05,1.43-0.13,2.13-0.21
		c0.06-0.01,0.12-0.01,0.18-0.02c0.68-0.09,1.34-0.19,1.99-0.31c0.07-0.01,0.15-0.03,0.22-0.04c0.64-0.12,1.26-0.25,1.86-0.4
		c0.08-0.02,0.15-0.04,0.23-0.05c0.59-0.15,1.17-0.31,1.72-0.49c0.07-0.02,0.15-0.05,0.22-0.07c0.55-0.18,1.07-0.37,1.58-0.57
		c0.07-0.03,0.14-0.06,0.21-0.08c0.5-0.2,0.97-0.42,1.42-0.65c0.06-0.03,0.13-0.06,0.19-0.1c0.44-0.23,0.86-0.47,1.26-0.73
		c0.02-0.01,0.05-0.03,0.07-0.04C96.75,57.19,99.7,59.84,99.72,62.46z M94.71,68.33c-0.2,0.11-0.4,0.21-0.61,0.31
		c-0.13,0.07-0.26,0.13-0.4,0.2c-0.22,0.1-0.46,0.21-0.69,0.31c-0.13,0.06-0.26,0.11-0.39,0.17c-0.29,0.12-0.58,0.23-0.88,0.34
		c-0.09,0.03-0.17,0.07-0.26,0.1c-0.39,0.14-0.79,0.28-1.2,0.41c-0.13,0.04-0.26,0.08-0.39,0.12c-0.29,0.09-0.57,0.18-0.87,0.26
		c-0.17,0.05-0.35,0.09-0.53,0.14c-0.26,0.07-0.52,0.14-0.79,0.21c-0.19,0.05-0.39,0.09-0.58,0.14c-0.26,0.06-0.52,0.12-0.78,0.18
		c-0.2,0.04-0.41,0.08-0.62,0.12c-0.26,0.05-0.53,0.1-0.8,0.15c-0.21,0.04-0.43,0.07-0.64,0.11c-0.27,0.05-0.54,0.09-0.82,0.13
		c-0.22,0.03-0.44,0.06-0.66,0.09c-0.28,0.04-0.56,0.07-0.84,0.11c-0.22,0.03-0.44,0.05-0.67,0.08c-0.29,0.03-0.58,0.06-0.88,0.09
		c-0.22,0.02-0.44,0.04-0.66,0.06c-0.31,0.02-0.62,0.05-0.93,0.07c-0.21,0.01-0.42,0.03-0.63,0.04c-0.35,0.02-0.7,0.03-1.05,0.04
		c-0.18,0.01-0.36,0.02-0.54,0.02c-0.53,0.01-1.06,0.02-1.6,0.02c-0.54,0-1.07-0.01-1.6-0.02c-0.18,0-0.36-0.01-0.54-0.02
		c-0.35-0.01-0.7-0.03-1.05-0.04c-0.21-0.01-0.42-0.03-0.63-0.04c-0.31-0.02-0.62-0.04-0.93-0.07c-0.22-0.02-0.44-0.04-0.66-0.06
		c-0.29-0.03-0.59-0.05-0.88-0.09c-0.22-0.02-0.44-0.05-0.67-0.08c-0.28-0.03-0.56-0.07-0.84-0.11c-0.22-0.03-0.44-0.06-0.66-0.09
		c-0.27-0.04-0.55-0.08-0.82-0.13c-0.22-0.04-0.43-0.07-0.65-0.11c-0.27-0.05-0.53-0.1-0.79-0.15c-0.21-0.04-0.42-0.08-0.63-0.13
		c-0.26-0.06-0.52-0.11-0.77-0.17c-0.2-0.05-0.4-0.09-0.6-0.14c-0.26-0.06-0.52-0.13-0.77-0.2c-0.18-0.05-0.37-0.1-0.55-0.15
		c-0.28-0.08-0.55-0.16-0.83-0.25c-0.15-0.04-0.29-0.09-0.44-0.13c-0.41-0.13-0.8-0.27-1.19-0.41c-0.11-0.04-0.21-0.08-0.32-0.12
		c-0.28-0.11-0.56-0.21-0.83-0.32c-0.14-0.06-0.28-0.12-0.42-0.18c-0.22-0.1-0.45-0.19-0.66-0.29c-0.14-0.07-0.28-0.14-0.42-0.21
		c-0.2-0.1-0.4-0.2-0.59-0.3c-0.14-0.07-0.27-0.15-0.4-0.22c-0.11-0.06-0.22-0.13-0.33-0.19c4.62-2.76,12.25-4.44,20.43-4.44
		c7.26,0,14.09,1.32,18.76,3.55c0.05,0.03,0.11,0.05,0.16,0.08c0.29,0.14,0.57,0.28,0.84,0.43c0.08,0.04,0.16,0.09,0.24,0.14
		c0.15,0.08,0.29,0.17,0.43,0.25c-0.11,0.07-0.23,0.14-0.35,0.2C94.96,68.19,94.84,68.27,94.71,68.33z M86.93,50.96
		c2.76-0.87,4.98-2.05,6.44-3.42v1.86v0.61c0,1.43-1.25,2.62-2.3,3.37c-3.28,2.35-9.39,3.81-15.96,3.83c-0.46,0-0.85,0.32-0.96,0.74
		l-2.19-2.99l2-2.73c0,0,0,0,0,0l0.21-0.28c0.01,0.02,0.02,0.03,0.02,0.04c0.01,0.04,0.03,0.07,0.05,0.1
		c0.04,0.07,0.08,0.14,0.13,0.2c0.03,0.03,0.06,0.06,0.09,0.09c0.06,0.05,0.13,0.1,0.2,0.13c0.03,0.02,0.06,0.04,0.1,0.05
		c0.11,0.04,0.23,0.07,0.36,0.07c0.33,0,0.68,0,0.95-0.02l0.28,0C80.17,52.53,83.83,51.96,86.93,50.96z M71.1,52.74l-1.2,1.63
		c-0.26,0.35-0.26,0.83,0,1.18l4.35,5.93c-7.71,0.09-14.73,1.57-19.56,4.07c0,0,0,0-0.01,0c-0.34,0.18-0.67,0.36-0.99,0.55
		c0,0-0.01,0-0.01,0c-0.32,0.19-0.63,0.38-0.92,0.58c-0.16-0.13-0.33-0.28-0.49-0.43c-0.04-0.04-0.08-0.08-0.11-0.11
		c-0.12-0.12-0.24-0.24-0.36-0.36c-0.06-0.07-0.12-0.13-0.18-0.2c-0.09-0.1-0.18-0.21-0.26-0.32c-0.06-0.08-0.12-0.16-0.18-0.25
		c-0.07-0.1-0.14-0.21-0.21-0.31c-0.06-0.09-0.11-0.19-0.16-0.28c-0.06-0.1-0.1-0.21-0.15-0.32c-0.05-0.1-0.09-0.2-0.13-0.31
		c-0.04-0.11-0.07-0.22-0.1-0.33c-0.03-0.11-0.07-0.22-0.09-0.33c-0.02-0.11-0.02-0.22-0.03-0.33c-0.01-0.11-0.03-0.22-0.03-0.33
		C50.29,57.7,59.45,53.5,71.1,52.74z M44.02,71.13h4.26v5.65h-4.26V71.13z M39.33,76.96c-0.04-0.51,0.12-1.01,0.48-1.39
		c0.36-0.39,0.86-0.61,1.39-0.61h0.83v2.82c0,0.55,0.45,1,1,1h5.26v10.19C41.38,88.34,39.7,81.26,39.33,76.96z M99.71,106.71
		c0,5.35-11.32,9.88-24.71,9.88s-24.71-4.52-24.71-9.88V77.78v-7.65v-3.05c0.03,0.03,0.07,0.06,0.1,0.09
		c0.17,0.18,0.36,0.36,0.56,0.54c0.09,0.08,0.17,0.16,0.26,0.24c0.3,0.26,0.61,0.52,0.95,0.77c0,0,0.01,0,0.01,0
		c4.82,3.51,13.35,5.61,22.84,5.61c1.78,0,3.53-0.07,5.22-0.22c7.32-0.62,13.67-2.53,17.58-5.37c0.02-0.01,0.04-0.02,0.06-0.03
		c0.71-0.52,1.31-1.07,1.83-1.63c0.01-0.01,0.01-0.01,0.02-0.02v3.05v7.65V106.71z M101.71,88.97V78.78h5.26c0.55,0,1-0.45,1-1
		v-2.82h0.83c0.53,0,1.03,0.22,1.39,0.61c0.35,0.38,0.52,0.88,0.48,1.39C110.3,81.26,108.61,88.34,101.71,88.97z"/>
	<path style="fill:#778A97;" d="M75.94,93.41c-0.14-0.39-0.52-0.66-0.94-0.66c-2.95,0-5.9-0.3-8.79-0.89v-5.68
		c0-0.47-0.33-0.87-0.78-0.98c-2.38-0.53-4.74-1.27-6.99-2.19c-0.31-0.12-0.66-0.09-0.94,0.1s-0.44,0.5-0.44,0.83v20.7
		c0,0.41,0.25,0.77,0.62,0.93c2.36,0.96,4.82,1.73,7.31,2.29c0.07,0.02,0.14,0.02,0.22,0.02c0.23,0,0.45-0.08,0.62-0.22
		c0.24-0.19,0.38-0.48,0.38-0.78v-5.28c3.17-2.07,6.35-4.45,9.44-7.09C75.97,94.24,76.08,93.8,75.94,93.41z M64.67,100.22
		c-0.29,0.18-0.46,0.5-0.46,0.84v4.56c-1.75-0.44-3.47-1-5.15-1.65V85.4c1.68,0.62,3.41,1.15,5.15,1.57v5.7
		c0,0.47,0.33,0.87,0.78,0.98c2.41,0.54,4.86,0.88,7.33,1.03C69.79,96.71,67.23,98.57,64.67,100.22z"/>
	<path style="fill:#778A97;" d="M92.5,83.11c-0.28-0.19-0.63-0.22-0.94-0.1c-2.26,0.92-4.61,1.66-6.99,2.19
		c-0.46,0.1-0.78,0.51-0.78,0.98v6.1c-3.04,3.29-6.23,6.36-9.48,9.13c-0.32,0.27-0.44,0.71-0.29,1.11s0.52,0.66,0.94,0.66
		c2.97,0.02,5.92-0.28,8.83-0.85v4.56c0,0.3,0.14,0.59,0.38,0.78c0.18,0.14,0.4,0.22,0.62,0.22c0.07,0,0.15-0.01,0.22-0.02
		c2.49-0.56,4.95-1.33,7.31-2.29c0.38-0.15,0.62-0.52,0.62-0.93v-20.7C92.95,83.61,92.78,83.3,92.5,83.11z M90.95,103.96
		c-1.68,0.65-3.41,1.21-5.15,1.65v-4.52c0-0.3-0.14-0.59-0.38-0.78c-0.18-0.14-0.4-0.22-0.62-0.22c-0.07,0-0.15,0.01-0.22,0.02
		c-2.25,0.5-4.55,0.83-6.85,0.97c2.67-2.4,5.29-4.99,7.81-7.74c0.17-0.18,0.26-0.43,0.26-0.68v-5.7c1.75-0.42,3.47-0.95,5.15-1.57
		V103.96z"/>
</g>
</svg>
