<?xml version="1.0" encoding="utf-8"?>
<!-- Generator: Adobe Illustrator 27.1.1, SVG Export Plug-In . SVG Version: 6.00 Build 0)  -->
<svg version="1.1" id="Layer_1" xmlns="http://www.w3.org/2000/svg" xmlns:xlink="http://www.w3.org/1999/xlink" x="0px" y="0px"
	 viewBox="0 0 150 150" style="enable-background:new 0 0 150 150;" xml:space="preserve">
<g>
	<path style="fill:#778A97;" d="M112.14,53.64l-4.11-10.88c-0.15-0.39-0.52-0.65-0.94-0.65H73.4v-4.33c0-0.55-0.45-1-1-1h-8.06
		c-0.55,0-1,0.45-1,1v5.33v20.77H49.68h-5c-0.49,0-0.9,0.35-0.99,0.83l-1.89,10.88c-0.02,0.11-0.02,0.23,0,0.34l1.89,10.88
		c0.08,0.48,0.5,0.83,0.99,0.83h5h13.65v24.57c0,0.55,0.45,1,1,1h8.06c0.55,0,1-0.45,1-1V65.88h33.7c0.42,0,0.79-0.26,0.94-0.65
		l4.11-10.89C112.23,54.12,112.23,53.87,112.14,53.64z M65.33,38.78h6.06v3.33h-6.06V38.78z M43.81,75.76l1.72-9.88h2.97l-1.69,9.71
		c-0.02,0.11-0.02,0.23,0,0.34l1.69,9.71h-2.97L43.81,75.76z M63.33,85.64H50.52l-1.72-9.88l1.72-9.88h12.81V85.64z M71.4,111.22
		h-6.06V65.88h6.06V111.22z M106.41,63.88H72.4h-7.06V44.11h7.06h34.01l3.73,9.88L106.41,63.88z"/>
	<path style="fill:#778A97;" d="M74.63,55.64v-0.02c0,0,0.19-0.16,0.43-0.51l2.17-3.07V51.2H73v1.17h2.06
		c0.25,0,0.43-0.02,0.43-0.02v0.02c0,0-0.19,0.16-0.43,0.51l-2.16,3.06v0.86h4.36v-1.17h-2.2C74.81,55.62,74.63,55.64,74.63,55.64z"
		/>
	<rect x="78.16" y="51.2" style="fill:#778A97;" width="1.37" height="5.59"/>
	<path style="fill:#778A97;" d="M84.05,53.81c0,0.35,0.06,0.95,0.06,0.95H84.1c0,0-0.25-0.59-0.47-0.95l-1.55-2.61H80.7v5.59h1.37
		v-2.6c0-0.35-0.06-0.95-0.06-0.95h0.02c0,0,0.25,0.59,0.47,0.95l1.56,2.6h1.38V51.2h-1.37V53.81z"/>
	<polygon style="fill:#778A97;" points="89.64,53.88 91.15,51.2 89.68,51.2 88.52,53.36 87.96,53.36 87.96,51.2 86.59,51.2 
		86.59,56.79 87.96,56.79 87.96,54.52 88.52,54.52 89.7,56.79 91.23,56.79 89.64,53.89 	"/>
	<polygon style="fill:#778A97;" points="93.23,54.56 94.93,54.56 94.93,53.39 93.23,53.39 93.23,52.37 95.36,52.37 95.36,51.2 
		91.86,51.2 91.86,56.79 95.47,56.79 95.47,55.62 93.23,55.62 	"/>
	<path style="fill:#778A97;" d="M99.57,54.5v-0.02c0.56-0.28,0.84-0.93,0.84-1.52c0-0.81-0.4-1.38-1.03-1.63
		c-0.24-0.09-0.52-0.13-1.09-0.13h-1.95v5.59h1.37v-1.88h0.64l0.99,1.88h1.52l-1.09-1.95C99.65,54.6,99.57,54.5,99.57,54.5z
		 M98.31,53.73h-0.59v-1.36h0.46c0.23,0,0.39,0.02,0.52,0.08c0.26,0.1,0.33,0.31,0.33,0.59C99.02,53.49,98.75,53.73,98.31,53.73z"/>
</g>
</svg>
