<?xml version="1.0" encoding="utf-8"?>
<!-- Generator: Adobe Illustrator 27.1.1, SVG Export Plug-In . SVG Version: 6.00 Build 0)  -->
<svg version="1.1" id="Layer_1" xmlns="http://www.w3.org/2000/svg" xmlns:xlink="http://www.w3.org/1999/xlink" x="0px" y="0px"
	 viewBox="0 0 20 20" style="enable-background:new 0 0 20 20;" xml:space="preserve">
<g>
	<path style="fill:#778A97;" d="M10,20C4.49,20,0,15.51,0,10S4.49,0,10,0s10,4.49,10,10S15.51,20,10,20z M10,0.95
		c-4.99,0-9.05,4.06-9.05,9.05s4.06,9.05,9.05,9.05s9.05-4.06,9.05-9.05S14.99,0.95,10,0.95z"/>
</g>
<g>
	<g>
		<path style="fill:#778A97;" d="M8.05,13.81c-0.53,0-0.95-0.43-0.95-0.95V7.14c0-0.53,0.43-0.95,0.95-0.95C8.57,6.19,9,6.62,9,7.14
			v5.71C9,13.38,8.57,13.81,8.05,13.81z"/>
	</g>
	<g>
		<path style="fill:#778A97;" d="M11.95,13.81c-0.53,0-0.95-0.43-0.95-0.95V7.14c0-0.53,0.43-0.95,0.95-0.95
			c0.53,0,0.95,0.43,0.95,0.95v5.71C12.91,13.38,12.48,13.81,11.95,13.81z"/>
	</g>
</g>
</svg>
