<?xml version="1.0" encoding="utf-8"?>
<!-- Generator: Adobe Illustrator 27.1.1, SVG Export Plug-In . SVG Version: 6.00 Build 0)  -->
<svg version="1.1" id="Layer_1" xmlns="http://www.w3.org/2000/svg" xmlns:xlink="http://www.w3.org/1999/xlink" x="0px" y="0px"
	 viewBox="0 0 16 16" style="enable-background:new 0 0 16 16;" xml:space="preserve">
<path d="M6.35,10.07l4.32-2.23L6.35,5.58L6.35,10.07z M8,2.38c1,0,1.97,0.01,2.9,0.04c0.93,0.03,1.61,0.06,2.05,0.08l0.65,0.04
	c0.01,0,0.06,0,0.15,0.01c0.1,0.01,0.16,0.02,0.21,0.03C14,2.59,14.07,2.6,14.16,2.62c0.1,0.02,0.18,0.04,0.25,0.07
	c0.07,0.03,0.15,0.07,0.25,0.12c0.1,0.05,0.19,0.11,0.28,0.18c0.09,0.07,0.18,0.15,0.26,0.24c0.04,0.04,0.08,0.09,0.14,0.16
	c0.06,0.07,0.14,0.25,0.26,0.52c0.12,0.27,0.2,0.57,0.24,0.9c0.05,0.38,0.09,0.79,0.11,1.22c0.03,0.43,0.04,0.77,0.05,1.01v0.36
	v1.21c0.01,0.86-0.05,1.73-0.16,2.59c-0.04,0.33-0.12,0.62-0.22,0.89c-0.11,0.26-0.2,0.45-0.29,0.55l-0.12,0.15
	c-0.08,0.09-0.17,0.17-0.26,0.24c-0.09,0.07-0.18,0.13-0.28,0.17c-0.09,0.04-0.18,0.08-0.25,0.11c-0.07,0.03-0.16,0.05-0.25,0.07
	c-0.1,0.02-0.17,0.03-0.21,0.04c-0.05,0.01-0.11,0.02-0.21,0.03c-0.09,0.01-0.14,0.01-0.15,0.01c-1.49,0.11-3.36,0.17-5.6,0.17
	c-1.23-0.01-2.3-0.03-3.21-0.06C3.88,13.54,3.29,13.52,3,13.5l-0.44-0.04l-0.32-0.04c-0.21-0.03-0.38-0.06-0.49-0.09
	c-0.11-0.03-0.26-0.09-0.45-0.19c-0.19-0.09-0.36-0.22-0.5-0.37c-0.04-0.04-0.08-0.09-0.14-0.16C0.6,12.55,0.51,12.37,0.4,12.1
	c-0.12-0.27-0.2-0.57-0.24-0.9c-0.05-0.38-0.09-0.79-0.11-1.22C0.02,9.55,0.01,9.21,0,8.96l0-0.36l0-1.21
	C-0.01,6.53,0.05,5.67,0.16,4.8C0.2,4.48,0.28,4.18,0.38,3.92c0.11-0.26,0.2-0.45,0.29-0.55L0.8,3.22c0.08-0.09,0.17-0.17,0.26-0.24
	C1.14,2.91,1.24,2.85,1.33,2.8c0.09-0.05,0.18-0.09,0.25-0.12c0.07-0.03,0.16-0.05,0.25-0.07C1.93,2.6,2,2.59,2.05,2.58
	c0.04-0.01,0.11-0.02,0.21-0.03C2.35,2.54,2.4,2.54,2.4,2.54C3.9,2.43,5.76,2.38,8,2.38"/>
</svg>
