<svg xmlns="http://www.w3.org/2000/svg" viewBox="0 0 150 150"><path d="M106.6 60.8l-2.6-.7 1.7-6.1c.4-1.6-.5-3.3-2.1-3.7l-46-12.8c-.8-.2-1.6-.1-2.3.3-.7.4-1.2 1-1.4 1.8l-3.9 14c-.4 1.6.5 3.3 2.1 3.7l46 12.8c.3.1.5.1.8.1 1.3 0 2.5-.9 2.9-2.2l1.7-6.1 2.6.7c.8.2 1.2 1 1 1.8l-2.8 9.9c-.4 1.3-1.6 2.2-3 2.2l-27.2-1.4c-1.9-.1-3.5 1.1-4 2.9l-1 3.7-4.6-1.3-4.4-1.2c-.5-.1-1.1.2-1.2.7s.2 1.1.7 1.2l3.4 1-1.7 6.2-4.8 17.4c-.3 1.1-.2 2.3.4 3.4.6 1 1.5 1.8 2.7 2.1l4.6 1.3c.4.1.8.2 1.2.2 1.9 0 3.7-1.3 4.3-3.2l6.6-23.6 3.4 1h.3c.4 0 .8-.3 1-.7.1-.5-.2-1.1-.7-1.2l-9-2.5 1-3.7c.2-.9 1.1-1.5 2-1.4l27.2 1.4c2.3.1 4.4-1.4 5-3.6L109 65c.5-1.8-.6-3.7-2.4-4.2zm-6.7 6.7c-.2.5-.7.9-1.2.7l-46-12.8c-.5-.1-.9-.7-.7-1.2l3.9-14c.1-.3.2-.5.5-.6.2-.1.5-.2.8-.1l3.4 1-2.2 8c-.1.5.2 1.1.7 1.2h.3c.4 0 .8-.3 1-.7l2.2-8 3.7 1-1.4 4.9c-.1.5.2 1.1.7 1.2h.3c.4 0 .8-.3 1-.7l1.4-4.9 35 9.8c.5.1.9.7.7 1.2l-2 7-2.1 7zM74.1 85.2l-6.6 23.6c-.4 1.3-1.7 2.1-3 1.7l-4.6-1.3c-.6-.2-1.1-.6-1.5-1.2-.3-.6-.4-1.2-.2-1.9l4.6-16.4 4.6 1.3h.3c.4 0 .8-.3 1-.7.1-.5-.2-1.1-.7-1.2l-4.6-1.3 1.5-5.3 4.6 1.3.6.2 4 1.2z" fill="#778a97"/></svg>