<svg xmlns="http://www.w3.org/2000/svg" viewBox="0 0 150 150"><g fill="#778a97"><path d="M113 93.4c2.7-5.6 4.2-11.8 4.2-18.4 0-.6-.4-1-1-1s-1 .4-1 1c0 6-1.3 11.7-3.7 16.8l-4-1.5c-.3-.1-.6-.1-.8.1l-3.8 2-2-1.8c-.4-.3-.9-.4-1.3 0L96.5 93l-.7-1.4c-.2-.3-.5-.5-.9-.5h-2.5c-.2 0-.4.1-.5.2l-2 1.3-3.5-1.3c-.5-.2-1.1 0-1.3.6L83.8 95l-3.4 2.3H41.5c-4.3-6.4-6.8-14.1-6.8-22.3 0-10.4 3.9-19.8 10.4-26.9L53.9 72c.1.4.5.7.9.7h.4l2.5 17.8c.1.7-.1 1.8-.8 2.6-.7.7-1.7 1.1-3 1.1-1.6 0-2.9-1.3-2.9-2.9 0-.6-.4-1-1-1s-1 .4-1 1c0 2.7 2.2 4.9 4.9 4.9 2.4 0 3.8-1 4.5-1.8 1.2-1.3 1.4-3 1.3-4.2L57.2 72l.2-.1 6.9 22.6c.1.4.5.7 1 .7h.3c.5-.2.8-.7.7-1.2l-6.9-22.6.2-.1L69.9 93c1 1.9 3 3.2 5.2 3.2 2.7 0 4.9-2.2 4.9-4.9 0-2.3-1.8-4.1-4.1-4.1-.8 0-2.4.5-3.1 2.3-.2.5.1 1.1.6 1.3.5.2 1.1-.1 1.3-.6.4-.9 1.2-1 1.2-1 1.2 0 2.1.9 2.1 2.1 0 1.6-1.3 2.9-2.9 2.9-1.4 0-2.7-.8-3.4-2L61.4 70.7h.1c.5-.2.8-.7.7-1.2L55 40.1c5.9-3.4 12.7-5.3 20-5.3.6 0 1-.4 1-1s-.4-1-1-1c-23.3 0-42.3 19-42.3 42.3 0 11.1 4.3 21.3 11.4 28.8l.1.1s.1 0 .1.1c1.4 1.5 2.9 2.8 4.5 4.1 0 0 0 .1.1.1.1.1.2.2.4.2 1.6 1.3 3.4 2.4 5.2 3.4.1 0 .1.1.2.1 1.9 1.1 4 2 6.1 2.7h.1c4.4 1.6 9.2 2.4 14.2 2.4h1.7c3.8-.1 7.5-.8 11-1.9h.1c11-3.5 20.1-11.4 25.2-21.7-.1 0-.1 0-.1-.1 0 .1 0 0 0 0zm-57.6-23l-8.6-23.6c.7-.7 1.5-1.4 2.3-2.1l2.4 7.8c.1.4.5.7 1 .7h.3c.5-.2.8-.7.7-1.2l-2.6-8.6c.8-.6 1.7-1.3 2.6-1.8L60 69l-4.6 1.4zm29.8 26.1c.2-.1.3-.3.4-.4l1.1-2.6 3 1.2c.3.1.6.1.9-.1l2.2-1.4h1.6l1 2c.1.3.4.5.7.5.3.1.6 0 .8-.2l3.4-2.8 1.9 1.7c.3.3.8.4 1.2.2l4-2.1 3.4 1.3c-.7 1.3-1.4 2.5-2.2 3.7H83.9l1.3-1zm-6 18.5l15.7-15.7h6.1l-14.2 14.2c-2.4.7-5 1.3-7.6 1.5zm-22.5-4.2l7.7-7.7c.4-.4.4-1 0-1.4s-1-.4-1.4 0l-8.2 8.2c-1.3-.7-2.5-1.5-3.7-2.4l8.1-8.1h15l-13.4 13.4c-1.4-.7-2.8-1.3-4.1-2zm-9.2-11.5l-2.5 2.5c-.7-.8-1.4-1.6-2.1-2.5h4.6zm-1.1 4l4-4h6.1l-6.9 6.9c-1.1-.9-2.2-1.9-3.2-2.9zM63 113.4l14.1-14.1h6.1l-9.9 9.9c-.4.4-.4 1 0 1.4.2.2.5.3.7.3s.5-.1.7-.3L86 99.3h6.1l-15.9 15.9H75c-4.2.1-8.2-.6-12-1.8zm28.4-1.7l12.4-12.4h3.2c-4 5.4-9.4 9.7-15.6 12.4z"/><path d="M84 84.3l2.9 1.3c.1.1.3.1.4.1.4 0 .7-.2.9-.6l1.3-2.9c.2-.5 0-1.1-.5-1.3l-2.9-1.3c-.5-.2-1.1 0-1.3.5L83.5 83c-.1.2-.1.5 0 .8 0 .2.2.4.5.5zm2.2-2.5l1.1.5-.5 1.1-1.1-.5.5-1.1zm6.5-7.9c.2.3.5.5.9.5.2 0 .3 0 .5-.1l2.8-1.5c.5-.3.7-.9.4-1.3l-1.5-2.8c-.1-.2-.3-.4-.6-.5-.3-.1-.5-.1-.8.1l-2.8 1.5c-.5.3-.7.9-.4 1.3l1.5 2.8zm1.9-3.4l.6 1.1-1.1.6-.6-1.2 1.1-.5zm1.5 10.6l.8 2.6c.1.3.2.5.5.6.1.1.3.1.5.1h.3l2.6-.8c.5-.2.8-.7.7-1.2l-.8-2.6c-.1-.3-.2-.5-.5-.6-.2-.1-.5-.2-.8-.1l-2.6.8c-.6.1-.9.6-.7 1.2zm2.9.2l.2.7-.7.2-.2-.7.7-.2z"/></g></svg>