<svg xmlns="http://www.w3.org/2000/svg" viewBox="0 0 150 150"><g fill="#778a97"><path d="M86.8 75.1h-7.6c-.4-1.5-1.6-2.7-3.1-3.1V61.2c0-.6-.5-1.1-1.1-1.1-.6 0-1.1.5-1.1 1.1V72c-1.8.5-3.2 2.1-3.2 4.1 0 2.4 1.9 4.3 4.3 4.3 2 0 3.6-1.4 4.1-3.2h7.6c.6 0 1.1-.5 1.1-1.1s-.4-1-1-1zM75 78.3c-1.2 0-2.1-1-2.1-2.1 0-1.2 1-2.1 2.1-2.1s2.1 1 2.1 2.1-.9 2.1-2.1 2.1z"/><path d="M97.6 54.3l4.4 4.4c.2.2.5.3.8.3s.6-.1.8-.3c3.4-3.4 3.4-8.9 0-12.3-3.4-3.4-8.9-3.4-12.3 0-.2.2-.3.5-.3.8 0 .3.1.6.3.8l4.9 4.9-1.8 1.8c-5.1-4.6-11.9-7.4-19.3-7.4S61 50.1 55.8 54.7L54 52.9l4.9-4.9c.2-.2.3-.5.3-.8 0-.3-.1-.6-.3-.8-3.4-3.4-8.9-3.4-12.3 0-3.4 3.4-3.4 8.9 0 12.3.2.2.5.3.8.3.3 0 .6-.1.8-.3l4.4-4.4 1.8 1.8c-5 5.2-8.1 12.3-8.1 20C46.3 86.7 52 96 60.6 101l-3.2 3.2c-.4.4-.4 1.1 0 1.5.2.2.5.3.8.3.3 0 .5-.1.8-.3l3.7-3.7c3.8 1.9 8.1 2.9 12.7 2.9s8.8-1.1 12.7-2.9l3.7 3.7c.2.2.5.3.8.3s.5-.1.8-.3c.4-.4.4-1.1 0-1.5l-3.2-3.2c8.5-5 14.3-14.3 14.3-24.9 0-7.8-3.1-14.8-8.1-20l1.2-1.8zm4.4-6.4c2.3 2.3 2.5 5.9.7 8.4l-9.1-9.1c2.5-1.8 6.1-1.6 8.4.7zm-54.7 8.5c-1.8-2.6-1.6-6.1.7-8.4 2.3-2.3 5.9-2.5 8.4-.7l-9.1 9.1zM75 102.9c-14.7 0-26.7-12-26.7-26.7s12-26.7 26.7-26.7 26.7 12 26.7 26.7-12 26.7-26.7 26.7z"/><path d="M96.3 63.8c-2.2-3.7-5.2-6.8-8.9-8.9h-.1c-3.6-2.1-7.8-3.3-12.2-3.3s-8.6 1.2-12.2 3.3h-.1c-3.7 2.2-6.8 5.2-8.9 8.9v.1c-2.1 3.6-3.3 7.8-3.3 12.2s1.2 8.6 3.3 12.2v.1l.1.1c2.2 3.7 5.2 6.7 8.9 8.9h.1c3.6 2.1 7.8 3.3 12.2 3.3s8.6-1.2 12.2-3.3h.1c3.7-2.1 6.8-5.2 8.9-8.9l.1-.1v-.1c2.1-3.6 3.3-7.8 3.3-12.2s-1.2-8.6-3.3-12.2c-.2 0-.2 0-.2-.1zM87.1 95l-.5-.9c-.3-.5-.9-.7-1.5-.4-.5.3-.7.9-.4 1.5l.5.9c-2.8 1.4-5.9 2.3-9.2 2.5v-1c0-.6-.5-1.1-1.1-1.1-.6 0-1.1.5-1.1 1.1v1c-3.3-.2-6.4-1-9.2-2.5l.5-.9c.3-.5.1-1.2-.4-1.5-.5-.3-1.2-.1-1.5.4l-.3.9c-2.7-1.7-5-4-6.7-6.7l.9-.5c.5-.3.7-.9.4-1.5-.3-.5-.9-.7-1.5-.4l-.9.5c-1.4-2.8-2.3-5.9-2.5-9.2h1c.6 0 1.1-.5 1.1-1.1s-.5-1.1-1.1-1.1h-1c.2-3.3 1-6.4 2.5-9.2l.9.5c.2.1.4.1.5.1.4 0 .7-.2.9-.5.3-.5.1-1.2-.4-1.5l-.9-.4c1.7-2.7 4-5 6.7-6.7l.5.9c.2.3.6.5.9.5.2 0 .4 0 .5-.1.5-.3.7-.9.4-1.5l-.5-.9c2.8-1.4 5.9-2.3 9.2-2.5v1c0 .6.5 1.1 1.1 1.1.6 0 1.1-.5 1.1-1.1v-1c3.3.2 6.4 1 9.2 2.5l-.5.9c-.3.5-.1 1.2.4 1.5.2.1.4.1.5.1.4 0 .7-.2.9-.5l.5-.9c2.7 1.7 5 4 6.7 6.7l-.7.5c-.5.3-.7.9-.4 1.5.2.3.6.5.9.5.2 0 .4 0 .5-.1l.9-.5c1.4 2.8 2.3 5.9 2.5 9.2h-1c-.6 0-1.1.5-1.1 1.1 0 .6.5 1.1 1.1 1.1h1c-.2 3.3-1 6.4-2.5 9.2L94 86c-.5-.3-1.2-.1-1.5.4-.3.5-.1 1.2.4 1.5l.9.5c-1.7 2.6-4 4.9-6.7 6.6z"/></g></svg>