<?xml version="1.0" encoding="utf-8"?>
<!-- Generator: Adobe Illustrator 27.1.1, SVG Export Plug-In . SVG Version: 6.00 Build 0)  -->
<svg version="1.1" id="Layer_1" xmlns="http://www.w3.org/2000/svg" xmlns:xlink="http://www.w3.org/1999/xlink" x="0px" y="0px"
	 viewBox="0 0 150 150" style="enable-background:new 0 0 150 150;" xml:space="preserve">
<path style="fill:#778A97;" d="M101.48,45.74c-0.14-0.22-0.37-0.38-0.62-0.44l-22.72-5.15c-0.47-0.11-0.96,0.14-1.14,0.59
	L70.42,56.5l1.47-16.88c0.04-0.5-0.29-0.95-0.78-1.06l-11.18-2.53c-0.26-0.06-0.53-0.01-0.75,0.13c-0.22,0.14-0.38,0.37-0.44,0.62
	l-5.12,22.6l-3.72,16.41c0,0,0,0,0,0l-1.5,6.61c-0.12,0.54,0.22,1.07,0.75,1.2l14.13,3.2l-4.81,21.23c0,0,0,0,0,0c0,0,0,0,0,0v0
	c-0.28,1.23,0.19,2.52,1.31,3.63c1,0.99,2.44,1.73,4.04,2.09c0.73,0.17,1.44,0.24,2.12,0.24c2.64,0,4.76-1.18,5.19-3.1c0,0,0,0,0,0
	l4.81-21.23l14.13,3.2c0.07,0.02,0.15,0.02,0.22,0.02c0.46,0,0.87-0.31,0.97-0.78l1.5-6.61c0-0.01,0-0.02,0-0.04l3.71-16.38
	l5.12-22.6C101.67,46.23,101.62,45.96,101.48,45.74z M60.46,38.19l9.36,2.12l-1.85,21.29l-12.18-2.76L60.46,38.19z M50.57,81.87
	l1.05-4.66l14.15,3.21c-0.03,0.02-0.05,0.04-0.07,0.06c-0.14,0.1-0.27,0.2-0.39,0.31c-0.04,0.04-0.08,0.07-0.12,0.11
	c-0.14,0.14-0.27,0.28-0.39,0.44c-0.02,0.02-0.03,0.05-0.05,0.07c-0.1,0.14-0.18,0.28-0.25,0.43c-0.02,0.05-0.05,0.09-0.07,0.14
	c-0.08,0.18-0.14,0.36-0.19,0.56l-0.53,2.32L50.57,81.87z M65.45,86.27L65.45,86.27l0.75-3.3c0.25-1.09,2.28-1.91,4.83-1.36
	l0.15,0.03c0.45,0.11,0.88,0.26,1.29,0.44c0.68,0.3,1.28,0.67,1.73,1.11c0.61,0.6,0.89,1.24,0.77,1.76l-0.75,3.3c0,0,0,0,0,0
	l-4.33,19.11c-0.03-0.03-0.05-0.05-0.08-0.08c-1.01-0.98-2.44-1.73-4.05-2.09c-0.33-0.07-0.65-0.13-0.97-0.17
	c-0.06-0.01-0.12-0.02-0.18-0.02c-0.31-0.03-0.62-0.05-0.92-0.05c-0.02,0-0.04,0-0.05,0c-0.02,0-0.04,0-0.06,0
	c-0.42,0-0.82,0.04-1.21,0.1c-0.04,0.01-0.07,0.01-0.11,0.02c-0.38,0.07-0.74,0.16-1.08,0.28c-0.02,0.01-0.04,0.01-0.06,0.02
	L65.45,86.27z M64.26,111.81c-1.23-0.28-2.36-0.85-3.08-1.57c-0.6-0.59-0.88-1.24-0.76-1.76c0-0.01,0.01-0.02,0.01-0.03
	c0.03-0.11,0.08-0.22,0.15-0.32c0.02-0.04,0.06-0.08,0.09-0.11c0.06-0.07,0.13-0.15,0.2-0.22c0.04-0.04,0.08-0.07,0.13-0.11
	c0.09-0.07,0.2-0.14,0.31-0.2c0.04-0.02,0.08-0.05,0.13-0.07c0.16-0.08,0.33-0.15,0.51-0.21c0.07-0.02,0.15-0.04,0.22-0.06
	c0.13-0.04,0.27-0.07,0.41-0.09c0.09-0.02,0.18-0.03,0.27-0.04c0.15-0.02,0.31-0.03,0.46-0.04c0.09,0,0.17-0.01,0.27-0.01
	c0.15,0,0.32,0.01,0.48,0.02c0.12,0.01,0.24,0.01,0.36,0.02c0.29,0.03,0.59,0.08,0.9,0.15c1.23,0.28,2.36,0.85,3.09,1.57
	c0.61,0.59,0.89,1.23,0.77,1.75c0,0,0,0,0,0C68.93,111.57,66.85,112.39,64.26,111.81z M89.55,90.7l-13.16-2.98l0.53-2.32
	c0.04-0.19,0.06-0.38,0.07-0.58c0-0.06,0-0.11,0-0.17c0-0.15-0.01-0.3-0.04-0.45c-0.01-0.05-0.01-0.1-0.02-0.14
	c-0.04-0.19-0.09-0.38-0.16-0.57c-0.02-0.04-0.04-0.08-0.05-0.12c-0.06-0.15-0.14-0.3-0.22-0.45c-0.02-0.03-0.02-0.06-0.04-0.08
	l14.15,3.21L89.55,90.7z M91.04,84.09l-19.49-4.42c0,0,0,0,0,0l-19.48-4.41l3.28-14.46l38.97,8.83L91.04,84.09z M94.75,67.68
	l-24.51-5.55l8.27-19.84l20.93,4.74L94.75,67.68z"/>
</svg>
