<svg xmlns="http://www.w3.org/2000/svg" viewBox="0 0 150 150"><path d="M108.4 95.8h-2.2v-6.1c0-.4-.3-.8-.7-.9-.2-.1-19.3-7.3-27.5-39v-7c0-.6-.4-1-1-1h-4.3c-.6 0-1 .4-1 1v7c-8.2 31.7-27.3 38.9-27.5 39-.4.1-.7.5-.7.9v6.1h-2.2c-.6 0-1 .4-1 1s.4 1 1 1H47v9.5c0 .6.4 1 1 1h7c.6 0 1-.4 1-1v-9.5h37.5v9.5c0 .6.4 1 1 1h7c.6 0 1-.4 1-1v-9.5h5.7c.6 0 1-.4 1-1s-.2-1-.8-1zm-4.1 0h-5v-8.3c2.3 1.6 4.1 2.5 5 2.9v5.4zm-7.1-9.9v9.8h-5V81.3c1.8 1.9 3.5 3.4 5 4.6zm-7 9.9h-5V72c1.7 2.7 3.4 5 5 7v16.8zm-7-27.3v27.2h-5v-39c1.4 4.5 3.1 8.4 5 11.8zM71.9 95.8h-5V68.5c1.8-3.4 3.5-7.3 5-11.8v39.1zm-7.1 0h-5V79c1.7-2 3.4-4.3 5-7v23.8zm-7-14.5v14.5h-5V86c1.5-1.3 3.2-2.8 5-4.7zm-12.1 9c.9-.4 2.7-1.3 5-2.9v8.3h-5v-5.4zm8.6 16h-5v-8.5h5v8.5zm19.6-56.5v-6.1h2.3v52h-2.3V49.8zm26.8 56.5h-5v-8.5h5v8.5z" fill="#778a97"/></svg>