<svg xmlns="http://www.w3.org/2000/svg" viewBox="0 0 150 150"><g fill="#778a97"><path d="M76 94.7c11.3 0 20.4-9.2 20.4-20.4 0-13.2-10.6-22.8-25.3-22.8-.6 0-1 .4-1 1s.4 1 1 1c13.7 0 23.3 8.6 23.3 20.8 0 10.1-8.3 18.4-18.4 18.4-8 0-14.5-6.5-14.5-14.5 0-6.3 5.1-11.4 11.4-11.4 4.9 0 8.9 4 8.9 8.9 0 3.8-3.1 6.9-6.9 6.9-3 0-5.4-2.4-5.4-5.4 0-2.3 1.8-4.1 4.1-4.1 1.7 0 3.1 1.4 3.1 3.1 0 1.2-1 2.3-2.3 2.3-.6 0-1 .4-1 1s.4 1 1 1c2.3 0 4.3-1.9 4.3-4.3 0-2.8-2.3-5.1-5.1-5.1-3.4 0-6.1 2.7-6.1 6.1 0 4.1 3.3 7.4 7.4 7.4 4.9 0 8.9-4 8.9-8.9 0-6-4.9-10.9-10.9-10.9-7.4 0-13.4 6-13.4 13.4 0 9.1 7.4 16.5 16.5 16.5z"/><path d="M75 106.6c18.1 0 32.8-14.7 32.8-32.8C107.8 55.7 93.1 41 75 41S42.2 55.8 42.2 73.9c0 18 14.7 32.7 32.8 32.7zm0-63.5c17 0 30.8 13.8 30.8 30.8S92 104.6 75 104.6 44.2 90.8 44.2 73.9 58 43.1 75 43.1z"/><path d="M120.7 76.3c0-1.9-1.5-3.4-3.3-3.4h-.2v-3.7c0-.6-.4-1-1-1h-4.7C108.8 50.4 93.4 36.9 75 36.9S41.2 50.4 38.5 68.1h-4.7c-.6 0-1 .4-1 1v3.7h-.2c-1.8 0-3.3 1.5-3.3 3.4 0 12.9 14 33.4 30.7 34.1.4 1.6 1.9 2.8 3.6 2.8h22.8c1.7 0 3.2-1.2 3.6-2.8 16.7-.6 30.7-21.1 30.7-34zm-5.5-6.2v7.5h-3.4c.1-1.2.2-2.5.2-3.7s-.1-2.5-.2-3.7h3.4zM75 38.9c17.7 0 32.4 13.3 34.7 30.4.1.7.2 1.4.2 2.1v.2c0 .7.1 1.5.1 2.2 0 .7 0 1.4-.1 2.2v.2c-.1.7-.1 1.4-.2 2.1-1.7 13-10.4 23.7-22.2 28.2-.3.1-.7.3-1 .4-.2.1-.3.1-.5.2-.4.1-.8.3-1.2.4-.1 0-.2.1-.3.1-.5.1-.9.3-1.4.4H83c-5.3 1.2-10.8 1.2-16.1 0h-.1c-.5-.1-.9-.2-1.4-.4-.1 0-.2-.1-.3-.1-.4-.1-.8-.2-1.2-.4-.2-.1-.3-.1-.5-.2-.3-.1-.7-.2-1-.4C50.7 102 42 91.3 40.3 78.4c-.1-.7-.2-1.4-.2-2.2V76c0-.7-.1-1.5-.1-2.2 0-.7 0-1.4.1-2.2v-.2c.1-.7.1-1.4.2-2.2 2.3-17 17-30.3 34.7-30.3zM34.8 70.1h3.4c-.1 1.2-.2 2.5-.2 3.7s.1 2.5.2 3.7h-3.4v-7.4zm-3.5 6.2c0-.8.6-1.4 1.3-1.4h.2v3.7c0 .6.4 1 1 1h4.7c2 12.7 10.4 23.2 21.8 28.2-.1.2-.2.4-.2.6-15.7-.7-28.8-20-28.8-32.1zm55.1 34.8H63.6c-1 0-1.7-.8-1.7-1.7 0-.3.1-.6.2-.9.4.1.7.3 1.1.4.2.1.3.1.5.2l1.2.3c.1 0 .3.1.4.1.4.1.8.2 1.3.3.1 0 .2.1.3.1.4.1.9.2 1.4.3h.3c.5.1 1 .2 1.4.2h.1c1.6.2 3.2.3 4.8.3 1.6 0 3.3-.1 4.8-.3h.1c.5-.1 1-.1 1.5-.2h.2c.5-.1.9-.2 1.4-.3.1 0 .2 0 .3-.1.4-.1.9-.2 1.3-.3.1 0 .3-.1.4-.1.4-.1.8-.2 1.2-.4.2-.1.3-.1.5-.2.4-.1.7-.2 1.1-.4.2.3.2.6.2.9.2 1-.6 1.8-1.5 1.8zm3.6-2.7c-.1-.2-.1-.4-.2-.6 11.4-5 19.8-15.5 21.8-28.2h4.7c.6 0 1-.4 1-1v-3.7h.2c.8 0 1.3.6 1.3 1.4-.1 12.1-13.2 31.4-28.8 32.1z"/></g></svg>