<svg xmlns="http://www.w3.org/2000/svg" viewBox="0 0 150 150"><g fill="#778a97"><path d="M55.07 56.18c3.73 0 6.66-1.98 6.66-4.51 0-2.54-2.93-4.52-6.66-4.52-3.74 0-6.67 1.99-6.67 4.52 0 2.53 2.93 4.51 6.67 4.51zm0-7.03c2.75 0 4.66 1.33 4.66 2.52s-1.91 2.51-4.66 2.51-4.67-1.32-4.67-2.51c0-1.19 1.92-2.52 4.67-2.52zm39.86 17.83c-3.74 0-6.67 1.99-6.67 4.52 0 2.53 2.93 4.51 6.67 4.51s6.67-1.98 6.67-4.51c0-2.54-2.93-4.52-6.67-4.52zm0 7.03c-2.75 0-4.67-1.32-4.67-2.51 0-1.19 1.92-2.52 4.67-2.52s4.67 1.33 4.67 2.52-1.92 2.51-4.67 2.51z"/><path d="M111.92 71.49c0-2.83-1.7-5.4-4.46-7.34V41.74c0-.03-.01-.05-.01-.08-.01-.07-.02-.15-.04-.21v-.02c-.01-.03-.03-.05-.04-.07-.03-.06-.05-.12-.09-.17-.02-.03-.05-.06-.07-.09-.04-.04-.08-.09-.12-.12-.03-.03-.07-.05-.1-.07-.03-.02-.05-.04-.08-.05-.02-.01-.05-.01-.08-.02-.04-.02-.08-.03-.12-.04-.06-.02-.12-.02-.18-.03-.02 0-.05-.01-.07-.01H94.73c-.22 0-.44.07-.61.21l-22.06 17.1v-6.39c0-6.02-7.62-10.91-16.99-10.91s-16.99 4.89-16.99 10.91V78.5c0 2.78 1.59 5.38 4.47 7.39v22.36c0 .55.45 1 1 1h11.71c.12 0 .24-.03.36-.07l.12-.06c.05-.03.1-.04.14-.07l22.07-17.1v6.4c0 6.02 7.62 10.91 16.98 10.91 9.37 0 16.99-4.89 16.99-10.91V71.49c0 .01 0 .01 0 0 0 .01 0 .01 0 0zm-2 0c0 4.91-6.72 8.91-14.99 8.91-.32 0-.64-.02-.95-.03l-.76-.03c-.33-.02-.66-.05-.98-.09-.47-.05-.93-.11-1.39-.19-.11-.02-.21-.03-.32-.05-.13-.02-.26-.06-.39-.08-.27-.06-.55-.11-.81-.18-.25-.06-.49-.13-.73-.19-.13-.04-.26-.07-.39-.11-.29-.09-.58-.18-.87-.28-.04-.01-.08-.03-.12-.04-3.33-1.21-5.78-3.15-6.77-5.38-.03-.06-.06-.13-.08-.19-.06-.16-.12-.32-.17-.47-.04-.14-.08-.28-.11-.42-.03-.11-.05-.23-.07-.34-.04-.27-.07-.54-.07-.81 0-4.51 5.98-8.37 13.39-8.86.53-.03 1.06-.05 1.6-.05.59 0 1.16.03 1.73.06 3.51.25 6.81 1.25 9.25 2.83.05.03.1.05.15.07 2.38 1.56 3.85 3.64 3.85 5.92zM95.07 42.75h8.46l-20.6 15.96-28.01 21.71h-8.44L71.67 60.9c.01-.01.01-.02.02-.02l23.38-18.13zM61.93 61.67c-.01 0-.02 0-.03.01.01-.01.02-.01.03-.01zm-6.86-18.92c8.26 0 14.98 4 14.99 8.91 0 .22-.03.43-.06.65-.01.11-.02.22-.04.33-.02.1-.05.2-.08.3-.03.12-.06.24-.1.37 0 .02-.01.03-.02.05l-.03.09c-.01.05-.03.1-.05.15-.07.18-.15.36-.23.54l-.13.24c-.04.08-.07.14-.11.19-.05.08-.09.16-.14.23a12.581 12.581 0 01-.51.7c-.01.01-.02.03-.04.04-.09.11-.18.21-.27.32-.01.01-.07.09-.09.1l-.08.08c-.15.15-.29.29-.42.41-.28.25-.56.48-.87.72-.14.1-.29.21-.46.33-.52.35-1.03.65-1.55.92-.28.14-.57.28-.88.41-.14.06-.29.13-.43.18-.03.01-.06.03-.09.04-.07.03-.14.06-.25.1-.06.02-.12.05-.19.07-.18.07-.35.13-.53.19l-.09.03c-.06.02-.11.04-.17.06-1.64.53-3.47.88-5.41 1.01-.25.02-.5.02-.76.03-.31.01-.62.03-.93.03-1.54 0-3.03-.14-4.43-.4-.01 0-.03 0-.04-.01-.41-.08-.8-.17-1.19-.26-.13-.03-.25-.06-.38-.1-.33-.09-.66-.18-.97-.28-.08-.03-.16-.05-.25-.08-.15-.05-.29-.11-.44-.16-.03-.01-.06-.03-.1-.04-.01-.01-.03-.01-.05-.02-.07-.02-.15-.05-.22-.08-.02-.01-.05-.02-.08-.03h-.01c-.08-.03-.17-.06-.22-.09l-.17-.08c-.15-.06-.28-.12-.42-.17-.08-.04-.17-.07-.26-.11-.39-.19-.78-.39-1.12-.58l-.44-.26c-.39-.24-.74-.49-1.07-.74-.19-.15-.38-.29-.59-.49-.19-.16-.37-.32-.56-.54-.13-.13-.26-.26-.36-.4-.03-.04-.07-.08-.11-.12-.1-.12-.18-.23-.28-.37l-.17-.23-.14-.22c-.03-.06-.07-.11-.1-.17a8.32 8.32 0 01-.33-.67c-.04-.09-.08-.18-.12-.28-.03-.07-.06-.15-.08-.21l-.01-.03c-.07-.21-.12-.43-.17-.65-.01-.03-.01-.05-.02-.1l-.02-.1a4.91 4.91 0 01-.07-.86v-.01c.02-4.88 6.75-8.88 15.01-8.88zM40.09 78.5V56.85c.01.01.02.02.02.03l.07.07c.14.18.31.36.45.5.22.24.46.46.67.64.22.21.45.39.73.61.36.28.77.56 1.23.85l.47.29c.43.24.89.48 1.38.72.21.09.43.18.58.24.05.02.09.04.15.07.14.07.3.13.45.18h.01l.33.12h.01c.18.08.37.15.5.18.38.13.77.25 1.17.36.02.01.04.01.07.02.26.08.52.14.76.2.17.04.35.09.52.12.14.04.3.07.48.1.03.01.06.01.09.01.13.03.25.05.36.07.23.04.46.08.71.12.03.01.07.01.1.01l.53.07c.32.04.65.07.97.09.23.02.48.04.71.05.44.03.9.04 1.36.04h.12c.26 0 .52-.01.79-.02h.17c.57-.02 1.15-.06 1.77-.13.07-.01.14-.01.23-.02l.64-.08h.01c.32-.04.64-.09.94-.15l.74-.14c.04-.01.07-.01.11-.02.21-.04.41-.08.58-.13.26-.06.51-.12.81-.21l.13-.03c.02-.01.04-.01.06-.02l.35-.11c.23-.06.44-.13.6-.2.3-.1.6-.21.85-.31.13-.05.26-.1.38-.15.16-.06.32-.13.47-.2.33-.14.66-.3.99-.46.6-.3 1.17-.65 1.82-1.08.17-.12.33-.23.49-.35.35-.27.67-.53 1.01-.84.16-.15.32-.31.48-.47l.08-.08c.06-.06.13-.14.15-.17.1-.11.2-.23.32-.37v2.77L42.94 80.63c-.02.01-.03.04-.05.05l-.09.09c-.04.05-.08.11-.12.17-.01.02-.03.04-.04.06-.01.02-.02.05-.03.07-.04.1-.06.2-.06.31 0 .01-.01.02-.01.03v1.94c-1.59-1.43-2.45-3.12-2.45-4.85zm4.47 6.87v-2.95h9.71v24.83h-9.71V85.37zm11.71 20.84v-24.3l19.17-14.86 30.02-23.26v19.12c-2.06-1.05-4.46-1.75-7.02-2.1-.05-.01-.1-.01-.15-.02-.49-.06-.98-.11-1.48-.15-.06 0-.12-.01-.18-.01-.56-.03-1.12-.06-1.69-.06-5.7 0-10.73 1.82-13.82 4.59-1.98 1.79-3.16 3.96-3.16 6.32v17.91l-21.69 16.82zm53.65-29.57v21.7c0 4.91-6.72 8.91-14.99 8.91-8.26 0-14.98-4-14.98-8.91V76.7c2.1 2.53 5.73 4.47 10.29 5.3.25.05.51.07.76.11l.86.12c.4.05.8.09 1.21.12.25.02.5.02.75.03.38.02.74.05 1.12.05 5.85 0 11.01-1.91 14.07-4.82l.03-.03c.3-.31.61-.62.88-.94z"/></g></svg>