<svg xmlns="http://www.w3.org/2000/svg" viewBox="0 0 150 150"><g fill="#778a97"><path d="M58.8 73.8h3.8c.7 0 1.3-.6 1.3-1.3v-5.9c0-.7-.6-1.3-1.3-1.3h-3.8c-.7 0-1.3.6-1.3 1.3v5.9c0 .7.6 1.3 1.3 1.3zm.7-6.6h2.4v4.5h-2.4v-4.5zm7.8 6.6H71c.7 0 1.3-.6 1.3-1.3v-5.9c0-.7-.6-1.3-1.3-1.3h-3.8c-.7 0-1.3.6-1.3 1.3v5.9c.1.7.6 1.3 1.4 1.3zm.7-6.6h2.4v4.5H68v-4.5zm-9.2 18.7h3.8c.7 0 1.3-.6 1.3-1.3v-5.9c0-.7-.6-1.3-1.3-1.3h-3.8c-.7 0-1.3.6-1.3 1.3v5.9c0 .7.6 1.3 1.3 1.3zm.7-6.6h2.4v4.5h-2.4v-4.5zm7.8 6.6H71c.7 0 1.3-.6 1.3-1.3v-5.9c0-.7-.6-1.3-1.3-1.3h-3.8c-.7 0-1.3.6-1.3 1.3v5.9c.1.7.6 1.3 1.4 1.3zm.7-6.6h2.4v4.5H68v-4.5zM58.8 98h3.8c.7 0 1.3-.6 1.3-1.3v-5.9c0-.7-.6-1.3-1.3-1.3h-3.8c-.7 0-1.3.6-1.3 1.3v5.9c0 .7.6 1.3 1.3 1.3zm.7-6.6h2.4V96h-2.4v-4.6zm7.8 6.6H71c.7 0 1.3-.6 1.3-1.3v-5.9c0-.7-.6-1.3-1.3-1.3h-3.8c-.7 0-1.3.6-1.3 1.3v5.9c.1.7.6 1.3 1.4 1.3zm.7-6.6h2.4V96H68v-4.6z"/><path d="M96.4 80.1v-28h7c.6 0 1-.4 1-1v-6.6c0-.6-.4-1-1-1h-7v-2.6c0-.6-.4-1-1-1h-9.7c-.6 0-1 .4-1 1v2.6H46.6c-.4 0-.7.2-.9.6-.2.4-.1.8.2 1.1l5.8 6.6c.2.2.5.3.8.3h32.4V108h-6.2V60.6c0-.6-.4-1-1-1H52.3c-.6 0-1 .4-1 1V108h-4.8c-.6 0-1 .4-1 1s.4 1 1 1H52c.1 0 .2.1.3.1h25.2c.1 0 .2 0 .3-.1h25.6c.6 0 1-.4 1-1s-.4-1-1-1h-7V80.1zM76.5 108H53.3V61.6h23.2V108zm25.9-62.5v4.6h-6v-4.6h6zm-8 4.6h-7.7v-4.6h7.7v4.6zm-7.6-8.2h7.7v1.6h-7.7v-1.6zm-34 8.2l-4-4.6h36v4.6h-32zm34 3.5l7.3 7.3-7.3 7.3V53.6zM94 80.1l-7.2 7.2V72.9l7.2 7.2zm-7.2 12.1l7.2 7.2-7.2 7.2V92.2zm7.6 15.8h-6.2l6.2-6.2v6.2zm0-11l-7.2-7.2 7.2-7.2V97zm0-19.3l-7.2-7.2 7.2-7.2v14.4zm-6.2-25.6h6.2v6.2l-6.2-6.2z"/></g></svg>