<?xml version="1.0" encoding="utf-8"?>
<!-- Generator: Adobe Illustrator 27.1.1, SVG Export Plug-In . SVG Version: 6.00 Build 0)  -->
<svg version="1.1" id="Layer_1" xmlns="http://www.w3.org/2000/svg" xmlns:xlink="http://www.w3.org/1999/xlink" x="0px" y="0px"
	 viewBox="0 0 22 22" style="enable-background:new 0 0 22 22;" xml:space="preserve">
<g>
	<path d="M21.74,8.02C21.55,7.82,21.28,7.7,21,7.7h-2.63l-1.71-6.94c-0.13-0.54-0.67-0.86-1.21-0.73c-0.54,0.13-0.86,0.67-0.73,1.21
		l1.59,6.46H5.69l1.59-6.46c0.13-0.54-0.2-1.08-0.73-1.21C6.01-0.1,5.47,0.22,5.33,0.76L3.63,7.7H1c-0.28,0-0.55,0.12-0.74,0.32
		C0.08,8.23-0.02,8.5,0,8.78l1,12.3C1.05,21.6,1.48,22,2,22h18c0.52,0,0.95-0.4,1-0.92l1-12.3C22.02,8.5,21.92,8.23,21.74,8.02z
		 M19.08,20H2.92L2.08,9.7h17.83L19.08,20z"/>
	<path d="M7.27,12.08c-0.55,0-1,0.45-1,1v3.54c0,0.55,0.45,1,1,1s1-0.45,1-1v-3.54C8.27,12.53,7.83,12.08,7.27,12.08z"/>
	<path d="M11,12.08c-0.55,0-1,0.45-1,1v3.54c0,0.55,0.45,1,1,1s1-0.45,1-1v-3.54C12,12.53,11.55,12.08,11,12.08z"/>
	<path d="M14.73,12.08c-0.55,0-1,0.45-1,1v3.54c0,0.55,0.45,1,1,1s1-0.45,1-1v-3.54C15.73,12.53,15.28,12.08,14.73,12.08z"/>
</g>
</svg>
