<?xml version="1.0" encoding="utf-8"?>
<!-- Generator: Adobe Illustrator 27.1.1, SVG Export Plug-In . SVG Version: 6.00 Build 0)  -->
<svg version="1.1" id="Layer_1" xmlns="http://www.w3.org/2000/svg" xmlns:xlink="http://www.w3.org/1999/xlink" x="0px" y="0px"
	 viewBox="0 0 150 150" style="enable-background:new 0 0 150 150;" xml:space="preserve">
<g>
	<path style="fill:#778A97;" d="M98.4,94.23c-2.75,0-5,2.24-5,5c0,2.76,2.24,5,5,5s5-2.24,5-5C103.4,96.47,101.15,94.23,98.4,94.23z
		 M98.4,102.22c-1.65,0-3-1.34-3-3s1.34-3,3-3s3,1.34,3,3S100.05,102.22,98.4,102.22z"/>
	<path style="fill:#778A97;" d="M98.39,89.83H59.22c-4.85,0-8.84,3.69-9.35,8.4h-2.84c-1.26,0-2.21-0.39-2.6-1.08
		c-0.39-0.68-0.26-1.7,0.37-2.79l2.49-4.31c2.09-3.62,5.99-5.88,10.18-5.88h13.19c2.76,0,5.33-1.48,6.7-3.87L80,75.75l1.3,0.75
		c0.64,0.37,1.34,0.54,2.02,0.54c1.41,0,2.77-0.73,3.53-2.03l14.43-24.99c0.54-0.94,0.69-2.03,0.41-3.08
		c-0.28-1.05-0.95-1.92-1.89-2.47l-4.42-2.56c-0.94-0.54-2.04-0.69-3.08-0.41c-1.05,0.28-1.92,0.95-2.47,1.89L75.38,68.39
		c-0.54,0.94-0.69,2.03-0.41,3.08c0.28,1.05,0.95,1.92,1.89,2.47l1.39,0.8l-2.64,4.57c-1.02,1.77-2.93,2.87-4.97,2.87H57.47
		c-4.9,0-9.46,2.63-11.91,6.88l-2.49,4.31c-1.01,1.75-1.14,3.45-0.37,4.79c0.77,1.34,2.31,2.08,4.33,2.08h2.84
		c0.5,4.71,4.5,8.4,9.35,8.4h39.18c5.18,0,9.4-4.22,9.4-9.4S103.58,89.83,98.39,89.83z M77.87,72.21c-0.99-0.57-1.32-1.83-0.75-2.82
		L91.54,44.4c0.57-0.99,1.83-1.33,2.82-0.75l4.42,2.56c0.48,0.28,0.82,0.72,0.96,1.25s0.07,1.09-0.21,1.57L85.11,74.01
		c-0.57,0.98-1.83,1.32-2.82,0.76L81,74.01l1.17-2.03c0.28-0.48,0.11-1.09-0.37-1.37c-0.48-0.28-1.09-0.11-1.37,0.37l-1.17,2.03
		L77.87,72.21z M92.6,106.63H59.22c-4.08,0-7.4-3.32-7.4-7.4s3.32-7.4,7.4-7.4H92.6c-0.03,0.02-0.05,0.05-0.08,0.07
		c-0.18,0.15-0.35,0.3-0.52,0.46c-0.07,0.06-0.14,0.12-0.21,0.19c-0.23,0.23-0.45,0.47-0.66,0.72c-0.04,0.05-0.08,0.11-0.12,0.16
		c-0.16,0.2-0.32,0.41-0.46,0.63c-0.06,0.1-0.12,0.2-0.18,0.3c-0.11,0.18-0.22,0.36-0.32,0.55c-0.06,0.11-0.11,0.23-0.17,0.35
		c-0.09,0.18-0.17,0.37-0.24,0.56c-0.05,0.12-0.09,0.25-0.14,0.37c-0.07,0.2-0.13,0.4-0.18,0.6c-0.03,0.13-0.07,0.25-0.1,0.38
		c-0.05,0.22-0.09,0.45-0.12,0.68c-0.02,0.11-0.04,0.22-0.05,0.33c-0.04,0.34-0.06,0.69-0.06,1.04s0.02,0.7,0.06,1.04
		c0.01,0.11,0.03,0.22,0.05,0.33c0.03,0.23,0.07,0.45,0.12,0.68c0.03,0.13,0.06,0.25,0.1,0.38c0.05,0.2,0.11,0.4,0.18,0.6
		c0.04,0.13,0.09,0.25,0.14,0.37c0.07,0.19,0.16,0.38,0.24,0.56c0.05,0.12,0.11,0.24,0.17,0.35c0.1,0.19,0.21,0.37,0.32,0.55
		c0.06,0.1,0.12,0.2,0.18,0.3c0.14,0.22,0.3,0.42,0.46,0.63c0.04,0.05,0.08,0.11,0.12,0.16c0.21,0.25,0.43,0.49,0.66,0.72
		c0.07,0.07,0.14,0.13,0.21,0.19c0.17,0.16,0.34,0.31,0.52,0.46C92.55,106.58,92.57,106.61,92.6,106.63z M98.39,106.63
		c-4.08,0-7.4-3.32-7.4-7.4s3.32-7.4,7.4-7.4s7.4,3.32,7.4,7.4S102.47,106.63,98.39,106.63z"/>
</g>
</svg>
