<svg xmlns="http://www.w3.org/2000/svg" viewBox="0 0 150 150"><g fill="#778a97"><path d="M90.7 58.3H59.3c-.6 0-1 .4-1 1v31.4c0 .6.4 1 1 1h31.4c.6 0 1-.4 1-1V59.3c0-.6-.4-1-1-1zm-1 31.4H60.3V60.3h29.4v29.4z"/><path d="M107.3 68.1c.6 0 1-.4 1-1s-.4-1-1-1h-5.8v-5.9h5.8c.6 0 1-.4 1-1s-.4-1-1-1h-5.8v-8.7c0-.6-.4-1-1-1h-8.7v-5.8c0-.6-.4-1-1-1s-1 .4-1 1v5.8h-5.9v-5.8c0-.6-.4-1-1-1s-1 .4-1 1v5.8H76v-5.8c0-.6-.4-1-1-1s-1 .4-1 1v5.8h-5.9v-5.8c0-.6-.4-1-1-1s-1 .4-1 1v5.8h-5.9v-5.8c0-.6-.4-1-1-1s-1 .4-1 1v5.8h-8.7c-.6 0-1 .4-1 1v8.7h-5.8c-.6 0-1 .4-1 1s.4 1 1 1h5.8v5.9h-5.8c-.6 0-1 .4-1 1s.4 1 1 1h5.8V74h-5.8c-.6 0-1 .4-1 1s.4 1 1 1h5.8v5.9h-5.8c-.6 0-1 .4-1 1s.4 1 1 1h5.8v5.9h-5.8c-.6 0-1 .4-1 1s.4 1 1 1h5.8v8.7c0 .6.4 1 1 1h8.7v5.8c0 .6.4 1 1 1s1-.4 1-1v-5.8h5.9v5.8c0 .6.4 1 1 1s1-.4 1-1v-5.8H74v5.8c0 .6.4 1 1 1s1-.4 1-1v-5.8h5.9v5.8c0 .6.4 1 1 1s1-.4 1-1v-5.8h5.9v5.8c0 .6.4 1 1 1s1-.4 1-1v-5.8h8.7c.6 0 1-.4 1-1v-8.7h5.8c.6 0 1-.4 1-1s-.4-1-1-1h-5.8v-5.9h5.8c.6 0 1-.4 1-1s-.4-1-1-1h-5.8V76h5.8c.6 0 1-.4 1-1s-.4-1-1-1h-5.8v-5.9h5.8zm-7.9 31.3H50.6V50.6h48.9v48.8z"/></g></svg>