<svg xmlns="http://www.w3.org/2000/svg" viewBox="0 0 150 150"><g fill="#778a97"><path d="M106.14 47.49c-.01-.04-.04-.08-.05-.12-.03-.07-.05-.14-.09-.21-.03-.05-.07-.09-.11-.13-.04-.04-.06-.09-.1-.12-3.39-2.61-7.1-4.76-11.01-6.39-6.23-2.6-12.89-3.85-19.75-3.74h-.04c-6.9-.1-13.51 1.15-19.75 3.74a48.714 48.714 0 00-11.01 6.39c-.04.03-.06.07-.1.11-.04.04-.09.08-.12.14-.04.06-.06.13-.09.2-.02.04-.04.08-.05.12-1.41 6.26-4.94 28.19 8.76 47.44 5.48 7.7 13.07 13.99 21.95 18.19.02.01.03 0 .05.01.12.05.24.08.38.08.13 0 .26-.03.38-.08.02-.01.03 0 .05-.01 8.88-4.2 16.47-10.49 21.95-18.19 13.7-19.24 10.16-41.16 8.75-47.43zM56 42.38c5.99-2.49 12.37-3.71 18.98-3.59h.04c6.59-.11 12.99 1.1 18.98 3.59 3.63 1.51 7.08 3.49 10.25 5.89 1.09 6.74 2.3 23.17-7.86 38.79-6.54 10.06-15.15 15.8-21.39 18.88-6.23-3.08-14.85-8.81-21.39-18.88C43.46 71.44 44.66 55 45.75 48.27c3.17-2.4 6.62-4.38 10.25-5.89zm39.75 51.39c-5.19 7.29-12.36 13.27-20.75 17.32-8.39-4.05-15.56-10.03-20.75-17.32-3.97-5.57-6.43-11.38-7.9-16.94 1.33 3.73 3.13 7.55 5.59 11.32 6.95 10.68 16.14 16.67 22.63 19.81.02.01.03 0 .05.01.12.05.25.09.38.09s.26-.04.38-.09c.02-.01.03 0 .05-.01 6.49-3.14 15.69-9.12 22.63-19.81a53.76 53.76 0 005.6-11.35c-1.47 5.58-3.94 11.39-7.91 16.97z"/><path d="M55.21 58.27l4.6 3.08c.24.16.53.21.8.14s.51-.25.64-.5c.52-.99 1.59-2.15 2.87-2.15.4 0 1.72.11 1.72 1.51 0 .87-1.54 1.93-3.17 3.05-3.27 2.25-7.76 5.32-7.76 11.59 0 .84.1 1.76.3 2.9.09.48.5.82.98.82H73.7c.55 0 1-.45 1-1v-5.3c0-.55-.45-1-1-1h-9.12c.61-.51 1.47-1.06 2.33-1.59 3.12-1.97 7.4-4.66 7.4-10.07 0-6.01-4.99-8.75-9.63-8.75-4.25 0-7.83 2.18-9.8 5.99-.24.45-.1 1 .33 1.28zM64.68 53c3.8 0 7.63 2.09 7.63 6.75 0 4.31-3.44 6.47-6.47 8.38-2.09 1.31-3.9 2.45-4.06 4.19-.03.28.07.56.25.77s.46.33.74.33h9.93v3.3H57.04c-.09-.65-.14-1.21-.14-1.72 0-5.22 3.82-7.84 6.89-9.95 2.17-1.49 4.04-2.77 4.04-4.7 0-2.41-1.93-3.51-3.72-3.51-1.73 0-3.13 1.06-4.05 2.29l-2.97-1.99c1.16-1.82 3.44-4.14 7.59-4.14zm20.67 26.13c6.01 0 10.37-4.21 10.37-10.02 0-4.63-3.11-9.31-10.05-9.31-.17 0-.45.02-.75.05l.07-1.13h7.83c.55 0 1-.45 1-1v-5.31c0-.55-.45-1-1-1H78.67c-.52 0-.96.4-1 .92l-1.03 13.23c-.03.44.23.86.64 1.01l3.29 1.24c.26.1.55.08.8-.04.97-.49 1.99-.74 2.95-.74 1.4 0 3.03.56 3.03 2.15 0 1.55-1.52 2.11-2.54 2.11-1.72 0-3.47-1.07-4.44-1.99a.947.947 0 00-.81-.26c-.3.04-.56.21-.72.46l-2.97 4.77c-.25.4-.18.92.16 1.25 2.4 2.3 5.8 3.61 9.32 3.61zm-5.41-7.6c1.3.95 3.06 1.77 4.88 1.77 2.2 0 4.54-1.44 4.54-4.11 0-2.44-2.07-4.15-5.03-4.15-1.13 0-2.31.26-3.44.76l-2.19-.82.9-11.56h12.22v3.31h-7.77c-.53 0-.97.41-1 .94l-.14 2.32c-.03.42-.12.85-.12.85-.06.3.04.6.24.84.25.32.77.43 1.15.31.21-.07 1.13-.19 1.5-.19 5.94 0 8.05 3.78 8.05 7.31 0 4.72-3.44 8.02-8.37 8.02-2.73 0-5.35-.91-7.33-2.51l1.91-3.09z"/></g></svg>