<?xml version="1.0" encoding="utf-8"?>
<!-- Generator: Adobe Illustrator 27.1.1, SVG Export Plug-In . SVG Version: 6.00 Build 0)  -->
<svg version="1.1" id="Layer_1" xmlns="http://www.w3.org/2000/svg" xmlns:xlink="http://www.w3.org/1999/xlink" x="0px" y="0px"
	 viewBox="0 0 150 150" style="enable-background:new 0 0 150 150;" xml:space="preserve">
<g>
	<path style="fill:#778A97;" d="M109.78,84.81c0.14-0.4,0.01-0.83-0.31-1.1l-10.85-8.94l10.24-0.22c0.42-0.01,0.79-0.28,0.92-0.67
		c0.14-0.4,0.01-0.83-0.31-1.1L92.02,58.37c-0.04-0.03-0.09-0.05-0.14-0.08c-0.1-0.06-0.21-0.1-0.33-0.12
		c-0.06-0.01-0.12-0.03-0.19-0.03l-50.22,1.07c-0.42,0.01-0.79,0.28-0.92,0.67c-0.14,0.39-0.01,0.83,0.31,1.1l10.86,8.96
		l-10.24,0.22c-0.42,0.01-0.79,0.28-0.92,0.67c-0.14,0.39-0.01,0.83,0.31,1.1l10.87,8.96l-10.26,0.22
		c-0.42,0.01-0.79,0.28-0.92,0.67c-0.14,0.4-0.01,0.83,0.31,1.1l10.87,8.96l-10.26,0.22c-0.42,0.01-0.79,0.28-0.92,0.67
		c-0.14,0.4-0.01,0.83,0.31,1.1l17.46,14.39c0.18,0.15,0.4,0.23,0.64,0.23c0.01,0,0.01,0,0.02,0l50.22-1.07
		c0.42-0.01,0.79-0.28,0.92-0.67c0.14-0.4,0.01-0.83-0.31-1.1l-10.87-8.96l10.25-0.22c0.42-0.01,0.79-0.28,0.92-0.67
		c0.14-0.4,0.01-0.83-0.31-1.1L98.61,85.7l10.25-0.22C109.28,85.47,109.65,85.2,109.78,84.81z M95.89,72.82
		C95.89,72.82,95.89,72.82,95.89,72.82l-32.6,0.7l27.94-13.21l14.89,12.29L95.89,72.82z M86.71,60.24L58.77,73.44L43.87,61.15
		L86.71,60.24z M106.12,105.44l-47.15,1.01L43.88,94l9.88-0.21l4.23,3.48c0.09,0.08,0.2,0.13,0.31,0.17
		c0.03,0.01,0.07,0.01,0.1,0.02c0.07,0.02,0.15,0.04,0.22,0.04c0.01,0,0.01,0,0.02,0l36.9-0.79L106.12,105.44z M95.54,85.76
		l10.58,8.72L95.87,94.7c0,0,0,0,0,0l-36.9,0.79L43.88,83.05l9.88-0.21l4.23,3.48c0.09,0.08,0.19,0.13,0.3,0.17
		c0.06,0.02,0.12,0.02,0.18,0.03c0.05,0.01,0.1,0.03,0.15,0.03c0.01,0,0.01,0,0.02,0L95.54,85.76z M58.97,84.54L43.88,72.1
		l9.87-0.21l4.24,3.5c0.01,0.01,0.03,0.02,0.05,0.03c0.06,0.04,0.12,0.08,0.19,0.11c0.02,0.01,0.04,0.03,0.06,0.04
		c0.01,0,0.03,0.01,0.04,0.01c0.1,0.03,0.19,0.05,0.3,0.05c0,0,0,0,0,0c0.01,0,0.01,0,0.02,0l36.92-0.79l10.56,8.7L58.97,84.54z"/>
	<path style="fill:#778A97;" d="M104,61.66c2.37,0,4.29-1.92,4.29-4.29c0-1.03-0.36-2-1.03-2.78v-9.78c0-1.8-1.46-3.26-3.26-3.26
		s-3.26,1.46-3.26,3.26v9.78c-0.67,0.78-1.03,1.75-1.03,2.78C99.71,59.73,101.63,61.66,104,61.66z M102.43,55.71
		c0.2-0.19,0.31-0.45,0.31-0.73V44.81c0-0.69,0.56-1.26,1.26-1.26s1.26,0.56,1.26,1.26v1.32h-0.45c-0.55,0-1,0.45-1,1s0.45,1,1,1
		h0.45v1.33h-0.45c-0.55,0-1,0.45-1,1s0.45,1,1,1h0.45v1.33h-0.45c-0.55,0-1,0.45-1,1s0.45,1,1,1h0.45v0.2
		c0,0.27,0.11,0.54,0.31,0.73c0.46,0.44,0.72,1.03,0.72,1.66c0,1.26-1.03,2.29-2.29,2.29c-1.26,0-2.29-1.03-2.29-2.29
		C101.71,56.74,101.96,56.15,102.43,55.71z"/>
</g>
</svg>
