<svg xmlns="http://www.w3.org/2000/svg" viewBox="0 0 150 150"><path d="M99.1 46l-8.5-1.3-12.9-2c-.5-.1-1 .2-1.1.7l-6.7 22.9.3-23.9c0-.5-.4-.9-.8-1l-7.9-1.2c-.3 0-.5 0-.7.2-.2.2-.4.4-.4.7l-4.7 30.5-1.2 7.9c0 .3 0 .5.2.7.2.2.4.4.7.4l13.3 2.1-3.9 19.7c-.3 1.7.2 3.4 1.2 4.8s2.5 2.3 4.2 2.5c.3.1.7.1 1 .1 1.4 0 2.7-.4 3.8-1.2 1.4-1 2.3-2.5 2.6-4.2l2.2-20 13.3 2.1h.2c.5 0 .9-.4 1-.8l1.2-7.9 4.7-30.5c-.2-.7-.6-1.2-1.1-1.3zm-37-3.7l6 .9-.4 29.2-7.2-1.1-2.8-.4 4.4-28.6zm13.2 61.8c-.2 1.2-.8 2.2-1.8 2.9s-2.1 1-3.3.8c-1.2-.2-2.2-.8-2.9-1.8-.7-1-1-2.1-.8-3.2l4-19.8 2.8.4 4.2.7-2.2 20zm16.8-19.8l-13.4-2.1h-.3l-22-3.4.9-5.9 4.1.6 7 1.1 24.5 3.8-.8 5.9zm1.3-7.9L70 72.8l8.2-28 11 1.7-2.5 15.9c-.1.5.3 1.1.8 1.1h.2c.5 0 .9-.4 1-.8l2.5-15.9 6.6 1-4.4 28.6z" fill="#778a97"/></svg>