<svg xmlns="http://www.w3.org/2000/svg" viewBox="0 0 150 150"><g fill="#778a97"><path d="M112.67 72.36a3.84 3.84 0 00-1-2.92c-.73-.8-1.78-1.26-2.86-1.26h-.83v-2.82c0-.55-.45-1-1-1h-5.26V57.7c0-.02-.01-.04-.01-.07-.06-5.49-7.93-10.02-19.67-11.38l-4.08-9.47a.994.994 0 00-1.31-.52L60 43.41c-.24.1-.44.3-.53.55-.1.25-.09.52.01.77l1.25 2.9c-7.8 2.15-12.43 5.88-12.43 10.08 0 .04.01.07.01.1v6.56h-5.26c-.55 0-1 .45-1 1v2.82h-.83c-1.09 0-2.13.46-2.86 1.26a3.82 3.82 0 00-.99 2.92c.73 8.39 4.7 13.37 10.95 13.85v15.73c0 6.66 11.73 11.88 26.71 11.88s26.71-5.22 26.71-11.88V86.22c6.22-.48 10.2-5.46 10.93-13.86zm-6.69-6v5.65h-4.26v-5.65h4.26zm-6.27-8.66c0 .21-.02.41-.05.61v.02c-.03.17-.08.33-.13.49-.02.05-.03.1-.04.15-.05.15-.12.3-.19.45-.02.05-.05.1-.07.15-.08.15-.16.29-.25.44-.02.04-.05.08-.08.11-.1.15-.21.3-.32.44-.01.01-.02.03-.04.04-.39.48-.85.92-1.3 1.29l-.24-.15c-.15-.1-.3-.19-.45-.28-.21-.13-.42-.25-.64-.37-.16-.09-.32-.18-.48-.26-.23-.12-.48-.24-.72-.36-.17-.08-.33-.16-.5-.24-.27-.12-.55-.24-.83-.36-.16-.07-.32-.14-.48-.2-.35-.14-.71-.27-1.08-.4-.11-.04-.21-.08-.31-.11-.51-.15-1.01-.3-1.51-.45-.14-.04-.28-.07-.41-.11-.38-.11-.76-.21-1.15-.31-.2-.05-.4-.09-.6-.14-.25-.06-.5-.12-.76-.18l-4.13-9.59c9.81 1.35 16.76 5.17 16.76 9.32zm-27.83 9.8l-.93-.06c-.21-.01-.42-.03-.63-.04-.29-.02-.58-.05-.87-.08-.23-.02-.45-.04-.68-.07l-.81-.09-.7-.09c-.26-.04-.52-.07-.78-.11-.24-.04-.47-.07-.7-.11-.25-.04-.49-.08-.74-.13-.24-.04-.48-.09-.71-.14-.23-.05-.46-.09-.69-.14-.24-.05-.48-.11-.73-.16l-.63-.15c-.25-.06-.5-.13-.75-.2l-.56-.15c-.29-.08-.57-.17-.86-.26l-.4-.12c-.41-.13-.82-.27-1.21-.41-.04-.02-.08-.03-.13-.05-.35-.13-.69-.26-1.02-.4-.1-.04-.2-.09-.3-.13-.27-.11-.53-.23-.78-.35-.11-.05-.22-.11-.33-.16-.23-.12-.47-.23-.69-.35-.11-.06-.21-.12-.31-.18-.14-.08-.27-.16-.4-.24.38-.23.78-.45 1.2-.66.12-.06.26-.12.39-.18.32-.15.64-.3.98-.45l.51-.21c.32-.13.65-.26.99-.38.18-.07.37-.13.56-.2.37-.13.75-.25 1.13-.36l.5-.15c.56-.16 1.13-.31 1.72-.46.03-.01.05-.01.08-.02.56-.13 1.14-.26 1.74-.37.2-.04.4-.07.59-.11l.87-.15 1.77 4.1c.16.37.52.6.92.6h8.09c.14 0 .27-.03.4-.08l9.63-4.15c.29.06.58.13.87.2a40.32 40.32 0 011.78.46c.12.04.24.07.36.11.34.1.67.2.99.31.15.05.3.1.45.16.29.1.57.2.85.31.14.06.29.11.43.17.29.12.57.24.85.36.11.05.22.09.32.14.37.17.74.35 1.08.53.06.03.11.06.17.09.23.13.46.26.68.39-.03.02-.06.04-.09.05-.25.15-.51.29-.78.43-.03.02-.07.04-.1.05-1.84.96-4.06 1.76-6.55 2.39-.03.01-.06.01-.08.02-.36.09-.74.18-1.11.26-.08.02-.16.04-.24.05-.35.08-.71.15-1.07.22l-.32.06c-.35.06-.7.12-1.06.18-.12.02-.25.04-.38.06l-1.05.15c-.14.02-.27.04-.41.05-.35.04-.71.09-1.06.12-.14.01-.28.03-.42.04-.36.04-.73.07-1.09.1l-.4.03c-.38.03-.76.05-1.14.07-.11.01-.21.01-.32.01-.91.04-1.83.07-2.76.07-.87 0-1.73-.02-2.59-.06-.19.03-.37.03-.54.02zm4.63-29.01l6.43 14.91 2.15 4.99-8.72 3.76h-7.22l-1.81-4.22-3.07-7.13-2.56-5.95 14.8-6.36zM61.5 49.48l.41.96 3.06 7.11c-.17.03-.34.07-.51.1-.27.05-.53.1-.79.15a24 24 0 00-1.22.27c-.25.06-.49.11-.73.17-.42.1-.82.21-1.23.33-.21.06-.42.11-.62.18-.5.15-.98.31-1.45.47-.09.03-.19.06-.29.1-.56.2-1.1.41-1.62.63-.15.06-.29.13-.43.19-.36.16-.72.32-1.07.49-.18.09-.35.18-.52.27-.29.15-.58.31-.85.47-.17.1-.34.21-.51.31-.12.08-.26.15-.38.23-.34-.28-.69-.6-1-.94l-.01-.01c-.15-.17-.3-.34-.44-.53-.02-.02-.03-.05-.05-.07-.12-.17-.24-.34-.34-.52a.405.405 0 01-.05-.09c-.1-.18-.19-.37-.27-.56-.01-.03-.02-.05-.03-.08-.17-.44-.27-.91-.27-1.4 0-.01-.01-.02-.01-.03.02-3.19 4.39-6.36 11.22-8.2zM44.02 66.36h4.26v5.65h-4.26v-5.65zm-4.69 5.83c-.04-.51.12-1.01.48-1.39.36-.39.86-.61 1.39-.61h.83v2.82c0 .55.45 1 1 1h5.26V84.2c-6.91-.63-8.59-7.7-8.96-12.01zm60.38 29.75c0 5.35-11.32 9.88-24.71 9.88s-24.71-4.52-24.71-9.88V62.31l.06.06c.22.23.45.46.7.69l.12.12c.3.27.62.53.97.78 1.81 1.32 4.14 2.44 6.85 3.33 4.51 1.48 10.08 2.3 16.02 2.3 9.5 0 18.04-2.1 22.86-5.62a12.8 12.8 0 001.49-1.29c.07-.07.14-.13.2-.2l.16-.16v39.62zm2-17.74V74.01h5.26c.55 0 1-.45 1-1v-2.82h.83c.53 0 1.03.22 1.39.61.35.38.52.88.48 1.39-.37 4.31-2.06 11.38-8.96 12.01z"/><path d="M75.94 88.64a.997.997 0 00-.94-.65c-2.95 0-5.9-.3-8.79-.89v-5.68c0-.47-.33-.87-.78-.98a43.91 43.91 0 01-6.99-2.19.987.987 0 00-.94.1c-.28.19-.44.5-.44.83v20.7c0 .41.25.77.62.93 2.37.96 4.83 1.74 7.31 2.29.07.02.15.02.22.02.23 0 .45-.08.62-.22a1 1 0 00.38-.78v-5.28a93.64 93.64 0 009.44-7.08c.32-.29.43-.73.29-1.12zm-11.27 6.81c-.29.18-.46.5-.46.84v4.56c-1.75-.44-3.47-1-5.15-1.65V80.63c1.68.62 3.41 1.15 5.15 1.57v5.7c0 .47.33.87.78.98 2.41.54 4.86.88 7.33 1.03a91.437 91.437 0 01-7.65 5.54zM92.5 78.34c-.28-.19-.63-.22-.94-.1a43.91 43.91 0 01-6.99 2.19c-.46.1-.78.51-.78.98v6.1c-3.04 3.29-6.23 6.36-9.48 9.12-.32.27-.44.71-.29 1.11.15.41.57.65.98.66 2.95 0 5.9-.29 8.79-.85v4.56c0 .3.14.59.38.78a1.02 1.02 0 00.84.2c2.49-.55 4.95-1.33 7.31-2.29a.99.99 0 00.62-.93v-20.7a.974.974 0 00-.44-.83zm-1.55 20.85c-1.68.66-3.41 1.21-5.15 1.65v-4.52a1 1 0 00-.38-.78 1.02 1.02 0 00-.84-.2c-2.25.5-4.55.83-6.85.97 2.67-2.4 5.29-4.99 7.81-7.74.17-.18.26-.43.26-.68v-5.7c1.74-.42 3.47-.95 5.15-1.57v18.57z"/></g></svg>