<?xml version="1.0" encoding="utf-8"?>
<!-- Generator: Adobe Illustrator 27.1.1, SVG Export Plug-In . SVG Version: 6.00 Build 0)  -->
<svg version="1.1" id="Layer_1" xmlns="http://www.w3.org/2000/svg" xmlns:xlink="http://www.w3.org/1999/xlink" x="0px" y="0px"
	 viewBox="0 0 16 16" style="enable-background:new 0 0 16 16;" xml:space="preserve">
<path d="M9.3,10.82l1.88,1.75c0.09,0.08,0.16,0.18,0.21,0.29c0.05,0.11,0.07,0.23,0.07,0.34c0,0.12-0.03,0.23-0.07,0.34
	c-0.05,0.11-0.12,0.21-0.21,0.29c-0.08,0.09-0.18,0.17-0.3,0.22c-0.11,0.05-0.24,0.08-0.37,0.08c-0.13,0-0.25-0.03-0.37-0.08
	c-0.11-0.05-0.22-0.13-0.3-0.22l-1.88-1.75l-1.84,1.75c-0.09,0.09-0.2,0.15-0.31,0.2C5.7,14.08,5.57,14.1,5.44,14.1
	c-0.25-0.01-0.5-0.1-0.69-0.26c-0.09-0.08-0.16-0.18-0.21-0.29c-0.05-0.11-0.07-0.23-0.07-0.34c0-0.12,0.03-0.23,0.07-0.34
	c0.05-0.11,0.12-0.21,0.21-0.29l1.93-1.75c-0.69-0.21-1.35-0.48-1.98-0.83C4.49,9.86,4.34,9.65,4.28,9.42
	c-0.06-0.23-0.02-0.48,0.1-0.69c0.07-0.11,0.16-0.2,0.27-0.27c0.11-0.07,0.23-0.12,0.36-0.14c0.13-0.03,0.26-0.02,0.39,0
	c0.13,0.03,0.25,0.08,0.36,0.15c0.67,0.39,1.44,0.59,2.23,0.59c0.79,0,1.56-0.2,2.23-0.59c0.11-0.07,0.23-0.12,0.36-0.15
	c0.13-0.03,0.26-0.03,0.39,0c0.13,0.02,0.25,0.07,0.36,0.14c0.11,0.07,0.2,0.16,0.27,0.27c0.13,0.21,0.17,0.45,0.12,0.68
	c-0.05,0.24-0.19,0.44-0.4,0.58C10.69,10.34,10.01,10.62,9.3,10.82 M7.97,3.75c-0.19,0-0.37,0.04-0.54,0.1
	C7.26,3.92,7.11,4.02,6.98,4.14c-0.13,0.13-0.23,0.28-0.3,0.44C6.62,4.75,6.59,4.92,6.59,5.1c0,0.17,0.03,0.34,0.1,0.5
	c0.07,0.16,0.17,0.3,0.3,0.42c0.13,0.12,0.28,0.21,0.45,0.27c0.17,0.06,0.35,0.09,0.53,0.08c0.18,0,0.36-0.03,0.52-0.09
	c0.17-0.06,0.32-0.15,0.45-0.27c0.13-0.12,0.23-0.26,0.3-0.41C9.31,5.44,9.35,5.27,9.35,5.1c0.01-0.18-0.03-0.35-0.09-0.52
	c-0.07-0.16-0.17-0.31-0.3-0.44C8.83,4.02,8.68,3.92,8.51,3.85C8.34,3.78,8.16,3.75,7.97,3.75 M7.97,8.2
	c-0.88,0-1.72-0.34-2.34-0.93C5.02,6.69,4.67,5.89,4.66,5.06c0-0.84,0.35-1.64,0.97-2.24c0.62-0.6,1.46-0.94,2.34-0.95
	c0.44,0,0.87,0.08,1.28,0.24c0.4,0.16,0.77,0.4,1.08,0.69c0.31,0.3,0.55,0.65,0.71,1.04c0.16,0.39,0.24,0.8,0.24,1.22
	c0.01,0.41-0.08,0.83-0.24,1.21C10.87,6.65,10.63,7,10.32,7.29c-0.31,0.29-0.68,0.52-1.08,0.68C8.84,8.13,8.41,8.21,7.97,8.2"/>
</svg>
