<svg xmlns="http://www.w3.org/2000/svg" viewBox="0 0 150 150"><g fill="#778a97"><path d="M54.1 85.9c-1.1 0-2.1.9-2.1 2.1s.9 2.1 2.1 2.1c1.1 0 2.1-.9 2.1-2.1s-1-2.1-2.1-2.1zm0 2.1c-.1 0-.1 0 0 0-.1-.1 0-.1 0-.1v.1zm12.3-2.1c-1.1 0-2.1.9-2.1 2.1s.9 2.1 2.1 2.1c1.1 0 2.1-.9 2.1-2.1s-1-2.1-2.1-2.1zm0 2.1c-.1 0-.1 0 0 0-.1-.1 0-.1 0-.1v.1zm34.4-2.1c-1.1 0-2.1.9-2.1 2.1s.9 2.1 2.1 2.1c1.1 0 2.1-.9 2.1-2.1s-1-2.1-2.1-2.1zm0 2.1s-.1 0 0 0c-.1-.1 0-.1 0-.1s.1 0 0 .1c.1 0 0 0 0 0z"/><path d="M111.2 71.2l-1.7-12.3c-.1-.5-.5-.9-1-.9h-17c-.6 0-1 .4-1 1v17.1h-3.1V56.9h4.1c.6 0 1-.4 1-1s-.4-1-1-1H43.4c-.5 0-.9.4-1 .8L38.8 77c0 .3 0 .6.2.8.2.2.5.4.8.4h2.5v3.6c0 .6.4 1 1 1s1-.4 1-1v-3.6h27.2V83c-1.3-1.4-3.1-2.2-5.1-2.2-2.6 0-4.9 1.4-6.1 3.5-1.2-2.1-3.5-3.5-6.1-3.5-3.9 0-7.1 3.2-7.1 7.1 0 3.9 3.2 7.1 7.1 7.1 2.6 0 4.9-1.4 6.1-3.5 1.2 2.1 3.5 3.5 6.1 3.5 3.6 0 6.6-2.7 7.1-6.1h20.3c.5 3.5 3.5 6.1 7.1 6.1s6.6-2.7 7.1-6.1h2.3c.6 0 1-.4 1-1l-.1-16.7c0 .1 0 .1 0 0zm-2.2-1l-8.7-.9V60h7.3l1.4 10.2zM92.4 60h5.9v9l-5.9-.6V60zm-48.3-3.1h41.2v6.7H43l1.1-6.7zm-1.4 8.7h21.8v4.2c0 .6.4 1 1 1s1-.4 1-1v-4.2h5v4.2c0 .6.4 1 1 1s1-.4 1-1v-4.2h5v4.2c0 .6.4 1 1 1s1-.4 1-1v-4.2h4.8v10.5H41l1.7-10.5zm11.4 27.5c-2.8 0-5.1-2.3-5.1-5.1s2.3-5.1 5.1-5.1 5.1 2.3 5.1 5.1-2.3 5.1-5.1 5.1zm12.3 0c-2.8 0-5.1-2.3-5.1-5.1s2.3-5.1 5.1-5.1 5.1 2.3 5.1 5.1-2.3 5.1-5.1 5.1zm24-6.2H73.5v-8.8h16.9v8.8zm10.4 6.2c-2.8 0-5.1-2.3-5.1-5.1s2.3-5.1 5.1-5.1 5.1 2.3 5.1 5.1-2.3 5.1-5.1 5.1zm8.4-6.2h-1.3v-.3c0-.1 0-.2-.1-.3 0-.1-.1-.3-.1-.4 0-.1 0-.2-.1-.2 0-.1-.1-.3-.2-.4 0-.1-.1-.1-.1-.2-.1-.2-.2-.3-.2-.5 0 0 0-.1-.1-.1l-.3-.6-.1-.1c-.1-.1-.2-.3-.3-.4l-.2-.2-.3-.3-.2-.2-.3-.3-.2-.2c-.1-.1-.2-.2-.3-.2-.1-.1-.2-.1-.2-.2-.1-.1-.2-.1-.3-.2-.1 0-.2-.1-.2-.1-.1-.1-.2-.1-.3-.2-.1 0-.2-.1-.3-.1-.1 0-.2-.1-.4-.1-.1 0-.2-.1-.3-.1-.1 0-.3-.1-.4-.1-.1 0-.2 0-.3-.1-.1 0-.3 0-.5-.1h-1.8c-.2 0-.3 0-.5.1-.1 0-.2 0-.3.1-.1 0-.3.1-.4.1-.1 0-.2.1-.3.1-.1 0-.2.1-.4.1-.1 0-.2.1-.3.1-.1.1-.2.1-.3.2-.1 0-.2.1-.3.1-.1.1-.2.1-.3.2-.1.1-.2.1-.2.2-.1.1-.2.1-.3.2-.1.1-.2.1-.2.2l-.3.3-.2.2-.3.3-.2.2c-.1.1-.2.2-.3.4 0 .1-.1.1-.1.1l-.3.6s0 .1-.1.1c-.1.2-.2.3-.2.5 0 .1-.1.1-.1.2-.1.1-.1.3-.2.4 0 .1 0 .2-.1.3 0 .1-.1.3-.1.4 0 .1 0 .2-.1.3v.3h-1.3V70.4l16.8 1.8v14.7z"/></g></svg>