<?xml version="1.0" encoding="utf-8"?>
<!-- Generator: Adobe Illustrator 27.1.1, SVG Export Plug-In . SVG Version: 6.00 Build 0)  -->
<svg version="1.1" id="Layer_1" xmlns="http://www.w3.org/2000/svg" xmlns:xlink="http://www.w3.org/1999/xlink" x="0px" y="0px"
	 viewBox="0 0 16 16" style="enable-background:new 0 0 16 16;" xml:space="preserve">
<path d="M13.7,3.54c-0.11-0.14-0.3-0.2-0.47-0.13L2.6,7.42C2.39,7.5,2.24,7.69,2.21,7.93C2.18,8.16,2.28,8.38,2.47,8.51L3.99,9.6
	C4.13,9.7,4.32,9.71,4.48,9.63l3.3-1.81l-2.57,2c-0.12,0.09-0.19,0.24-0.19,0.4v1.86c0,0.19,0.1,0.37,0.26,0.46
	c0.16,0.09,0.36,0.08,0.51-0.02l1.15-0.8l1.14,0.81c0.1,0.07,0.22,0.11,0.34,0.11c0.04,0,0.08,0,0.12-0.01
	c0.16-0.04,0.3-0.14,0.39-0.28l4.81-8.28C13.83,3.89,13.81,3.68,13.7,3.54"/>
</svg>
