<?xml version="1.0" encoding="utf-8"?>
<!-- Generator: Adobe Illustrator 27.1.1, SVG Export Plug-In . SVG Version: 6.00 Build 0)  -->
<svg version="1.1" id="Layer_1" xmlns="http://www.w3.org/2000/svg" xmlns:xlink="http://www.w3.org/1999/xlink" x="0px" y="0px"
	 viewBox="0 0 150 150" style="enable-background:new 0 0 150 150;" xml:space="preserve">
<g>
	<path style="fill:#778A97;" d="M106.14,47.49c-0.01-0.04-0.04-0.08-0.05-0.12c-0.03-0.07-0.05-0.14-0.09-0.21
		c-0.03-0.05-0.07-0.09-0.11-0.13c-0.04-0.04-0.06-0.09-0.1-0.12c-3.39-2.61-7.1-4.76-11.01-6.39c-6.23-2.6-12.89-3.85-19.75-3.74
		c0,0,0,0,0,0c-0.01,0-0.01,0-0.02,0c-0.01,0-0.01,0-0.02,0c0,0,0,0,0,0c-6.9-0.1-13.51,1.15-19.75,3.74
		c-3.92,1.63-7.62,3.78-11.01,6.39c-0.04,0.03-0.06,0.07-0.1,0.11c-0.04,0.04-0.09,0.08-0.12,0.14c-0.04,0.06-0.06,0.13-0.09,0.2
		c-0.02,0.04-0.04,0.08-0.05,0.12c-1.41,6.26-4.94,28.19,8.76,47.44c5.48,7.7,13.07,13.99,21.95,18.19c0.02,0.01,0.03,0,0.05,0.01
		c0.12,0.05,0.24,0.08,0.38,0.08c0,0,0,0,0,0c0,0,0,0,0,0s0,0,0,0c0,0,0,0,0,0c0.13,0,0.26-0.03,0.38-0.08
		c0.02-0.01,0.03,0,0.05-0.01c8.88-4.2,16.47-10.49,21.95-18.19C111.09,75.68,107.55,53.76,106.14,47.49z M56,42.38
		c5.99-2.49,12.37-3.71,18.98-3.59c0.01,0,0.01,0,0.02,0s0.01,0,0.02,0c6.59-0.11,12.99,1.1,18.98,3.59
		c3.63,1.51,7.08,3.49,10.25,5.89c1.09,6.74,2.3,23.17-7.86,38.79c-6.54,10.06-15.15,15.8-21.39,18.88
		c-6.23-3.08-14.85-8.81-21.39-18.88C43.46,71.44,44.66,55,45.75,48.27C48.92,45.87,52.37,43.89,56,42.38z M95.75,93.77
		c-5.19,7.29-12.36,13.27-20.75,17.32c-8.39-4.05-15.56-10.03-20.75-17.32c-3.97-5.57-6.43-11.38-7.9-16.94
		c1.33,3.73,3.13,7.55,5.59,11.32c6.95,10.68,16.14,16.67,22.63,19.81c0.02,0.01,0.03,0,0.05,0.01c0.12,0.05,0.25,0.09,0.38,0.09
		c0,0,0,0,0,0c0,0,0,0,0,0s0,0,0,0c0,0,0,0,0,0c0.13,0,0.26-0.04,0.38-0.09c0.02-0.01,0.03,0,0.05-0.01
		c6.49-3.14,15.69-9.12,22.63-19.81c2.46-3.78,4.27-7.61,5.6-11.35C102.19,82.38,99.72,88.19,95.75,93.77z"/>
	<path style="fill:#778A97;" d="M55.21,58.27l4.6,3.08c0.24,0.16,0.53,0.21,0.8,0.14s0.51-0.25,0.64-0.5
		c0.52-0.99,1.59-2.15,2.87-2.15c0.4,0,1.72,0.11,1.72,1.51c0,0.87-1.54,1.93-3.17,3.05c-3.27,2.25-7.76,5.32-7.76,11.59
		c0,0.84,0.1,1.76,0.3,2.9c0.09,0.48,0.5,0.82,0.98,0.82H73.7c0.55,0,1-0.45,1-1v-5.3c0-0.55-0.45-1-1-1h-9.12
		c0.61-0.51,1.47-1.06,2.33-1.59c3.12-1.97,7.4-4.66,7.4-10.07c0-6.01-4.99-8.75-9.63-8.75c-4.25,0-7.83,2.18-9.8,5.99
		C54.64,57.44,54.78,57.99,55.21,58.27z M64.68,53c3.8,0,7.63,2.09,7.63,6.75c0,4.31-3.44,6.47-6.47,8.38
		c-2.09,1.31-3.9,2.45-4.06,4.19c-0.03,0.28,0.07,0.56,0.25,0.77s0.46,0.33,0.74,0.33h9.93v3.3H57.04
		c-0.09-0.65-0.14-1.21-0.14-1.72c0-5.22,3.82-7.84,6.89-9.95c2.17-1.49,4.04-2.77,4.04-4.7c0-2.41-1.93-3.51-3.72-3.51
		c-1.73,0-3.13,1.06-4.05,2.29l-2.97-1.99C58.25,55.32,60.53,53,64.68,53z"/>
	<path style="fill:#778A97;" d="M85.35,79.13c6.01,0,10.37-4.21,10.37-10.02c0-4.63-3.11-9.31-10.05-9.31
		c-0.17,0-0.45,0.02-0.75,0.05l0.07-1.13h7.83c0.55,0,1-0.45,1-1v-5.31c0-0.55-0.45-1-1-1H78.67c-0.52,0-0.96,0.4-1,0.92
		l-1.03,13.23c-0.03,0.44,0.23,0.86,0.64,1.01l3.29,1.24c0.26,0.1,0.55,0.08,0.8-0.04c0.97-0.49,1.99-0.74,2.95-0.74
		c1.4,0,3.03,0.56,3.03,2.15c0,1.55-1.52,2.11-2.54,2.11c-1.72,0-3.47-1.07-4.44-1.99c-0.22-0.21-0.52-0.31-0.81-0.26
		c-0.3,0.04-0.56,0.21-0.72,0.46l-2.97,4.77c-0.25,0.4-0.18,0.92,0.16,1.25C78.43,77.82,81.83,79.13,85.35,79.13z M79.94,71.53
		c1.3,0.95,3.06,1.77,4.88,1.77c2.2,0,4.54-1.44,4.54-4.11c0-2.44-2.07-4.15-5.03-4.15c-1.13,0-2.31,0.26-3.44,0.76l-2.19-0.82
		l0.9-11.56h12.22v3.31h-7.77c-0.53,0-0.97,0.41-1,0.94l-0.14,2.32c-0.03,0.42-0.12,0.85-0.12,0.85c-0.06,0.3,0.04,0.6,0.24,0.84
		c0.25,0.32,0.77,0.43,1.15,0.31c0.21-0.07,1.13-0.19,1.5-0.19c5.94,0,8.05,3.78,8.05,7.31c0,4.72-3.44,8.02-8.37,8.02
		c-2.73,0-5.35-0.91-7.33-2.51L79.94,71.53z"/>
</g>
</svg>
