<?xml version="1.0" encoding="utf-8"?>
<!-- Generator: Adobe Illustrator 27.1.1, SVG Export Plug-In . SVG Version: 6.00 Build 0)  -->
<svg version="1.1" id="Layer_1" xmlns="http://www.w3.org/2000/svg" xmlns:xlink="http://www.w3.org/1999/xlink" x="0px" y="0px"
	 viewBox="0 0 150 150" style="enable-background:new 0 0 150 150;" xml:space="preserve">
<path style="fill:#778A97;" d="M100.59,59.11v-0.57c2.02-0.46,3.54-2.26,3.54-4.42c0-2.17-1.52-3.98-3.54-4.44v-0.57
	c0-0.55-0.45-1-1-1h-34.5c-0.55,0-1,0.45-1,1v1.1h-4.12v-1.09c0-0.46-0.32-0.87-0.77-0.97l-7.78-1.83c-0.3-0.07-0.61,0-0.85,0.19
	c-0.24,0.19-0.38,0.48-0.38,0.78v13.65c0,0.31,0.14,0.59,0.38,0.78c0.18,0.14,0.4,0.22,0.62,0.22c0.08,0,0.15-0.01,0.23-0.03
	l7.78-1.83c0.45-0.11,0.77-0.51,0.77-0.97v-1.09h4.12v1.1c0,0.55,0.45,1,1,1h16.54l6.82,18.85c0.13,0.37,0.48,0.62,0.87,0.65
	c0.04,0.2,0.09,0.4,0.16,0.6c3.22,8.86,1.45,12.23,0.84,13.04c-0.9,1.16-2.22,1.16-2.77,1.1c-3.78-0.33-4.66-2.21-6.11-9.49
	c-1.28-6.45-3.22-16.19-14.46-18.36c-11.77-2.27-18.75,7.29-20.8,12.66c-0.18,0.47-0.25,0.96-0.27,1.44
	c-0.01,0.1-0.03,0.2-0.03,0.31c0,1.92,1.2,3.55,2.89,4.21c0.03,0.01,0.06,0.03,0.09,0.05c0.21,0.08,0.42,0.13,0.63,0.18c0,0,0,0,0,0
	c0.97,0.23,1.98,0.16,2.92-0.25c1.14-0.5,2.02-1.42,2.47-2.57c0.34-0.84,3.5-8.16,10.33-6.86c4.62,0.9,5.61,3.74,7.09,11.08
	c1.27,6.34,3.18,15.93,14.42,16.92c0.38,0.04,0.78,0.04,1.17,0.04c3.92,0,7.51-1.73,9.83-4.75c0,0,0,0,0,0
	c2.42-3.14,4.54-9.06,1.34-19.48c0.11-0.07,0.22-0.16,0.3-0.27c0.19-0.27,0.23-0.61,0.12-0.91l-6.58-18.17h6.68
	C100.14,60.11,100.59,59.67,100.59,59.11z M57.97,58.31l-5.78,1.36V48.56l5.78,1.36v1.3v5.79V58.31z M64.08,56.01h-4.12v-3.79h4.12
	V56.01z M102.13,54.12c0,1.05-0.63,1.95-1.54,2.33v-4.69C101.49,52.16,102.13,53.07,102.13,54.12z M50.4,83.44
	c-0.31,0-0.61-0.06-0.88-0.17c-0.98-0.41-1.58-1.3-1.64-2.29c0-0.02-0.01-0.05-0.01-0.07c0-1.39,1.13-2.53,2.53-2.53
	s2.53,1.13,2.53,2.53S51.79,83.44,50.4,83.44z M96.13,97.73c-1.94,2.53-4.95,3.97-8.25,3.97c-0.31,0-0.65,0-0.97-0.03
	c-9.77-0.87-11.37-8.88-12.66-15.36c-1.42-7.05-2.6-11.43-8.66-12.61c-0.71-0.14-1.39-0.2-2.03-0.2c-4.53,0-7.45,3.1-9.05,5.53
	c-0.72-1.55-2.28-2.64-4.1-2.64c-0.2,0-0.4,0.03-0.59,0.06c2.92-4.56,8.54-9.56,16.8-7.97c9.91,1.91,11.55,10.16,12.87,16.78
	c1.35,6.76,2.38,10.61,7.88,11.09c0.67,0.07,2.99,0.15,4.55-1.88c1.22-1.63,2.77-5.72-0.52-14.84h5.64
	C100.17,89.51,98.3,94.92,96.13,97.73z M97.12,77.63H90.2h-0.11l-6.34-17.51h7.03L97.12,77.63z M98.59,58.11h-7.11h-9.15H66.09v-8
	h32.5v0.45v7.1V58.11z"/>
</svg>
