<svg xmlns="http://www.w3.org/2000/svg" viewBox="0 0 16 16"><path d="M9.3 10.82l1.88 1.75a.829.829 0 01.28.63c0 .12-.03.23-.07.34-.05.11-.12.21-.21.29a.91.91 0 01-.67.3c-.13 0-.25-.03-.37-.08a.932.932 0 01-.3-.22l-1.88-1.75-1.84 1.75c-.09.09-.2.15-.31.2-.11.05-.24.07-.37.07-.25-.01-.5-.1-.69-.26a.829.829 0 01-.28-.63c0-.12.03-.23.07-.34.05-.11.12-.21.21-.29l1.93-1.75c-.69-.21-1.35-.48-1.98-.83-.21-.14-.36-.35-.42-.58a.93.93 0 01.1-.69.934.934 0 01.63-.41c.13-.03.26-.02.39 0 .13.03.25.08.36.15.67.39 1.44.59 2.23.59s1.56-.2 2.23-.59c.11-.07.23-.12.36-.15.13-.03.26-.03.39 0a.934.934 0 01.63.41c.13.21.17.45.12.68-.05.24-.19.44-.4.58-.63.35-1.31.63-2.02.83M7.97 3.75c-.19 0-.37.04-.54.1-.17.07-.32.17-.45.29-.13.13-.23.28-.3.44-.06.17-.09.34-.09.52 0 .17.03.34.1.5a1.288 1.288 0 00.75.69c.17.06.35.09.53.08.18 0 .36-.03.52-.09a1.288 1.288 0 00.75-.68c.07-.16.11-.33.11-.5.01-.18-.03-.35-.09-.52-.07-.16-.17-.31-.3-.44a1.4 1.4 0 00-.99-.39m0 4.45a3.4 3.4 0 01-2.34-.93 3.11 3.11 0 01-.97-2.21c0-.84.35-1.64.97-2.24a3.42 3.42 0 013.62-.71c.4.16.77.4 1.08.69.31.3.55.65.71 1.04.16.39.24.8.24 1.22.01.41-.08.83-.24 1.21-.17.38-.41.73-.72 1.02-.31.29-.68.52-1.08.68-.4.16-.83.24-1.27.23"/></svg>