<svg xmlns="http://www.w3.org/2000/svg" viewBox="0 0 150 150"><g fill="#778a97"><path d="M88.3 55h-1.7c-.2-2.9-1.6-5.5-3.7-7.5-.2-.2-.4-.3-.7-.3h-1.4l-.8-7.1c-.1-.5-.5-.9-1-.9h-7.8c-.5 0-.9.4-1 .9l-.9 7.1h-1.4c-.3 0-.5.1-.7.3-2.1 2-3.4 4.6-3.7 7.5h-1.8c-.6 0-1 .4-1 1v53.7c0 .6.4 1 1 1h26.6c.6 0 1-.4 1-1V56c0-.5-.5-1-1-1zM72.1 41.3h6l.8 6h-7.5l.7-6zm-3.8 8h13.6c1.5 1.6 2.5 3.6 2.7 5.8H65.5c.3-2.2 1.2-4.3 2.8-5.8zm19 40h-3.7V86c0-.6-.4-1-1-1h-4.8l5.4-4.4.2-.2v-.1c0-.1.1-.1.1-.2v-3.7h3.7v12.9zm0-14.9h-4.7c-.6 0-1 .4-1 1v3.9l-7.3 5.8c-.3.3-.5.7-.3 1.1s.5.7.9.7h6.6v3.4c0 .6.4 1 1 1h4.7v17.4H62.7V91.3h4.7c.6 0 1-.4 1-1v-3.8l7.3-5.8c.3-.3.5-.7.3-1.1-.1-.4-.5-.7-.9-.7h-6.6v-3.4c0-.6-.4-1-1-1h-4.7V57h5.5v6.1c0 .6.4 1 1 1s1-.4 1-1V57h17.1v17.4zm-19.9 6.4h4.8l-5.4 4.3c-.3.2-.4.6-.4 1v3.2h-3.7V76.4h3.7v3.4c0 .6.5 1 1 1z"/><path d="M75.1 42.4c-1 0-1.9.8-1.9 1.9s.8 1.9 1.9 1.9c1 0 1.9-.8 1.9-1.9s-.9-1.9-1.9-1.9z"/></g></svg>