<svg xmlns="http://www.w3.org/2000/svg" viewBox="0 0 150 150"><g fill="#778a97"><path d="M118.72 48.05c.16-.23.22-.53.15-.81s-.25-.52-.5-.65l-14.76-7.78c-.25-.13-.55-.15-.82-.05-.27.1-.48.31-.58.58L91.95 66.61l-36.22 42.08-2.95-4.03.72-4.97c.04-.29-.04-.58-.23-.8s-.47-.35-.76-.35h-7.47c-.46 0-.86.31-.97.75l-1.02 4.02-6.05-2.42a1.01 1.01 0 00-.85.05c-.26.14-.45.4-.5.69l-1.49 7.68H32.1c-.55 0-1 .45-1 1s.45 1 1 1h73.68c.55 0 1-.45 1-1s-.45-1-1-1H92.09l9.93-37.39 16.7-23.87zM94.07 66.66l1.27-3.37 7.5 3.96-2.06 2.95-6.71-3.54zm9.61-25.55l12.75 6.72L104 65.59l-7.95-4.19 7.63-20.29zm-67.5 68.19l1.19-6.11 6 2.42c.27.11.57.09.83-.04a1 1 0 00.52-.65l1.11-4.37h5.54l-.62 4.23c-.04.26.03.52.18.74l2.77 3.78H36.18zm56.88-40.91l2.54 1.34-20.85 39.57h-16.9l35.21-40.91zM77.01 109.3l20.37-38.64L99.92 72l-9.91 37.3h-13z"/><path d="M40.23 86.02l7.91 4.26a.995.995 0 00.89.03c.29-.13.49-.4.56-.71l1.3-6.43a.998.998 0 00-.41-1.02l-5.04-3.47a.999.999 0 00-1.37.23l-4.17 5.65c-.17.23-.23.53-.17.81.06.27.25.51.5.65zm4.87-5.16l3.7 2.55-.9 4.46-5.7-3.07 2.9-3.94zm12.45-2.75c.12.43.52.73.96.73.04 0 .09 0 .13-.01l5.99-.78c.5-.06.87-.49.87-.99v-9.3a.992.992 0 00-1.18-.98l-8.43 1.55a1 1 0 00-.67.46.98.98 0 00-.11.8l2.44 8.52zm5.96-9.15v7.22l-4.27.56-1.89-6.64 6.16-1.14zm-8.5 26.89l5.08 1.04c.07.01.14.02.2.02.44 0 .84-.29.96-.74l1.95-7.19a1 1 0 00-.21-.92.996.996 0 00-.87-.34l-5.72.68c-.42.05-.76.35-.86.76l-1.3 5.47c-.06.26-.02.54.13.77.15.23.38.39.64.45zm2.32-5.55l3.57-.42-1.32 4.86-3.15-.65.9-3.79z"/></g></svg>