<?xml version="1.0" encoding="utf-8"?>
<!-- Generator: Adobe Illustrator 27.1.1, SVG Export Plug-In . SVG Version: 6.00 Build 0)  -->
<svg version="1.1" id="Layer_1" xmlns="http://www.w3.org/2000/svg" xmlns:xlink="http://www.w3.org/1999/xlink" x="0px" y="0px"
	 viewBox="0 0 150 150" style="enable-background:new 0 0 150 150;" xml:space="preserve">
<g>
	<path style="fill:#778A97;" d="M52.38,57.56c0.2,0.2,0.45,0.29,0.71,0.29s0.51-0.1,0.71-0.29l5.28-5.28c0.39-0.39,0.39-1.02,0-1.41
		s-1.02-0.39-1.41,0l-4.58,4.58l-2.34-2.34c-0.39-0.39-1.02-0.39-1.41,0s-0.39,1.02,0,1.41L52.38,57.56z"/>
	<path style="fill:#778A97;" d="M93.97,57.56c0.2,0.2,0.45,0.29,0.71,0.29s0.51-0.1,0.71-0.29l5.28-5.28c0.39-0.39,0.39-1.02,0-1.41
		s-1.02-0.39-1.41,0l-4.58,4.58l-2.34-2.34c-0.39-0.39-1.02-0.39-1.41,0s-0.39,1.02,0,1.41L93.97,57.56z"/>
	<path style="fill:#778A97;" d="M57.66,92.44l-4.58,4.58l-2.34-2.34c-0.39-0.39-1.02-0.39-1.41,0s-0.39,1.02,0,1.41l3.05,3.05
		c0.2,0.2,0.45,0.29,0.71,0.29s0.51-0.1,0.71-0.29l5.28-5.28c0.39-0.39,0.39-1.02,0-1.41S58.05,92.05,57.66,92.44z"/>
	<path style="fill:#778A97;" d="M103.3,84.61l-1.09-0.65c0,0,0,0,0,0l-13.83-8.41c-0.31-0.21-0.63-0.38-0.96-0.55
		c0.33-0.17,0.66-0.35,0.97-0.56l13.81-8.4l0,0l1.14-0.69c3.7-2.51,5.9-6.68,5.9-11.15c0-7.42-6.04-13.45-13.45-13.45
		c-4.49,0-8.67,2.22-11.2,5.99l-0.6,1c0,0,0,0,0,0.01l-8.82,14.49c-0.07,0.12-0.11,0.24-0.17,0.36c-0.07-0.13-0.12-0.27-0.19-0.4
		l-8.8-14.45c0,0,0,0,0,0l-0.63-1.05c-2.51-3.72-6.68-5.94-11.17-5.94c-7.42,0-13.45,6.04-13.45,13.45c0,4.48,2.21,8.65,5.95,11.18
		l1.09,0.65c0,0,0,0,0,0l13.83,8.41c0.31,0.21,0.63,0.38,0.96,0.55c-0.33,0.17-0.66,0.35-0.97,0.56l-13.81,8.4l0,0l-1.14,0.69
		c-3.7,2.51-5.9,6.68-5.9,11.15c0,7.42,6.04,13.45,13.45,13.45c4.49,0,8.67-2.22,11.2-5.99l0.6-0.99c0,0,0.01-0.01,0.01-0.01
		l8.82-14.49c0.06-0.12,0.11-0.24,0.17-0.36c0.07,0.13,0.12,0.27,0.19,0.4l8.8,14.45c0,0,0,0,0,0l0.63,1.04
		c2.51,3.72,6.68,5.94,11.17,5.94c7.42,0,13.45-6.04,13.45-13.45C109.25,91.32,107.04,87.15,103.3,84.61z M95.8,42.75
		c6.32,0,11.45,5.14,11.45,11.45c0,3.81-1.88,7.36-4.98,9.47l-1.06,0.64c-1.67,0.91-3.49,1.37-5.41,1.37
		c-1.38,0-2.72-0.24-3.98-0.73c-3.13-1.15-5.59-3.62-6.75-6.77c-0.48-1.25-0.72-2.59-0.72-3.97c0-1.93,0.46-3.77,1.38-5.46
		l0.56-0.94C88.42,44.64,91.98,42.75,95.8,42.75z M76.9,63.23l5.45-8.94c0,0.22,0.02,0.44,0.03,0.66c0.01,0.16,0.01,0.33,0.02,0.49
		c0.02,0.23,0.06,0.45,0.09,0.68c0.02,0.17,0.04,0.33,0.07,0.5c0.04,0.23,0.1,0.46,0.16,0.68c0.04,0.15,0.06,0.31,0.11,0.46
		c0.11,0.38,0.23,0.74,0.37,1.11c1.35,3.7,4.24,6.59,7.92,7.94c0.36,0.14,0.74,0.26,1.11,0.37c0.14,0.04,0.28,0.06,0.42,0.1
		c0.24,0.06,0.48,0.12,0.72,0.17c0.16,0.03,0.32,0.04,0.48,0.07c0.23,0.03,0.46,0.07,0.69,0.09c0.17,0.02,0.34,0.02,0.51,0.03
		c0.21,0.01,0.42,0.03,0.63,0.03l-8.32,5.06c-0.01,0.01-0.08,0.05-0.1,0.06c-1.17,0.79-2.55,1.2-4.01,1.2c-4,0-7.25-3.25-7.25-7.25
		C76,65.51,76.32,64.28,76.9,63.23z M79.09,75c-1.76,0.89-3.2,2.33-4.09,4.09c-0.89-1.76-2.33-3.2-4.09-4.09
		c1.76-0.89,3.2-2.33,4.09-4.09C75.89,72.67,77.33,74.11,79.09,75z M42.75,54.2c0-6.32,5.14-11.45,11.45-11.45
		c3.82,0,7.38,1.89,9.49,5.02l0.58,0.97c0.92,1.69,1.38,3.53,1.38,5.47c0,1.38-0.24,2.72-0.73,3.98c-1.15,3.14-3.61,5.61-6.76,6.76
		c-1.25,0.48-2.58,0.72-3.97,0.72c-1.92,0-3.73-0.46-5.41-1.36l-1.02-0.61C44.63,61.57,42.75,58.02,42.75,54.2z M62.73,72.79
		c-0.01-0.01-0.08-0.05-0.09-0.06l-8.32-5.06c0.21,0,0.42-0.02,0.62-0.03c0.17-0.01,0.34-0.01,0.51-0.03
		c0.24-0.02,0.47-0.06,0.7-0.1c0.16-0.02,0.31-0.04,0.47-0.07c0.26-0.05,0.51-0.11,0.76-0.18c0.13-0.03,0.25-0.05,0.38-0.09
		c0.37-0.11,0.74-0.23,1.11-0.37c3.69-1.36,6.58-4.25,7.93-7.94c0.14-0.37,0.26-0.74,0.37-1.12c0.04-0.15,0.07-0.3,0.11-0.46
		c0.06-0.23,0.12-0.46,0.16-0.69c0.03-0.16,0.05-0.33,0.07-0.5c0.03-0.23,0.07-0.45,0.09-0.68c0.02-0.16,0.02-0.33,0.02-0.49
		c0.01-0.22,0.03-0.44,0.03-0.66l5.42,8.91c0.6,1.09,0.92,2.32,0.92,3.55c0,4-3.25,7.25-7.25,7.25C65.29,74,63.91,73.58,62.73,72.79
		z M54.2,107.25c-6.32,0-11.45-5.14-11.45-11.45c0-3.81,1.88-7.36,4.98-9.47l1.06-0.64c1.67-0.91,3.49-1.37,5.41-1.37
		c1.38,0,2.72,0.24,3.98,0.73c3.14,1.15,5.59,3.62,6.75,6.77c0.48,1.25,0.72,2.59,0.72,3.97c0,1.93-0.46,3.77-1.38,5.46l-0.56,0.94
		C61.58,105.36,58.02,107.25,54.2,107.25z M73.1,86.77l-5.45,8.94c0-0.22-0.02-0.44-0.03-0.67c-0.01-0.16-0.01-0.33-0.02-0.49
		c-0.02-0.23-0.06-0.46-0.09-0.69c-0.02-0.16-0.04-0.33-0.07-0.49c-0.04-0.24-0.1-0.47-0.16-0.7c-0.04-0.15-0.06-0.3-0.1-0.44
		c-0.11-0.38-0.23-0.75-0.37-1.11c-1.35-3.7-4.24-6.59-7.92-7.95c-0.36-0.14-0.74-0.26-1.11-0.37c-0.14-0.04-0.29-0.07-0.44-0.1
		c-0.23-0.06-0.47-0.12-0.71-0.16c-0.17-0.03-0.34-0.05-0.52-0.07c-0.22-0.03-0.43-0.07-0.65-0.09c-0.19-0.02-0.37-0.02-0.56-0.03
		c-0.19-0.01-0.38-0.03-0.57-0.03l8.32-5.06c0.01-0.01,0.08-0.05,0.1-0.06c1.16-0.79,2.55-1.2,4.01-1.2c4,0,7.25,3.25,7.25,7.25
		C74,84.49,73.68,85.72,73.1,86.77z M76,83.25c0-4,3.25-7.25,7.25-7.25c1.46,0,2.84,0.42,4.02,1.21c0.01,0.01,0.08,0.05,0.09,0.06
		l8.32,5.06c-0.19,0-0.38,0.02-0.57,0.03c-0.19,0.01-0.38,0.01-0.56,0.03c-0.22,0.02-0.43,0.06-0.65,0.09
		c-0.17,0.02-0.35,0.04-0.52,0.07c-0.24,0.04-0.47,0.1-0.7,0.16c-0.15,0.04-0.3,0.06-0.44,0.1c-0.37,0.1-0.74,0.23-1.1,0.36
		c-3.69,1.36-6.58,4.25-7.93,7.94c-0.14,0.37-0.26,0.74-0.37,1.12c-0.04,0.14-0.07,0.29-0.1,0.44c-0.06,0.24-0.12,0.47-0.16,0.71
		c-0.03,0.16-0.04,0.33-0.07,0.49c-0.03,0.23-0.07,0.45-0.09,0.69c-0.02,0.16-0.02,0.33-0.02,0.49c-0.01,0.22-0.03,0.44-0.03,0.66
		l-5.42-8.91C76.32,85.72,76,84.49,76,83.25z M95.8,107.25c-3.82,0-7.38-1.89-9.49-5.02l-0.58-0.97c-0.92-1.69-1.38-3.53-1.38-5.47
		c0-1.38,0.24-2.72,0.73-3.98c1.15-3.14,3.61-5.61,6.75-6.77c1.25-0.48,2.59-0.72,3.97-0.72c1.92,0,3.73,0.46,5.41,1.36l1.02,0.61
		c3.15,2.13,5.03,5.68,5.03,9.5C107.25,102.11,102.11,107.25,95.8,107.25z"/>
	<path style="fill:#778A97;" d="M99.26,92.44l-4.58,4.58l-2.34-2.34c-0.39-0.39-1.02-0.39-1.41,0s-0.39,1.02,0,1.41l3.05,3.05
		c0.2,0.2,0.45,0.29,0.71,0.29s0.51-0.1,0.71-0.29l5.28-5.28c0.39-0.39,0.39-1.02,0-1.41S99.65,92.05,99.26,92.44z"/>
</g>
</svg>
