<svg xmlns="http://www.w3.org/2000/svg" viewBox="0 0 150 150"><path d="M110.5 64.1c-.1-.1-.1-.2-.2-.3-.1-.1-.2-.1-.3-.2l-14.2-4.3L110 55c.4-.1.7-.5.7-1s-.3-.8-.7-1L75.3 42.6c-.2-.1-.4-.1-.6 0L40.1 53.1c-.4.1-.7.5-.7 1s.3.8.7 1l14.2 4.3-14.2 4.3c-.1 0-.2.1-.3.2-.1.1-.2.2-.2.3v.1c-.1.1-.1.3-.1.4v21.1c0 .4.3.8.7 1l11.3 3.4 2.3.7L40.1 95c-.4.1-.7.5-.7 1s.3.8.7 1l34.7 10.5h.6L110.1 97c.4-.1.7-.5.7-1s-.3-.8-.7-1l-13.7-4.2 2.3-.7 11.3-3.4c.4-.1.7-.5.7-1V64.6c0-.1-.1-.3-.2-.5 0 .1 0 .1 0 0zm-25.2 28l-7.1 2.2-2.2.6v-19l9.3-2.8v19zm-20.6-19l9.3 2.8v19l-9.3-2.8v-19zm27.9 16.7c0 .1 0 .1 0 0l-5.3 1.6v-19l7-2.1 3-.9v19l-4.7 1.4zM75 44.6l31.2 9.5L75 63.6l-31.2-9.5L75 44.6zm0 21h.3l17-5.2 13.9 4.2-8.2 2.5-3.8 1.2L75 74.1l-18.3-5.6-4.7-1.4-8.2-2.5 13.9-4.2 17 5.2h.3zm-33.7.4l1.1.3 8.3 2.5v19L41.3 85V66zm11.4 3.4l3.4 1 6.6 2v19l-10-3v-19zm22.3 36l-31.2-9.5 13.4-4.1 17.5 5.3h.6l11.3-3.4 6.2-1.9 13.4 4.1-31.2 9.5zM108.7 85l-9.3 2.8v-19l8.2-2.5 1.2-.4V85z" fill="#778a97"/></svg>