<svg xmlns="http://www.w3.org/2000/svg" viewBox="0 0 150 150"><path d="M99.2 85.21H80.1v-3.37a17.421 17.421 0 0012.31-16.66v-25.1c0-4.41-8.98-6.79-17.43-6.79-8.44 0-17.41 2.38-17.41 6.79v25.11c0 7.68 5.03 14.41 12.32 16.66v3.37h-5.2c-.55 0-1 .45-1 1v1.1h-4.11v-1.09c0-.55-.45-1-1-1H50.8c-.55 0-1 .45-1 1v9.98c0 .55.45 1 1 1h7.78c.55 0 1-.45 1-1V95.1h4.11v1.1c0 .55.45 1 1 1h16.55l6.82 18.86c.14.4.52.66.94.66h9.15c.33 0 .63-.16.82-.43s.23-.61.12-.91L92.52 97.2h6.67c.55 0 1-.45 1-1v-9.99c.01-.55-.44-1-.99-1zm-27.3-2.88c.06.01.12.01.18.02.39.07.78.12 1.17.16l.36.03c.46.04.92.06 1.38.06.46 0 .92-.03 1.39-.06l.35-.03c.39-.04.78-.09 1.18-.16.06-.01.13-.01.19-.03v3.88c0 .28-1.07 1.09-3.11 1.09-2.03 0-3.09-.81-3.09-1.09v-3.87zm3.09-47.05c9.56 0 15.43 2.79 15.43 4.79s-5.87 4.79-15.43 4.79c-9.55 0-15.41-2.79-15.41-4.79s5.86-4.79 15.41-4.79zm-15.41 29.9V43.37c.07.05.15.1.23.15.07.05.15.1.22.15.25.16.5.31.78.46.02.01.04.03.07.04.3.16.62.31.95.45.09.04.19.08.28.12.27.11.55.22.84.32.09.03.17.06.26.09.37.13.74.24 1.13.36.08.02.17.05.26.07.32.09.65.17.99.25.12.03.23.06.35.08.4.09.81.18 1.23.25.02 0 .04.01.06.01.44.08.88.15 1.33.22.13.02.25.04.38.05.36.05.73.1 1.1.14.11.01.21.02.32.04.46.05.92.09 1.39.12.1.01.21.01.31.02l1.14.06c.13.01.26.01.39.01.47.01.95.02 1.42.02s.94-.01 1.42-.02c.13 0 .26-.01.39-.01l1.14-.06c.1-.01.21-.01.31-.02.47-.03.93-.07 1.39-.12l.31-.03c.37-.04.74-.09 1.1-.14.13-.02.25-.03.37-.05.45-.07.9-.14 1.34-.22.02 0 .03-.01.05-.01.42-.08.84-.17 1.24-.26.12-.03.23-.05.35-.08.34-.08.67-.17 1-.26.08-.02.17-.04.25-.07a18.988 18.988 0 001.39-.45c.29-.1.57-.21.84-.32.09-.04.19-.08.28-.12.33-.14.66-.29.96-.45l.06-.03c.28-.15.54-.3.79-.47.08-.05.15-.1.22-.15.08-.05.16-.1.23-.16v21.81c0 7.04-4.76 13.18-11.55 14.94-1.97.48-3.89.6-5.8.36a15.372 15.372 0 01-13.51-15.28zm-2 30.01H51.8v-7.98h5.78v7.98zm2-2.09v-3.79h4.11v3.79h-4.11zm37.15 21.62H89.7L83.37 97.2h7.03l6.33 17.52zM98.2 95.2h-7.06c-.02 0-.03-.01-.04-.01h-9.15c-.02 0-.04.01-.06.01H65.7v-7.98h4.45c.02.05.06.09.09.14a3.175 3.175 0 00.42.51c.05.05.09.1.14.14.17.15.35.29.55.41.21.13.44.24.68.34.08.03.16.06.23.09.18.07.36.13.56.18.1.03.19.05.29.07.2.05.41.08.62.11.1.01.19.03.28.04.31.03.63.06.96.06.33 0 .65-.02.97-.06.1-.01.19-.03.29-.04.21-.03.42-.07.62-.11.1-.02.2-.05.29-.07.19-.05.38-.11.56-.18l.24-.09c.24-.1.48-.21.69-.34h.01c.21-.13.39-.26.56-.41.05-.05.1-.09.14-.14.11-.11.21-.22.3-.34l.12-.18c.03-.05.07-.09.09-.14H98.2v7.99z" fill="#778a97"/></svg>