<svg xmlns="http://www.w3.org/2000/svg" viewBox="0 0 150 150"><g fill="#778a97"><path d="M98.4 94.23c-2.75 0-5 2.24-5 5s2.24 5 5 5 5-2.24 5-5-2.25-5-5-5zm0 7.99c-1.65 0-3-1.34-3-3s1.34-3 3-3 3 1.34 3 3-1.35 3-3 3z"/><path d="M98.39 89.83H59.22c-4.85 0-8.84 3.69-9.35 8.4h-2.84c-1.26 0-2.21-.39-2.6-1.08-.39-.68-.26-1.7.37-2.79l2.49-4.31c2.09-3.62 5.99-5.88 10.18-5.88h13.19c2.76 0 5.33-1.48 6.7-3.87L80 75.75l1.3.75c.64.37 1.34.54 2.02.54 1.41 0 2.77-.73 3.53-2.03l14.43-24.99c.54-.94.69-2.03.41-3.08a4.05 4.05 0 00-1.89-2.47l-4.42-2.56a4.05 4.05 0 00-3.08-.41 4.05 4.05 0 00-2.47 1.89l-14.45 25c-.54.94-.69 2.03-.41 3.08a4.05 4.05 0 001.89 2.47l1.39.8-2.64 4.57a5.757 5.757 0 01-4.97 2.87H57.47c-4.9 0-9.46 2.63-11.91 6.88l-2.49 4.31c-1.01 1.75-1.14 3.45-.37 4.79.77 1.34 2.31 2.08 4.33 2.08h2.84c.5 4.71 4.5 8.4 9.35 8.4H98.4c5.18 0 9.4-4.22 9.4-9.4s-4.22-9.41-9.41-9.41zM77.87 72.21a2.06 2.06 0 01-.75-2.82L91.54 44.4c.57-.99 1.83-1.33 2.82-.75l4.42 2.56a2.057 2.057 0 01.75 2.82L85.11 74.01a2.08 2.08 0 01-2.82.76L81 74.01l1.17-2.03c.28-.48.11-1.09-.37-1.37s-1.09-.11-1.37.37l-1.17 2.03-1.39-.8zm14.73 34.42H59.22c-4.08 0-7.4-3.32-7.4-7.4s3.32-7.4 7.4-7.4H92.6c-.03.02-.05.05-.08.07-.18.15-.35.3-.52.46-.07.06-.14.12-.21.19-.23.23-.45.47-.66.72-.04.05-.08.11-.12.16-.16.2-.32.41-.46.63l-.18.3c-.11.18-.22.36-.32.55-.06.11-.11.23-.17.35-.09.18-.17.37-.24.56-.05.12-.09.25-.14.37-.07.2-.13.4-.18.6-.03.13-.07.25-.1.38-.05.22-.09.45-.12.68-.02.11-.04.22-.05.33a8.937 8.937 0 000 2.08c.01.11.03.22.05.33.03.23.07.45.12.68.03.13.06.25.1.38.05.2.11.4.18.6.04.13.09.25.14.37.07.19.16.38.24.56.05.12.11.24.17.35.1.19.21.37.32.55l.18.3c.14.22.3.42.46.63.04.05.08.11.12.16.21.25.43.49.66.72.07.07.14.13.21.19.17.16.34.31.52.46.03.04.05.07.08.09zm5.79 0c-4.08 0-7.4-3.32-7.4-7.4s3.32-7.4 7.4-7.4 7.4 3.32 7.4 7.4-3.32 7.4-7.4 7.4z"/></g></svg>