<svg xmlns="http://www.w3.org/2000/svg" viewBox="0 0 150 150"><g fill="#778a97"><path d="M55.59 51.31h.02c.29 0 .57-.13.76-.35a.97.97 0 00.23-.8c0-.04-.01-.07-.01-.11v-.13c0-.86.44-1.73 1.29-2.57 1.23-1.19 3.22-2.25 5.76-3.05 2.93-.95 6.45-1.49 10.21-1.58v1.67a1 1 0 00.69.95c.41.14.86-.01 1.12-.36l4.4-5.99a.99.99 0 000-1.18l-4.4-5.99c-.26-.35-.71-.49-1.12-.36a1 1 0 00-.69.95v1.75c-10.88.26-19.26 4.22-19.26 9.2v6.96c0 .55.45.99 1 .99zm1-7.95c0-3.46 7.34-7.18 18.26-7.21.46 0 .84-.31.96-.73L78 38.41l-2.2 3a.936.936 0 00-.25-.4.99.99 0 00-.71-.29c-4.35.01-8.44.6-11.82 1.69-2.76.87-4.98 2.05-6.44 3.42v-2.47zm56.08 33.77a3.84 3.84 0 00-1-2.92c-.73-.8-1.78-1.26-2.86-1.26h-.83v-2.82c0-.55-.45-1-1-1h-5.26v-6.66c0-3.31-2.95-6.4-8.14-8.6 1.05-1.06 1.64-2.23 1.76-3.43.01-.06.03-.11.03-.17.02-.11.04-.22.04-.34 0-.19-.02-.36-.04-.58v-5.91c0-.55-.45-1-1-1s-1 .45-1 1c0 .86-.44 1.73-1.29 2.57-1.23 1.2-3.22 2.25-5.75 3.05-2.93.94-6.39 1.48-10 1.57h-.21v-1.66a1 1 0 00-.69-.95c-.41-.13-.86.01-1.12.36l-1.68 2.29c-13.88.51-24.29 5.53-24.34 11.78 0 .01-.01.02-.01.03v6.66h-5.26c-.55 0-1 .45-1 1v2.82h-.83c-1.09 0-2.13.46-2.86 1.26a3.82 3.82 0 00-.99 2.92c.73 8.39 4.7 13.37 10.95 13.85v15.73c0 6.66 11.73 11.88 26.71 11.88s26.71-5.22 26.71-11.88V90.98c6.25-.47 10.23-5.46 10.96-13.85zm-6.69-6v5.65h-4.26v-5.65h4.26zm-6.26-8.67v.02c0 .25-.03.49-.07.73v.01c-.05.23-.11.45-.2.67-.01.02-.02.04-.02.06-.08.2-.18.4-.29.6-.01.01-.01.03-.02.04-.48.82-1.18 1.53-1.87 2.11-.04-.03-.09-.05-.13-.08-.18-.12-.37-.23-.55-.35-.13-.08-.26-.16-.4-.24-.2-.12-.41-.23-.63-.35-.13-.07-.26-.14-.39-.2-.23-.12-.46-.23-.7-.34-.12-.06-.25-.11-.37-.17-.26-.12-.52-.23-.79-.34-.11-.04-.22-.09-.33-.13-.29-.12-.59-.23-.9-.34-.08-.03-.16-.06-.25-.09-.34-.12-.69-.24-1.04-.35-.03-.01-.05-.02-.08-.02-3.35-1.06-7.26-1.77-11.46-2.05h-.03c-.52-.03-1.04-.06-1.56-.08h-.05c-.53-.02-1.06-.04-1.59-.04h-.01c.03-.05.05-.1.07-.15.01-.03.03-.05.04-.08.03-.09.05-.19.05-.3v-1.76c.77-.02 1.53-.06 2.28-.11.04 0 .08 0 .12-.01.72-.05 1.43-.13 2.13-.21.06-.01.12-.01.18-.02.68-.09 1.34-.19 1.99-.31.07-.01.15-.03.22-.04.64-.12 1.26-.25 1.86-.4.08-.02.15-.04.23-.05.59-.15 1.17-.31 1.72-.49.07-.02.15-.05.22-.07.55-.18 1.07-.37 1.58-.57.07-.03.14-.06.21-.08.5-.2.97-.42 1.42-.65.06-.03.13-.06.19-.1.44-.23.86-.47 1.26-.73.02-.01.05-.03.07-.04 4.92 1.83 7.87 4.48 7.89 7.1zm-5.01 5.87c-.2.11-.4.21-.61.31-.13.07-.26.13-.4.2-.22.1-.46.21-.69.31-.13.06-.26.11-.39.17-.29.12-.58.23-.88.34-.09.03-.17.07-.26.1-.39.14-.79.28-1.2.41l-.39.12c-.29.09-.57.18-.87.26-.17.05-.35.09-.53.14-.26.07-.52.14-.79.21-.19.05-.39.09-.58.14l-.78.18c-.2.04-.41.08-.62.12-.26.05-.53.1-.8.15-.21.04-.43.07-.64.11-.27.05-.54.09-.82.13l-.66.09c-.28.04-.56.07-.84.11-.22.03-.44.05-.67.08l-.88.09-.66.06c-.31.02-.62.05-.93.07-.21.01-.42.03-.63.04-.35.02-.7.03-1.05.04-.18.01-.36.02-.54.02-.53.01-1.06.02-1.6.02s-1.07-.01-1.6-.02c-.18 0-.36-.01-.54-.02-.35-.01-.7-.03-1.05-.04-.21-.01-.42-.03-.63-.04-.31-.02-.62-.04-.93-.07l-.66-.06c-.29-.03-.59-.05-.88-.09-.22-.02-.44-.05-.67-.08-.28-.03-.56-.07-.84-.11l-.66-.09c-.27-.04-.55-.08-.82-.13-.22-.04-.43-.07-.65-.11-.27-.05-.53-.1-.79-.15-.21-.04-.42-.08-.63-.13-.26-.06-.52-.11-.77-.17-.2-.05-.4-.09-.6-.14-.26-.06-.52-.13-.77-.2l-.55-.15c-.28-.08-.55-.16-.83-.25-.15-.04-.29-.09-.44-.13-.41-.13-.8-.27-1.19-.41-.11-.04-.21-.08-.32-.12-.28-.11-.56-.21-.83-.32l-.42-.18c-.22-.1-.45-.19-.66-.29l-.42-.21c-.2-.1-.4-.2-.59-.3-.14-.07-.27-.15-.4-.22-.11-.06-.22-.13-.33-.19 4.62-2.76 12.25-4.44 20.43-4.44 7.26 0 14.09 1.32 18.76 3.55.05.03.11.05.16.08.29.14.57.28.84.43.08.04.16.09.24.14.15.08.29.17.43.25-.11.07-.23.14-.35.2-.08.05-.2.13-.33.19zm-7.78-17.37c2.76-.87 4.98-2.05 6.44-3.42v2.47c0 1.43-1.25 2.62-2.3 3.37-3.28 2.35-9.39 3.81-15.96 3.83-.46 0-.85.32-.96.74l-2.19-2.99 2-2.73.21-.28c.01.02.02.03.02.04.01.04.03.07.05.1.04.07.08.14.13.2l.09.09c.06.05.13.1.2.13.03.02.06.04.1.05.11.04.23.07.36.07.33 0 .68 0 .95-.02h.28c3.82-.08 7.48-.65 10.58-1.65zM71.1 52.74l-1.2 1.63a.99.99 0 000 1.18l4.35 5.93c-7.71.09-14.73 1.57-19.56 4.07h-.01c-.34.18-.67.36-.99.55h-.01c-.32.19-.63.38-.92.58-.16-.13-.33-.28-.49-.43l-.11-.11-.36-.36c-.06-.07-.12-.13-.18-.2-.09-.1-.18-.21-.26-.32-.06-.08-.12-.16-.18-.25-.07-.1-.14-.21-.21-.31-.06-.09-.11-.19-.16-.28-.06-.1-.1-.21-.15-.32-.05-.1-.09-.2-.13-.31-.04-.11-.07-.22-.1-.33-.03-.11-.07-.22-.09-.33-.02-.11-.02-.22-.03-.33-.01-.11-.03-.22-.03-.33.01-4.77 9.17-8.97 20.82-9.73zM44.02 71.13h4.26v5.65h-4.26v-5.65zm-4.69 5.83c-.04-.51.12-1.01.48-1.39.36-.39.86-.61 1.39-.61h.83v2.82c0 .55.45 1 1 1h5.26v10.19c-6.91-.63-8.59-7.71-8.96-12.01zm60.38 29.75c0 5.35-11.32 9.88-24.71 9.88s-24.71-4.52-24.71-9.88V67.08c.03.03.07.06.1.09.17.18.36.36.56.54.09.08.17.16.26.24.3.26.61.52.95.77h.01c4.82 3.51 13.35 5.61 22.84 5.61 1.78 0 3.53-.07 5.22-.22 7.32-.62 13.67-2.53 17.58-5.37l.06-.03c.71-.52 1.31-1.07 1.83-1.63l.02-.02v39.65zm2-17.74V78.78h5.26c.55 0 1-.45 1-1v-2.82h.83c.53 0 1.03.22 1.39.61.35.38.52.88.48 1.39-.37 4.3-2.06 11.38-8.96 12.01z"/><path d="M75.94 93.41c-.14-.39-.52-.66-.94-.66-2.95 0-5.9-.3-8.79-.89v-5.68c0-.47-.33-.87-.78-.98a43.59 43.59 0 01-6.99-2.19c-.31-.12-.66-.09-.94.1s-.44.5-.44.83v20.7c0 .41.25.77.62.93 2.36.96 4.82 1.73 7.31 2.29.07.02.14.02.22.02.23 0 .45-.08.62-.22a1 1 0 00.38-.78v-5.28c3.17-2.07 6.35-4.45 9.44-7.09.32-.27.43-.71.29-1.1zm-11.27 6.81c-.29.18-.46.5-.46.84v4.56c-1.75-.44-3.47-1-5.15-1.65V85.4c1.68.62 3.41 1.15 5.15 1.57v5.7c0 .47.33.87.78.98 2.41.54 4.86.88 7.33 1.03a91.437 91.437 0 01-7.65 5.54zM92.5 83.11c-.28-.19-.63-.22-.94-.1a43.91 43.91 0 01-6.99 2.19c-.46.1-.78.51-.78.98v6.1c-3.04 3.29-6.23 6.36-9.48 9.13-.32.27-.44.71-.29 1.11s.52.66.94.66c2.97.02 5.92-.28 8.83-.85v4.56c0 .3.14.59.38.78a1.02 1.02 0 00.84.2c2.49-.56 4.95-1.33 7.31-2.29a.99.99 0 00.62-.93v-20.7a.98.98 0 00-.44-.84zm-1.55 20.85c-1.68.65-3.41 1.21-5.15 1.65v-4.52a1 1 0 00-.38-.78 1.02 1.02 0 00-.84-.2c-2.25.5-4.55.83-6.85.97 2.67-2.4 5.29-4.99 7.81-7.74.17-.18.26-.43.26-.68v-5.7c1.75-.42 3.47-.95 5.15-1.57v18.57z"/></g></svg>