<?xml version="1.0" encoding="utf-8"?>
<!-- Generator: Adobe Illustrator 27.1.1, SVG Export Plug-In . SVG Version: 6.00 Build 0)  -->
<svg version="1.1" id="Layer_1" xmlns="http://www.w3.org/2000/svg" xmlns:xlink="http://www.w3.org/1999/xlink" x="0px" y="0px"
	 viewBox="0 0 150 150" style="enable-background:new 0 0 150 150;" xml:space="preserve">
<g>
	<path style="fill:#778A97;" d="M118.72,48.05c0.16-0.23,0.22-0.53,0.15-0.81s-0.25-0.52-0.5-0.65l-14.76-7.78
		c-0.25-0.13-0.55-0.15-0.82-0.05c-0.27,0.1-0.48,0.31-0.58,0.58L91.95,66.61l-36.22,42.08l-2.95-4.03l0.72-4.97
		c0.04-0.29-0.04-0.58-0.23-0.8s-0.47-0.35-0.76-0.35h-7.47c-0.46,0-0.86,0.31-0.97,0.75l-1.02,4.02L37,100.89
		c-0.28-0.11-0.59-0.09-0.85,0.05c-0.26,0.14-0.45,0.4-0.5,0.69l-1.49,7.68H32.1c-0.55,0-1,0.45-1,1s0.45,1,1,1h2.87h20.7h35.12
		h14.99c0.55,0,1-0.45,1-1s-0.45-1-1-1H92.09l9.93-37.39L118.72,48.05z M94.07,66.66l1.27-3.37l7.5,3.96l-2.06,2.95L94.07,66.66z
		 M103.68,41.11l12.75,6.72L104,65.59l-7.95-4.19L103.68,41.11z M36.18,109.3l1.19-6.11l6,2.42c0.27,0.11,0.57,0.09,0.83-0.04
		c0.26-0.13,0.45-0.37,0.52-0.65l1.11-4.37h5.54l-0.62,4.23c-0.04,0.26,0.03,0.52,0.18,0.74l2.77,3.78H36.18z M93.06,68.39
		l2.54,1.34L74.75,109.3h-16.9L93.06,68.39z M77.01,109.3l20.37-38.64L99.92,72l-9.91,37.3H77.01z"/>
	<path style="fill:#778A97;" d="M40.23,86.02l7.91,4.26c0.15,0.08,0.31,0.12,0.47,0.12c0.15,0,0.29-0.03,0.42-0.09
		c0.29-0.13,0.49-0.4,0.56-0.71l1.3-6.43c0.08-0.39-0.08-0.79-0.41-1.02l-5.04-3.47c-0.44-0.31-1.05-0.2-1.37,0.23l-4.17,5.65
		c-0.17,0.23-0.23,0.53-0.17,0.81C39.79,85.64,39.98,85.88,40.23,86.02z M45.1,80.86l3.7,2.55l-0.9,4.46l-5.7-3.07L45.1,80.86z"/>
	<path style="fill:#778A97;" d="M57.55,78.11c0.12,0.43,0.52,0.73,0.96,0.73c0.04,0,0.09,0,0.13-0.01l5.99-0.78
		c0.5-0.06,0.87-0.49,0.87-0.99v-9.3c0-0.3-0.13-0.58-0.36-0.77c-0.23-0.19-0.53-0.27-0.82-0.21l-8.43,1.55
		c-0.28,0.05-0.52,0.22-0.67,0.46c-0.15,0.24-0.19,0.53-0.11,0.8L57.55,78.11z M63.51,68.96v7.22l-4.27,0.56l-1.89-6.64L63.51,68.96
		z"/>
	<path style="fill:#778A97;" d="M55.01,95.85l5.08,1.04c0.07,0.01,0.14,0.02,0.2,0.02c0.44,0,0.84-0.29,0.96-0.74l1.95-7.19
		c0.09-0.32,0.01-0.66-0.21-0.92c-0.22-0.25-0.54-0.38-0.87-0.34L56.4,88.4c-0.42,0.05-0.76,0.35-0.86,0.76l-1.3,5.47
		c-0.06,0.26-0.02,0.54,0.13,0.77C54.52,95.63,54.75,95.79,55.01,95.85z M57.33,90.3l3.57-0.42l-1.32,4.86l-3.15-0.65L57.33,90.3z"
		/>
</g>
</svg>
