<svg xmlns="http://www.w3.org/2000/svg" viewBox="0 0 150 150"><g fill="#778a97"><path d="M97.7 86.7l-12.6-9.4V65.5c0-.6-.4-1-1-1h-2.2v-9.8h2.2c.6 0 1-.4 1-1s-.4-1-1-1h-2.7l-3.1-4.8L76 37.2c-.1-.5-.5-.8-1-.8s-.9.3-1 .8l-2.3 10.7-3.1 4.8h-2.7c-.6 0-1 .4-1 1s.4 1 1 1h2.2v9.8h-2.2c-.6 0-1 .4-1 1v11.8l-12.6 9.4c-.3.2-.4.5-.4.8v25.1c0 .6.4 1 1 1h44c.6 0 1-.4 1-1V87.5c.2-.4 0-.7-.2-.8zM73.5 48.9c.1-.1.1-.2.1-.3l1.4-6.4 1.4 6.4c0 .1.1.2.1.3l2.5 3.8h-8l2.5-3.8zm-3.4 5.8h9.8v9.8h-2v-4.9c0-1.6-1.3-2.9-2.9-2.9-1.6 0-2.9 1.3-2.9 2.9v4.9h-2v-9.8zm4 9.8v-4.9c0-.5.4-.9.9-.9s.9.4.9.9v4.9h-1.8zM53.9 88l11-8.2v31.8h-2.6v-8.3c0-1.6-1.3-2.9-2.9-2.9-1.6 0-2.9 1.3-2.9 2.9v8.3h-2.6V88zm4.6 23.5v-8.3c0-.5.4-.9.9-.9s.9.4.9.9v8.3h-1.8zm8.4-33.8V66.5H83v45.1h-3.9v-9.3c0-2.3-1.9-4.2-4.2-4.2-2.3 0-4.2 1.9-4.2 4.2v9.3h-3.9V77.7zm5.9 33.8v-9.3c0-1.2 1-2.2 2.2-2.2 1.2 0 2.2 1 2.2 2.2v9.3h-4.4zm18.7 0h-1.7v-8.2c0-.5.4-.9.9-.9s.9.4.9.9v8.2zm4.6 0h-2.6v-8.2c0-1.6-1.3-2.9-2.9-2.9-1.6 0-2.9 1.3-2.9 2.9v8.2h-2.6V79.7l11 8.2v23.6z"/><path d="M89 97.8h3.1c.7 0 1.3-.6 1.3-1.3v-7.1c0-.7-.6-1.3-1.3-1.3H89c-.7 0-1.3.6-1.3 1.3v7.1c0 .7.6 1.3 1.3 1.3zm.7-7.8h1.7v5.7h-1.7V90zm-31.9 7.8H61c.7 0 1.3-.6 1.3-1.3v-7.1c0-.7-.6-1.3-1.3-1.3h-3.1c-.7 0-1.3.6-1.3 1.3v7.1c-.1.7.5 1.3 1.2 1.3zm.7-7.8h1.7v5.7h-1.7V90zm14.9 3.9h3.1c.7 0 1.3-.6 1.3-1.3v-7.1c0-.7-.6-1.3-1.3-1.3h-3.1c-.7 0-1.3.6-1.3 1.3v7.1c0 .7.6 1.3 1.3 1.3zm.7-7.7h1.7v5.7h-1.7v-5.7zm-.7-5h3.1c.7 0 1.3-.6 1.3-1.3v-7.1c0-.7-.6-1.3-1.3-1.3h-3.1c-.7 0-1.3.6-1.3 1.3v7.1c0 .7.6 1.3 1.3 1.3zm.7-7.7h1.7v5.7h-1.7v-5.7z"/></g></svg>