<?xml version="1.0" encoding="utf-8"?>
<!-- Generator: Adobe Illustrator 27.1.1, SVG Export Plug-In . SVG Version: 6.00 Build 0)  -->
<svg version="1.1" id="Layer_1" xmlns="http://www.w3.org/2000/svg" xmlns:xlink="http://www.w3.org/1999/xlink" x="0px" y="0px"
	 viewBox="0 0 16 16" style="enable-background:new 0 0 16 16;" xml:space="preserve">
<g>
	<path d="M1.87,7.82v0.37c2.48,0.03,3.88,0.2,4.81,1.13c0.93,0.93,1.1,2.33,1.13,4.82h-2.3c-2.02,0-3.65-1.63-3.65-3.65V5.52
		c0-2.02,1.63-3.65,3.65-3.65h2.3c-0.03,2.49-0.2,3.88-1.13,4.82C5.75,7.62,4.36,7.79,1.87,7.82"/>
	<path d="M14.13,5.52v4.97c0,2.02-1.63,3.65-3.65,3.65h-2.3c0.03-2.49,0.2-3.88,1.13-4.82c0.93-0.93,2.33-1.1,4.81-1.13V7.82
		c-2.48-0.03-3.88-0.2-4.81-1.13c-0.93-0.93-1.1-2.33-1.13-4.82h2.3C12.5,1.87,14.13,3.5,14.13,5.52"/>
</g>
</svg>
