<?xml version="1.0" encoding="utf-8"?>
<!-- Generator: Adobe Illustrator 27.1.1, SVG Export Plug-In . SVG Version: 6.00 Build 0)  -->
<svg version="1.1" id="Layer_1" xmlns="http://www.w3.org/2000/svg" xmlns:xlink="http://www.w3.org/1999/xlink" x="0px" y="0px"
	 viewBox="0 0 150 150" style="enable-background:new 0 0 150 150;" xml:space="preserve">
<g>
	<path style="fill:#778A97;" d="M87.67,46.98c-1.03-2.07-2.54-3.86-4.43-5.19c-0.01,0-0.01-0.01-0.01-0.01
		c-0.01-0.01-0.02-0.01-0.03-0.02c-0.01-0.01-0.03-0.02-0.04-0.03c0,0-0.01,0-0.01,0c-0.11-0.09-0.23-0.17-0.36-0.26
		c-0.17-0.11-0.35-0.22-0.5-0.29c-0.21-0.12-0.45-0.22-0.7-0.32c0-0.04,0.01-0.08,0.01-0.12c0-0.03,0-0.06,0-0.09l-0.4-7.23
		c0-0.01-0.01-0.02-0.01-0.04c-0.03-0.51-0.26-0.99-0.69-1.36c-0.11-0.12-0.22-0.19-0.3-0.25c-0.03-0.02-0.07-0.05-0.1-0.06
		c-0.11-0.07-0.23-0.13-0.34-0.18c-1.12-0.6-2.85-0.94-4.76-0.94c-1.87,0-3.58,0.33-4.7,0.92c-0.21,0.08-0.35,0.18-0.41,0.23
		c-0.9,0.57-1.07,1.28-1.08,1.68c0,0,0,0,0,0l-0.41,7.32c0,0.03,0.01,0.08,0.01,0.11c-0.24,0.1-0.46,0.2-0.66,0.3
		c-0.23,0.1-0.41,0.22-0.54,0.32c-0.01,0-0.01,0.01-0.02,0.01c-2.11,1.38-3.79,3.29-4.88,5.52c-3.44,1.63-5.34,3.87-5.34,6.34v57.22
		c0,4.98,7.92,8.89,18.02,8.89c10.12,0,18.04-3.9,18.04-8.89V53.32C93.03,50.85,91.12,48.61,87.67,46.98z M80.4,44.92
		c-0.04,0.01-0.07,0.02-0.11,0.03c-1.42,0.5-3.3,0.77-5.3,0.77s-3.88-0.27-5.3-0.77c-0.03-0.01-0.06-0.02-0.09-0.03
		c-1.38-0.49-1.82-1.03-1.82-1.21c0-0.06,0.1-0.3,0.57-0.62c0.06-0.04,0.14-0.1,0.17-0.12c0.04-0.02,0.08-0.04,0.13-0.06
		c0.24-0.13,0.54-0.26,0.89-0.38c0.03,0.02,0.06,0.03,0.09,0.05c0.12,0.07,0.24,0.15,0.38,0.21c0.06,0.03,0.11,0.06,0.16,0.08
		c0.2,0.09,0.41,0.18,0.64,0.26c0.03,0.01,0.07,0.02,0.1,0.03c1.13,0.38,2.58,0.6,4.08,0.6c1.53,0,3.02-0.22,4.18-0.62
		c0.23-0.08,0.44-0.17,0.64-0.26c0.05-0.03,0.1-0.05,0.16-0.08c0.15-0.08,0.29-0.16,0.42-0.24c0.02-0.01,0.05-0.03,0.07-0.04
		c0.34,0.12,0.64,0.25,0.91,0.4c0.12,0.06,0.24,0.14,0.33,0.2c0.08,0.05,0.16,0.1,0.23,0.16c0.24,0.2,0.3,0.36,0.3,0.42
		C82.23,43.9,81.78,44.43,80.4,44.92z M75,37.56c0.12,0,0.21,0.09,0.21,0.21c0,0.12-0.09,0.21-0.21,0.21s-0.21-0.09-0.21-0.21
		C74.79,37.65,74.88,37.56,75,37.56z M73.39,36.27c-0.37,0.39-0.6,0.92-0.6,1.5c0,1.22,0.99,2.21,2.21,2.21s2.21-0.99,2.21-2.21
		c0-0.58-0.23-1.11-0.6-1.5c0.84-0.1,1.62-0.25,2.28-0.49c0.15-0.05,0.29-0.11,0.42-0.16l0.27,4.99l0,0.05
		c-0.02,0.02-0.05,0.05-0.05,0.05c-0.09,0.09-0.37,0.32-1.03,0.55c-0.96,0.33-2.21,0.51-3.53,0.51c-1.3,0-2.58-0.19-3.5-0.51
		c-0.03-0.01-0.06-0.02-0.09-0.03c-0.51-0.19-0.81-0.38-0.92-0.5c-0.01-0.01-0.05-0.05-0.07-0.08l0.28-5.03
		c0.12,0.05,0.26,0.1,0.4,0.15c0.03,0.01,0.06,0.02,0.1,0.03C71.82,36.03,72.58,36.18,73.39,36.27z M71.04,33.35
		c0.04-0.02,0.08-0.04,0.12-0.06c0.81-0.44,2.28-0.72,3.83-0.72c1.56,0,3.04,0.28,3.85,0.72c0.03,0.01,0.08,0.04,0.11,0.05
		c0.03,0.02,0.07,0.04,0.11,0.06l0.03,0.02c0.01,0.01,0.03,0.03,0.04,0.04c0,0,0,0-0.01,0c-0.01,0.01-0.02,0.02-0.03,0.02
		c-0.03,0.03-0.08,0.05-0.13,0.08c-0.02,0.01-0.05,0.03-0.08,0.04c-0.05,0.03-0.11,0.06-0.18,0.09c-0.03,0.01-0.06,0.03-0.1,0.04
		c-0.11,0.05-0.23,0.1-0.37,0.14c-0.87,0.31-2.02,0.47-3.24,0.47c-1.21,0-2.38-0.17-3.22-0.47c-0.03-0.01-0.07-0.02-0.1-0.03
		c-0.13-0.05-0.23-0.09-0.33-0.13c-0.03-0.02-0.06-0.03-0.09-0.05c-0.06-0.03-0.11-0.06-0.15-0.08c-0.03-0.01-0.05-0.03-0.07-0.04
		c-0.04-0.03-0.08-0.05-0.11-0.08c-0.01-0.01-0.02-0.02-0.03-0.02c0,0,0,0,0,0c0.02-0.02,0.05-0.04,0.08-0.06
		C70.97,33.4,71.01,33.37,71.04,33.35z M66.14,44.92c0.06,0.1,0.14,0.2,0.23,0.31c0.02,0.02,0.04,0.05,0.07,0.07
		c0.11,0.12,0.23,0.25,0.38,0.37c0.01,0,0.01,0.01,0.02,0.01c0.14,0.12,0.31,0.23,0.49,0.35c0.04,0.02,0.07,0.05,0.11,0.07
		c0.19,0.11,0.4,0.23,0.63,0.34c0.05,0.02,0.1,0.04,0.14,0.06c0.25,0.11,0.52,0.22,0.82,0.33c0.03,0.01,0.06,0.02,0.1,0.03
		c1.61,0.55,3.7,0.85,5.88,0.85c2.18,0,4.26-0.3,5.87-0.85c0.04-0.01,0.07-0.02,0.11-0.03c0.3-0.11,0.57-0.22,0.83-0.33
		c0.05-0.02,0.09-0.04,0.14-0.06c0.23-0.11,0.44-0.22,0.63-0.34c0.04-0.02,0.07-0.05,0.11-0.07c0.19-0.12,0.36-0.24,0.51-0.36
		c0,0,0,0,0,0c0.15-0.12,0.27-0.25,0.38-0.37c0.02-0.02,0.04-0.04,0.06-0.07c0.08-0.1,0.16-0.2,0.23-0.3
		c0.86,0.91,1.58,1.96,2.13,3.1c0.01,0.04,0.03,0.08,0.05,0.12c0.78,1.64,1.17,3.38,1.17,5.17c0,1.56-4.75,3.82-12.21,3.82
		s-12.21-2.26-12.21-3.82c0-1.82,0.39-3.56,1.17-5.18C64.51,46.95,65.24,45.87,66.14,44.92z M61.2,49.92
		c-0.01,0.04-0.01,0.09-0.03,0.14c-0.08,0.35-0.14,0.72-0.2,1.08c-0.03,0.18-0.07,0.35-0.09,0.53c-0.06,0.54-0.1,1.1-0.1,1.65
		c0,3.78,7.32,5.82,14.21,5.82S89.2,57.1,89.2,53.32c0-0.55-0.04-1.09-0.1-1.63c-0.02-0.18-0.06-0.35-0.09-0.53
		c-0.06-0.36-0.12-0.72-0.2-1.07c-0.01-0.06-0.02-0.12-0.03-0.18c1.46,1.05,2.26,2.23,2.26,3.41c0,1.69-1.65,3.41-4.53,4.72
		c-3.07,1.4-7.16,2.17-11.51,2.17c-4.28,0-8.3-0.74-11.35-2.1c-0.05-0.03-0.1-0.07-0.16-0.09c-2.86-1.28-4.51-3-4.51-4.7
		C58.97,52.15,59.76,50.97,61.2,49.92z M91.03,110.54c0,3.33-6.45,6.89-16.04,6.89c-9.58,0-16.02-3.56-16.02-6.89V57.48
		c0.04,0.04,0.08,0.07,0.12,0.11c0.09,0.08,0.19,0.16,0.29,0.25c0.18,0.16,0.38,0.31,0.58,0.46c0.11,0.08,0.22,0.16,0.34,0.24
		c0.22,0.15,0.45,0.3,0.69,0.44c0.11,0.07,0.22,0.14,0.34,0.2c0.37,0.2,0.75,0.4,1.16,0.59c0.05,0.03,0.1,0.06,0.16,0.09
		c3.32,1.51,7.71,2.35,12.34,2.35s9.01-0.83,12.33-2.35c0.43-0.19,0.82-0.4,1.21-0.61c0.12-0.07,0.23-0.14,0.35-0.21
		c0.25-0.15,0.49-0.3,0.72-0.45c0.13-0.08,0.24-0.17,0.36-0.26c0.2-0.15,0.4-0.3,0.58-0.45c0.11-0.09,0.21-0.18,0.31-0.27
		c0.05-0.05,0.12-0.09,0.17-0.14V110.54z"/>
	<path style="fill:#778A97;" d="M75.94,85.78c-0.14-0.39-0.52-0.66-0.94-0.66c-2.04,0-4.09-0.2-6.09-0.59v-3.89
		c0-0.47-0.33-0.87-0.78-0.98c-1.71-0.38-3.39-0.91-5.02-1.57c-0.31-0.13-0.66-0.09-0.94,0.1c-0.28,0.19-0.44,0.5-0.44,0.83v14.99
		c0,0.41,0.25,0.77,0.62,0.93c1.73,0.7,3.52,1.27,5.34,1.67c0.07,0.02,0.15,0.02,0.22,0.02c0.23,0,0.45-0.08,0.62-0.22
		c0.24-0.19,0.38-0.48,0.38-0.78v-3.67c2.27-1.49,4.53-3.19,6.74-5.07C75.97,86.62,76.08,86.17,75.94,85.78z M67.37,90.58
		c-0.29,0.18-0.46,0.5-0.46,0.84v2.94c-1.08-0.29-2.14-0.63-3.18-1.03V80.47c1.04,0.37,2.11,0.7,3.18,0.96v3.91
		c0,0.47,0.33,0.87,0.78,0.98c1.53,0.34,3.08,0.58,4.64,0.7C70.69,88.32,69.03,89.51,67.37,90.58z"/>
	<path style="fill:#778A97;" d="M87.83,78.19c-0.28-0.19-0.63-0.22-0.94-0.1c-1.63,0.66-3.31,1.19-5.02,1.57
		c-0.46,0.1-0.78,0.51-0.78,0.98v4.31c-2.17,2.35-4.45,4.53-6.77,6.51c-0.32,0.27-0.44,0.71-0.29,1.11c0.15,0.4,0.57,0.65,0.96,0.66
		c2.04,0,4.09-0.19,6.09-0.56v2.97c0,0.3,0.14,0.59,0.38,0.78c0.18,0.14,0.4,0.22,0.62,0.22c0.07,0,0.15-0.01,0.22-0.02
		c1.82-0.41,3.61-0.97,5.34-1.67c0.38-0.15,0.62-0.52,0.62-0.93V79.02C88.27,78.69,88.11,78.38,87.83,78.19z M86.27,93.33
		c-1.04,0.4-2.1,0.74-3.18,1.03v-2.92c0-0.3-0.14-0.59-0.38-0.78c-0.18-0.14-0.4-0.22-0.62-0.22c-0.07,0-0.15,0.01-0.22,0.02
		c-1.36,0.3-2.73,0.52-4.12,0.64c1.74-1.59,3.44-3.29,5.08-5.08c0.17-0.18,0.26-0.43,0.26-0.68v-3.91c1.07-0.27,2.14-0.59,3.18-0.96
		V93.33z"/>
</g>
</svg>
