<svg xmlns="http://www.w3.org/2000/svg" viewBox="0 0 150 150"><path d="M105.9 107.9h-6.5v-8.5l2.1-.8c.3-.1.6-.4.6-.7l4.7-20.2c.1-.5-.2-1-.6-1.2l-5.6-2.1V65c0-.6-.4-1-1-1h-5v-6.7c0-.6-.4-1-1-1H80.3c-.6 0-1 .4-1 1V64h-5c-.6 0-1 .4-1 1v9.5l-5.6 2.1c-.5.2-.7.7-.6 1.2L71.8 98c.1.3.3.6.6.7l2.1.8v8.5H60V48.7h5.9c2 0 3.7-1.4 4.2-3.3H86v1.5c-1.8.5-3.2 2.1-3.2 4.1 0 2.3 1.9 4.2 4.2 4.2s4.2-1.9 4.2-4.2c0-2-1.4-3.6-3.2-4.1v-2.5c0-.6-.4-1-1-1H70.1c-.5-1.9-2.2-3.3-4.2-3.3H50.8c-.6 0-1 .4-1 1V109c0 .6.4 1 1 1h55.1c.6 0 1-.4 1-1s-.5-1.1-1-1.1zm-16.7-57c0 1.2-1 2.2-2.2 2.2s-2.2-1-2.2-2.2 1-2.2 2.2-2.2 2.2 1 2.2 2.2zm8.2 57h-4.1v-6.3l1.3-.5 2.8-1v7.8zm2.9-10.9l-2.2.8-4.1 1.5-6 2.2V78.1l15.6 5.1-3.3 13.8zm3.7-15.7L88 76v-4.1l.6.2 10.7 4 5.4 2-.7 3.2zm-22.7-23h11.3V64H81.3v-5.7zm-6 7.7h23.3v7.7l-11.3-4.2h-.8l-11.3 4.2V66zm-.7 10.1l10.5-3.9.8-.3V76l-16 5.3-.7-3.1 5.4-2.1zm-4.2 7.2L86 78.1v23.3l-6.2-2.2-3.9-1.4-2.3-.8-3.2-13.7zm8.9 17.9l1.4.5v6.3h-4.1v-7.8l2.7 1zm3.4 1.2l4 1.4c.1 0 .2.1.3.1s.2 0 .3-.1l4-1.4v5.6h-8.6v-5.6zm-30.9 5.5V42.1h14.1c1.3 0 2.3 1 2.3 2.3s-1 2.3-2.3 2.3H59c-.6 0-1 .4-1 1v60.2h-6.2z" fill="#778a97"/></svg>