<svg xmlns="http://www.w3.org/2000/svg" viewBox="0 0 150 150"><g fill="#778a97"><path d="M104.4 100.1H94.1l-4.7-3.5 5.7-6c.3-.3.4-.8.1-1.2-.2-.4-.7-.6-1.1-.5l-8 1.9-.7-6.1c-.1-.4-.4-.8-.8-.9-.4-.1-.9.1-1.1.5L75 99.1l-8.4-14.7c-.2-.4-.6-.6-1.1-.5-.4.1-.7.4-.8.9l-.7 6-8-1.9c-.4-.1-.9.1-1.1.5-.2.4-.2.9.1 1.2l5.7 6-4.7 3.5H45.6c-.6 0-1 .4-1 1v7.3c0 .6.4 1 1 1h58.7c.6 0 1-.4 1-1v-7.3c.1-.6-.4-1-.9-1zM83.6 88l.5 4.2c0 .3.2.5.4.7.2.2.5.2.8.2l5.9-1.4-4.1 4.3c-.2.2-.3.5-.3.8s.2.5.4.7l3.4 2.5H76.7l6.9-12zm-20.8 9.5c.2-.2.4-.4.4-.7 0-.3-.1-.6-.3-.8l-4.1-4.4 5.9 1.4c.3.1.6 0 .8-.2.2-.2.4-.4.4-.7l.5-4.2 6.9 12.1H59.4l3.4-2.5zm-16.2 4.6H74v5.3H46.6v-5.3zm56.8 5.2H76V102h27.4v5.3z"/><path d="M88.9 87.7c.3 0 .6-.1.8-.4l2.8-4c.3-.5.2-1.1-.2-1.4-.5-.3-1.1-.2-1.4.2l-2.8 4c-.3.5-.2 1.1.2 1.4.2.1.4.2.6.2zm4.7 8.3c0 .5.5 1 1 1l4.8-.1c.6 0 1-.5 1-1s-.5-1-1-1l-4.8.1c-.6-.1-1 .4-1 1zm-33.3-8.7c.2.3.5.4.8.4.2 0 .4-.1.6-.2.5-.3.6-.9.2-1.4l-2.8-4c-.3-.5-.9-.6-1.4-.2-.5.3-.6.9-.2 1.4l2.8 4zm-9.8 9.5l4.8.1c.5 0 1-.4 1-1s-.4-1-1-1l-4.8-.1c-.5 0-1 .4-1 1 0 .5.5 1 1 1zm17.9-21.4h2.1v8.4c0 .2 0 .3.1.5l3.5 6.7c.2.3.5.5.9.5s.7-.2.9-.5l3.5-6.7c.1-.1.1-.3.1-.5v-8.4h2.1c.6 0 1-.4 1-1V41.7c0-.6-.4-1-1-1H68.4c-.6 0-1 .4-1 1v32.7c0 .5.5 1 1 1zm9.1 8.1L75 88.3l-2.5-4.8v-8.1h5v8.1zm-8.1-40.8h11.1v30.7H69.3V42.7z"/></g></svg>