<svg xmlns="http://www.w3.org/2000/svg" viewBox="0 0 16 16"><path d="M6.35 10.07l4.32-2.23-4.32-2.26v4.49zM8 2.38c1 0 1.97.01 2.9.04.93.03 1.61.06 2.05.08l.65.04a2.058 2.058 0 01.36.04c.04.01.11.02.2.04.1.02.18.04.25.07.07.03.15.07.25.12a1.947 1.947 0 01.54.42c.04.04.08.09.14.16.06.07.14.25.26.52s.2.57.24.9c.05.38.09.79.11 1.22.03.43.04.77.05 1.01v1.57c.01.86-.05 1.73-.16 2.59-.04.33-.12.62-.22.89-.11.26-.2.45-.29.55l-.12.15c-.08.09-.17.17-.26.24-.09.07-.18.13-.28.17l-.25.11c-.07.03-.16.05-.25.07-.1.02-.17.03-.21.04-.05.01-.11.02-.21.03-.09.01-.14.01-.15.01-1.49.11-3.36.17-5.6.17a131.536 131.536 0 01-5-.13l-.44-.04-.32-.04c-.21-.03-.38-.06-.49-.09-.11-.03-.26-.09-.45-.19-.19-.09-.36-.22-.5-.37-.04-.04-.08-.09-.14-.16-.06-.06-.15-.24-.26-.51-.12-.27-.2-.57-.24-.9-.05-.38-.09-.79-.11-1.22C.02 9.55.01 9.21 0 8.96V7.39c-.01-.86.05-1.72.16-2.59.04-.32.12-.62.22-.88.11-.26.2-.45.29-.55l.13-.15c.08-.09.17-.17.26-.24.08-.07.18-.13.27-.18.09-.05.18-.09.25-.12s.16-.05.25-.07c.1-.01.17-.02.22-.03.04-.01.11-.02.21-.03.09-.01.14-.01.14-.01 1.5-.11 3.36-.16 5.6-.16"/></svg>