<svg xmlns="http://www.w3.org/2000/svg" viewBox="0 0 150 150"><path d="M109.78 84.81a1 1 0 00-.31-1.1l-10.85-8.94 10.24-.22c.42-.01.79-.28.92-.67a1 1 0 00-.31-1.1L92.02 58.37c-.04-.03-.09-.05-.14-.08-.1-.06-.21-.1-.33-.12-.06-.01-.12-.03-.19-.03l-50.22 1.07c-.42.01-.79.28-.92.67-.14.39-.01.83.31 1.1l10.86 8.96-10.24.22c-.42.01-.79.28-.92.67-.14.39-.01.83.31 1.1l10.87 8.96-10.26.22c-.42.01-.79.28-.92.67a1 1 0 00.31 1.1l10.87 8.96-10.26.22c-.42.01-.79.28-.92.67a1 1 0 00.31 1.1L58 108.22c.18.15.4.23.64.23h.02l50.22-1.07c.42-.01.79-.28.92-.67a1 1 0 00-.31-1.1l-10.87-8.96 10.25-.22c.42-.01.79-.28.92-.67a1 1 0 00-.31-1.1L98.61 85.7l10.25-.22c.42-.01.79-.28.92-.67zM95.89 72.82l-32.6.7 27.94-13.21 14.89 12.29-10.23.22zm-9.18-12.58l-27.94 13.2-14.9-12.29 42.84-.91zm19.41 45.2l-47.15 1.01L43.88 94l9.88-.21 4.23 3.48c.09.08.2.13.31.17.03.01.07.01.1.02.07.02.15.04.22.04h.02l36.9-.79 10.58 8.73zM95.54 85.76l10.58 8.72-10.25.22-36.9.79-15.09-12.44 9.88-.21 4.23 3.48c.09.08.19.13.3.17.06.02.12.02.18.03.05.01.1.03.15.03h.02l36.9-.79zm-36.57-1.22L43.88 72.1l9.87-.21 4.24 3.5c.01.01.03.02.05.03.06.04.12.08.19.11.02.01.04.03.06.04.01 0 .03.01.04.01.1.03.19.05.3.05h.02l36.92-.79 10.56 8.7-47.16 1zM104 61.66a4.29 4.29 0 004.29-4.29c0-1.03-.36-2-1.03-2.78v-9.78a3.26 3.26 0 00-6.52 0v9.78c-.67.78-1.03 1.75-1.03 2.78 0 2.36 1.92 4.29 4.29 4.29zm-1.57-5.95c.2-.19.31-.45.31-.73V44.81a1.261 1.261 0 012.52 0v1.32h-.45c-.55 0-1 .45-1 1s.45 1 1 1h.45v1.33h-.45c-.55 0-1 .45-1 1s.45 1 1 1h.45v1.33h-.45c-.55 0-1 .45-1 1s.45 1 1 1h.45v.2c0 .27.11.54.31.73.46.44.72 1.03.72 1.66 0 1.26-1.03 2.29-2.29 2.29s-2.29-1.03-2.29-2.29c0-.64.25-1.23.72-1.67z" fill="#778a97"/></svg>