<svg xmlns="http://www.w3.org/2000/svg" viewBox="0 0 150 150"><path d="M97.6 80.2H79.8v-3c6.8-2.1 11.5-8.4 11.5-15.6V41.3c0-.6-.4-1-1-1H59.7c-.6 0-1 .4-1 1v20.3c0 7.2 4.7 13.5 11.5 15.6v3h-4.8c-.6 0-1 .4-1 1v1h-3.7v-1c0-.6-.4-1-1-1h-7.3c-.6 0-1 .4-1 1v9.3c0 .6.4 1 1 1h7.3c.6 0 1-.4 1-1v-1h3.7v1c0 .6.4 1 1 1h15.4l6.3 17.5c.1.4.5.7.9.7h8.5c.3 0 .6-.2.8-.4s.2-.6.1-.9l-6.1-16.9h6.1c.6 0 1-.4 1-1v-9.3c.2-.5-.3-1-.8-1zm-25.4-2.5h.2c.3.1.7.1 1 .1h.4c.4 0 .8.1 1.3.1.4 0 .8 0 1.3-.1h.4c.3 0 .6-.1 1-.1h.2v3.5c0 .2-.9.9-2.8.9s-2.8-.8-2.8-.9v-3.5zM60.7 61.6V42.3h20.8v16.8c0 .6.4 1 1 1s1-.4 1-1V42.3h5.8v19.3c0 6.5-4.4 12.2-10.7 13.9-2 .5-3.9.5-5.9.2-.4-.1-.9-.1-1.3-.2-6.3-1.7-10.7-7.4-10.7-13.9zm-2 27.9h-5.3v-7.3h5.3v7.3zm2-1.9v-3.4h3.7v3.4h-3.7zm34.5 20.1h-6.4l-5.9-16.2h6.4l5.9 16.2zm1.4-18.2H66.5v-7.3h4s0 .1.1.1c0 .1.1.1.1.2l.3.3.1.1c.1.1.3.2.4.3 0 0 .1 0 .1.1l.6.3c.1 0 .1 0 .2.1.2.1.4.1.5.2.1 0 .2 0 .3.1.2 0 .4.1.6.1h.3c.3 0 .6.1.9.1.3 0 .6 0 .9-.1h.3c.2 0 .4-.1.6-.1.1 0 .2 0 .3-.1.2-.1.4-.1.6-.2.1 0 .1 0 .2-.1l.6-.3s.1 0 .1-.1c.2-.1.3-.2.5-.3.1 0 .1-.1.1-.1l.3-.3c0-.1.1-.1.1-.2l.1-.1h17v7.3z" fill="#778a97"/></svg>