<svg xmlns="http://www.w3.org/2000/svg" viewBox="0 0 150 150"><g fill="#778a97"><path d="M75 47.23c-19.62 0-35.57 10.19-35.57 22.72v10.11c0 12.53 15.96 22.72 35.57 22.72s35.57-10.19 35.57-22.72V69.95c0-12.53-15.96-22.72-35.57-22.72zm0 2c18.51 0 33.57 9.29 33.57 20.72 0 1.57-.29 3.15-.87 4.71-.63 1.65-1.6 3.25-2.88 4.76C99.03 86.35 87.6 90.66 75 90.66c-12.6 0-24.03-4.31-29.83-11.26-1.28-1.5-2.24-3.1-2.87-4.74a13.51 13.51 0 01-.87-4.71c0-11.43 15.06-20.72 33.57-20.72zm33.57 30.82c0 11.42-15.06 20.72-33.57 20.72-18.51 0-33.57-9.29-33.57-20.72v-2.54l.15.24c.2.35.42.7.65 1.04.1.15.2.31.3.46.35.49.71.97 1.11 1.44C49.81 88.08 61.82 92.66 75 92.66c13.17 0 25.19-4.59 31.35-11.96.4-.47.77-.95 1.11-1.44.11-.15.21-.31.31-.47.23-.34.44-.69.64-1.03.05-.08.11-.16.15-.25v2.54z"/><path d="M75 72.44c1.95 0 3.5-.78 4.09-1.92h13.66c.55 0 1-.45 1-1s-.45-1-1-1H79.09c-.48-.93-1.61-1.62-3.09-1.84v-4.61c0-.55-.45-1-1-1s-1 .45-1 1v4.61c-1.96.29-3.35 1.41-3.35 2.84 0 1.67 1.87 2.92 4.35 2.92zm0-3.83c1.46 0 2.35.64 2.35.92s-.89.92-2.35.92-2.35-.64-2.35-.92.89-.92 2.35-.92z"/><path d="M49.33 78.7c2.63 2.52 6.3 4.62 10.67 6.1.09.05.19.08.29.1 4.35 1.44 9.37 2.26 14.71 2.26s10.36-.82 14.71-2.26c.1-.02.2-.05.29-.1 4.36-1.48 8.04-3.58 10.67-6.1.15-.09.27-.21.36-.36 2.56-2.59 4.04-5.6 4.04-8.81 0-3.22-1.48-6.24-4.06-8.83-.09-.14-.2-.26-.34-.34-2.63-2.52-6.3-4.62-10.67-6.1a.998.998 0 00-.29-.1C85.36 52.72 80.34 51.9 75 51.9c-5.34 0-10.36.82-14.71 2.26-.1.02-.2.05-.29.1-4.36 1.48-8.03 3.57-10.66 6.09-.15.08-.26.21-.35.35-2.58 2.6-4.06 5.62-4.06 8.83s1.48 6.22 4.04 8.81c.09.15.21.28.36.36zm3.51-10.17h-5.85c.25-2.22 1.34-4.31 3.08-6.18l5.42 1.79c.1.03.21.05.31.05.42 0 .81-.27.95-.69a.997.997 0 00-.64-1.26l-4.39-1.45c2.21-1.82 5.1-3.37 8.45-4.53l3.03 3c.2.19.45.29.7.29.26 0 .51-.1.71-.3a.987.987 0 00-.01-1.41l-2.28-2.26c3.52-1 7.47-1.59 11.65-1.67v2.94c0 .55.45 1 1 1s1-.45 1-1v-2.94c4.18.08 8.13.68 11.65 1.67l-2.28 2.26c-.39.39-.39 1.02-.01 1.41a.992.992 0 001.41.01l3.03-3c3.35 1.17 6.24 2.71 8.45 4.53l-4.39 1.45c-.52.17-.81.74-.64 1.26.14.42.53.69.95.69.1 0 .21-.02.31-.05l5.42-1.79c1.75 1.87 2.83 3.96 3.08 6.18H97.1c-.55 0-1 .45-1 1s.45 1 1 1h5.85c-.25 2.22-1.34 4.31-3.08 6.18l-5.42-1.79a.997.997 0 00-1.26.64c-.17.52.11 1.09.64 1.26l4.39 1.45c-2.21 1.82-5.1 3.37-8.45 4.53l-3.03-3a.987.987 0 00-1.41.01.987.987 0 00.01 1.41l2.28 2.26c-3.52 1-7.47 1.59-11.65 1.67V82.2c0-.55-.45-1-1-1s-1 .45-1 1v2.94c-4.18-.08-8.13-.68-11.65-1.67l2.28-2.26c.39-.39.39-1.02.01-1.41-.39-.39-1.02-.39-1.41-.01l-3.03 3c-3.35-1.17-6.24-2.71-8.45-4.53l4.39-1.45c.52-.17.81-.74.64-1.26-.17-.52-.74-.81-1.26-.64l-5.42 1.79c-1.75-1.87-2.83-3.96-3.08-6.18h5.85c.55 0 1-.45 1-1s-.44-.99-1-.99z"/></g></svg>