<svg xmlns="http://www.w3.org/2000/svg" viewBox="0 0 150 150"><path d="M40.3 97.3c1.9 0 2.8.6 3.8 1.2 1.1.7 2.4 1.5 4.9 1.5s3.7-.8 4.9-1.5c1-.7 1.9-1.2 3.8-1.2s2.8.6 3.8 1.2c1.1.7 2.4 1.5 4.9 1.5 2.5 0 3.7-.8 4.9-1.5 1-.7 1.9-1.2 3.8-1.2s2.8.6 3.8 1.2c1.1.7 2.4 1.5 4.9 1.5 2.5 0 3.7-.8 4.9-1.5 1-.7 1.9-1.2 3.8-1.2s2.8.6 3.8 1.2c1.1.7 2.4 1.5 4.9 1.5 2.5 0 3.7-.8 4.9-1.5 1-.7 1.9-1.2 3.8-1.2.6 0 1-.4 1-1s-.4-1-1-1c-2.5 0-3.7.8-4.9 1.5-1 .7-1.9 1.2-3.8 1.2s-2.8-.6-3.8-1.2c-1.1-.7-2.4-1.5-4.9-1.5-.6 0-1.2.1-1.7.1-.2-1-.5-2-1.1-2.9h14c.6 0 1-.4 1-1v-47c0-.6-.4-1-1-1h-9.2c-.5 0-.9.4-1 .9l-.4 3.5H65.6v-3.3c0-.6-.4-1-1-1h-9.2c-.5 0-.9.4-1 .9l-5.8 47c0 .3.1.6.2.8.2.2.5.3.7.3h6c-.6 1-1 2.1-1.1 3.3-.7.3-1.2.6-1.7.9-1 .7-1.9 1.2-3.8 1.2s-2.8-.6-3.8-1.2c-1.1-.7-2.4-1.5-4.9-1.5-.6 0-1 .4-1 1s.6 1 1.1 1zm42.4-8.5c.9-14.7 3.8-31.2 9.1-31.9l-4.2 33.7c-1.3-1-3-1.6-4.9-1.8zm19.8-43.2v45H89.6l5.6-45h7.3zm-9.9 4.3l-.6 5c-8.3.2-10.7 23.2-11.3 34-1.1.2-2.2.5-3.2 1-1-2.6-3.5-4.5-6.6-5 1.5-17.4 5-28.1 9.1-28.1.6 0 1-.4 1-1s-.4-1-1-1c-7.1 0-9.9 16.1-11.1 30-3.1.1-5.8 1.7-7.3 4.1-1.1.2-2.2.5-3.1 1 .6-11.2 2.7-26.5 6.8-31.5 0 0 0-.1.1-.1.8-1 1.7-1.5 2.7-1.5.6 0 1-.4 1-1s-.4-1-1-1c-.9 0-1.7.3-2.4.7v-5.7h26.9zm-36.3-4.3h7.4v11.9c-5.6 7.3-6.9 27.7-7.1 33.1h-5.8l5.5-45zm6.1 45.2c.3 0 .7-.2.8-.6 1-2.1 3.4-3.5 6.1-3.5 3.3 0 6.2 2.1 6.6 4.9.1.4.3.6.6.8.3.1.7.1 1-.2 1.2-1 2.8-1.5 4.5-1.5 3.5 0 6.4 2.4 6.6 5.3-.5.2-.9.5-1.3.7-1 .7-1.9 1.2-3.8 1.2s-2.8-.6-3.8-1.2c-1.1-.7-2.4-1.5-4.9-1.5-2.5 0-3.7.8-4.9 1.5-1 .7-1.9 1.2-3.8 1.2s-2.8-.6-3.8-1.2c-1.1-.7-2.4-1.5-4.9-1.5-.4 0-.7 0-1.1.1.8-2.3 3.2-4.2 6.1-4.5zm47.3 10.8c-2.5 0-3.7.8-4.9 1.5-1 .7-1.9 1.2-3.8 1.2s-2.8-.6-3.8-1.2c-1.1-.7-2.4-1.5-4.9-1.5-2.5 0-3.7.8-4.9 1.5-1 .7-1.9 1.2-3.8 1.2s-2.8-.6-3.8-1.2c-1.1-.7-2.4-1.5-4.9-1.5-2.5 0-3.7.8-4.9 1.5-1 .7-1.9 1.2-3.8 1.2s-2.8-.6-3.8-1.2c-1.1-.7-2.4-1.5-4.9-1.5-2.5 0-3.7.8-4.9 1.5-1 .7-1.9 1.2-3.8 1.2s-2.8-.6-3.8-1.2c-1.1-.7-2.4-1.5-4.9-1.5-.6 0-1 .4-1 1s.4 1 1 1c1.9 0 2.8.6 3.8 1.2 1.1.7 2.4 1.5 4.9 1.5s3.7-.8 4.9-1.5c1-.7 1.9-1.2 3.8-1.2s2.8.6 3.8 1.2c1.1.7 2.4 1.5 4.9 1.5s3.7-.8 4.9-1.5c1-.7 1.9-1.2 3.8-1.2s2.8.6 3.8 1.2c1.1.7 2.4 1.5 4.9 1.5 2.5 0 3.7-.8 4.9-1.5 1-.7 1.9-1.2 3.8-1.2s2.8.6 3.8 1.2c1.1.7 2.4 1.5 4.9 1.5 2.5 0 3.7-.8 4.9-1.5 1-.7 1.9-1.2 3.8-1.2.6 0 1-.4 1-1s-.5-1-1-1z" fill="#778a97"/></svg>