<svg xmlns="http://www.w3.org/2000/svg" viewBox="0 0 150 150"><path d="M100.59 59.11v-.57c2.02-.46 3.54-2.26 3.54-4.42 0-2.17-1.52-3.98-3.54-4.44v-.57c0-.55-.45-1-1-1h-34.5c-.55 0-1 .45-1 1v1.1h-4.12v-1.09c0-.46-.32-.87-.77-.97l-7.78-1.83a1 1 0 00-1.23.97v13.65c0 .31.14.59.38.78.18.14.4.22.62.22.08 0 .15-.01.23-.03l7.78-1.83c.45-.11.77-.51.77-.97v-1.09h4.12v1.1c0 .55.45 1 1 1h16.54l6.82 18.85c.13.37.48.62.87.65.04.2.09.4.16.6 3.22 8.86 1.45 12.23.84 13.04-.9 1.16-2.22 1.16-2.77 1.1-3.78-.33-4.66-2.21-6.11-9.49-1.28-6.45-3.22-16.19-14.46-18.36-11.77-2.27-18.75 7.29-20.8 12.66-.18.47-.25.96-.27 1.44-.01.1-.03.2-.03.31 0 1.92 1.2 3.55 2.89 4.21.03.01.06.03.09.05.21.08.42.13.63.18.97.23 1.98.16 2.92-.25 1.14-.5 2.02-1.42 2.47-2.57.34-.84 3.5-8.16 10.33-6.86 4.62.9 5.61 3.74 7.09 11.08 1.27 6.34 3.18 15.93 14.42 16.92.38.04.78.04 1.17.04 3.92 0 7.51-1.73 9.83-4.75 2.42-3.14 4.54-9.06 1.34-19.48.11-.07.22-.16.3-.27.19-.27.23-.61.12-.91L92.9 60.14h6.68c.56-.03 1.01-.47 1.01-1.03zm-42.62-.8l-5.78 1.36V48.56l5.78 1.36v8.39zm6.11-2.3h-4.12v-3.79h4.12v3.79zm38.05-1.89c0 1.05-.63 1.95-1.54 2.33v-4.69c.9.4 1.54 1.31 1.54 2.36zM50.4 83.44c-.31 0-.61-.06-.88-.17-.98-.41-1.58-1.3-1.64-2.29 0-.02-.01-.05-.01-.07 0-1.39 1.13-2.53 2.53-2.53s2.53 1.13 2.53 2.53-1.14 2.53-2.53 2.53zm45.73 14.29c-1.94 2.53-4.95 3.97-8.25 3.97-.31 0-.65 0-.97-.03-9.77-.87-11.37-8.88-12.66-15.36-1.42-7.05-2.6-11.43-8.66-12.61-.71-.14-1.39-.2-2.03-.2-4.53 0-7.45 3.1-9.05 5.53-.72-1.55-2.28-2.64-4.1-2.64-.2 0-.4.03-.59.06 2.92-4.56 8.54-9.56 16.8-7.97 9.91 1.91 11.55 10.16 12.87 16.78 1.35 6.76 2.38 10.61 7.88 11.09.67.07 2.99.15 4.55-1.88 1.22-1.63 2.77-5.72-.52-14.84h5.64c3.13 9.88 1.26 15.29-.91 18.1zm.99-20.1h-7.03l-6.34-17.51h7.03l6.34 17.51zm1.47-19.52h-32.5v-8h32.5v8z" fill="#778a97"/></svg>