<svg xmlns="http://www.w3.org/2000/svg" viewBox="0 0 150 150"><g fill="#778a97"><path d="M87.67 46.98a13.893 13.893 0 00-4.43-5.19c-.01 0-.01-.01-.01-.01-.01-.01-.02-.01-.03-.02-.01-.01-.03-.02-.04-.03h-.01c-.11-.09-.23-.17-.36-.26-.17-.11-.35-.22-.5-.29-.21-.12-.45-.22-.7-.32 0-.04.01-.08.01-.12v-.09l-.4-7.23c0-.01-.01-.02-.01-.04-.03-.51-.26-.99-.69-1.36-.11-.12-.22-.19-.3-.25-.03-.02-.07-.05-.1-.06-.11-.07-.23-.13-.34-.18-1.12-.6-2.85-.94-4.76-.94-1.87 0-3.58.33-4.7.92-.21.08-.35.18-.41.23-.9.57-1.07 1.28-1.08 1.68l-.41 7.32c0 .03.01.08.01.11-.24.1-.46.2-.66.3-.23.1-.41.22-.54.32-.01 0-.01.01-.02.01A13.883 13.883 0 0062.31 47c-3.44 1.63-5.34 3.87-5.34 6.34v57.22c0 4.98 7.92 8.89 18.02 8.89 10.12 0 18.04-3.9 18.04-8.89V53.32c0-2.47-1.91-4.71-5.36-6.34zm-7.27-2.06l-.11.03c-1.42.5-3.3.77-5.3.77s-3.88-.27-5.3-.77l-.09-.03c-1.38-.49-1.82-1.03-1.82-1.21 0-.06.1-.3.57-.62.06-.04.14-.1.17-.12.04-.02.08-.04.13-.06.24-.13.54-.26.89-.38.03.02.06.03.09.05.12.07.24.15.38.21.06.03.11.06.16.08.2.09.41.18.64.26l.1.03c1.13.38 2.58.6 4.08.6 1.53 0 3.02-.22 4.18-.62.23-.08.44-.17.64-.26.05-.03.1-.05.16-.08.15-.08.29-.16.42-.24.02-.01.05-.03.07-.04.34.12.64.25.91.4.12.06.24.14.33.2.08.05.16.1.23.16.24.2.3.36.3.42 0 .2-.45.73-1.83 1.22zM75 37.56c.12 0 .21.09.21.21s-.09.21-.21.21-.21-.09-.21-.21.09-.21.21-.21zm-1.61-1.29c-.37.39-.6.92-.6 1.5a2.21 2.21 0 004.42 0c0-.58-.23-1.11-.6-1.5.84-.1 1.62-.25 2.28-.49.15-.05.29-.11.42-.16l.27 4.99v.05l-.05.05c-.09.09-.37.32-1.03.55-.96.33-2.21.51-3.53.51-1.3 0-2.58-.19-3.5-.51l-.09-.03c-.51-.19-.81-.38-.92-.5-.01-.01-.05-.05-.07-.08l.28-5.03c.12.05.26.1.4.15.03.01.06.02.1.03.65.23 1.41.38 2.22.47zm-2.35-2.92l.12-.06c.81-.44 2.28-.72 3.83-.72 1.56 0 3.04.28 3.85.72.03.01.08.04.11.05.03.02.07.04.11.06l.03.02.04.04h-.01c-.01.01-.02.02-.03.02-.03.03-.08.05-.13.08-.02.01-.05.03-.08.04-.05.03-.11.06-.18.09-.03.01-.06.03-.1.04-.11.05-.23.1-.37.14-.87.31-2.02.47-3.24.47-1.21 0-2.38-.17-3.22-.47l-.1-.03c-.13-.05-.23-.09-.33-.13-.03-.02-.06-.03-.09-.05-.06-.03-.11-.06-.15-.08-.03-.01-.05-.03-.07-.04-.04-.03-.08-.05-.11-.08-.01-.01-.02-.02-.03-.02.02-.02.05-.04.08-.06 0 .02.04-.01.07-.03zm-4.9 11.57c.06.1.14.2.23.31.02.02.04.05.07.07.11.12.23.25.38.37.01 0 .01.01.02.01.14.12.31.23.49.35.04.02.07.05.11.07.19.11.4.23.63.34a13.933 13.933 0 00.96.39c.03.01.06.02.1.03 1.61.55 3.7.85 5.88.85 2.18 0 4.26-.3 5.87-.85l.11-.03c.3-.11.57-.22.83-.33.05-.02.09-.04.14-.06.23-.11.44-.22.63-.34.04-.02.07-.05.11-.07.19-.12.36-.24.51-.36a3.36 3.36 0 00.44-.44c.08-.1.16-.2.23-.3.86.91 1.58 1.96 2.13 3.1.01.04.03.08.05.12.78 1.64 1.17 3.38 1.17 5.17 0 1.56-4.75 3.82-12.21 3.82s-12.21-2.26-12.21-3.82c0-1.82.39-3.56 1.17-5.18.53-1.19 1.26-2.27 2.16-3.22zm-4.94 5c-.01.04-.01.09-.03.14-.08.35-.14.72-.2 1.08-.03.18-.07.35-.09.53-.06.54-.1 1.1-.1 1.65 0 3.78 7.32 5.82 14.21 5.82S89.2 57.1 89.2 53.32c0-.55-.04-1.09-.1-1.63-.02-.18-.06-.35-.09-.53-.06-.36-.12-.72-.2-1.07l-.03-.18c1.46 1.05 2.26 2.23 2.26 3.41 0 1.69-1.65 3.41-4.53 4.72-3.07 1.4-7.16 2.17-11.51 2.17-4.28 0-8.3-.74-11.35-2.1-.05-.03-.1-.07-.16-.09-2.86-1.28-4.51-3-4.51-4.7-.01-1.17.78-2.35 2.22-3.4zm29.83 60.62c0 3.33-6.45 6.89-16.04 6.89-9.58 0-16.02-3.56-16.02-6.89V57.48c.04.04.08.07.12.11.09.08.19.16.29.25.18.16.38.31.58.46.11.08.22.16.34.24.22.15.45.3.69.44.11.07.22.14.34.2.37.2.75.4 1.16.59.05.03.1.06.16.09 3.32 1.51 7.71 2.35 12.34 2.35s9.01-.83 12.33-2.35c.43-.19.82-.4 1.21-.61.12-.07.23-.14.35-.21.25-.15.49-.3.72-.45.13-.08.24-.17.36-.26.2-.15.4-.3.58-.45.11-.09.21-.18.31-.27.05-.05.12-.09.17-.14v53.07z"/><path d="M75.94 85.78c-.14-.39-.52-.66-.94-.66-2.04 0-4.09-.2-6.09-.59v-3.89c0-.47-.33-.87-.78-.98-1.71-.38-3.39-.91-5.02-1.57a.987.987 0 00-.94.1c-.28.19-.44.5-.44.83v14.99c0 .41.25.77.62.93 1.73.7 3.52 1.27 5.34 1.67.07.02.15.02.22.02.23 0 .45-.08.62-.22a1 1 0 00.38-.78v-3.67c2.27-1.49 4.53-3.19 6.74-5.07.32-.27.43-.72.29-1.11zm-8.57 4.8c-.29.18-.46.5-.46.84v2.94c-1.08-.29-2.14-.63-3.18-1.03V80.47c1.04.37 2.11.7 3.18.96v3.91c0 .47.33.87.78.98 1.53.34 3.08.58 4.64.7-1.64 1.3-3.3 2.49-4.96 3.56zm20.46-12.39c-.28-.19-.63-.22-.94-.1-1.63.66-3.31 1.19-5.02 1.57-.46.1-.78.51-.78.98v4.31a79.386 79.386 0 01-6.77 6.51c-.32.27-.44.71-.29 1.11.15.4.57.65.96.66 2.04 0 4.09-.19 6.09-.56v2.97c0 .3.14.59.38.78a1.02 1.02 0 00.84.2c1.82-.41 3.61-.97 5.34-1.67a.99.99 0 00.62-.93v-15a.965.965 0 00-.43-.83zm-1.56 15.14c-1.04.4-2.1.74-3.18 1.03v-2.92a1 1 0 00-.38-.78 1.02 1.02 0 00-.84-.2c-1.36.3-2.73.52-4.12.64 1.74-1.59 3.44-3.29 5.08-5.08.17-.18.26-.43.26-.68v-3.91c1.07-.27 2.14-.59 3.18-.96v12.86z"/></g></svg>