<svg xmlns="http://www.w3.org/2000/svg" viewBox="0 0 22 22"><path d="M21.74 8.02c-.19-.2-.46-.32-.74-.32h-2.63L16.66.76a.995.995 0 00-1.21-.73c-.54.13-.86.67-.73 1.21l1.59 6.46H5.69l1.59-6.46C7.41.7 7.08.16 6.55.03a1.01 1.01 0 00-1.22.73L3.63 7.7H1c-.28 0-.55.12-.74.32-.18.21-.28.48-.26.76l1 12.3c.05.52.48.92 1 .92h18c.52 0 .95-.4 1-.92l1-12.3c.02-.28-.08-.55-.26-.76zM19.08 20H2.92L2.08 9.7h17.83L19.08 20z"/><path d="M7.27 12.08c-.55 0-1 .45-1 1v3.54c0 .55.45 1 1 1s1-.45 1-1v-3.54c0-.55-.44-1-1-1zm3.73 0c-.55 0-1 .45-1 1v3.54c0 .55.45 1 1 1s1-.45 1-1v-3.54c0-.55-.45-1-1-1zm3.73 0c-.55 0-1 .45-1 1v3.54c0 .55.45 1 1 1s1-.45 1-1v-3.54c0-.55-.45-1-1-1z"/></svg>