<svg xmlns="http://www.w3.org/2000/svg" viewBox="0 0 150 150"><path d="M101.48 45.74c-.14-.22-.37-.38-.62-.44l-22.72-5.15a.99.99 0 00-1.14.59L70.42 56.5l1.47-16.88a1 1 0 00-.78-1.06l-11.18-2.53a.985.985 0 00-.75.13c-.22.14-.38.37-.44.62l-5.12 22.6-3.72 16.41-1.5 6.61c-.12.54.22 1.07.75 1.2l14.13 3.2-4.81 21.23c-.28 1.23.19 2.52 1.31 3.63 1 .99 2.44 1.73 4.04 2.09.73.17 1.44.24 2.12.24 2.64 0 4.76-1.18 5.19-3.1l4.81-21.23 14.13 3.2c.07.02.15.02.22.02.46 0 .87-.31.97-.78l1.5-6.61v-.04l3.71-16.38 5.12-22.6c.08-.24.03-.51-.11-.73zm-41.02-7.55l9.36 2.12-1.85 21.29-12.18-2.76 4.67-20.65zm-9.89 43.68l1.05-4.66 14.15 3.21c-.03.02-.05.04-.07.06-.14.1-.27.2-.39.31-.04.04-.08.07-.12.11-.14.14-.27.28-.39.44-.02.02-.03.05-.05.07-.1.14-.18.28-.25.43-.02.05-.05.09-.07.14-.08.18-.14.36-.19.56l-.53 2.32-13.14-2.99zm14.88 4.4l.75-3.3c.25-1.09 2.28-1.91 4.83-1.36l.15.03c.45.11.88.26 1.29.44.68.3 1.28.67 1.73 1.11.61.6.89 1.24.77 1.76l-.75 3.3-4.33 19.11-.08-.08c-1.01-.98-2.44-1.73-4.05-2.09a11.622 11.622 0 00-1.15-.19c-.31-.03-.62-.05-.92-.05h-.11c-.42 0-.82.04-1.21.1-.04.01-.07.01-.11.02-.38.07-.74.16-1.08.28-.02.01-.04.01-.06.02l4.33-19.1zm-1.19 25.54c-1.23-.28-2.36-.85-3.08-1.57-.6-.59-.88-1.24-.76-1.76 0-.01.01-.02.01-.03.03-.11.08-.22.15-.32.02-.04.06-.08.09-.11.06-.07.13-.15.2-.22.04-.04.08-.07.13-.11.09-.07.2-.14.31-.2.04-.02.08-.05.13-.07.16-.08.33-.15.51-.21l.22-.06c.13-.04.27-.07.41-.09.09-.02.18-.03.27-.04.15-.02.31-.03.46-.04.09 0 .17-.01.27-.01.15 0 .32.01.48.02.12.01.24.01.36.02.29.03.59.08.9.15 1.23.28 2.36.85 3.09 1.57.61.59.89 1.23.77 1.75-.25 1.09-2.33 1.91-4.92 1.33zM89.55 90.7l-13.16-2.98.53-2.32c.04-.19.06-.38.07-.58v-.17c0-.15-.01-.3-.04-.45-.01-.05-.01-.1-.02-.14a4.05 4.05 0 00-.16-.57c-.02-.04-.04-.08-.05-.12-.06-.15-.14-.3-.22-.45-.02-.03-.02-.06-.04-.08l14.15 3.21-1.06 4.65zm1.49-6.61l-19.49-4.42-19.48-4.41 3.28-14.46 38.97 8.83-3.28 14.46zm3.71-16.41l-24.51-5.55 8.27-19.84 20.93 4.74-4.69 20.65z" fill="#778a97"/></svg>