<svg xmlns="http://www.w3.org/2000/svg" viewBox="0 0 150 150"><g fill="#778a97"><path d="M52.38 57.56c.2.2.45.29.71.29s.51-.1.71-.29l5.28-5.28a.996.996 0 10-1.41-1.41l-4.58 4.58-2.34-2.34a.996.996 0 10-1.41 1.41l3.04 3.04zm41.59 0c.2.2.45.29.71.29s.51-.1.71-.29l5.28-5.28a.996.996 0 10-1.41-1.41l-4.58 4.58-2.34-2.34a.996.996 0 10-1.41 1.41l3.04 3.04zM57.66 92.44l-4.58 4.58-2.34-2.34a.996.996 0 10-1.41 1.41l3.05 3.05c.2.2.45.29.71.29s.51-.1.71-.29l5.28-5.28c.39-.39.39-1.02 0-1.41s-1.03-.4-1.42-.01z"/><path d="M103.3 84.61l-1.09-.65-13.83-8.41c-.31-.21-.63-.38-.96-.55.33-.17.66-.35.97-.56l13.81-8.4 1.14-.69c3.7-2.51 5.9-6.68 5.9-11.15 0-7.42-6.04-13.45-13.45-13.45-4.49 0-8.67 2.22-11.2 5.99l-.6 1v.01l-8.82 14.49c-.07.12-.11.24-.17.36-.07-.13-.12-.27-.19-.4l-8.8-14.45-.63-1.05a13.45 13.45 0 00-11.17-5.94c-7.42 0-13.45 6.04-13.45 13.45 0 4.48 2.21 8.65 5.95 11.18l1.09.65 13.83 8.41c.31.21.63.38.96.55-.33.17-.66.35-.97.56l-13.81 8.4-1.14.69c-3.7 2.51-5.9 6.68-5.9 11.15 0 7.42 6.04 13.45 13.45 13.45 4.49 0 8.67-2.22 11.2-5.99l.6-.99.01-.01 8.82-14.49c.06-.12.11-.24.17-.36.07.13.12.27.19.4l8.8 14.45.63 1.04a13.45 13.45 0 0011.17 5.94c7.42 0 13.45-6.04 13.45-13.45-.01-4.47-2.22-8.64-5.96-11.18zm-7.5-41.86c6.32 0 11.45 5.14 11.45 11.45 0 3.81-1.88 7.36-4.98 9.47l-1.06.64a11.18 11.18 0 01-5.41 1.37c-1.38 0-2.72-.24-3.98-.73a11.379 11.379 0 01-6.75-6.77c-.48-1.25-.72-2.59-.72-3.97 0-1.93.46-3.77 1.38-5.46l.56-.94c2.13-3.17 5.69-5.06 9.51-5.06zM76.9 63.23l5.45-8.94c0 .22.02.44.03.66.01.16.01.33.02.49.02.23.06.45.09.68.02.17.04.33.07.5.04.23.1.46.16.68.04.15.06.31.11.46.11.38.23.74.37 1.11 1.35 3.7 4.24 6.59 7.92 7.94.36.14.74.26 1.11.37.14.04.28.06.42.1.24.06.48.12.72.17.16.03.32.04.48.07.23.03.46.07.69.09.17.02.34.02.51.03.21.01.42.03.63.03l-8.32 5.06a.88.88 0 01-.1.06c-1.17.79-2.55 1.2-4.01 1.2a7.255 7.255 0 01-6.35-10.76zM79.09 75c-1.76.89-3.2 2.33-4.09 4.09A9.295 9.295 0 0070.91 75c1.76-.89 3.2-2.33 4.09-4.09.89 1.76 2.33 3.2 4.09 4.09zM42.75 54.2c0-6.32 5.14-11.45 11.45-11.45 3.82 0 7.38 1.89 9.49 5.02l.58.97c.92 1.69 1.38 3.53 1.38 5.47 0 1.38-.24 2.72-.73 3.98a11.327 11.327 0 01-6.76 6.76c-1.25.48-2.58.72-3.97.72-1.92 0-3.73-.46-5.41-1.36l-1.02-.61a11.477 11.477 0 01-5.01-9.5zm19.98 18.59c-.01-.01-.08-.05-.09-.06l-8.32-5.06c.21 0 .42-.02.62-.03.17-.01.34-.01.51-.03.24-.02.47-.06.7-.1.16-.02.31-.04.47-.07.26-.05.51-.11.76-.18.13-.03.25-.05.38-.09.37-.11.74-.23 1.11-.37a13.33 13.33 0 007.93-7.94c.14-.37.26-.74.37-1.12.04-.15.07-.3.11-.46.06-.23.12-.46.16-.69.03-.16.05-.33.07-.5.03-.23.07-.45.09-.68.02-.16.02-.33.02-.49.01-.22.03-.44.03-.66l5.42 8.91c.6 1.09.92 2.32.92 3.55 0 4-3.25 7.25-7.25 7.25-1.45.03-2.83-.39-4.01-1.18zm-8.53 34.46c-6.32 0-11.45-5.14-11.45-11.45 0-3.81 1.88-7.36 4.98-9.47l1.06-.64a11.18 11.18 0 015.41-1.37c1.38 0 2.72.24 3.98.73 3.14 1.15 5.59 3.62 6.75 6.77.48 1.25.72 2.59.72 3.97 0 1.93-.46 3.77-1.38 5.46l-.56.94a11.441 11.441 0 01-9.51 5.06zm18.9-20.48l-5.45 8.94c0-.22-.02-.44-.03-.67-.01-.16-.01-.33-.02-.49-.02-.23-.06-.46-.09-.69-.02-.16-.04-.33-.07-.49-.04-.24-.1-.47-.16-.7-.04-.15-.06-.3-.1-.44-.11-.38-.23-.75-.37-1.11a13.33 13.33 0 00-7.92-7.95c-.36-.14-.74-.26-1.11-.37-.14-.04-.29-.07-.44-.1-.23-.06-.47-.12-.71-.16-.17-.03-.34-.05-.52-.07-.22-.03-.43-.07-.65-.09-.19-.02-.37-.02-.56-.03-.19-.01-.38-.03-.57-.03l8.32-5.06a.88.88 0 01.1-.06c1.16-.79 2.55-1.2 4.01-1.2 4 0 7.25 3.25 7.25 7.25a7.463 7.463 0 01-.91 3.52zm2.9-3.52c0-4 3.25-7.25 7.25-7.25 1.46 0 2.84.42 4.02 1.21.01.01.08.05.09.06l8.32 5.06c-.19 0-.38.02-.57.03-.19.01-.38.01-.56.03-.22.02-.43.06-.65.09-.17.02-.35.04-.52.07-.24.04-.47.1-.7.16-.15.04-.3.06-.44.1-.37.1-.74.23-1.1.36a13.33 13.33 0 00-7.93 7.94c-.14.37-.26.74-.37 1.12-.04.14-.07.29-.1.44-.06.24-.12.47-.16.71-.03.16-.04.33-.07.49-.03.23-.07.45-.09.69-.02.16-.02.33-.02.49-.01.22-.03.44-.03.66l-5.42-8.91a7.048 7.048 0 01-.95-3.55zm19.8 24c-3.82 0-7.38-1.89-9.49-5.02l-.58-.97c-.92-1.69-1.38-3.53-1.38-5.47 0-1.38.24-2.72.73-3.98 1.15-3.14 3.61-5.61 6.75-6.77 1.25-.48 2.59-.72 3.97-.72 1.92 0 3.73.46 5.41 1.36l1.02.61c3.15 2.13 5.03 5.68 5.03 9.5-.01 6.32-5.15 11.46-11.46 11.46z"/><path d="M99.26 92.44l-4.58 4.58-2.34-2.34a.996.996 0 10-1.41 1.41l3.05 3.05c.2.2.45.29.71.29s.51-.1.71-.29l5.28-5.28c.39-.39.39-1.02 0-1.41s-1.03-.4-1.42-.01z"/></g></svg>