<?xml version="1.0" encoding="utf-8"?>
<!-- Generator: Adobe Illustrator 27.1.1, SVG Export Plug-In . SVG Version: 6.00 Build 0)  -->
<svg version="1.1" id="Layer_1" xmlns="http://www.w3.org/2000/svg" xmlns:xlink="http://www.w3.org/1999/xlink" x="0px" y="0px"
	 viewBox="0 0 150 150" style="enable-background:new 0 0 150 150;" xml:space="preserve">
<g>
	<path style="fill:#778A97;" d="M55.07,56.18c3.73,0,6.66-1.98,6.66-4.51c0-2.54-2.93-4.52-6.66-4.52c-3.74,0-6.67,1.99-6.67,4.52
		C48.4,54.2,51.33,56.18,55.07,56.18z M55.07,49.15c2.75,0,4.66,1.33,4.66,2.52c0,1.19-1.91,2.51-4.66,2.51
		c-2.75,0-4.67-1.32-4.67-2.51C50.4,50.48,52.32,49.15,55.07,49.15z"/>
	<path style="fill:#778A97;" d="M94.93,66.98c-3.74,0-6.67,1.99-6.67,4.52c0,2.53,2.93,4.51,6.67,4.51s6.67-1.98,6.67-4.51
		C101.6,68.96,98.67,66.98,94.93,66.98z M94.93,74.01c-2.75,0-4.67-1.32-4.67-2.51c0-1.19,1.92-2.52,4.67-2.52s4.67,1.33,4.67,2.52
		C99.6,72.69,97.68,74.01,94.93,74.01z"/>
	<path style="fill:#778A97;" d="M111.92,71.49c0-2.83-1.7-5.4-4.46-7.34v-22.4c0,0,0,0,0-0.01c0-0.03-0.01-0.05-0.01-0.08
		c-0.01-0.07-0.02-0.15-0.04-0.21c0-0.01,0-0.02,0-0.02c-0.01-0.03-0.03-0.05-0.04-0.07c-0.03-0.06-0.05-0.12-0.09-0.17
		c-0.02-0.03-0.05-0.06-0.07-0.09c-0.04-0.04-0.08-0.09-0.12-0.12c-0.03-0.03-0.07-0.05-0.1-0.07c-0.03-0.02-0.05-0.04-0.08-0.05
		c-0.02-0.01-0.05-0.01-0.08-0.02c-0.04-0.02-0.08-0.03-0.12-0.04c-0.06-0.02-0.12-0.02-0.18-0.03c-0.02,0-0.05-0.01-0.07-0.01
		H94.73c-0.22,0-0.44,0.07-0.61,0.21l-22.06,17.1v-6.39c0,0,0,0,0,0c0,0,0,0,0,0c0-6.02-7.62-10.91-16.99-10.91
		s-16.99,4.89-16.99,10.91c0,0,0,0.01,0,0.01V78.5c0,2.78,1.59,5.38,4.47,7.39v22.36c0,0.55,0.45,1,1,1h11.71
		c0.12,0,0.24-0.03,0.36-0.07c0.04-0.02,0.08-0.04,0.12-0.06c0.05-0.03,0.1-0.04,0.14-0.07l22.07-17.1v6.4
		c0,6.02,7.62,10.91,16.98,10.91c9.37,0,16.99-4.89,16.99-10.91V71.49C111.92,71.5,111.92,71.5,111.92,71.49
		C111.92,71.5,111.92,71.5,111.92,71.49z M109.92,71.49c0,4.91-6.72,8.91-14.99,8.91c-0.32,0-0.64-0.02-0.95-0.03
		c-0.25-0.01-0.51-0.02-0.76-0.03c-0.33-0.02-0.66-0.05-0.98-0.09c-0.47-0.05-0.93-0.11-1.39-0.19c-0.11-0.02-0.21-0.03-0.32-0.05
		c-0.13-0.02-0.26-0.06-0.39-0.08c-0.27-0.06-0.55-0.11-0.81-0.18c-0.25-0.06-0.49-0.13-0.73-0.19c-0.13-0.04-0.26-0.07-0.39-0.11
		c-0.29-0.09-0.58-0.18-0.87-0.28c-0.04-0.01-0.08-0.03-0.12-0.04c-3.33-1.21-5.78-3.15-6.77-5.38c-0.03-0.06-0.06-0.13-0.08-0.19
		c-0.06-0.16-0.12-0.32-0.17-0.47c-0.04-0.14-0.08-0.28-0.11-0.42c-0.03-0.11-0.05-0.23-0.07-0.34c-0.04-0.27-0.07-0.54-0.07-0.81
		c0-4.51,5.98-8.37,13.39-8.86c0.53-0.03,1.06-0.05,1.6-0.05c0.59,0,1.16,0.03,1.73,0.06c3.51,0.25,6.81,1.25,9.25,2.83
		c0.05,0.03,0.1,0.05,0.15,0.07C108.45,67.13,109.92,69.21,109.92,71.49z M95.07,42.75h8.46l-20.6,15.96L54.92,80.42h-8.44
		L71.67,60.9c0.01-0.01,0.01-0.02,0.02-0.02L95.07,42.75z M61.93,61.67c-0.01,0-0.02,0-0.03,0.01
		C61.91,61.67,61.92,61.67,61.93,61.67L61.93,61.67z M55.07,42.75c8.26,0,14.98,4,14.99,8.91c0,0,0,0,0,0
		c0,0.22-0.03,0.43-0.06,0.65c-0.01,0.11-0.02,0.22-0.04,0.33c-0.02,0.1-0.05,0.2-0.08,0.3c-0.03,0.12-0.06,0.24-0.1,0.37
		c0,0.02-0.01,0.03-0.02,0.05c-0.01,0.03-0.02,0.06-0.03,0.09c-0.01,0.05-0.03,0.1-0.05,0.15c-0.07,0.18-0.15,0.36-0.23,0.54
		l-0.13,0.24c-0.04,0.08-0.07,0.14-0.11,0.19c-0.05,0.08-0.09,0.16-0.14,0.23c-0.06,0.09-0.13,0.19-0.23,0.33
		c-0.09,0.13-0.18,0.25-0.28,0.37c0,0,0,0,0,0c-0.01,0.01-0.02,0.03-0.04,0.04h0c-0.09,0.11-0.18,0.21-0.27,0.32
		c-0.01,0.01-0.07,0.09-0.09,0.1l-0.08,0.08c-0.15,0.15-0.29,0.29-0.42,0.41c-0.28,0.25-0.56,0.48-0.87,0.72
		c-0.14,0.1-0.29,0.21-0.46,0.33c-0.52,0.35-1.03,0.65-1.55,0.92c-0.28,0.14-0.57,0.28-0.88,0.41c-0.14,0.06-0.29,0.13-0.43,0.18
		c-0.03,0.01-0.06,0.03-0.09,0.04c-0.07,0.03-0.14,0.06-0.25,0.1c-0.06,0.02-0.12,0.05-0.19,0.07c-0.18,0.07-0.35,0.13-0.53,0.19
		c-0.03,0.01-0.06,0.02-0.09,0.03c-0.06,0.02-0.11,0.04-0.17,0.06c-1.64,0.53-3.47,0.88-5.41,1.01c-0.25,0.02-0.5,0.02-0.76,0.03
		c-0.31,0.01-0.62,0.03-0.93,0.03c-1.54,0-3.03-0.14-4.43-0.4c-0.01,0-0.03,0-0.04-0.01c-0.41-0.08-0.8-0.17-1.19-0.26
		c-0.13-0.03-0.25-0.06-0.38-0.1c-0.33-0.09-0.66-0.18-0.97-0.28c-0.08-0.03-0.16-0.05-0.25-0.08c-0.15-0.05-0.29-0.11-0.44-0.16
		c-0.03-0.01-0.06-0.03-0.1-0.04c-0.01-0.01-0.03-0.01-0.05-0.02c-0.07-0.02-0.15-0.05-0.22-0.08c-0.02-0.01-0.05-0.02-0.08-0.03
		c0,0-0.01,0-0.01,0c-0.08-0.03-0.17-0.06-0.22-0.09l-0.17-0.08c-0.15-0.06-0.28-0.12-0.42-0.17c-0.08-0.04-0.17-0.07-0.26-0.11
		c-0.39-0.19-0.78-0.39-1.12-0.58l-0.44-0.26c-0.39-0.24-0.74-0.49-1.07-0.74c-0.19-0.15-0.38-0.29-0.59-0.49
		c-0.19-0.16-0.37-0.32-0.56-0.54c-0.13-0.13-0.26-0.26-0.36-0.4c-0.03-0.04-0.07-0.08-0.11-0.12c-0.1-0.12-0.18-0.23-0.28-0.37
		l-0.17-0.23c-0.05-0.08-0.09-0.14-0.14-0.22c-0.03-0.06-0.07-0.11-0.1-0.17c-0.12-0.22-0.23-0.44-0.33-0.67
		c-0.04-0.09-0.08-0.18-0.12-0.28c-0.03-0.07-0.06-0.15-0.08-0.21l-0.01-0.03c-0.07-0.21-0.12-0.43-0.17-0.65
		c-0.01-0.03-0.01-0.05-0.02-0.1l-0.02-0.1c-0.05-0.28-0.07-0.57-0.07-0.86v-0.01c0,0,0,0,0,0c0,0,0,0,0,0
		C40.08,46.75,46.81,42.75,55.07,42.75z M40.09,78.5V56.85c0.01,0.01,0.02,0.02,0.02,0.03c0.02,0.02,0.04,0.04,0.07,0.07
		c0.14,0.18,0.31,0.36,0.45,0.5c0.22,0.24,0.46,0.46,0.67,0.64c0.22,0.21,0.45,0.39,0.73,0.61c0.36,0.28,0.77,0.56,1.23,0.85
		l0.47,0.29c0.43,0.24,0.89,0.48,1.38,0.72c0.21,0.09,0.43,0.18,0.58,0.24c0.05,0.02,0.09,0.04,0.15,0.07
		c0.14,0.07,0.3,0.13,0.45,0.18c0,0,0,0,0.01,0c0.11,0.04,0.22,0.08,0.33,0.12c0,0,0.01,0,0.01,0c0.18,0.08,0.37,0.15,0.5,0.18
		c0.38,0.13,0.77,0.25,1.17,0.36l0,0c0.02,0.01,0.04,0.01,0.07,0.02c0.26,0.08,0.52,0.14,0.76,0.2c0.17,0.04,0.35,0.09,0.52,0.12
		c0.14,0.04,0.3,0.07,0.48,0.1c0.03,0.01,0.06,0.01,0.09,0.01c0.13,0.03,0.25,0.05,0.36,0.07c0.23,0.04,0.46,0.08,0.71,0.12
		c0.03,0.01,0.07,0.01,0.1,0.01l0.53,0.07c0.32,0.04,0.65,0.07,0.97,0.09c0.23,0.02,0.48,0.04,0.71,0.05
		c0.44,0.03,0.9,0.04,1.36,0.04c0.04,0,0.08,0,0.12,0c0.26,0,0.52-0.01,0.79-0.02c0.06,0,0.11,0,0.17,0
		c0.57-0.02,1.15-0.06,1.77-0.13c0.07-0.01,0.14-0.01,0.23-0.02l0.64-0.08l0.01,0c0,0,0,0,0,0c0.32-0.04,0.64-0.09,0.94-0.15
		l0.74-0.14v0c0.04-0.01,0.07-0.01,0.11-0.02c0.21-0.04,0.41-0.08,0.58-0.13c0.26-0.06,0.51-0.12,0.81-0.21
		c0.04-0.01,0.09-0.02,0.13-0.03c0.02-0.01,0.04-0.01,0.06-0.02l0,0l0.35-0.11c0.23-0.06,0.44-0.13,0.6-0.2
		c0.3-0.1,0.6-0.21,0.85-0.31c0.13-0.05,0.26-0.1,0.38-0.15c0.16-0.06,0.32-0.13,0.47-0.2c0.33-0.14,0.66-0.3,0.99-0.46
		c0.6-0.3,1.17-0.65,1.82-1.08c0.17-0.12,0.33-0.23,0.49-0.35c0.35-0.27,0.67-0.53,1.01-0.84c0.16-0.15,0.32-0.31,0.48-0.47
		l0.08-0.08c0.06-0.06,0.13-0.14,0.15-0.17c0.1-0.11,0.2-0.23,0.32-0.37v2.77L42.94,80.63c-0.02,0.01-0.03,0.04-0.05,0.05
		c-0.03,0.03-0.06,0.06-0.09,0.09c-0.04,0.05-0.08,0.11-0.12,0.17c-0.01,0.02-0.03,0.04-0.04,0.06c-0.01,0.02-0.02,0.05-0.03,0.07
		c-0.04,0.1-0.06,0.2-0.06,0.31c0,0.01-0.01,0.02-0.01,0.03v0.01c0,0,0,0,0,0v1.93C40.95,81.92,40.09,80.23,40.09,78.5z
		 M44.56,85.37v-2.95h9.71v24.83h-9.71V85.37z M56.27,106.21v-24.3l19.17-14.86l30.02-23.26v19.12c-2.06-1.05-4.46-1.75-7.02-2.1
		c-0.05-0.01-0.1-0.01-0.15-0.02c-0.49-0.06-0.98-0.11-1.48-0.15c-0.06,0-0.12-0.01-0.18-0.01c-0.56-0.03-1.12-0.06-1.69-0.06
		c-5.7,0-10.73,1.82-13.82,4.59c-1.98,1.79-3.16,3.96-3.16,6.32c0,0,0,0,0,0s0,0,0,0v17.91L56.27,106.21z M109.92,76.64v21.7
		c0,4.91-6.72,8.91-14.99,8.91c-8.26,0-14.98-4-14.98-8.91V89.9V76.7c2.1,2.53,5.73,4.47,10.29,5.3c0.25,0.05,0.51,0.07,0.76,0.11
		c0.28,0.04,0.57,0.08,0.86,0.12c0.4,0.05,0.8,0.09,1.21,0.12c0.25,0.02,0.5,0.02,0.75,0.03c0.38,0.02,0.74,0.05,1.12,0.05
		c5.85,0,11.01-1.91,14.07-4.82c0.01-0.01,0.02-0.02,0.03-0.03C109.34,77.27,109.65,76.96,109.92,76.64z"/>
</g>
</svg>
