<?xml version="1.0" encoding="utf-8"?>
<!-- Generator: Adobe Illustrator 27.1.1, SVG Export Plug-In . SVG Version: 6.00 Build 0)  -->
<svg version="1.1" id="Layer_1" xmlns="http://www.w3.org/2000/svg" xmlns:xlink="http://www.w3.org/1999/xlink" x="0px" y="0px"
	 viewBox="0 0 80 80" style="enable-background:new 0 0 80 80;" xml:space="preserve">
<g>
	<path style="fill:#778A97;" d="M11.91,28.69l-1.67-0.71l0.24-0.57l2.04-0.17l0.58-1.35l-2.14,0.22c-0.26,0.03-0.38,0.06-0.38,0.06
		l-0.01-0.01c-0.04-0.6-0.51-1.09-1.03-1.32c-0.72-0.31-1.38-0.17-1.83,0.3c-0.17,0.18-0.31,0.41-0.53,0.91l-0.73,1.72l4.95,2.11
		L11.91,28.69z M9.43,27.01L9.2,27.54L8,27.02l0.17-0.41c0.09-0.2,0.17-0.34,0.26-0.43c0.19-0.19,0.4-0.17,0.65-0.07
		C9.48,26.29,9.59,26.62,9.43,27.01z"/>
	<path style="fill:#778A97;" d="M69.25,32.18l1.76-0.43l0.15,0.6l-1.53,1.36l0.35,1.43l1.58-1.47c0.19-0.18,0.27-0.27,0.27-0.27
		l0.01,0c0.39,0.45,1.06,0.57,1.62,0.43c0.76-0.19,1.2-0.69,1.28-1.34c0.03-0.25,0.01-0.51-0.13-1.05l-0.45-1.82l-5.23,1.28
		L69.25,32.18z M73.38,31.16l0.11,0.43c0.05,0.21,0.07,0.37,0.05,0.5c-0.04,0.26-0.22,0.38-0.48,0.44c-0.42,0.1-0.71-0.1-0.81-0.51
		l-0.14-0.56L73.38,31.16z"/>
	<path style="fill:#778A97;" d="M48.99,9.34c0.1-0.46,0-1.05-0.56-1.37l0-0.01c0.45-0.14,0.76-0.54,0.86-0.98
		c0.2-0.9-0.43-1.54-1.48-1.77l-1.93-0.43l-1.16,5.26l1.93,0.43C47.69,10.69,48.74,10.49,48.99,9.34z M46.91,6.17l0.64,0.14
		c0.35,0.08,0.44,0.31,0.39,0.56c-0.06,0.25-0.25,0.45-0.57,0.38L46.71,7.1L46.91,6.17z M46.48,8.13l0.78,0.17
		c0.37,0.08,0.5,0.36,0.43,0.66c-0.06,0.29-0.31,0.51-0.68,0.43l-0.77-0.17L46.48,8.13z"/>
	<path style="fill:#778A97;" d="M51.56,12.01l0.8-2.06l2.81-2.32l-1.4-0.54l-1.03,0.99c-0.29,0.28-0.58,0.61-0.58,0.61l-0.01-0.01
		c0,0,0.01-0.43-0.02-0.84l-0.1-1.43l-1.4-0.54l0.51,3.6l-0.8,2.06L51.56,12.01z"/>
	
		<rect x="58.7" y="14.27" transform="matrix(0.6495 -0.7604 0.7604 0.6495 10.1666 51.9153)" style="fill:#778A97;" width="5.38" height="1.32"/>
	<path style="fill:#778A97;" d="M58.77,11.6l-3.36,1.3l-0.46,0.69l3.5,2.32l0.62-0.94l-1.77-1.17c-0.2-0.13-0.36-0.21-0.36-0.21
		l0.01-0.01c0,0,0.24-0.03,0.62-0.18l3.37-1.31l0.45-0.68l-3.39-2.25l-0.62,0.94l1.65,1.09c0.2,0.13,0.36,0.21,0.36,0.21l-0.01,0.01
		C59.39,11.42,59.15,11.45,58.77,11.6z"/>
	<path style="fill:#778A97;" d="M61.94,19.13l1.87-1.67c0.25-0.23,0.64-0.66,0.64-0.66l0.01,0.01c0,0-0.26,0.56-0.38,0.95
		l-0.87,2.79l0.88,0.99l4.01-3.59l-0.88-0.98l-1.88,1.67c-0.25,0.23-0.64,0.66-0.64,0.66l-0.01-0.01c0,0,0.26-0.56,0.38-0.95
		l0.88-2.79l-0.89-0.99l-4.01,3.59L61.94,19.13z"/>
	<polygon style="fill:#778A97;" points="68.66,30.07 69.7,29.64 68.87,27.64 69.81,27.25 70.44,28.77 71.48,28.33 70.85,26.82 
		71.75,26.44 72.55,28.34 73.59,27.9 72.29,24.79 67.32,26.86 	"/>
	<polygon style="fill:#778A97;" points="65.44,23.58 67.3,22.44 67.58,22.9 66.32,25.01 67.1,26.27 68.67,23.5 68.68,23.49 
		71.64,23.37 70.89,22.17 68.54,22.31 68.25,21.85 70.02,20.76 69.33,19.64 64.75,22.46 	"/>
	<path style="fill:#778A97;" d="M10.91,24.17c1.32,0.87,2.98,0.6,3.9-0.79c0.92-1.39,0.52-3.03-0.79-3.9
		c-1.29-0.85-2.92-0.56-3.85,0.83C9.25,21.69,9.62,23.31,10.91,24.17z M11.18,20.97c0.47-0.71,1.35-0.85,2.09-0.36
		c0.77,0.51,1.01,1.39,0.54,2.1c-0.47,0.71-1.38,0.83-2.15,0.32C10.93,22.54,10.71,21.68,11.18,20.97z"/>
	<path style="fill:#778A97;" d="M25.83,13.35c0.86-0.48,1.28-1.18,1.46-1.84l-1.06-0.52c-0.15,0.5-0.47,1.01-0.93,1.27
		c-0.91,0.5-1.73,0.01-2.11-0.68c-0.37-0.68-0.35-1.56,0.59-2.08c0.42-0.23,1-0.27,1.45-0.17l0.05-1.16
		c-0.71-0.2-1.5-0.04-2.13,0.31c-1.46,0.8-1.89,2.42-1.14,3.79C22.78,13.66,24.31,14.18,25.83,13.35z"/>
	<polygon style="fill:#778A97;" points="22.93,14.93 22.24,14.04 20.53,15.37 19.91,14.56 21.2,13.56 20.51,12.66 19.21,13.67 
		18.61,12.9 20.23,11.64 19.54,10.75 16.88,12.82 20.18,17.07 	"/>
	<polygon style="fill:#778A97;" points="14.52,16.7 17.6,19.63 18.51,18.67 15.43,15.74 16.55,14.56 15.74,13.78 12.58,17.1 
		13.4,17.88 	"/>
	<path style="fill:#778A97;" d="M39.08,9.75c1.69-0.03,2.76-1.06,2.72-2.76c-0.03-1.69-1.14-2.66-2.83-2.62L37.06,4.4l0.11,5.38
		L39.08,9.75z M38.94,5.49c0.89-0.02,1.48,0.5,1.5,1.52c0.02,1.03-0.53,1.58-1.44,1.6l-0.54,0.01L38.4,5.5L38.94,5.49z"/>
	<polygon style="fill:#778A97;" points="36.31,9.9 36.1,8.79 33.98,9.18 33.79,8.18 35.4,7.88 35.2,6.77 33.59,7.07 33.41,6.11 
		35.43,5.73 35.22,4.62 31.91,5.24 32.89,10.53 	"/>
	<polygon style="fill:#778A97;" points="28.03,7.61 29.43,11.62 30.67,11.19 29.27,7.17 30.82,6.64 30.44,5.57 26.11,7.08 
		26.49,8.14 	"/>
	<polygon style="fill:#778A97;" points="17.8,65.07 18.6,64.24 17.39,63.07 18.08,62.35 19.59,63.81 20.39,62.98 17.91,60.59 
		14.1,64.55 16.66,67.01 17.46,66.18 15.87,64.65 16.59,63.9 	"/>
	<path style="fill:#778A97;" d="M46.64,69.43l-0.48,5.78l1.34-0.34l0.04-1.2l1.66-0.42l0.61,1.04l1.34-0.34l-3.14-4.88L46.64,69.43z
		 M48.64,72.29l-1.05,0.26l0.05-1.11c0.01-0.36-0.01-0.97-0.01-0.97l0.01,0c0,0,0.26,0.55,0.45,0.86L48.64,72.29z"/>
	<path style="fill:#778A97;" d="M54.89,69.93l-0.01-0.01c0.38-0.48,0.37-1.17,0.13-1.7c-0.33-0.73-0.92-1.08-1.58-1.04
		c-0.25,0.01-0.52,0.09-1.03,0.32l-1.74,0.79l2.27,5l1.22-0.56l-0.76-1.69l0.57-0.26l1.65,1.28l1.36-0.62l-1.77-1.31
		C55,69.98,54.89,69.93,54.89,69.93z M53.44,69.75l-0.53,0.24l-0.55-1.22l0.41-0.19c0.2-0.09,0.36-0.14,0.49-0.14
		c0.27-0.01,0.42,0.15,0.53,0.4C53.98,69.25,53.84,69.58,53.44,69.75z"/>
	<path style="fill:#778A97;" d="M27.75,67.56L26,66.78l-2.23,5.02L25,72.35l0.75-1.69l0.58,0.26L26.47,73l1.37,0.61l-0.2-2.19
		c-0.03-0.26-0.06-0.39-0.06-0.39l0.01-0.01c0.61-0.03,1.12-0.5,1.36-1.04c0.32-0.73,0.19-1.4-0.28-1.87
		C28.49,67.93,28.26,67.79,27.75,67.56z M27.66,69.51c-0.18,0.4-0.52,0.51-0.91,0.33l-0.53-0.24l0.54-1.22l0.41,0.18
		c0.2,0.09,0.34,0.18,0.43,0.28C27.8,69.04,27.77,69.25,27.66,69.51z"/>
	<path style="fill:#778A97;" d="M42.72,73.51c-0.06,0.34-0.05,0.58-0.05,0.58l-0.02,0c0,0-0.02-0.24-0.11-0.57l-0.94-3.4l-1.08,0.04
		l-0.73,3.46c-0.07,0.34-0.07,0.58-0.07,0.58l-0.02,0c0,0-0.01-0.24-0.09-0.57l-0.81-3.41l-1.41,0.05l1.52,5.44l1.51-0.05l0.6-2.8
		c0.07-0.36,0.09-0.65,0.09-0.65l0.02,0c0,0,0.03,0.29,0.13,0.64l0.79,2.75l1.5-0.05l1.2-5.54l-1.39,0.05L42.72,73.51z"/>
	<path style="fill:#778A97;" d="M32.4,70.37c0.42,0.11,0.83,0.43,1.06,0.77l0.82-0.93c-0.36-0.53-0.92-0.87-1.52-1.02
		c-1.12-0.28-2.09,0.16-2.34,1.14C30,72,32.38,72.47,32.2,73.23c-0.05,0.21-0.28,0.33-0.65,0.23c-0.48-0.12-0.91-0.54-1.14-0.87
		l-0.94,0.82c0.38,0.63,1.04,1.07,1.74,1.25c1.23,0.31,2.09-0.29,2.31-1.18c0.42-1.68-1.97-2.1-1.78-2.86
		C31.79,70.39,32.01,70.27,32.4,70.37z"/>
	<path style="fill:#778A97;" d="M59.97,66.79l-0.01-0.01c0.29-0.54,0.16-1.22-0.18-1.7c-0.45-0.66-1.1-0.9-1.74-0.74
		c-0.25,0.06-0.49,0.18-0.95,0.5l-1.57,1.09l3.12,4.52l1.11-0.76l-1.05-1.52l0.52-0.36l1.86,0.97l1.23-0.85l-1.97-0.97
		C60.09,66.83,59.97,66.79,59.97,66.79z M58.52,66.88l-0.48,0.33l-0.76-1.1l0.37-0.26c0.18-0.13,0.33-0.2,0.46-0.23
		c0.27-0.06,0.44,0.07,0.6,0.3C58.96,66.29,58.88,66.64,58.52,66.88z"/>
	<path style="fill:#778A97;" d="M69.9,44.65l-0.36,1.49l1.14,0.91c0.32,0.26,0.69,0.51,0.69,0.51l0,0.02c0,0-0.44,0.05-0.85,0.14
		L69.1,48l-0.36,1.49l3.57-1.01L74.5,49l0.31-1.31l-2.19-0.52L69.9,44.65z"/>
	<path style="fill:#778A97;" d="M68.28,11.72C60.73,4.16,50.68,0,40,0C29.31,0,19.27,4.16,11.71,11.72C4.16,19.27,0,29.32,0,40
		c0,10.68,4.16,20.73,11.72,28.28C19.27,75.84,29.31,80,40,80c10.68,0,20.73-4.16,28.28-11.72S80,50.68,80,40
		C80,29.32,75.84,19.27,68.28,11.72z M13.25,13.26C20.4,6.11,29.9,2.18,40,2.18c10.1,0,19.6,3.93,26.74,11.08
		c6.87,6.87,10.77,15.91,11.06,25.58h-2.52c-0.42-0.81-1.27-1.37-2.25-1.37s-1.83,0.56-2.25,1.37h-2.72
		C67.45,23.88,55.1,11.91,40,11.91c-15.1,0-27.45,11.97-28.06,26.92H9.37c-0.42-0.81-1.27-1.37-2.25-1.37
		c-0.98,0-1.83,0.56-2.25,1.37H2.2C2.49,29.17,6.39,20.12,13.25,13.26z M65.91,40c0,14.29-11.62,25.91-25.91,25.91
		c-14.29,0-25.91-11.62-25.91-25.91c0-14.29,11.62-25.91,25.91-25.91C54.29,14.09,65.91,25.71,65.91,40z M66.74,66.74
		C59.6,73.89,50.1,77.82,40,77.82c-10.1,0-19.6-3.93-26.74-11.08c-6.9-6.9-10.81-16.01-11.06-25.73H4.8
		c0.39,0.9,1.29,1.52,2.32,1.52c1.04,0,1.93-0.63,2.32-1.52h2.49C12.46,56.03,24.85,68.09,40,68.09c15.15,0,27.53-12.06,28.07-27.08
		h2.64c0.39,0.9,1.29,1.52,2.32,1.52s1.93-0.63,2.32-1.52h2.45C77.55,50.74,73.65,59.84,66.74,66.74z"/>
	<path style="fill:#778A97;" d="M60.78,61.86l2.55,5.21l0.98-0.98l-0.58-1.05l1.21-1.21L66,64.41l0.98-0.98l-5.2-2.57L60.78,61.86z
		 M62.17,62.24c0,0,0.51,0.34,0.82,0.51l0.97,0.54l-0.77,0.76l-0.53-0.98c-0.17-0.32-0.51-0.83-0.51-0.83L62.17,62.24z"/>
	<polygon style="fill:#778A97;" points="69.67,50.29 68.61,49.84 66.75,54.13 67.81,54.59 68.47,53.06 72.45,54.78 72.99,53.55 
		69,51.82 	"/>
	<path style="fill:#778A97;" d="M65.51,56.12l2.12,1.44c0.29,0.19,0.81,0.48,0.81,0.48l-0.01,0.01c0,0-0.61-0.12-1.03-0.15
		l-2.98-0.18l-0.76,1.12l4.54,3.09l0.76-1.11l-2.12-1.44c-0.29-0.19-0.81-0.48-0.81-0.48l0.01-0.01c0,0,0.61,0.12,1.03,0.15
		l2.98,0.17l0.76-1.12l-4.54-3.09L65.51,56.12z"/>
	<path style="fill:#778A97;" d="M39.51,59.76c-6.87-2.51-11.26-6.62-13.42-12.57c-1.88-5.2-1.77-10.98-1.68-16.07
		c0.02-0.81,0.03-1.56,0.04-2.31l-1.57-1.57c-0.1,0.2-0.16,0.43-0.16,0.67c0,1.02-0.02,2.07-0.04,3.18
		c-0.2,10.35-0.47,24.53,16.8,30.52c0.01,0,0.02,0.01,0.04,0.01V59.76z"/>
	<path style="fill:#778A97;" d="M54.6,31.13l0-0.03c-0.01-0.68-0.03-1.37-0.03-2.05c-5.94-0.2-10.61-1.97-14.62-5.54
		c-4.02,3.57-8.68,5.34-14.62,5.54c-0.01,0.67-0.02,1.36-0.03,2.07C25.1,41.13,24.86,53.56,39.94,59
		C55.03,53.56,54.79,41.13,54.6,31.13z M30.44,40.08c0,0,0.01,0.01,0.01,0.01l0.05-0.35c0.1,0.43,0.06,0.86,0.08,1.34
		C30.46,40.86,30.49,40.37,30.44,40.08z M30.76,48.33l0-0.26c0.01,0.02,0.02,0,0.02-0.02c0.01-0.04,0.01-0.08,0.02-0.11
		c0.02-0.02,0.03-0.02,0.01,0c0,0.02,0.01,0.07,0.01,0.12C30.79,48.08,30.79,48.29,30.76,48.33z M33.56,48.55
		c-0.11,0-0.2,0.01-0.28,0.01c-0.06,0.01-0.12,0.02-0.17,0.02c-0.11,0.01-0.23,0.02-0.46,0c-0.09,0.01-0.04,0.04-0.12,0.05
		c-0.25,0.03-0.44-0.05-0.6-0.1c-0.15,0-0.35-0.02-0.38,0.02c-0.02,0-0.04,0.01-0.05,0.02c-0.01,0-0.05,0.02-0.04,0.03
		c0,0-0.01,0-0.01,0c-0.02-0.01-0.03-0.03-0.05-0.03c-0.01-0.03-0.08-0.04-0.18-0.06c-0.05-0.01-0.1-0.01-0.16-0.02
		c-0.03,0-0.06-0.01-0.09-0.01h-0.05v-0.16c-0.01,0-0.03,0.03-0.04,0.06c-0.01,0.02-0.02,0.04-0.03,0.01c0-0.01-0.01-0.03-0.01-0.07
		c0-0.02,0-0.04,0-0.07c0-0.02,0-0.04,0-0.07c0.01-0.02,0.02-0.06,0.02-0.09c0-0.02,0-0.04,0-0.06c0-0.03,0-0.06,0-0.08
		c0.03-0.05,0.07-0.1,0.1-0.15c0.03-0.04,0.06-0.08,0.09-0.11l0.01,0.03c0.06-0.08,0.09-0.13,0.1-0.17c0,0,0.01-0.01,0.01-0.01
		c0,0,0,0,0-0.01c0.03-0.01,0.06-0.02,0.08-0.04c0,0,0.01,0.01,0.01,0.01l0.38-0.53c0-0.01-0.01-0.02-0.01-0.02
		c0.01-0.03,0.02-0.07,0.03-0.1c0-0.01,0.01-0.01,0.01-0.02c0-0.01,0.01-0.02,0.01-0.02c0,0,0,0,0,0c0-0.01,0.01-0.02,0.01-0.03
		c0.01-0.02,0.01-0.03,0-0.05c0.17-0.21,0.21-0.34,0.28-0.5c0.01-0.02,0.03-0.04,0.04-0.05c0.01-0.01,0.02-0.02,0.02-0.02l0.01-0.01
		c0.02-0.02,0.04-0.03,0.05-0.05l0.02-0.02c0.01-0.01,0.02-0.02,0.02-0.02c0.02-0.02,0.03-0.03,0.03-0.04
		c0.01,0,0.02-0.01,0.02-0.02c0.01-0.01,0-0.01,0.01-0.01c0-0.01,0-0.01,0-0.02c0-0.02-0.06-0.03-0.15-0.03
		c-0.05,0.01-0.01,0.02-0.01,0.03c-0.02,0-0.05-0.01-0.08-0.01c-0.04,0-0.09-0.01-0.13-0.01c-0.09-0.01-0.18-0.02-0.27-0.02
		c-0.09-0.01-0.19-0.01-0.28-0.02c-0.09-0.01-0.17-0.01-0.26-0.02h-0.03c0-0.13-0.03-0.54-0.03-0.54l0-0.13
		c0.02-0.04,0.03-0.08,0.04-0.12c0.03,0,0.05,0,0.08,0c0.06,0,0.14-0.01,0.18-0.01c0.09-0.01,0.18-0.01,0.27-0.02
		c0.17-0.01,0.31,0,0.36,0.06l-0.1-0.01c-0.09,0.02-0.25,0.02-0.23,0.06l0.16,0.02h0.69c0.14,0.03,0.27,0.04,0.39,0h0.01
		c0,0,0,0,0,0c0.02-0.01,0.04-0.01,0.05-0.02c0.03-0.01,0.05-0.04,0.06-0.07c0.02,0,0.04,0,0.06,0c0.14,0,0.24,0.01,0.3,0.02
		c0.08,0.01,0.1,0.02,0.11,0.04c0,0.01,0,0.02,0,0.03h0.11v0.24c0.01,0.08,0.01,0.17,0.01,0.26c-0.01,0.02-0.03,0.03-0.04,0.05
		L33.1,46.2c-0.03,0.09-0.08,0.14-0.14,0.2l-0.11,0.16c0.02-0.01,0.04-0.03,0.03,0l-0.12,0.13l-0.57,0.8
		c-0.14,0.2-0.25,0.3-0.25,0.3v0.01c0,0,0.11-0.01,0.25-0.01h0.34c0.03-0.01,0.05-0.01,0.07-0.02c0.07-0.01,0.35-0.03,0.29,0.01
		c0.19-0.03,0.38-0.03,0.64-0.04c0,0.1,0,0.2,0.01,0.29c0,0.04,0.01,0.08,0.01,0.12c0,0.04,0.01,0.08,0.02,0.13
		C33.56,48.39,33.56,48.47,33.56,48.55z M35.31,45.23c-0.02,0.06-0.03,0.13-0.03,0.19c0.01,0.03,0.02,0,0.03-0.01
		c-0.03,0.17-0.07,0.36-0.09,0.56v0.36c-0.01,0.03-0.01,0.05,0,0.08v0.01c0,0,0,0,0,0c0,0.01,0,0.01,0.01,0.02
		c0.01,0.02,0.02,0.03,0.03,0.05c0,0,0,0,0,0c0.01,0.01,0.01,0.02,0.01,0.04c0,0.04,0,0.07-0.03,0.1c-0.02,0.02-0.02,0.05-0.02,0.08
		l-0.01,0.02v0.49c0,0,0,0.01,0,0.01c-0.02,0.07-0.01,0.14,0.04,0.2c0,0,0.01,0.01,0.01,0.01c0,0.03,0.01,0.05,0.02,0.07
		c-0.02,0.07-0.04,0.08-0.07,0.08v0.19c0.02,0.06,0.01,0.11,0,0.17v0.3c0.03,0.04,0.02,0.08,0.01,0.11c0,0.01,0,0.01-0.01,0.02v0.08
		c-0.01,0.01-0.02,0.02-0.02,0.03c-0.02,0-0.04-0.01-0.06-0.01h-0.72V48.4c-0.03-0.03-0.02-0.05,0-0.07v-0.17
		c-0.01-0.02-0.01-0.03-0.02-0.03c-0.01-0.04-0.03-0.18,0.01-0.15c-0.05-0.18-0.02-0.39-0.07-0.57c0.02-0.28-0.08-0.27-0.04-0.54
		c-0.01-0.05-0.04-0.02-0.05-0.06c-0.03-0.13,0.05-0.23,0.1-0.31c0-0.08,0.01-0.18-0.02-0.2c0.01-0.04,0.02-0.08,0.03-0.13
		c0.02-0.05,0.04-0.12,0.05-0.18v-0.11c-0.03,0-0.07,0.07-0.08-0.02c0.03-0.08,0.04-0.16,0.06-0.25c0.02-0.08,0.02-0.15,0.02-0.22
		c0,0,0,0,0.01,0v-0.21h0.13c0,0,0-0.01,0-0.01c0.06,0,0.13-0.02,0.19-0.07c0.01,0,0.01-0.01,0.02-0.02c0.09,0,0.15-0.03,0.22-0.06
		c0.02,0,0.05,0.01,0.08,0.01c0.03,0,0.07,0.01,0.1,0.01c0.07,0.01,0.13,0.02,0.19,0.01c0,0.01,0,0.03,0.01,0.04
		C35.34,45.14,35.32,45.19,35.31,45.23z M35.7,38.14l-1.04,0.8c-0.01,0.03-0.03,0.06-0.04,0.09c0.01,0.11,0.02,0.21,0.01,0.33
		c0,0.09-0.01,0.19-0.03,0.28v0.82c0.1,0.02,0.2,0.07,0.23,0.94c-0.02,0.12-0.01,0.33-0.02,0.51c0,0.05,0,0.08-0.01,0.13
		c0,0.05-0.01,0.1-0.01,0.13c-0.01,0.07-0.03,0.1-0.06,0.08c-0.02,0.08,0,0.16,0.01,0.25c0.02,0.09,0.04,0.2,0.03,0.28
		c-0.05,0-0.11-0.01-0.17-0.03l-0.15-0.05c0,0-0.61-0.06-1.04-0.09h-0.47l-0.36,0.06c-0.02,0.07,0.27,0.05,0.48,0.09
		c0.04,0.01,0.07,0.01,0.11,0.02l0.18,0.02c0.08,0.15-0.53,0.18-1,0.15c-0.23-0.02-0.48-0.04-0.72-0.06c-0.03,0-0.06,0-0.1,0
		c-0.04,0-0.08,0-0.13,0c-0.03,0-0.06,0-0.1,0c-0.03-0.11-0.08-0.22-0.18-0.28c-0.05-0.03-0.11-0.06-0.17-0.08
		c0.01-0.05,0.01-0.11,0.02-0.19v-1.05c-0.01-0.22-0.03-0.44-0.04-0.66c-0.04-0.56-0.1-1.1-0.15-1.6c0.03-0.03,0.04-0.08,0.03-0.13
		l0-0.01c0.01-0.01,0.01-0.02,0.02-0.06c0.01-0.41-0.11-0.69-0.19-0.91c0.07-0.34-0.05-0.87-0.07-1.26c0.1-0.44,0.2-0.74,0.14-1.49
		l0.08,0.03L30.81,35c0.04-0.01,0.08-0.04,0.09-0.09c0-0.02,0.01-0.04,0-0.06c0,0,0.01-0.01,0.01-0.02c0.02,0,0.04,0,0.07-0.02
		c0-0.38-0.08-0.51-0.09-0.63c-0.02-0.12,0.01-0.3,0.06-0.44c0.01-0.04,0.03-0.1,0.04-0.17v-0.15c0-0.06-0.05-0.1-0.11-0.09
		c-0.01,0-0.02,0.01-0.03,0.01c-0.04-0.04-0.06-0.08-0.07-0.14c0-0.01,0-0.02,0-0.03c0.07-0.08,0.12-0.22,0.1-0.54l-0.05,0.04
		c-0.01-0.06-0.02-0.14-0.02-0.22c0-0.04,0-0.08,0-0.12c0-0.05,0-0.1,0.01-0.16c0.01-0.22,0.02-0.43,0.01-0.62
		c0.11-0.01,0.21-0.02,0.27-0.06c0.65,0.01,0.57,0.06,0.52,0.12c-0.04,0.03-0.09,0.07-0.09,0.1h0.46c0.32-0.05,0.73-0.1,0.9-0.18
		c0.08-0.01,0.11-0.09,0.09-0.16c0.01,0,0.01,0,0.02,0c0.07-0.01,0.14-0.03,0.19-0.04c0.02,0,0.04-0.01,0.05-0.02
		c0.39-0.1,0.69-0.18,0.5,0.09c-0.09,0.03-0.34,0.01-0.41,0.07c0.02,0.06,0.15,0.07,0.32,0.07c0.08,0,0.18,0,0.28,0
		c0.05,0,0.1,0,0.15,0c0.06,0,0.12,0,0.18,0c0.18-0.04,0.4-0.09,0.68-0.14c0.04,0.16,0.08,0.38,0.1,0.64
		c0.01,0.07,0.01,0.13,0.01,0.2c0,0.05,0,0.1,0.01,0.14c0,0.09,0,0.18-0.01,0.27c-0.03,0.2-0.1,0.08-0.13,0.28
		c0.06,0.59,0.03,0.88-0.02,1.17c-0.02,0.15-0.05,0.29-0.06,0.48c0,0.05-0.01,0.1-0.01,0.15c0,0.04,0,0.08-0.01,0.12
		c0,0.08,0,0.18,0.01,0.28l0,0.01c0.1,0.03,0.24,0.05,0.42,0.07c0.21,0.01,0.43,0.02,0.64,0.02c0.43,0.01,0.86,0.02,1.25,0.09
		c-0.12-0.1,0.52-0.05,0.68-0.03c0.03,0.01,0.08,0.03,0.15,0.04h0.65c0.01-0.01,0.02-0.02,0.03-0.04c0.01,0,0.02,0.01,0.03,0.01
		c0.12,0.01,0.15,0.06,0.24,0.13c0.02,0.02,0.1,0.05,0.12,0.07c0.04,0.06,0,0.06-0.04,0.08c-0.09,0.06-0.17,0.12-0.23,0.2
		c-0.01,0-0.01,0-0.02,0.01l-1.92,1.48l-0.29,0.28c-0.07,0.04-0.01-0.02,0.01-0.06l-0.35,0.27C36.02,37.94,35.91,38.08,35.7,38.14z
		 M38.44,48.64c0.02-0.01,0-0.01-0.02-0.02c-0.01-0.01-0.08-0.01-0.12-0.01c-0.04,0-0.06-0.01-0.05-0.01c0.01,0,0.02,0,0.05-0.01
		c0.03,0,0.06,0,0.11-0.01c0.03,0.03,0.3,0.03,0.29,0.07L38.44,48.64z M39.16,47.84c0,0.09,0.01,0.16,0,0.25
		c-0.01,0.02-0.02,0.06-0.03,0.11c-0.01,0.04-0.01,0.09-0.02,0.14c-0.01,0.05-0.01,0.1-0.02,0.14c-0.04,0-0.08-0.01-0.11-0.01h-0.24
		c0,0.04,0.21,0.08-0.16,0.09c-0.07-0.03-0.17-0.02-0.35-0.02c-0.03-0.05-0.07-0.11-0.1-0.16c0-0.01,0-0.01,0-0.01
		c-0.04-0.12-0.08-0.24-0.14-0.34c-0.01-0.05-0.03-0.1-0.07-0.14l-0.33-0.56c-0.01-0.04-0.03-0.07-0.05-0.1
		c-0.03-0.04-0.08-0.07-0.13-0.06l-0.04-0.06l-0.02,0.03c-0.04-0.07-0.07-0.13-0.1-0.19l0.01-0.04c0,0.01-0.01,0.03-0.01,0.04
		c-0.01-0.02-0.02-0.03-0.03-0.05c0,0.04,0,0.08,0.01,0.11c-0.03,0.11-0.08,0.26-0.07,0.48c0,0.03,0.01,0.04,0.01,0.03
		c0,0.03,0,0.05,0.01,0.08c-0.01,0.12-0.02,0.24-0.03,0.36c-0.01,0.08-0.01,0.17-0.02,0.26c-0.01,0.09-0.01,0.18-0.02,0.28
		c-0.1,0-0.21-0.01-0.31-0.01h-0.51v-0.16c0.02-0.02,0.03-0.05,0.03-0.08c-0.01-0.07,0-0.14,0-0.22c0-0.05-0.02-0.08-0.06-0.11
		c-0.01-0.02-0.01-0.04-0.02-0.06c-0.02-0.13,0.03-0.21,0.05-0.35c0.01-0.06,0-0.11,0-0.16l0.01-0.08V46.4
		c0.01-0.04,0.02-0.08,0.02-0.12c0-0.04-0.01-0.08-0.02-0.12c0.01-0.03,0.02-0.07,0.02-0.11c0.01-0.16-0.02-0.32-0.11-0.45
		c0-0.09,0.01-0.16,0.02-0.21c0.01-0.09,0.02-0.12,0.04-0.13c0.01,0,0.02,0,0.03,0v-0.08h0.36c0.13-0.01,0.26-0.01,0.37,0h0.09
		l0.31,0.52c0.08,0.08,0.11,0.16,0.15,0.25l0.12,0.2c0-0.02-0.02-0.06,0-0.03l0.09,0.19l0.24,0.4c0.13,0.22,0.28,0.56,0.28,0.56
		h0.01c0,0-0.04-0.35-0.04-0.56v-0.72c-0.01-0.04-0.01-0.06-0.02-0.08c-0.01-0.08-0.03-0.42,0.01-0.35
		c-0.01-0.06-0.01-0.12-0.02-0.19c0-0.07-0.01-0.15-0.01-0.23c0.15,0,0.29-0.01,0.44-0.01c0.07,0,0.14,0,0.21-0.01
		c0.08,0,0.16-0.01,0.25-0.01c0,0.05,0.01,0.09,0.01,0.14c0,0.05,0,0.1,0,0.15c0,0.04,0,0.07,0,0.1c0,0.06,0,0.12,0.01,0.17
		c0.01,0.1,0.02,0.18,0.02,0.25c0.02,0.15,0.03,0.3,0.01,0.61c0.01,0.11,0.04,0.04,0.05,0.15c0.03,0.3-0.05,0.53-0.1,0.72
		C39.16,47.57,39.14,47.76,39.16,47.84z M41.09,38.35c0.08-0.09,0.25-0.26,0.11-0.2l0.7-0.55c0.04,0.03-0.11,0.18-0.26,0.32
		c-0.15,0.14-0.29,0.28-0.26,0.31C41,38.47,41,38.45,41.09,38.35z M42.75,48.55c-0.13,0-0.24,0-0.29,0c-0.07,0-0.12,0.01-0.17,0.01
		c-0.05,0.01-0.1,0.01-0.14,0.02c-0.06,0.01-0.13,0.01-0.2,0.02c-0.02-0.03-0.04-0.07-0.06-0.1c-0.02-0.03-0.04-0.07-0.06-0.11
		c-0.03-0.06-0.06-0.13-0.1-0.22c-0.05-0.08-0.05-0.02-0.1-0.09c-0.15-0.23-0.17-0.44-0.21-0.61c-0.09-0.12-0.17-0.12-0.18-0.12
		c-0.01,0-0.01,0-0.01,0c0,0,0,0,0,0c-0.04,0-0.14,0.04-0.14,0.04c-0.01,0.02-0.09,0.23-0.09,0.34c0.04,0,0.08-0.19,0.09,0.14
		c-0.03,0.05-0.02,0.15-0.02,0.25c0,0.05,0.01,0.1,0.01,0.16c0,0.02,0,0.05,0,0.07c-0.02,0.01-0.04,0.03-0.05,0.05
		c0,0-0.02,0.03-0.03,0.05c-0.01-0.01-0.05-0.02-0.07-0.02c-0.03,0-0.06,0.01-0.1,0.02c-0.04,0.01-0.07,0.03-0.1,0.04h-0.42
		c-0.02-0.02-0.04-0.04-0.07-0.06c-0.02-0.01-0.03-0.02-0.04-0.03v-0.02c0,0,0,0,0,0c0-0.02,0-0.03,0-0.05
		c-0.01-0.05-0.03-0.07-0.05-0.12c-0.01-0.03-0.01-0.02-0.01-0.06c0-0.03,0.01-0.06,0-0.09c0-0.03-0.01-0.06-0.03-0.08
		c0-0.2-0.03-0.31-0.06-0.46c0.01-0.18,0.05-0.42,0.03-0.58c-0.01,0.03-0.02,0.06-0.03,0.09l0.02-0.11c0,0.01,0,0.01,0,0.02
		c0.03-0.1,0.07-0.23,0.07-0.42c-0.01-0.06-0.02-0.01-0.03,0.01c0.02-0.2,0.04-0.42,0.05-0.64c0.01-0.11,0.01-0.23,0.02-0.34
		c0-0.06,0.01-0.11,0.01-0.17v-0.12c0.07,0,0.14-0.03,0.21-0.06h0.17c0.1,0.02,0.21,0.03,0.31,0.01c0.06-0.01,0.1-0.04,0.15-0.08
		c0.02-0.02,0.04-0.03,0.05-0.04c0.01,0,0.02,0,0.03,0c0.01,0.11,0.01,0.23,0.02,0.34c0.01,0.08,0.01,0.15,0.01,0.21
		c0,0.13-0.01,0.23-0.06,0.28l0.01-0.1c-0.02-0.09-0.02-0.26-0.06-0.25l-0.02,0.16v0.54c0,0.02,0.02,0.09,0.03,0.11
		c0.01,0.01,0.01,0.01,0.02,0.02c0,0,0.01,0.01,0.01,0.01c0.07-0.02,0.09,0.03,0.15,0.01c-0.01-0.01,0.01-0.02,0.02-0.02
		c0.01,0,0.03-0.01,0.05-0.01c0.01-0.02,0.03-0.05,0.04-0.08c0.02-0.04,0.04-0.08,0.05-0.11c0.2-0.35,0.25-0.35,0.28-0.34l0.18-0.34
		c0.04-0.1,0.1-0.21,0.16-0.29l0.02-0.04h0.57c0.06-0.02,0.12-0.02,0.17-0.02c0.04,0,0.07,0.01,0.09,0.02h0.02
		c-0.08,0.12-0.13,0.24-0.19,0.37l-0.17,0.3c-0.07,0.1-0.15,0.19-0.22,0.29c-0.07,0.1-0.09,0.21-0.12,0.32l-0.16,0.29v0.01l0.3,0.55
		c0.02,0.02,0.04,0.04,0.05,0.05c0.04,0.06,0.2,0.31,0.14,0.28c0.09,0.12,0.17,0.25,0.25,0.39l0.13,0.23
		c0.05,0.08,0.1,0.17,0.15,0.26C42.92,48.53,42.83,48.54,42.75,48.55z M42.9,39.12C42.9,39.11,42.9,39.11,42.9,39.12
		C42.86,39.02,42.76,39,42.66,39c0-0.01,0-0.01-0.01-0.02h-1.5l0,0c-0.02,0.01-0.04,0.02-0.07,0.03c-0.03-0.03-0.06-0.08-0.08-0.12
		c0.05-0.1,0.07-0.19,0.01-0.31c0.08-0.05,0.15-0.11,0.23-0.16c0.25-0.18,0.45-0.33,0.51-0.46c0.12-0.09,0.23-0.16,0.29-0.2
		c0.05-0.03,0.09-0.05,0.12-0.06c0.05-0.01,0.05,0.02,0.05,0.06c-0.01,0.05-0.02,0.11,0,0.14l0.36-0.28
		c0.23-0.24,0.55-0.55,0.62-0.71c0.02-0.03,0.05-0.06,0.07-0.1c0.03-0.05,0.05-0.09,0.07-0.14c0,0,0.01,0,0.01,0
		c0.06,0,0.11-0.03,0.16-0.04c0.11,0.04,0.44-0.28,0.72-0.49c0.11-0.16,0.22-0.34,0.36-0.53c0.07-0.09,0.15-0.18,0.25-0.27
		c0.05-0.04,0.1-0.09,0.15-0.13l0.02-0.02c0.01-0.01,0.01,0,0.01-0.01l0.01-0.01c0.01,0,0.02-0.01,0.03-0.01
		c0.02-0.01,0.04-0.01,0.06,0c0.03,0,0.08,0.03,0.1-0.04c0-0.02-0.01-0.04-0.01-0.06c0-0.03-0.01-0.07-0.01-0.1
		c0-0.07-0.01-0.13-0.01-0.18c0-0.11,0-0.21,0-0.31c0.01-0.18,0.03-0.33,0.05-0.47c0.05-0.29,0.1-0.59,0.07-1.21
		c0.02-0.08,0.03-0.17,0.04-0.26c0-0.04,0.01-0.09,0.01-0.13c0-0.05,0.01-0.08,0.01-0.14c0.01-0.14,0.01-0.28,0.02-0.42
		c0.01-0.04,0.03-0.07,0.06-0.1c0.06-0.08,0.09-0.1,0.19-0.11c0,0,0.01,0,0.01,0l0.19,0c0.07,0,0.14,0,0.21,0.01
		c0.06,0,0.13,0.01,0.19,0.01c0.24,0.01,0.48,0.03,0.7,0.07c-0.12-0.1,0.52-0.05,0.68-0.03c0.03,0.01,0.08,0.03,0.15,0.04h0.99
		c0.05-0.1,0.1-0.13,0.17,0h0.04c0.21,0.2,0.11,0.94,0.11,1.18c0,0.26,0.04,0.53,0.05,0.79v1.2l0.05,0.41
		c-0.01,0.08-0.03,0-0.05-0.04v0.45c0.04,0.19,0.08,0.36,0,0.56v0.1c-0.01,0.11,0,0.22-0.01,0.34c-0.02,0.17-0.04,0.29-0.03,0.47
		c0.01,0.24,0.04,0.48,0.07,0.72c0,0.14,0,0.29-0.02,0.43v0.45c0,0.06,0,0.13,0,0.19v0.19c0,0,0,0,0,0c0,0.39,0.03,0.78,0.01,1.18
		c-0.04,0.12-0.05,0.24-0.03,0.36c-0.03,0.32-0.02,0.66,0.02,0.97c0,0.01,0,0.01,0.01,0.02c0.01,0.2,0.01,0.36,0.03,0.45
		c0.04,0.31-0.04,0.49-0.04,0.49h-0.34c0,0,0,0-0.01,0l-0.35,0.06c-0.01,0.02,0.01,0.04,0.04,0.05c0.02,0.01,0.04,0.01,0.06,0.02
		c0.01,0,0.03,0.01,0.05,0.01c-0.01,0.02-0.01,0.04-0.02,0.07c0,0-0.01,0.01-0.01,0.01c-0.02,0.01-0.04,0.02-0.06,0.04
		c-0.31,0.04-0.57,0.02-0.93-0.06c-0.17-0.04-0.33-0.13-0.49-0.17c-0.14-0.04-0.28,0.01-0.43,0.02c-0.18-0.02-0.49-0.03-0.75-0.04
		c-0.06-0.02-0.13-0.03-0.19-0.03c-0.07,0-0.1,0.01-0.15-0.05c-0.03-0.04-0.05-0.08-0.07-0.13c-0.05-0.81-0.13-1.58-0.21-2.28
		c0.02,0.04,0.05,0.16,0.08,0.03c0-0.14-0.01-0.26-0.03-0.37c-0.01-0.06-0.02-0.11-0.03-0.16c-0.01-0.02-0.01-0.05-0.02-0.07
		c-0.01-0.01-0.01-0.03-0.02-0.04c-0.03-0.05-0.06-0.08-0.09-0.09c0.02-0.04,0.02-0.09,0.02-0.14c-0.08,0-0.17,0.02-0.24,0.04
		c-0.01,0.01-0.13,0.02-0.2,0.03c-0.08,0.01-0.16,0.02-0.24,0.02c-0.29-0.06-0.51-0.13-0.84-0.15c-0.11-0.04-0.23-0.04-0.35-0.06
		C43.19,39.16,43.04,39.14,42.9,39.12z M45.42,48.59c-0.09,0.01-0.03,0.04-0.12,0.05c-0.25,0.03-0.43-0.05-0.59-0.1
		c-0.09,0-0.2,0-0.27,0c-0.02-0.01-0.04-0.01-0.06-0.02c-0.13-0.05-0.26-0.02-0.39-0.01c0,0,0,0,0,0c-0.06-0.01-0.11-0.02-0.17-0.02
		c-0.02,0-0.03-0.01-0.05-0.01h-0.04c0-0.01,0.01-0.02,0.01-0.03v0c0-0.06-0.04-0.1-0.08-0.12c-0.01-0.08,0.01-0.17,0-0.24
		c-0.01-0.06-0.02-0.13-0.03-0.19c0.02-0.18,0.01-0.36,0-0.53c0.02-0.04,0-0.12,0-0.17c0,0,0-0.34,0-0.28l-0.02-0.26l-0.03,0.01
		c0.03-0.32-0.02-0.45-0.05-0.64c0-0.13,0.03-0.28,0.03-0.42c0.01-0.01,0.01-0.02,0.02-0.03c0.02-0.03,0.02-0.07,0.01-0.11
		c0-0.03,0-0.05-0.01-0.08c0.02-0.07,0.03-0.15,0.04-0.24c0.03-0.01,0.05-0.02,0.08-0.03c0,0,0.01-0.01,0.01-0.01c0,0,0,0,0,0
		c0.01,0,0.04,0,0.04,0c0.04,0,0.07-0.01,0.1-0.02l0.04,0l0.06,0.01c0.08,0.01,0.16,0.01,0.24,0.02c0.16,0.01,0.33,0.03,0.49,0.04
		c0.04,0,0.08,0,0.12,0.01c0,0,0.32-0.14,0.69-0.1c0.02,0,0.03,0,0.05,0c0.09,0,0.19-0.01,0.3-0.01c0.01,0.1,0.01,0.21,0.02,0.3
		c0,0.04,0,0.07,0.01,0.11c0,0.03,0,0.06,0,0.09c0,0.03,0,0.05,0,0.08c0,0.04-0.01,0.08-0.01,0.11c-0.01,0.06-0.03,0.1-0.05,0.1
		c0,0-0.06,0.05-0.16,0.04c-0.1-0.02-0.29,0-0.3,0c0,0-0.01,0-0.01,0l-0.04,0.02c-0.08,0.04-0.15-0.02-0.22,0
		c0.02,0.05-0.24,0.03-0.34,0.04c-0.01,0-0.03,0-0.04,0c-0.01,0-0.02,0-0.03,0c-0.02,0-0.03,0-0.05,0c-0.03,0-0.06-0.01-0.08-0.01
		c-0.02,0.06-0.04,0.07-0.06,0.07c0,0-0.01,0-0.01,0v0.35c0.01,0.03,0.01,0.07,0.01,0.1c0.06,0,0.13,0,0.19,0.01h0.56
		c0.09-0.03,0.18-0.01,0.24,0h0.01v0.18c0.01-0.02,0.02-0.06,0.02-0.02l-0.02,0.17v0.36h-1v0.58c0,0.01,0.01,0.02,0.01,0.03
		c0.01,0,0.02-0.01,0.03-0.01c0.03,0,0.11-0.01,0.18-0.01c0.07,0,0.12,0,0.1,0.02c0.16-0.03,0.33-0.03,0.5-0.03
		c0.09,0,0.17,0,0.26-0.01c0.09,0,0.2-0.01,0.31-0.02c0,0.02,0.01,0.05,0.01,0.07c-0.01,0.25,0,0.33,0.01,0.43
		c0.01,0.06,0.01,0.12,0.02,0.17c0.01,0.06,0.01,0.12,0.02,0.19C45.8,48.6,45.57,48.6,45.42,48.59z M48.43,48.57
		c-0.03-0.04-0.05-0.08-0.08-0.11c-0.02-0.03-0.04-0.07-0.07-0.1c-0.04-0.06-0.08-0.15-0.13-0.27c-0.05-0.06-0.05-0.01-0.09-0.07
		c-0.13-0.18-0.14-0.37-0.16-0.51c-0.04-0.01-0.07-0.01-0.1-0.01c0,0.02-0.01,0.04-0.01,0.05c-0.01,0.01-0.01,0.01-0.01,0.01
		l-0.01,0c-0.01,0-0.02,0-0.02-0.01c0,0-0.01-0.01-0.02-0.02c0,0,0,0-0.01,0c-0.16,0.09-0.2,0.38-0.2,0.38
		c0.04,0,0.08-0.16,0.09,0.12c-0.03,0.05-0.02,0.13-0.02,0.21c0,0.07,0.01,0.15,0,0.23c-0.02,0.01-0.04,0.04-0.05,0.07
		c-0.03,0-0.05,0-0.07,0c-0.05,0-0.09-0.01-0.14-0.01c-0.08,0-0.15,0.03-0.22,0.05c-0.16-0.02-0.46-0.03-0.46-0.03l-0.01-0.2
		l-0.03,0.02c0.01-0.12,0.01-0.17,0.01-0.22c0-0.05,0-0.1-0.01-0.14c-0.01-0.09-0.03-0.16-0.05-0.24c0.01-0.15,0.05-0.35,0.03-0.48
		c0.03-0.08,0.07-0.19,0.07-0.35c-0.01-0.05-0.02-0.01-0.03,0.01c0.03-0.26,0.06-0.54,0.08-0.84c0-0.04,0-0.09,0.01-0.14v-0.44
		c0.01-0.08,0.02-0.16,0.02-0.25c0-0.02,0-0.05,0-0.07c0.03-0.01,0.05-0.04,0.07-0.08c0,0,0.01-0.01,0.01-0.01
		c0,0,1.11,0.02,1.14,0.04c0.03,0.02,0.85,0.03,0.89,0.06c0.04,0.03,0.27-0.05,0.3,0c0.03,0.05-0.04,0.09,0,0.17
		c0,0,0.01,0.23,0.03,0.3c0.03,0.07-0.04,0.47-0.04,0.47c0,0.02,0,0.03-0.01,0.05c0,0.04-0.01,0.07-0.02,0.11
		c-0.02,0.17-0.08,0.34-0.17,0.48c0,0,0,0.01-0.01,0.01c-0.08,0.12-0.19,0.23-0.32,0.3v0.01c0,0,0.05,0.06,0.12,0.2L49,47.78
		c0.02,0.02,0.03,0.04,0.04,0.04c0.03,0.05,0.17,0.25,0.11,0.23c0.09,0.11,0.2,0.29,0.29,0.46c-0.1,0-0.19,0-0.29,0.01
		c-0.05,0-0.1,0.01-0.15,0.01c-0.05,0-0.08,0.01-0.12,0.02c-0.1,0-0.18,0-0.24,0c-0.04,0-0.08,0.01-0.11,0.01
		C48.5,48.56,48.47,48.57,48.43,48.57z"/>
	<path style="fill:#778A97;" d="M49.13,46.18v0.01C49.13,46.18,49.13,46.18,49.13,46.18L49.13,46.18z"/>
	<path style="fill:#778A97;" d="M40.38,22.73c3.94,3.56,8.54,5.3,14.44,5.46l1.57-1.57c-0.2-0.1-0.42-0.16-0.66-0.16
		c-6.17,0-10.87-1.77-14.78-5.58c-0.17-0.16-0.36-0.27-0.57-0.34V22.73z"/>
	<path style="fill:#778A97;" d="M17.84,68.04l1.14,0.78l0.92-0.77l1.42,0.96l-0.37,1.14l1.14,0.78l1.55-5.59l-1.17-0.8L17.84,68.04z
		 M22.01,66.89l-0.35,1.06l-0.9-0.61l0.86-0.71c0.28-0.23,0.72-0.66,0.72-0.66l0.01,0.01C22.36,65.98,22.12,66.55,22.01,66.89z"/>
	<path style="fill:#778A97;" d="M40.17,47.89C40.17,47.89,40.17,47.88,40.17,47.89l0-0.29C40.16,47.68,40.16,47.76,40.17,47.89z"/>
	<path style="fill:#778A97;" d="M25.07,28.19c5.9-0.16,10.5-1.9,14.44-5.46v-2.19c-0.21,0.07-0.4,0.18-0.57,0.34
		c-3.91,3.81-8.61,5.58-14.78,5.58c-0.24,0-0.46,0.06-0.66,0.16L25.07,28.19z"/>
	<path style="fill:#778A97;" d="M10.49,33.22l-1.62-0.4l0.22-0.89c0.25-1.02-0.34-1.89-1.39-2.15c-1.05-0.26-1.97,0.24-2.22,1.26
		l-0.53,2.17l5.23,1.29L10.49,33.22z M7.93,31.92l-0.15,0.63L6.36,32.2l0.16-0.65c0.1-0.42,0.44-0.57,0.86-0.47
		C7.8,31.19,8.04,31.48,7.93,31.92z"/>
	<path style="fill:#778A97;" d="M16.37,58.75l-1.43,0.3c-0.41,0.08-0.83,0.21-0.83,0.21l-0.01-0.01c0,0,0.24-0.37,0.44-0.74
		l0.69-1.29l-0.91-1.23l-1.52,3.39l-1.81,1.34l0.8,1.08l1.81-1.34l3.68-0.48L16.37,58.75z"/>
	<path style="fill:#778A97;" d="M10.33,52.08l-0.01-0.01c0,0,0.11-0.02,0.21-0.06l0.48-0.17l0.74,1.75l1.06-0.45l-1.2-2.83
		l-2.73,0.91L8.91,52c0.2,0.17,0.36,0.37,0.46,0.61c0.19,0.46,0.11,0.91-0.29,1.07c-0.42,0.18-0.78-0.11-0.92-0.44
		C8,52.85,8.05,52.36,8.18,52.02l-1.21-0.19c-0.25,0.66-0.2,1.38,0.06,2.01c0.47,1.1,1.55,1.55,2.6,1.11
		c0.91-0.39,1.41-1.31,0.9-2.51C10.49,52.34,10.37,52.13,10.33,52.08z"/>
	<path style="fill:#778A97;" d="M57.17,27.9c0-0.24-0.06-0.47-0.16-0.67l-1.57,1.57c0.01,0.74,0.02,1.49,0.04,2.27l0,0.03
		c0.1,5.1,0.21,10.87-1.68,16.07c-2.16,5.95-6.55,10.07-13.42,12.58v1.85c0.01,0,0.02-0.01,0.04-0.01
		c17.27-5.98,17-20.17,16.8-30.52C57.19,29.97,57.17,28.92,57.17,27.9z"/>
	<path style="fill:#778A97;" d="M6.35,47.65c0.7-0.1,1.54,1.98,3.21,1.58c1.14-0.27,1.41-1.34,1.2-2.22
		c-0.23-0.96-0.92-1.44-1.6-1.61l-0.42,1.13c0.34,0.09,0.68,0.31,0.76,0.66c0.07,0.28-0.02,0.61-0.39,0.7
		c-0.77,0.18-1.67-2.04-3.65-1.57c-0.18,0.04-0.36,0.11-0.56,0.2l0.89,3.7l1.12-0.27L6.35,47.65z"/>
</g>
</svg>
