<svg xmlns="http://www.w3.org/2000/svg" viewBox="0 0 150 150"><path d="M110.6 94.4l-15.3-6.9 14.6-.5c.8 0 1.6-.6 1.7-1.5.2-.8-.2-1.6-1-2l-15.3-6.9 14.6-.5c.9 0 1.6-.6 1.7-1.5.2-.8-.2-1.6-1-1.9l-15.3-6.9 14.6-.5c.9 0 1.6-.6 1.7-1.5.2-.8-.2-1.6-1-1.9l-24-10.8c-.6-.2-1.2-.3-1.8-.3l-44.7 1.6c-.8 0-1.6.6-1.7 1.5-.2.8.2 1.6 1 2l15.4 6.9-14.6.5c-.8 0-1.6.6-1.7 1.5-.2.8.2 1.6 1 2l15.3 6.9-14.6.5c-.8 0-1.6.6-1.7 1.5-.2.8.2 1.6 1 2l15.3 6.9-14.6.5c-.9 0-1.6.6-1.7 1.5-.2.8.2 1.6 1 1.9l24 10.8c.5.2 1.1.3 1.7.3h.2l44.7-1.6c.8 0 1.6-.6 1.7-1.5 0-1-.4-1.8-1.2-2.1zM84.9 52.6c.3 0 .6.1.9.2l23.1 10.5-43.8 1.6c-.3 0-.6-.1-.9-.2l-4.7-2.1-18.4-8.3 43.8-1.7zm-26 11.8l4.5 2 .9.3h.3c.2 0 .4.1.5.1h.1l25.6-.9 18.2 8.2-18 .7-25.8.9c-.3 0-.6-.1-.9-.2l-4.7-2.1-18.4-8.3 17.7-.7zm-.1 10.9l4.5 2c.3.1.5.2.8.3.3.1.5.1.8.1h.2l25.6-.9L109 85l-43.9 1.6c-.3 0-.6-.1-.9-.2l-4.7-2.1L41 75.9l17.8-.6zm6.3 22.1c-.3 0-.7 0-.9-.2L41.1 86.8l17.8-.6 4.5 2 .9.3h.3c.2 0 .3.1.5.1h.1l25.6-.9 18.2 8.2-43.9 1.5z" fill="#778a97"/></svg>