<?xml version="1.0" encoding="utf-8"?>
<!-- Generator: Adobe Illustrator 27.1.1, SVG Export Plug-In . SVG Version: 6.00 Build 0)  -->
<svg version="1.1" id="Layer_1" xmlns="http://www.w3.org/2000/svg" xmlns:xlink="http://www.w3.org/1999/xlink" x="0px" y="0px"
	 viewBox="0 0 16 16" style="enable-background:new 0 0 16 16;" xml:space="preserve">
<path d="M7.62,8.75c-0.36,0-0.93,0.03-0.93,0l0.02,1.9h0.93c0.81,0,1.48-0.42,1.48-0.95C9.1,9.2,8.43,8.75,7.62,8.75 M7.52,5.13
	c-0.33,0-0.77,0.03-0.84,0l-0.02,1.9c0.02,0,0.53,0.03,0.86,0.03c0.67,0,1.2-0.42,1.2-0.95S8.19,5.13,7.52,5.13 M9.77,7.53
	c1.15,0.45,1.94,1.4,1.94,2.47c0,1.5-1.48,2.72-3.33,2.77H6.71H5.03H4.29V3.28l2.42-0.05c0,0,4.64-0.2,4.64,2.37
	C11.33,6.4,10.7,7.08,9.77,7.53"/>
</svg>
