<svg xmlns="http://www.w3.org/2000/svg" viewBox="0 0 65.38 60.25"><path d="M37.46 23.91c-.09-.1.4-.58.9-1.06.49-.48 1.02-.99.89-1.08l-2.4 1.89c.48-.19-.11.38-.39.7-.31.32-.3.41 1-.45zM.03 30.31c-.01-.02-.02-.03-.03-.04.18.99.07 2.68.47 3.43-.08-1.65.05-3.11-.29-4.59l-.15 1.2z"/><path d="M64.13 37.27c-.04-.3-.07-.87-.09-1.55a.145.145 0 01-.02-.07 16.11 16.11 0 01-.07-3.33c-.07-.41-.02-.83.1-1.25.04-1.35-.04-2.68-.05-4.03h-.01v-.63a6.83 6.83 0 010-.64v-1.52c.08-.48.09-.97.08-1.46-.09-.82-.2-1.63-.24-2.46-.03-.6.06-1.01.12-1.59.04-.4 0-.78.05-1.16v-.33c.27-.7.13-1.28 0-1.93V13.8c.06.13.13.41.16.14L64 12.55V8.43c-.05-.9-.17-1.8-.18-2.71-.01-.83.35-3.36-.38-4.05h-.14c-.24-.46-.43-.34-.6 0h-3.39c-.23-.05-.41-.1-.51-.14-.54-.05-2.72-.24-2.31.11-.76-.14-1.57-.21-2.4-.25l-.64-.03c-.24-.01-.49-.01-.73-.02l-.64-.01c-.02 0-.03.01-.05.01-.33.05-.43.11-.64.38-.09.12-.16.23-.2.35-.01.48-.03.96-.06 1.45-.02.2-.03.32-.04.48-.02.15-.03.3-.05.45-.03.3-.08.59-.13.88.1 2.13-.09 3.16-.24 4.16-.08.5-.15.99-.17 1.61-.01.31-.01.65 0 1.05.01.2.02.4.04.63l.03.34c.01.06.02.13.04.19-.08.24-.22.13-.33.15a.458.458 0 00-.2.01c-.04.01-.08.03-.11.04l-.05.02c-.01.01 0 0-.03.02l-.07.05c-.19.14-.36.28-.52.43-.32.3-.6.61-.84.92-.49.62-.87 1.25-1.24 1.8-.96.7-2.08 1.79-2.47 1.67-.19.06-.35.15-.56.15h-.04c-.08.16-.16.33-.25.49-.07.13-.15.24-.24.35-.24.56-1.33 1.6-2.11 2.44l-1.25.96c-.07-.1-.01-.3.01-.46.02-.14.01-.25-.16-.21-.09.02-.21.08-.4.19-.21.13-.56.38-.99.69-.22.47-.9.98-1.76 1.59-.25.18-.51.36-.77.55.2.41.11.7-.04 1.05.07.14.18.31.28.41.08-.03.15-.07.22-.1h5.13c.02.02.02.04.03.06.32-.01.67.06.81.38v.01c.49.08.98.15 1.45.21.4.05.81.06 1.19.19 1.11.07 1.88.3 2.86.51.26-.01.53-.04.81-.07.26-.03.65-.07.7-.1.24-.07.57-.13.83-.14 0 .15-.02.32-.08.47.09.06.2.15.3.31.02.04.05.09.07.14.02.05.05.15.07.23.04.17.08.35.11.54.06.38.1.8.1 1.26-.09.47-.19.06-.27-.09.28 2.4.54 5.04.72 7.8.05.16.13.32.22.44.16.19.27.16.52.17.23.01.45.05.66.11.86.01 1.93.04 2.55.12.5-.04 1-.21 1.47-.07.54.16 1.08.46 1.68.58 1.23.25 2.15.32 3.2.2.07-.04.15-.08.22-.12.01-.01.03-.02.04-.03 0-.08.02-.16.05-.23-.06-.01-.11-.02-.16-.03-.08-.02-.15-.04-.21-.06-.11-.04-.18-.1-.15-.16l1.19-.19h1.19c0-.01.29-.61.14-1.69zM29.29 14.69c-.04-.08-.33-.2-.4-.26-.3-.23-.41-.4-.81-.45-.03 0-.07-.01-.1-.02-.03.04-.06.08-.1.12h-2.22c-.23-.05-.41-.1-.51-.14-.54-.05-2.72-.24-2.31.11-1.33-.24-2.8-.28-4.28-.31-.74-.02-1.48-.04-2.2-.08-.6-.04-1.1-.11-1.44-.23v-.02c-.02-.34-.03-.66-.02-.94 0-.14.01-.27.02-.4l.03-.51c.05-.65.14-1.15.22-1.65.16-1 .28-1.97.07-4 .11-.69.34-.28.45-.97.04-.32.05-.63.05-.92-.01-.17-.01-.33-.02-.49-.01-.24-.03-.48-.05-.7-.07-.9-.2-1.64-.35-2.2-.94.15-1.7.33-2.32.47-.2 0-.4 0-.61-.01-.17 0-.35 0-.52.01-.33.01-.65.02-.94.01-.58 0-1.02-.05-1.08-.25.25-.19 1.1-.13 1.41-.23.68-.93-.36-.66-1.7-.32-.05.03-.1.06-.17.07-.19.04-.43.1-.66.13-.02 0-.04.01-.06.01.05.24-.06.51-.32.53-.58.27-2.01.43-3.1.61H3.67c-.01-.12.17-.25.3-.36.15-.2.43-.36-1.79-.41-.21.12-.52.17-.91.19.03.66-.02 1.37-.05 2.13 0 .18-.01.36-.02.54 0 .14-.01.28 0 .41.01.27.03.52.08.74l.17-.14c.06 1.1-.11 1.57-.33 1.84 0 .03 0 .06.01.09.02.23.11.34.23.49.04-.01.07-.03.11-.03.2-.04.38.12.38.32v.5c-.03.25-.07.47-.12.6-.18.48-.26 1.11-.2 1.52.05.4.31.86.32 2.15a.3.3 0 01-.23.07c-.01.02-.02.04-.03.05 0 .07-.01.14-.02.21-.02.16-.16.26-.31.3l-.05.7-.27-.09c.23 2.57-.14 3.58-.46 5.1.06 1.34.46 3.14.23 4.3.28.74.67 1.71.65 3.1-.02.13-.05.19-.07.21v.02c.03.16-.02.32-.12.43.19 1.73.38 3.57.53 5.48.06.74.11 1.49.15 2.25v3.59c-.01.28-.03.49-.05.65.22.07.42.16.59.26.36.22.52.58.63.97h.33c.14 0 .29.01.43.01.11.01.22.01.33.02.81.05 1.66.14 2.45.2 1.59.12 3.69 0 3.42-.51l-.61-.06c-.12-.01-.25-.04-.37-.06-.7-.14-1.71-.05-1.63-.3l1.22-.2h1.62c1.47.09 3.57.3 3.57.3l.51.17c.22.07.41.1.58.11.02-.29-.04-.65-.1-.96-.06-.32-.1-.6-.04-.86.1.07.17-.03.21-.28.02-.12.04-.27.05-.45.01-.15.02-.28.02-.43.02-.6 0-1.33.07-1.75-.1-2.97-.45-3.14-.78-3.22v-2.8a7.453 7.453 0 00.04-2.08c.04-.1.09-.22.14-.32l3.56-2.75c.72-.21 1.09-.69 1.52-1.18l1.21-.94c-.07.13-.24.36-.02.21l1-.97 6.56-5.07c.03-.01.05-.01.08-.02.22-.28.51-.47.8-.69.09-.07.23-.05.1-.27zM1.23 57.16c-.02.11-.04.26-.06.39-.02.08-.05.14-.08.08l-.01.89c.12-.14.13-.85.23-.94a4.29 4.29 0 00-.04-.4c.06-.11.03-.09-.04-.02zm15.08-9.41c-.12-.01-.24-.03-.35-.04-.11-.01-.2-.02-.28-.03-.26.09-.44.19-.76.2-.02.02-.03.04-.05.05-.21.16-.43.22-.64.22 0 .01.01.03.01.04h-.44v.72h-.02c.02.23 0 .47-.05.74-.06.28-.09.58-.21.84.05.3.17.06.28.06v.36c-.06.2-.11.46-.18.62-.03.15-.06.29-.1.43.12.07.05.4.07.67-.15.29-.41.62-.33 1.07.04.16.13.06.17.22-.16.92.19.88.12 1.85.19.6.05 1.34.24 1.95-.13-.09-.06.4-.04.52.02.02.04.07.05.12v.57c-.07.06-.1.13 0 .23v.27h2.47l.2.03c.02-.04.05-.07.08-.1v-.27c.01-.02.01-.03.02-.05.04-.1.07-.25-.02-.38v-1.02c.03-.18.05-.38 0-.57v-.63c.09-.01.18-.04.24-.27a.438.438 0 01-.08-.25c-.01-.01-.03-.02-.04-.04-.16-.2-.19-.44-.12-.69 0-.01 0-.02.01-.04v-1.68l.02-.08c-.01-.1-.01-.19.05-.27.08-.11.1-.21.1-.33a.433.433 0 00-.05-.12l-.01-.01a.864.864 0 01-.1-.16c-.01-.02-.01-.04-.02-.06v.02-.03c-.03-.1-.03-.2 0-.28V50.9c.07-.68.18-1.33.29-1.92-.03.03-.07.13-.1.02-.01-.22.05-.43.11-.65.04-.14.09-.29.13-.43a.507.507 0 01-.02-.13c-.22.02-.42-.01-.65-.04zM1.46 57.58c-.02.11-.04.26-.06.39-.02.08-.05.13-.08.08l-.01.88c.12-.14.13-.85.23-.94a4.29 4.29 0 00-.04-.4c.06-.1.03-.08-.04-.01zm9.39.78l-.03-.42c-.02-.3-.02-.67-.03-1-.89.02-1.54.02-2.18.12.18-.13-.77-.06-1-.04-.04.02-.12.04-.22.05H6.22c-.5 0-.86.05-.86.05v-.02s.38-.33.86-1.02l1.93-2.74.4-.46c.06-.1-.03-.02-.09.02l.38-.54c.2-.2.39-.38.48-.68l1.12-1.59c.05-.06.1-.11.15-.17.02-.29.02-.59-.02-.88v-.84h-.38c.01-.03.01-.06 0-.09-.03-.05-.12-.09-.38-.13-.2-.04-.52-.07-1.01-.08-.06.01-.13.01-.2.01-.03.09-.09.18-.19.22-.06.03-.12.04-.18.06h.01-.03c-.4.12-.87.09-1.33 0H4.52l-.53-.08c-.04-.1.5-.11.8-.19l.34.03c-.17-.21-.65-.24-1.22-.21-.29.01-.6.04-.91.06-.12.01-.41.02-.61.03-.1 0-.18 0-.28.01-.02.14-.07.27-.13.4l.02.46s.1 1.39.1 1.85h.1c.3.02.59.04.88.05.33.02.65.05.97.07.31.03.62.05.93.08.15.01.3.03.45.04.11.01.19.03.28.04-.02-.03-.14-.07.03-.1.32 0 .5.04.51.11 0 .02 0 .04-.01.05-.01.01-.01.01-.02.03-.02.05-.05.07-.08.08.01.02-.03.07-.09.13l-.08.08-.08.07c-.06.05-.12.11-.18.16l-.04.03c-.01.01-.05.06-.07.08-.05.06-.1.13-.15.18-.26.56-.4.98-.97 1.71.01.06.01.12-.02.18-.01.04-.03.07-.05.11h.01a.3.3 0 00-.04.08c-.01.02-.02.05-.03.07-.04.11-.06.22-.1.34.02.02.04.04.05.07L3.02 56.1c-.02 0-.03-.01-.04-.02-.08.06-.18.11-.28.13l-.02.02c-.02.02-.03.02-.05.04-.03.13-.12.31-.33.58l-.02-.09a3 3 0 00-.3.37c-.11.16-.22.34-.33.5 0 .1 0 .2.01.29 0 .08 0 .14-.01.21-.01.13-.03.24-.07.32 0 .08.01.16.01.22 0 .08.01.16.01.22.01.12.02.2.04.24.03.08.06.03.1-.05.04-.09.09-.18.14-.19v.53h.16c.09.02.19.03.31.05.18.02.38.05.53.07.32.05.56.11.6.2.07.03.13.07.18.12h.05c0-.01.13-.08.15-.09.06-.03.12-.04.18-.05.11-.12.77-.06 1.28-.07.55.15 1.18.41 2.04.33.3-.04.12-.13.42-.17.76.07 1.17.04 1.55 0 .19-.02.38-.05.59-.08.28-.02.58-.04.97-.05 0-.26 0-.54.01-.89-.02-.14-.03-.29-.05-.43zm31.69.38c.16.29.33.57.52.88-.28.02-.56.04-.84.08-.43-.01-.81-.01-1-.01-.23.01-.42.02-.59.04-.17.02-.32.04-.48.06-.22.02-.44.04-.7.05-.07-.11-.13-.23-.2-.36l-.2-.37c-.1-.2-.22-.44-.34-.75-.18-.26-.18-.05-.36-.32-.5-.77-.58-1.48-.71-2.08-.29-.4-.58-.4-.62-.4-.02 0-.03 0-.04.01-.01 0-.01-.01-.01-.01-.14 0-.46.14-.46.14-.03.07-.31.78-.31 1.15.13 0 .27-.64.3.47-.09.19-.08.52-.07.87.01.18.02.34.02.54v.23c-.07.05-.13.1-.18.17-.01.01-.06.11-.1.19a.473.473 0 00-.22-.07c-.12 0-.22.02-.33.05-.13.04-.24.09-.34.13H33.8c-.07-.08-.15-.15-.24-.22-.05-.04-.1-.06-.13-.09v-.07h-.01c.01-.06.01-.11 0-.17-.02-.18-.11-.26-.18-.4-.05-.1-.05-.08-.04-.21 0-.1.02-.19.02-.29 0-.11-.05-.2-.11-.27-.01-.67-.11-1.06-.21-1.58.02-.62.18-1.45.09-1.98.11-.34.26-.79.25-1.43-.03-.22-.07-.03-.1.04.07-.69.13-1.42.19-2.19.03-.38.05-.77.08-1.17l.03-.57v-.42c.25 0 .49-.11.71-.21h.57c.34.08.71.1 1.05.02.19-.05.36-.14.51-.26.07-.05.12-.09.18-.13h.11l.06 1.16c.02.26.03.5.03.72 0 .44-.05.79-.22.94l.03-.36c-.08-.32-.09-.89-.19-.85l-.1.56v1.85c.01.06.06.31.11.37.02.03.04.05.07.07l.03.03c.24-.07.29.09.52.04-.02-.04.05-.06.07-.08.02-.02.1-.02.17-.03.04-.08.09-.18.14-.27.07-.14.14-.27.17-.37.68-1.19.84-1.19.96-1.16l.62-1.15c.14-.36.34-.7.53-.99l.06-.12h1.95c.21-.06.41-.07.56-.05.12.01.22.03.32.05h.06c-.26.4-.45.83-.65 1.26l-.59 1.04c-.24.34-.52.66-.76 1-.23.33-.3.72-.42 1.09l-.56.99v.03l1.02 1.86c.07.08.12.15.16.18.14.21.68 1.05.48.95.31.4.59.86.86 1.34l.48.81z"/><path d="M33.43 56.45c-.03.25-.04.54-.01.98 0-.01.01-.02.01-.03v-.95zm19.49 2.13c-.03-.33-.06-.63-.03-1.47l-.03-.25c-.38.04-.75.06-1.07.07-.29.01-.59.02-.88.02-.59.01-1.18.03-1.71.12.09-.07-.11-.08-.33-.08-.21 0-.48.03-.6.04-.03.01-.06.02-.1.03-.01-.03-.02-.06-.03-.11v-1.99h3.43v-1.22l.06-.59c-.01-.12-.04.01-.06.08v-.63h-.02c-.21-.05-.51-.1-.82 0H48.8c-.21-.02-.43-.04-.64-.03 0-.12-.02-.24-.03-.36v-1.19h.03c.08.01.15-.04.21-.23.08.01.17.03.27.04.05 0 .1.01.16.01.03 0 .06 0 .09.01.05 0 .09 0 .14.01.35-.05 1.23.02 1.17-.13.25-.06.48.14.75.01l.14-.07s.01 0 .02-.01c.03 0 .68-.07 1.01-.01.34.06.54-.12.54-.12.08-.02.14-.15.17-.36.02-.1.03-.22.04-.36.01-.11.01-.18.01-.29 0-.1 0-.2-.01-.31-.01-.12-.01-.24-.02-.37a33 33 0 01-.05-1.04c-.36.02-.71.03-1.02.04h-.18c-1.25-.12-2.35.34-2.35.34-.14-.01-.28-.01-.41-.02-.58-.03-1.14-.08-1.69-.12-.27-.02-.54-.05-.8-.07l-.2-.02-.15.01c-.11.04-.23.07-.35.06-.03 0-.11 0-.15-.01h-.01c-.02.01-.04.03-.05.03a.77.77 0 01-.27.11c-.03.3-.07.57-.13.81.03.08.04.17.03.26.04.12.04.26-.03.37l-.06.09c-.01.45-.1.99-.11 1.42.12.65.27 1.07.18 2.17l.1-.04.05.88c.02-.22.01.94.01.94-.01.17.06.43 0 .57.05.61.07 1.21.01 1.82.05.21.08.43.1.64.02.23-.04.55-.01.81.16.05.29.19.29.41v.01c0 .04-.01.07-.02.1h.13c.05.01.1.02.17.03.19.03.38.05.57.08.45-.03.9-.12 1.34.04.07.03.14.04.22.07.26-.01.62.01.93 0 .54.15 1.16.41 2 .33.29-.04.12-.13.41-.17.5.06 1.29.05 1.71.02-.01-.24-.03-.45-.05-.66-.05-.17-.07-.36-.09-.57zm-22.64-5.22c-.04-.36-.13-.15-.17-.51.08-1.06.03-1.57-.03-2.09-.03-.26-.06-.52-.08-.86a9.49 9.49 0 01-.02-.57v-.34c0-.16.01-.33.01-.51-.02-.16-.03-.33-.04-.49-.3.02-.58.03-.85.04-.24.01-.47.01-.71.02l-1.5.03.03.78c.02.24.04.45.06.66-.13-.21-.06.92-.04 1.21.02.05.04.15.05.27v2.44c0 .71.13 1.92.13 1.92h-.03s-.5-1.18-.94-1.92l-.81-1.37-.32-.65c-.08-.11-.03.02-.01.1l-.41-.69c-.13-.31-.24-.61-.51-.86l-1.05-1.77h-.3c-.39-.03-.84-.05-1.27 0h-1.22v.27a.139.139 0 00-.09 0c-.05.03-.09.14-.13.45-.02.18-.04.4-.06.7.31.44.41 1 .36 1.53-.01.13-.04.25-.08.36.03.13.05.27.05.41 0 .14-.02.28-.05.42v2.94l-.03.27c.02.17.03.35 0 .55-.06.47-.21.75-.16 1.19.03.07.06.14.08.22.11.07.2.18.2.36 0 .25-.01.49.01.74 0 .12-.04.21-.1.28v.54h1.74c.36.02.71.03 1.06.05.02-.32.04-.63.05-.94l.06-.87c.03-.42.07-.82.1-1.23-.01-.09-.02-.18-.02-.28-.02.02-.03 0-.05-.11-.01-.73.14-1.23.25-1.62-.01-.12-.02-.24-.03-.38l.09.15.03-.14-.03.14c.11.2.23.41.35.65l.07-.09.13.19c.17-.01.33.08.43.22.08.11.13.23.18.35l1.14 1.9c.13.13.19.29.22.47.23.35.37.74.49 1.16.01.02 0 .03.01.05.11.17.23.36.34.54.61-.02.96-.03 1.19.07 1.26-.03.54-.17.54-.3h.83c.12.01.24.03.38.04.02-.16.04-.33.05-.49.02-.17.04-.36.06-.48.03-.17.06-.3.1-.38.04-.31.01-.57-.01-.86-.06-.27-.02-.92-.03-1.44.13-.64.39-1.4.31-2.44zm-2.81 6.41c-.17.01-.3.02-.39.03-.1.01-.15.02-.17.03-.04.02.04.03.18.05.12.02.34.03.39.05.08.02.12.04.06.07h.92c.03-.12-.9-.13-.99-.23zm37.58-.2c-.32.01-.65.01-.98.03l-.5.03c-.16.01-.27.03-.41.06a7.57 7.57 0 00-.83 0l-.38.03c-.13.01-.26.02-.38.04-.09-.13-.18-.26-.26-.39l-.23-.35c-.14-.22-.28-.5-.45-.92-.16-.21-.17-.03-.32-.25-.43-.62-.47-1.26-.54-1.73a.862.862 0 00-.35-.03.43.43 0 01-.05.17c-.02.03-.03.04-.05.02l-.02-.02c-.04-.01-.07-.01-.07-.02-.02-.02-.04-.03-.07-.05 0 0-.01-.01-.02-.01-.55.32-.67 1.3-.67 1.3.13 0 .27-.53.3.39-.09.16-.08.43-.07.72.01.23.03.53.02.77-.08.05-.14.13-.17.23-.09 0-.17 0-.25.01-.16-.02-.32-.03-.47-.02-.26.01-.51.11-.76.16-.56-.05-1.56-.1-1.56-.1l-.04-.67-.1.08c.02-.4.03-.57.03-.76 0-.18-.02-.34-.04-.49-.04-.29-.11-.53-.17-.82.02-.51.18-1.2.09-1.65.11-.28.26-.65.25-1.19-.03-.18-.07-.02-.1.03.1-.88.2-1.84.27-2.85.01-.15.02-.31.02-.46v-1.49c.02-.28.06-.56.08-.84.01-.08.01-.17.01-.25.1-.05.19-.13.23-.26.01-.02.02-.03.05-.04 0 0 3.79.07 3.88.15.09.07 2.89.11 3.04.22.15.11.93-.16 1.04 0 .11.16-.13.31 0 .58 0 0 .02.8.11 1.04s-.15 1.6-.15 1.6c-.01.05-.01.11-.02.16-.02.13-.04.25-.07.38-.06.57-.26 1.15-.58 1.64-.01.01-.02.03-.03.04-.28.42-.65.78-1.11 1.01v.03s.16.2.42.68l.87 1.56c.06.07.11.12.14.15.12.17.58.86.39.79.34.37.7.98 1.03 1.56z"/><path d="M63.98 51.58h-.02v.04c.01-.01.01-.03.02-.04z"/></svg>