<?xml version="1.0" encoding="utf-8"?>
<!-- Generator: Adobe Illustrator 27.1.1, SVG Export Plug-In . SVG Version: 6.00 Build 0)  -->
<svg version="1.1" id="Layer_1" xmlns="http://www.w3.org/2000/svg" xmlns:xlink="http://www.w3.org/1999/xlink" x="0px" y="0px"
	 viewBox="0 0 65.38 60.25" style="enable-background:new 0 0 65.38 60.25;" xml:space="preserve">
<g>
	<path d="M37.46,23.91c-0.09-0.1,0.4-0.58,0.9-1.06c0.49-0.48,1.02-0.99,0.89-1.08l-2.4,1.89c0.48-0.19-0.11,0.38-0.39,0.7
		C36.15,24.68,36.16,24.77,37.46,23.91z"/>
	<path d="M0.03,30.31C0.02,30.29,0.01,30.28,0,30.27c0.18,0.99,0.07,2.68,0.47,3.43c-0.08-1.65,0.05-3.11-0.29-4.59L0.03,30.31z"/>
	<path d="M64.13,37.27c-0.04-0.3-0.07-0.87-0.09-1.55c-0.01-0.02-0.02-0.04-0.02-0.07c-0.13-1.09-0.17-2.23-0.07-3.33
		c-0.07-0.41-0.02-0.83,0.1-1.25c0.04-1.35-0.04-2.68-0.05-4.03c0,0,0,0-0.01,0v-0.63c-0.01-0.21-0.01-0.42,0-0.64v-1.52
		c0.08-0.48,0.09-0.97,0.08-1.46c-0.09-0.82-0.2-1.63-0.24-2.46c-0.03-0.6,0.06-1.01,0.12-1.59c0.04-0.4,0-0.78,0.05-1.16v-0.33
		c0.27-0.7,0.13-1.28,0-1.93V13.8c0.06,0.13,0.13,0.41,0.16,0.14l-0.16-1.39V8.43c-0.05-0.9-0.17-1.8-0.18-2.71
		c-0.01-0.83,0.35-3.36-0.38-4.05H63.3c-0.24-0.46-0.43-0.34-0.6,0h-3.39c-0.23-0.05-0.41-0.1-0.51-0.14
		c-0.54-0.05-2.72-0.24-2.31,0.11c-0.76-0.14-1.57-0.21-2.4-0.25c-0.21-0.01-0.43-0.02-0.64-0.03c-0.24-0.01-0.49-0.01-0.73-0.02
		l-0.64-0.01c-0.02,0-0.03,0.01-0.05,0.01c-0.33,0.05-0.43,0.11-0.64,0.38c-0.09,0.12-0.16,0.23-0.2,0.35
		c-0.01,0.48-0.03,0.96-0.06,1.45C51.11,3.72,51.1,3.84,51.09,4c-0.02,0.15-0.03,0.3-0.05,0.45c-0.03,0.3-0.08,0.59-0.13,0.88
		c0.1,2.13-0.09,3.16-0.24,4.16c-0.08,0.5-0.15,0.99-0.17,1.61c-0.01,0.31-0.01,0.65,0,1.05c0.01,0.2,0.02,0.4,0.04,0.63
		c0.01,0.11,0.02,0.22,0.03,0.34c0.01,0.06,0.02,0.13,0.04,0.19c-0.08,0.24-0.22,0.13-0.33,0.15c-0.06-0.01-0.13-0.01-0.2,0.01
		c-0.04,0.01-0.08,0.03-0.11,0.04l-0.05,0.02c-0.01,0.01,0,0-0.03,0.02l-0.07,0.05c-0.19,0.14-0.36,0.28-0.52,0.43
		c-0.32,0.3-0.6,0.61-0.84,0.92c-0.49,0.62-0.87,1.25-1.24,1.8c-0.96,0.7-2.08,1.79-2.47,1.67c-0.19,0.06-0.35,0.15-0.56,0.15
		c-0.01,0-0.03,0-0.04,0c-0.08,0.16-0.16,0.33-0.25,0.49c-0.07,0.13-0.15,0.24-0.24,0.35c-0.24,0.56-1.33,1.6-2.11,2.44l-1.25,0.96
		c-0.07-0.1-0.01-0.3,0.01-0.46c0.02-0.14,0.01-0.25-0.16-0.21c-0.09,0.02-0.21,0.08-0.4,0.19c-0.21,0.13-0.56,0.38-0.99,0.69
		c-0.22,0.47-0.9,0.98-1.76,1.59c-0.25,0.18-0.51,0.36-0.77,0.55c0.2,0.41,0.11,0.7-0.04,1.05c0.07,0.14,0.18,0.31,0.28,0.41
		c0.08-0.03,0.15-0.07,0.22-0.1l0,0h5.13c0.02,0.02,0.02,0.04,0.03,0.06c0.32-0.01,0.67,0.06,0.81,0.38c0,0,0,0,0,0.01
		c0.49,0.08,0.98,0.15,1.45,0.21c0.4,0.05,0.81,0.06,1.19,0.19c1.11,0.07,1.88,0.3,2.86,0.51c0.26-0.01,0.53-0.04,0.81-0.07
		c0.26-0.03,0.65-0.07,0.7-0.1c0.24-0.07,0.57-0.13,0.83-0.14c0,0.15-0.02,0.32-0.08,0.47c0.09,0.06,0.2,0.15,0.3,0.31
		c0.02,0.04,0.05,0.09,0.07,0.14c0.02,0.05,0.05,0.15,0.07,0.23c0.04,0.17,0.08,0.35,0.11,0.54c0.06,0.38,0.1,0.8,0.1,1.26
		c-0.09,0.47-0.19,0.06-0.27-0.09c0.28,2.4,0.54,5.04,0.72,7.8c0.05,0.16,0.13,0.32,0.22,0.44c0.16,0.19,0.27,0.16,0.52,0.17
		c0.23,0.01,0.45,0.05,0.66,0.11c0.86,0.01,1.93,0.04,2.55,0.12c0.5-0.04,1-0.21,1.47-0.07c0.54,0.16,1.08,0.46,1.68,0.58
		c1.23,0.25,2.15,0.32,3.2,0.2c0.07-0.04,0.15-0.08,0.22-0.12c0.01-0.01,0.03-0.02,0.04-0.03c0-0.08,0.02-0.16,0.05-0.23
		c-0.06-0.01-0.11-0.02-0.16-0.03c-0.08-0.02-0.15-0.04-0.21-0.06c-0.11-0.04-0.18-0.1-0.15-0.16l1.19-0.19c0.01,0,0.02,0,0.03,0
		h1.16C63.99,38.95,64.28,38.35,64.13,37.27z"/>
	<path d="M29.29,14.69c-0.04-0.08-0.33-0.2-0.4-0.26c-0.3-0.23-0.41-0.4-0.81-0.45c-0.03,0-0.07-0.01-0.1-0.02
		c-0.03,0.04-0.06,0.08-0.1,0.12h-2.22c-0.23-0.05-0.41-0.1-0.51-0.14c-0.54-0.05-2.72-0.24-2.31,0.11
		c-1.33-0.24-2.8-0.28-4.28-0.31c-0.74-0.02-1.48-0.04-2.2-0.08c-0.6-0.04-1.1-0.11-1.44-0.23l0-0.02
		c-0.02-0.34-0.03-0.66-0.02-0.94c0-0.14,0.01-0.27,0.02-0.4c0.01-0.18,0.02-0.35,0.03-0.51c0.05-0.65,0.14-1.15,0.22-1.65
		c0.16-1,0.28-1.97,0.07-4c0.11-0.69,0.34-0.28,0.45-0.97c0.04-0.32,0.05-0.63,0.05-0.92c-0.01-0.17-0.01-0.33-0.02-0.49
		c-0.01-0.24-0.03-0.48-0.05-0.7c-0.07-0.9-0.2-1.64-0.35-2.2C14.38,0.78,13.62,0.96,13,1.1c-0.2,0-0.4,0-0.61-0.01
		c-0.17,0-0.35,0-0.52,0.01c-0.33,0.01-0.65,0.02-0.94,0.01c-0.58,0-1.02-0.05-1.08-0.25c0.25-0.19,1.1-0.13,1.41-0.23
		c0.68-0.93-0.36-0.66-1.7-0.32c-0.05,0.03-0.1,0.06-0.17,0.07C9.2,0.42,8.96,0.48,8.73,0.51c-0.02,0-0.04,0.01-0.06,0.01
		c0.05,0.24-0.06,0.51-0.32,0.53c-0.58,0.27-2.01,0.43-3.1,0.61H3.67c-0.01-0.12,0.17-0.25,0.3-0.36C4.12,1.1,4.4,0.94,2.18,0.89
		C1.97,1.01,1.66,1.06,1.27,1.08C1.3,1.74,1.25,2.45,1.22,3.21C1.22,3.39,1.21,3.57,1.2,3.75c0,0.14-0.01,0.28,0,0.41
		c0.01,0.27,0.03,0.52,0.08,0.74l0.17-0.14c0.06,1.1-0.11,1.57-0.33,1.84c0,0.03,0,0.06,0.01,0.09c0.02,0.23,0.11,0.34,0.23,0.49
		c0.04-0.01,0.07-0.03,0.11-0.03c0.2-0.04,0.38,0.12,0.38,0.32v0.5c-0.03,0.25-0.07,0.47-0.12,0.6c-0.18,0.48-0.26,1.11-0.2,1.52
		c0.05,0.4,0.31,0.86,0.32,2.15c-0.08,0.06-0.15,0.08-0.23,0.07c-0.01,0.02-0.02,0.04-0.03,0.05c0,0.07-0.01,0.14-0.02,0.21
		c-0.02,0.16-0.16,0.26-0.31,0.3l-0.05,0.7l-0.27-0.09c0.23,2.57-0.14,3.58-0.46,5.1c0.06,1.34,0.46,3.14,0.23,4.3
		c0.28,0.74,0.67,1.71,0.65,3.1c-0.02,0.13-0.05,0.19-0.07,0.21l0,0.02c0.03,0.16-0.02,0.32-0.12,0.43
		c0.19,1.73,0.38,3.57,0.53,5.48c0.06,0.74,0.11,1.49,0.15,2.25v3.59c-0.01,0.28-0.03,0.49-0.05,0.65c0.22,0.07,0.42,0.16,0.59,0.26
		c0.36,0.22,0.52,0.58,0.63,0.97c0.11,0,0.22,0,0.33,0c0.14,0,0.29,0.01,0.43,0.01c0.11,0.01,0.22,0.01,0.33,0.02
		c0.81,0.05,1.66,0.14,2.45,0.2c1.59,0.12,3.69,0,3.42-0.51l-0.61-0.06c-0.12-0.01-0.25-0.04-0.37-0.06
		c-0.7-0.14-1.71-0.05-1.63-0.3l1.22-0.2h1.62c1.47,0.09,3.57,0.3,3.57,0.3l0.51,0.17c0.22,0.07,0.41,0.1,0.58,0.11
		c0.02-0.29-0.04-0.65-0.1-0.96c-0.06-0.32-0.1-0.6-0.04-0.86c0.1,0.07,0.17-0.03,0.21-0.28c0.02-0.12,0.04-0.27,0.05-0.45
		c0.01-0.15,0.02-0.28,0.02-0.43c0.02-0.6,0-1.33,0.07-1.75c-0.1-2.97-0.45-3.14-0.78-3.22v-2.8c0.05-0.31,0.08-0.63,0.09-0.95
		c0.01-0.4-0.01-0.75-0.05-1.13c0.04-0.1,0.09-0.22,0.14-0.32l3.56-2.75c0.72-0.21,1.09-0.69,1.52-1.18l1.21-0.94
		c-0.07,0.13-0.24,0.36-0.02,0.21l1-0.97l6.56-5.07c0.03-0.01,0.05-0.01,0.08-0.02c0.22-0.28,0.51-0.47,0.8-0.69
		C29.28,14.89,29.42,14.91,29.29,14.69z"/>
	<path d="M1.23,57.16c-0.02,0.11-0.04,0.26-0.06,0.39c-0.02,0.08-0.05,0.14-0.08,0.08l-0.01,0.89c0.12-0.14,0.13-0.85,0.23-0.94
		c-0.01-0.18-0.03-0.34-0.04-0.4C1.33,57.07,1.3,57.09,1.23,57.16z"/>
	<path d="M16.31,47.75c-0.12-0.01-0.24-0.03-0.35-0.04c-0.11-0.01-0.2-0.02-0.28-0.03c-0.26,0.09-0.44,0.19-0.76,0.2
		c-0.02,0.02-0.03,0.04-0.05,0.05c-0.21,0.16-0.43,0.22-0.64,0.22c0,0.01,0.01,0.03,0.01,0.04H13.8v0.72c-0.01,0-0.01,0-0.02,0
		c0.02,0.23,0,0.47-0.05,0.74c-0.06,0.28-0.09,0.58-0.21,0.84c0.05,0.3,0.17,0.06,0.28,0.06v0.36c-0.06,0.2-0.11,0.46-0.18,0.62
		c-0.03,0.15-0.06,0.29-0.1,0.43c0.12,0.07,0.05,0.4,0.07,0.67c-0.15,0.29-0.41,0.62-0.33,1.07c0.04,0.16,0.13,0.06,0.17,0.22
		c-0.16,0.92,0.19,0.88,0.12,1.85c0.19,0.6,0.05,1.34,0.24,1.95c-0.13-0.09-0.06,0.4-0.04,0.52c0.02,0.02,0.04,0.07,0.05,0.12v0.57
		c-0.07,0.06-0.1,0.13,0,0.23v0.27h2.47c0.06,0.01,0.13,0.02,0.2,0.03c0.02-0.04,0.05-0.07,0.08-0.1v-0.27
		c0.01-0.02,0.01-0.03,0.02-0.05c0.04-0.1,0.07-0.25-0.02-0.38v-1.02c0.03-0.18,0.05-0.38,0-0.57v-0.63
		c0.09-0.01,0.18-0.04,0.24-0.27c-0.05-0.07-0.08-0.16-0.08-0.25c-0.01-0.01-0.03-0.02-0.04-0.04c-0.16-0.2-0.19-0.44-0.12-0.69
		c0-0.01,0-0.02,0.01-0.04v-1.68l0.02-0.08c-0.01-0.1-0.01-0.19,0.05-0.27c0.08-0.11,0.1-0.21,0.1-0.33
		c-0.01-0.04-0.03-0.09-0.05-0.12c0,0,0,0-0.01-0.01c-0.04-0.05-0.07-0.1-0.1-0.16c-0.01-0.02-0.01-0.04-0.02-0.06
		c0,0.01,0,0.01,0,0.02v-0.03c-0.03-0.1-0.03-0.2,0-0.28V50.9c0.07-0.68,0.18-1.33,0.29-1.92c-0.03,0.03-0.07,0.13-0.1,0.02
		c-0.01-0.22,0.05-0.43,0.11-0.65c0.04-0.14,0.09-0.29,0.13-0.43c-0.01-0.04-0.02-0.08-0.02-0.13
		C16.74,47.81,16.54,47.78,16.31,47.75z"/>
	<path d="M1.46,57.58c-0.02,0.11-0.04,0.26-0.06,0.39c-0.02,0.08-0.05,0.13-0.08,0.08l-0.01,0.88c0.12-0.14,0.13-0.85,0.23-0.94
		c-0.01-0.18-0.03-0.34-0.04-0.4C1.56,57.49,1.53,57.51,1.46,57.58z"/>
	<path d="M10.85,58.36c-0.01-0.14-0.02-0.28-0.03-0.42c-0.02-0.3-0.02-0.67-0.03-1c-0.89,0.02-1.54,0.02-2.18,0.12
		c0.18-0.13-0.77-0.06-1-0.04c-0.04,0.02-0.12,0.04-0.22,0.05H6.22c-0.5,0-0.86,0.05-0.86,0.05V57.1c0,0,0.38-0.33,0.86-1.02
		l1.93-2.74l0.4-0.46c0.06-0.1-0.03-0.02-0.09,0.02l0.38-0.54c0.2-0.2,0.39-0.38,0.48-0.68l1.12-1.59c0.05-0.06,0.1-0.11,0.15-0.17
		c0.02-0.29,0.02-0.59-0.02-0.88V48.2h-0.38c0.01-0.03,0.01-0.06,0-0.09c-0.03-0.05-0.12-0.09-0.38-0.13
		c-0.2-0.04-0.52-0.07-1.01-0.08c-0.06,0.01-0.13,0.01-0.2,0.01c-0.03,0.09-0.09,0.18-0.19,0.22c-0.06,0.03-0.12,0.04-0.18,0.06
		c0,0,0,0,0.01,0H8.21c-0.4,0.12-0.87,0.09-1.33,0H4.52l-0.53-0.08c-0.04-0.1,0.5-0.11,0.8-0.19l0.34,0.03
		c-0.17-0.21-0.65-0.24-1.22-0.21c-0.29,0.01-0.6,0.04-0.91,0.06c-0.12,0.01-0.41,0.02-0.61,0.03c-0.1,0-0.18,0-0.28,0.01
		c-0.02,0.14-0.07,0.27-0.13,0.4l0.02,0.46c0,0,0.1,1.39,0.1,1.85H2.2c0.3,0.02,0.59,0.04,0.88,0.05c0.33,0.02,0.65,0.05,0.97,0.07
		c0.31,0.03,0.62,0.05,0.93,0.08c0.15,0.01,0.3,0.03,0.45,0.04c0.11,0.01,0.19,0.03,0.28,0.04c-0.02-0.03-0.14-0.07,0.03-0.1
		c0.32,0,0.5,0.04,0.51,0.11c0,0.02,0,0.04-0.01,0.05c-0.01,0.01-0.01,0.01-0.02,0.03C6.2,50.97,6.17,50.99,6.14,51
		c0.01,0.02-0.03,0.07-0.09,0.13C6.03,51.15,6,51.18,5.97,51.21l-0.08,0.07c-0.06,0.05-0.12,0.11-0.18,0.16l-0.04,0.03
		c-0.01,0.01-0.05,0.06-0.07,0.08c-0.05,0.06-0.1,0.13-0.15,0.18c-0.26,0.56-0.4,0.98-0.97,1.71c0.01,0.06,0.01,0.12-0.02,0.18
		c-0.01,0.04-0.03,0.07-0.05,0.11c0,0,0,0,0.01,0c-0.02,0.03-0.03,0.05-0.04,0.08c-0.01,0.02-0.02,0.05-0.03,0.07
		c-0.04,0.11-0.06,0.22-0.1,0.34c0.02,0.02,0.04,0.04,0.05,0.07l-1.28,1.81C3,56.1,2.99,56.09,2.98,56.08
		C2.9,56.14,2.8,56.19,2.7,56.21c-0.01,0.01-0.01,0.01-0.02,0.02c-0.02,0.02-0.03,0.02-0.05,0.04C2.6,56.4,2.51,56.58,2.3,56.85
		l-0.02-0.09c-0.1,0.1-0.2,0.23-0.3,0.37c-0.11,0.16-0.22,0.34-0.33,0.5c0,0.1,0,0.2,0.01,0.29c0,0.08,0,0.14-0.01,0.21
		c-0.01,0.13-0.03,0.24-0.07,0.32c0,0.08,0.01,0.16,0.01,0.22c0,0.08,0.01,0.16,0.01,0.22c0.01,0.12,0.02,0.2,0.04,0.24
		c0.03,0.08,0.06,0.03,0.1-0.05c0.04-0.09,0.09-0.18,0.14-0.19v0.53h0.16c0.09,0.02,0.19,0.03,0.31,0.05
		c0.18,0.02,0.38,0.05,0.53,0.07c0.32,0.05,0.56,0.11,0.6,0.2c0.07,0.03,0.13,0.07,0.18,0.12c0.02,0,0.03,0,0.05,0
		c0-0.01,0.13-0.08,0.15-0.09c0.06-0.03,0.12-0.04,0.18-0.05c0.11-0.12,0.77-0.06,1.28-0.07c0.55,0.15,1.18,0.41,2.04,0.33
		c0.3-0.04,0.12-0.13,0.42-0.17c0.76,0.07,1.17,0.04,1.55,0c0.19-0.02,0.38-0.05,0.59-0.08c0.28-0.02,0.58-0.04,0.97-0.05
		c0-0.26,0-0.54,0.01-0.89C10.88,58.65,10.87,58.5,10.85,58.36z"/>
	<g>
		<path d="M42.54,58.74c0.16,0.29,0.33,0.57,0.52,0.88c-0.28,0.02-0.56,0.04-0.84,0.08c-0.43-0.01-0.81-0.01-1-0.01
			c-0.23,0.01-0.42,0.02-0.59,0.04c-0.17,0.02-0.32,0.04-0.48,0.06c-0.22,0.02-0.44,0.04-0.7,0.05c-0.07-0.11-0.13-0.23-0.2-0.36
			c-0.06-0.11-0.13-0.24-0.2-0.37c-0.1-0.2-0.22-0.44-0.34-0.75c-0.18-0.26-0.18-0.05-0.36-0.32c-0.5-0.77-0.58-1.48-0.71-2.08
			c-0.29-0.4-0.58-0.4-0.62-0.4c-0.02,0-0.03,0-0.04,0.01c-0.01,0-0.01-0.01-0.01-0.01c-0.14,0-0.46,0.14-0.46,0.14
			c-0.03,0.07-0.31,0.78-0.31,1.15c0.13,0,0.27-0.64,0.3,0.47c-0.09,0.19-0.08,0.52-0.07,0.87c0.01,0.18,0.02,0.34,0.02,0.54
			c0,0.08,0,0.16,0,0.23c-0.07,0.05-0.13,0.1-0.18,0.17c-0.01,0.01-0.06,0.11-0.1,0.19c-0.05-0.04-0.17-0.07-0.22-0.07
			c-0.12,0-0.22,0.02-0.33,0.05c-0.13,0.04-0.24,0.09-0.34,0.13H33.8c-0.07-0.08-0.15-0.15-0.24-0.22c-0.05-0.04-0.1-0.06-0.13-0.09
			v-0.07c0,0,0,0-0.01,0c0.01-0.06,0.01-0.11,0-0.17c-0.02-0.18-0.11-0.26-0.18-0.4c-0.05-0.1-0.05-0.08-0.04-0.21
			c0-0.1,0.02-0.19,0.02-0.29c0-0.11-0.05-0.2-0.11-0.27c-0.01-0.67-0.11-1.06-0.21-1.58c0.02-0.62,0.18-1.45,0.09-1.98
			c0.11-0.34,0.26-0.79,0.25-1.43c-0.03-0.22-0.07-0.03-0.1,0.04c0.07-0.69,0.13-1.42,0.19-2.19c0.03-0.38,0.05-0.77,0.08-1.17
			c0.01-0.19,0.02-0.38,0.03-0.57v-0.42c0.25,0,0.49-0.11,0.71-0.21h0.57c0.34,0.08,0.71,0.1,1.05,0.02
			c0.19-0.05,0.36-0.14,0.51-0.26c0.07-0.05,0.12-0.09,0.18-0.13c0.04,0,0.07,0,0.11,0c0.02,0.39,0.04,0.78,0.06,1.16
			c0.02,0.26,0.03,0.5,0.03,0.72c0,0.44-0.05,0.79-0.22,0.94l0.03-0.36c-0.08-0.32-0.09-0.89-0.19-0.85L36.18,50v1.85
			c0.01,0.06,0.06,0.31,0.11,0.37c0.02,0.03,0.04,0.05,0.07,0.07c0.01,0.01,0.02,0.02,0.03,0.03c0.24-0.07,0.29,0.09,0.52,0.04
			c-0.02-0.04,0.05-0.06,0.07-0.08c0.02-0.02,0.1-0.02,0.17-0.03c0.04-0.08,0.09-0.18,0.14-0.27c0.07-0.14,0.14-0.27,0.17-0.37
			c0.68-1.19,0.84-1.19,0.96-1.16l0.62-1.15c0.14-0.36,0.34-0.7,0.53-0.99l0.06-0.12h1.95c0.21-0.06,0.41-0.07,0.56-0.05
			c0.12,0.01,0.22,0.03,0.32,0.05h0.06c-0.26,0.4-0.45,0.83-0.65,1.26l-0.59,1.04c-0.24,0.34-0.52,0.66-0.76,1
			c-0.23,0.33-0.3,0.72-0.42,1.09l-0.56,0.99v0.03l1.02,1.86c0.07,0.08,0.12,0.15,0.16,0.18c0.14,0.21,0.68,1.05,0.48,0.95
			c0.31,0.4,0.59,0.86,0.86,1.34L42.54,58.74z"/>
		<path d="M33.43,56.45c-0.03,0.25-0.04,0.54-0.01,0.98c0-0.01,0.01-0.02,0.01-0.03V56.45z"/>
	</g>
	<path d="M52.92,58.58c-0.03-0.33-0.06-0.63-0.03-1.47c-0.01-0.08-0.02-0.16-0.03-0.25c-0.38,0.04-0.75,0.06-1.07,0.07
		c-0.29,0.01-0.59,0.02-0.88,0.02c-0.59,0.01-1.18,0.03-1.71,0.12c0.09-0.07-0.11-0.08-0.33-0.08c-0.21,0-0.48,0.03-0.6,0.04
		c-0.03,0.01-0.06,0.02-0.1,0.03c-0.01-0.03-0.02-0.06-0.03-0.11v-1.99h3.43v-1.22l0.06-0.59c-0.01-0.12-0.04,0.01-0.06,0.08V52.6
		h-0.02c-0.21-0.05-0.51-0.1-0.82,0H48.8c-0.21-0.02-0.43-0.04-0.64-0.03c0-0.12-0.02-0.24-0.03-0.36v-1.19c0.01,0,0.02,0,0.03,0
		c0.08,0.01,0.15-0.04,0.21-0.23c0.08,0.01,0.17,0.03,0.27,0.04c0.05,0,0.1,0.01,0.16,0.01c0.03,0,0.06,0,0.09,0.01
		c0.05,0,0.09,0,0.14,0.01c0.35-0.05,1.23,0.02,1.17-0.13c0.25-0.06,0.48,0.14,0.75,0.01l0.14-0.07c0,0,0.01,0,0.02-0.01
		c0.03,0,0.68-0.07,1.01-0.01c0.34,0.06,0.54-0.12,0.54-0.12c0.08-0.02,0.14-0.15,0.17-0.36c0.02-0.1,0.03-0.22,0.04-0.36
		c0.01-0.11,0.01-0.18,0.01-0.29c0-0.1,0-0.2-0.01-0.31c-0.01-0.12-0.01-0.24-0.02-0.37c-0.02-0.33-0.04-0.69-0.05-1.04
		c-0.36,0.02-0.71,0.03-1.02,0.04c-0.06,0-0.12,0-0.18,0c-1.25-0.12-2.35,0.34-2.35,0.34c-0.14-0.01-0.28-0.01-0.41-0.02
		c-0.58-0.03-1.14-0.08-1.69-0.12c-0.27-0.02-0.54-0.05-0.8-0.07l-0.2-0.02L46,47.96c-0.11,0.04-0.23,0.07-0.35,0.06
		c-0.03,0-0.11,0-0.15-0.01c0,0-0.01,0-0.01,0c-0.02,0.01-0.04,0.03-0.05,0.03c-0.09,0.06-0.18,0.09-0.27,0.11
		c-0.03,0.3-0.07,0.57-0.13,0.81c0.03,0.08,0.04,0.17,0.03,0.26c0.04,0.12,0.04,0.26-0.03,0.37c-0.02,0.03-0.04,0.06-0.06,0.09
		c-0.01,0.45-0.1,0.99-0.11,1.42c0.12,0.65,0.27,1.07,0.18,2.17l0.1-0.04l0.05,0.88c0.02-0.22,0.01,0.94,0.01,0.94
		c-0.01,0.17,0.06,0.43,0,0.57c0.05,0.61,0.07,1.21,0.01,1.82c0.05,0.21,0.08,0.43,0.1,0.64c0.02,0.23-0.04,0.55-0.01,0.81
		c0.16,0.05,0.29,0.19,0.29,0.41v0.01c0,0.04-0.01,0.07-0.02,0.1h0.13c0.05,0.01,0.1,0.02,0.17,0.03c0.19,0.03,0.38,0.05,0.57,0.08
		l0,0c0.45-0.03,0.9-0.12,1.34,0.04c0.07,0.03,0.14,0.04,0.22,0.07c0.26-0.01,0.62,0.01,0.93,0c0.54,0.15,1.16,0.41,2,0.33
		c0.29-0.04,0.12-0.13,0.41-0.17c0.5,0.06,1.29,0.05,1.71,0.02c-0.01-0.24-0.03-0.45-0.05-0.66C52.96,58.98,52.94,58.79,52.92,58.58
		z"/>
	<path d="M30.28,53.36c-0.04-0.36-0.13-0.15-0.17-0.51c0.08-1.06,0.03-1.57-0.03-2.09c-0.03-0.26-0.06-0.52-0.08-0.86
		c-0.01-0.17-0.02-0.36-0.02-0.57c0-0.11,0-0.22,0-0.34c0-0.16,0.01-0.33,0.01-0.51c-0.02-0.16-0.03-0.33-0.04-0.49
		c-0.3,0.02-0.58,0.03-0.85,0.04c-0.24,0.01-0.47,0.01-0.71,0.02c-0.5,0.01-1.01,0.02-1.5,0.03c0.01,0.27,0.02,0.54,0.03,0.78
		c0.02,0.24,0.04,0.45,0.06,0.66c-0.13-0.21-0.06,0.92-0.04,1.21c0.02,0.05,0.04,0.15,0.05,0.27v2.44c0,0.71,0.13,1.92,0.13,1.92
		h-0.03c0,0-0.5-1.18-0.94-1.92l-0.81-1.37l-0.32-0.65c-0.08-0.11-0.03,0.02-0.01,0.1l-0.41-0.69c-0.13-0.31-0.24-0.61-0.51-0.86
		l-1.05-1.77h-0.3c-0.39-0.03-0.84-0.05-1.27,0h-1.22v0.27c-0.03-0.01-0.06-0.01-0.09,0c-0.05,0.03-0.09,0.14-0.13,0.45
		c-0.02,0.18-0.04,0.4-0.06,0.7c0.31,0.44,0.41,1,0.36,1.53c-0.01,0.13-0.04,0.25-0.08,0.36c0.03,0.13,0.05,0.27,0.05,0.41
		c0,0.14-0.02,0.28-0.05,0.42v2.94l-0.03,0.27c0.02,0.17,0.03,0.35,0,0.55c-0.06,0.47-0.21,0.75-0.16,1.19
		c0.03,0.07,0.06,0.14,0.08,0.22c0.11,0.07,0.2,0.18,0.2,0.36c0,0.25-0.01,0.49,0.01,0.74c0,0.12-0.04,0.21-0.1,0.28v0.54h1.74
		c0.36,0.02,0.71,0.03,1.06,0.05c0.02-0.32,0.04-0.63,0.05-0.94c0.02-0.29,0.04-0.58,0.06-0.87c0.03-0.42,0.07-0.82,0.1-1.23
		c-0.01-0.09-0.02-0.18-0.02-0.28c-0.02,0.02-0.03,0-0.05-0.11c-0.01-0.73,0.14-1.23,0.25-1.62c-0.01-0.12-0.02-0.24-0.03-0.38
		c0.03,0.05,0.06,0.1,0.09,0.15c0.01-0.05,0.02-0.09,0.03-0.14l-0.03,0.14c0.11,0.2,0.23,0.41,0.35,0.65l0.07-0.09l0.13,0.19
		c0.17-0.01,0.33,0.08,0.43,0.22c0.08,0.11,0.13,0.23,0.18,0.35l1.14,1.9c0.13,0.13,0.19,0.29,0.22,0.47
		c0.23,0.35,0.37,0.74,0.49,1.16c0.01,0.02,0,0.03,0.01,0.05c0.11,0.17,0.23,0.36,0.34,0.54c0.61-0.02,0.96-0.03,1.19,0.07
		c1.26-0.03,0.54-0.17,0.54-0.3h0.83c0.12,0.01,0.24,0.03,0.38,0.04c0.02-0.16,0.04-0.33,0.05-0.49c0.02-0.17,0.04-0.36,0.06-0.48
		c0.03-0.17,0.06-0.3,0.1-0.38c0.04-0.31,0.01-0.57-0.01-0.86c-0.06-0.27-0.02-0.92-0.03-1.44C30.1,55.16,30.36,54.4,30.28,53.36z"
		/>
	<path d="M27.47,59.77c-0.17,0.01-0.3,0.02-0.39,0.03c-0.1,0.01-0.15,0.02-0.17,0.03c-0.04,0.02,0.04,0.03,0.18,0.05
		c0.12,0.02,0.34,0.03,0.39,0.05c0.08,0.02,0.12,0.04,0.06,0.07L28.46,60C28.49,59.88,27.56,59.87,27.47,59.77z"/>
	<g>
		<path d="M65.05,59.57c-0.32,0.01-0.65,0.01-0.98,0.03c-0.16,0.01-0.33,0.02-0.5,0.03c-0.16,0.01-0.27,0.03-0.41,0.06
			c-0.34-0.02-0.61-0.01-0.83,0c-0.13,0.01-0.26,0.02-0.38,0.03c-0.13,0.01-0.26,0.02-0.38,0.04c-0.09-0.13-0.18-0.26-0.26-0.39
			c-0.08-0.12-0.15-0.23-0.23-0.35c-0.14-0.22-0.28-0.5-0.45-0.92c-0.16-0.21-0.17-0.03-0.32-0.25c-0.43-0.62-0.47-1.26-0.54-1.73
			c-0.13-0.04-0.24-0.04-0.35-0.03c-0.01,0.08-0.03,0.14-0.05,0.17c-0.02,0.03-0.03,0.04-0.05,0.02l-0.02-0.02
			c-0.04-0.01-0.07-0.01-0.07-0.02c-0.02-0.02-0.04-0.03-0.07-0.05c0,0-0.01-0.01-0.02-0.01c-0.55,0.32-0.67,1.3-0.67,1.3
			c0.13,0,0.27-0.53,0.3,0.39c-0.09,0.16-0.08,0.43-0.07,0.72c0.01,0.23,0.03,0.53,0.02,0.77c-0.08,0.05-0.14,0.13-0.17,0.23
			c-0.09,0-0.17,0-0.25,0.01c-0.16-0.02-0.32-0.03-0.47-0.02c-0.26,0.01-0.51,0.11-0.76,0.16c-0.56-0.05-1.56-0.1-1.56-0.1
			l-0.04-0.67l-0.1,0.08c0.02-0.4,0.03-0.57,0.03-0.76c0-0.18-0.02-0.34-0.04-0.49c-0.04-0.29-0.11-0.53-0.17-0.82
			c0.02-0.51,0.18-1.2,0.09-1.65c0.11-0.28,0.26-0.65,0.25-1.19c-0.03-0.18-0.07-0.02-0.1,0.03c0.1-0.88,0.2-1.84,0.27-2.85
			c0.01-0.15,0.02-0.31,0.02-0.46v-1.49c0.02-0.28,0.06-0.56,0.08-0.84c0.01-0.08,0.01-0.17,0.01-0.25c0.1-0.05,0.19-0.13,0.23-0.26
			c0.01-0.02,0.02-0.03,0.05-0.04c0,0,3.79,0.07,3.88,0.15c0.09,0.07,2.89,0.11,3.04,0.22c0.15,0.11,0.93-0.16,1.04,0
			c0.11,0.16-0.13,0.31,0,0.58c0,0,0.02,0.8,0.11,1.04c0.09,0.24-0.15,1.6-0.15,1.6c-0.01,0.05-0.01,0.11-0.02,0.16
			c-0.02,0.13-0.04,0.25-0.07,0.38c-0.06,0.57-0.26,1.15-0.58,1.64c-0.01,0.01-0.02,0.03-0.03,0.04c-0.28,0.42-0.65,0.78-1.11,1.01
			v0.03c0,0,0.16,0.2,0.42,0.68l0.87,1.56c0.06,0.07,0.11,0.12,0.14,0.15c0.12,0.17,0.58,0.86,0.39,0.79
			C64.36,58.38,64.72,58.99,65.05,59.57z"/>
		<path d="M63.98,51.58l-0.02,0v0.04C63.97,51.61,63.97,51.59,63.98,51.58z"/>
	</g>
</g>
</svg>
