<?xml version="1.0" encoding="utf-8"?>
<!-- Generator: Adobe Illustrator 27.1.1, SVG Export Plug-In . SVG Version: 6.00 Build 0)  -->
<svg version="1.1" id="Layer_1" xmlns="http://www.w3.org/2000/svg" xmlns:xlink="http://www.w3.org/1999/xlink" x="0px" y="0px"
	 viewBox="0 0 313.94 186.4" style="enable-background:new 0 0 313.94 186.4;" xml:space="preserve">
<g>
	<polygon style="fill:#778A97;" points="140.62,105.06 146.51,105.06 146.51,96.14 153.86,96.14 153.86,91.08 146.51,91.08 
		146.51,86.03 155.37,86.03 155.37,80.97 140.62,80.97 	"/>
	<path style="fill:#778A97;" d="M173.48,95.7c0-4.82-2.9-8.39-8.02-8.39c-5.59,0-9.03,3.98-9.03,9.06c0,4.62,3.34,9.1,9.54,9.1
		c2.66,0,5.53-0.91,7.41-2.53l-2.16-4.08c-1.41,0.94-3.07,1.75-4.78,1.75c-1.85,0-3.6-0.98-4.04-3.1h10.95
		C173.41,96.91,173.48,96.3,173.48,95.7z M162.53,94.18c0.3-1.38,1.11-2.59,2.8-2.59c1.48,0,2.39,1.18,2.39,2.59H162.53z"/>
	<path style="fill:#778A97;" d="M152.97,3.07c0.44,0,0.92,0.25,0.92,0.85c0,1.24-3.71,1.8-3.71,4.96c0,0.29,0.04,0.59,0.1,0.92h5.94
		v-1.8h-3.71c0.11-1.1,3.57-1.62,3.57-4.29c0-1.82-1.52-2.63-2.93-2.63c-1.55,0-2.52,0.88-3.02,1.85l1.56,1.04
		C151.95,3.51,152.41,3.07,152.97,3.07z"/>
	<path style="fill:#778A97;" d="M160.55,9.96c0.95,0,1.97-0.32,2.64-0.9l-0.77-1.45c-0.5,0.34-1.09,0.62-1.7,0.62
		c-0.66,0-1.28-0.35-1.44-1.1h3.9c0.02-0.22,0.05-0.43,0.05-0.65c0-1.72-1.03-2.99-2.85-2.99c-1.99,0-3.21,1.42-3.21,3.23
		C157.16,8.36,158.34,9.96,160.55,9.96z M160.32,5.02c0.53,0,0.85,0.42,0.85,0.92h-1.85C159.43,5.45,159.72,5.02,160.32,5.02z"/>
	<rect x="163.67" y="2.93" style="fill:#778A97;" width="2.9" height="1.76"/>
	<path style="fill:#778A97;" d="M66.47,91.42c0-1.82-1.52-2.63-2.93-2.63c-1.55,0-2.52,0.88-3.02,1.85l1.56,1.04
		c0.25-0.48,0.72-0.91,1.27-0.91c0.44,0,0.92,0.25,0.92,0.85c0,1.24-3.71,1.8-3.71,4.96c0,0.29,0.04,0.59,0.1,0.92h5.94v-1.8h-3.71
		C63,94.61,66.47,94.09,66.47,91.42z"/>
	<path style="fill:#778A97;" d="M73.61,94.17c0-1.72-1.03-2.99-2.85-2.99c-1.99,0-3.21,1.42-3.21,3.23c0,1.64,1.19,3.24,3.39,3.24
		c0.95,0,1.97-0.32,2.64-0.9L72.8,95.3c-0.5,0.34-1.09,0.62-1.7,0.62c-0.66,0-1.28-0.35-1.44-1.1h3.9
		C73.58,94.61,73.61,94.39,73.61,94.17z M69.71,93.63c0.11-0.49,0.4-0.92,1-0.92c0.53,0,0.85,0.42,0.85,0.92H69.71z"/>
	<rect x="74.05" y="90.63" style="fill:#778A97;" width="2.9" height="1.76"/>
	<path style="fill:#778A97;" d="M240.29,96.59c0,0.29,0.04,0.59,0.1,0.92h5.94v-1.8h-3.71c0.11-1.1,3.57-1.62,3.57-4.29
		c0-1.82-1.52-2.63-2.93-2.63c-1.55,0-2.52,0.88-3.02,1.85l1.56,1.04c0.25-0.48,0.72-0.91,1.27-0.91c0.44,0,0.92,0.25,0.92,0.85
		C243.99,92.86,240.29,93.42,240.29,96.59z"/>
	<path style="fill:#778A97;" d="M253.33,94.17c0-1.72-1.03-2.99-2.85-2.99c-1.99,0-3.21,1.42-3.21,3.23c0,1.64,1.19,3.24,3.39,3.24
		c0.95,0,1.97-0.32,2.64-0.9l-0.77-1.45c-0.5,0.34-1.09,0.62-1.7,0.62c-0.66,0-1.28-0.35-1.44-1.1h3.9
		C253.3,94.61,253.33,94.39,253.33,94.17z M249.43,93.63c0.11-0.49,0.4-0.92,1-0.92c0.53,0,0.85,0.42,0.85,0.92H249.43z"/>
	<rect x="253.77" y="90.63" style="fill:#778A97;" width="2.9" height="1.76"/>
	<path style="fill:#778A97;" d="M156.08,179.11c0-1.82-1.52-2.63-2.93-2.63c-1.55,0-2.52,0.88-3.02,1.85l1.56,1.04
		c0.25-0.48,0.72-0.91,1.27-0.91c0.44,0,0.92,0.25,0.92,0.85c0,1.24-3.71,1.8-3.71,4.96c0,0.29,0.04,0.59,0.1,0.92h5.94v-1.8h-3.71
		C152.62,182.3,156.08,181.79,156.08,179.11z"/>
	<path style="fill:#778A97;" d="M163.22,181.87c0-1.72-1.03-2.99-2.85-2.99c-1.99,0-3.21,1.42-3.21,3.23c0,1.64,1.19,3.24,3.39,3.24
		c0.95,0,1.97-0.32,2.64-0.9l-0.77-1.45c-0.5,0.34-1.09,0.62-1.7,0.62c-0.66,0-1.28-0.35-1.44-1.1h3.9
		C163.2,182.3,163.22,182.09,163.22,181.87z M159.33,181.33c0.11-0.49,0.4-0.92,1-0.92c0.53,0,0.85,0.42,0.85,0.92H159.33z"/>
	<rect x="163.67" y="178.32" style="fill:#778A97;" width="2.9" height="1.76"/>
	<path style="fill:#778A97;" d="M117.14,59.49c-0.26,0.31-0.42,0.56-0.42,0.56l-0.02-0.02c0,0-0.01-0.41-0.18-1.07l-1.53-5.92
		l-1.05-0.89l-4.44,5.23l1.45,1.23l2.16-2.55c0.26-0.31,0.42-0.56,0.42-0.56l0.02,0.02c0,0,0.01,0.41,0.18,1.07l1.52,5.89l1.07,0.9
		l4.59-5.41l-1.45-1.23L117.14,59.49z"/>
	<path style="fill:#778A97;" d="M120.26,49.61c-0.87,0.76-0.93,1.64-0.83,2.22l-0.02,0.02c0,0-0.11-0.16-0.25-0.32l-0.38-0.43
		l-1.59,1.39l4.31,4.94l1.66-1.45l-1.95-2.23c-0.61-0.7-0.81-1.61-0.07-2.25c0.36-0.32,0.71-0.29,1.11,0.17l2.53,2.89l1.66-1.45
		l-2.79-3.2C122.44,48.53,121.26,48.74,120.26,49.61z"/>
	<path style="fill:#778A97;" d="M193.44,55.7l-2.73-2.32c-0.31-0.26-0.56-0.42-0.56-0.42l0.02-0.02c0,0,0.41-0.01,1.07-0.18
		l5.92-1.53l0.89-1.05l-5.23-4.44l-1.23,1.45l2.55,2.16c0.31,0.26,0.56,0.42,0.56,0.42l-0.02,0.02c0,0-0.4,0.01-1.07,0.18
		l-5.89,1.52l-0.9,1.07l5.41,4.59L193.44,55.7z"/>
	<path style="fill:#778A97;" d="M199.1,55.04l-1.39-1.59l-4.93,4.31l1.45,1.66l2.23-1.95c0.7-0.61,1.61-0.81,2.25-0.07
		c0.32,0.36,0.29,0.71-0.17,1.11l-2.89,2.53l1.45,1.66l3.2-2.79c1.39-1.21,1.17-2.39,0.3-3.39c-0.76-0.87-1.64-0.93-2.22-0.83
		l-0.02-0.02c0,0,0.16-0.11,0.32-0.25L199.1,55.04z"/>
	<path style="fill:#778A97;" d="M200.84,130.36c-0.26,0.31-0.42,0.56-0.42,0.56l-0.02-0.02c0,0-0.01-0.41-0.18-1.07l-1.52-5.89
		l-1.07-0.91l-4.59,5.41l1.45,1.23l2.32-2.73c0.26-0.31,0.42-0.56,0.42-0.56l0.02,0.02c0,0,0.01,0.41,0.18,1.07l1.53,5.92l1.05,0.89
		l4.44-5.23l-1.45-1.23L200.84,130.36z"/>
	<path style="fill:#778A97;" d="M190.79,130.47l1.95,2.23c0.61,0.7,0.81,1.61,0.07,2.25c-0.37,0.32-0.71,0.29-1.12-0.18l-2.53-2.89
		l-1.66,1.45l2.79,3.2c1.21,1.39,2.39,1.17,3.39,0.3c0.87-0.76,0.93-1.64,0.83-2.22l0.02-0.02c0,0,0.11,0.16,0.25,0.32l0.38,0.43
		l1.59-1.39l-4.31-4.94L190.79,130.47z"/>
	<path style="fill:#778A97;" d="M120.51,130.73l2.73,2.32c0.31,0.26,0.56,0.42,0.56,0.42l-0.02,0.02c0,0-0.41,0.01-1.07,0.18
		l-5.92,1.53l-0.89,1.05l5.23,4.45l1.24-1.45l-2.55-2.17c-0.31-0.26-0.56-0.42-0.56-0.42l0.02-0.02c0,0,0.41-0.01,1.07-0.18
		l5.9-1.52l0.91-1.06l-5.41-4.6L120.51,130.73z"/>
	<path style="fill:#778A97;" d="M114.85,131.41l1.39,1.59l4.94-4.31l-1.45-1.66l-2.23,1.95c-0.7,0.61-1.61,0.81-2.25,0.07
		c-0.32-0.36-0.29-0.71,0.17-1.11l2.89-2.53l-1.45-1.66l-3.2,2.79c-1.39,1.21-1.17,2.39-0.3,3.39c0.76,0.87,1.64,0.93,2.22,0.83
		l0.02,0.02c0,0-0.16,0.11-0.32,0.25L114.85,131.41z"/>
	<path style="fill:#778A97;" d="M312.87,127.88h-90.84c4.15-7.83,6.95-16.51,8.07-25.74c0.12-1-0.19-2-0.86-2.76
		c-0.67-0.76-1.64-1.2-2.66-1.2h-23.85v6.51l-13.25-11.47l13.25-11.47v6.51h23.85c1.02,0,1.99-0.44,2.66-1.2
		c0.67-0.76,0.99-1.76,0.86-2.76c-1.13-9.39-4-18.21-8.28-26.14h91.05c0.59,0,1.06-0.48,1.06-1.06s-0.48-1.06-1.06-1.06H221.3
		l52.14-52.14v2.93c0,0.59,0.48,1.06,1.06,1.06s1.06-0.48,1.06-1.06v-5.5c0-0.01-0.01-0.02-0.01-0.03c0-0.13-0.03-0.25-0.08-0.37
		c-0.05-0.13-0.13-0.24-0.23-0.34c0,0,0,0,0,0l0,0c-0.1-0.1-0.22-0.18-0.35-0.23c-0.12-0.05-0.25-0.07-0.37-0.08
		c-0.01,0-0.02-0.01-0.03-0.01H269c-0.59,0-1.06,0.48-1.06,1.06s0.48,1.06,1.06,1.06h2.93l-52.19,52.19
		c-11.44-18.63-30.92-31.69-53.78-34.48c-1-0.12-2.01,0.19-2.76,0.86c-0.76,0.67-1.2,1.64-1.2,2.66v23.92h6.51l-11.47,13.25
		l-11.47-13.25h6.51V23.6c0-1.02-0.44-1.98-1.2-2.66c-0.76-0.67-1.76-0.99-2.76-0.87c-22.94,2.74-42.48,15.81-53.95,34.49
		L41.74,2.13h3.04c0.59,0,1.06-0.48,1.06-1.06S45.37,0,44.78,0h-5.5c-0.59,0-1.06,0.48-1.06,1.06v0.1v0v5.39
		c0,0.59,0.48,1.06,1.06,1.06s1.06-0.48,1.06-1.06V3.73l52.3,52.3H1.06C0.48,56.03,0,56.51,0,57.1s0.48,1.06,1.06,1.06h91.04
		c-4.27,7.93-7.14,16.75-8.27,26.14c-0.12,1,0.2,2.01,0.87,2.76c0.67,0.76,1.64,1.2,2.66,1.2h24v-6.51l13.25,11.47l-13.25,11.47
		v-6.51h-24c-1.02,0-1.98,0.44-2.66,1.2c-0.67,0.76-0.99,1.76-0.87,2.76c1.12,9.23,3.91,17.91,8.06,25.74H1.06
		c-0.59,0-1.06,0.48-1.06,1.06s0.48,1.06,1.06,1.06h91.97L40.34,182.7v-2.89c0-0.59-0.48-1.06-1.06-1.06s-1.06,0.48-1.06,1.06v5.29
		c-0.07,0.34,0.01,0.7,0.27,0.96c0.21,0.21,0.48,0.31,0.75,0.31c0.01,0,0.01,0,0.02,0c0.01,0,0.01,0,0.02,0h5.5
		c0.59,0,1.06-0.48,1.06-1.06s-0.48-1.06-1.06-1.06H41.8l52.37-52.37c11.46,18.68,31.01,31.75,53.95,34.49
		c0.14,0.02,0.28,0.02,0.42,0.02c0.86,0,1.69-0.31,2.34-0.89c0.76-0.67,1.2-1.64,1.2-2.66v-23.93h-6.51l11.47-13.25l11.47,13.25
		h-6.51v23.92c0,1.02,0.44,1.99,1.2,2.66c0.76,0.67,1.76,0.99,2.76,0.86c23.02-2.8,42.62-16.03,54.03-34.87l52.8,52.8h-2.93
		c-0.59,0-1.06,0.48-1.06,1.06s0.48,1.06,1.06,1.06h5.5c0.14,0,0.28-0.03,0.41-0.08c0.12-0.05,0.23-0.13,0.33-0.22
		c0.01-0.01,0.01-0.01,0.02-0.01c0.01-0.01,0.01-0.01,0.01-0.02c0.09-0.09,0.17-0.2,0.22-0.33c0.05-0.12,0.07-0.25,0.08-0.37
		c0-0.01,0.01-0.02,0.01-0.03v-5.5c0-0.59-0.48-1.06-1.06-1.06s-1.06,0.48-1.06,1.06v2.93l-52.76-52.76h91.34
		c0.59,0,1.06-0.48,1.06-1.06S313.46,127.88,312.87,127.88z M172.75,49.15c0.92-1.06,1.13-2.51,0.54-3.79
		c-0.58-1.28-1.82-2.07-3.22-2.07h-3.81V24.42c31.09,4.15,55.41,28.49,59.52,59.59h-18.8V80.2c0-1.4-0.79-2.64-2.07-3.22
		c-1.28-0.58-2.73-0.37-3.79,0.54l-5.51,4.77c-3.77-13.4-14.21-23.87-27.6-27.68L172.75,49.15z M112.97,77.52
		c-1.06-0.92-2.51-1.13-3.79-0.54c-1.28,0.58-2.07,1.82-2.07,3.22v3.81H88.16c4.12-31.17,28.5-55.52,59.68-59.61v18.88h-3.81
		c-1.4,0-2.64,0.79-3.22,2.07s-0.38,2.73,0.54,3.79l4.7,5.43c-13.41,3.77-23.88,14.21-27.69,27.61L112.97,77.52z M141.34,137.3
		c-0.92,1.06-1.13,2.51-0.54,3.79c0.58,1.28,1.82,2.07,3.22,2.07h3.81v18.88c-31.17-4.09-55.55-28.44-59.68-59.61h18.95v3.81
		c0,1.41,0.79,2.64,2.07,3.22c1.28,0.58,2.73,0.37,3.79-0.54l5.38-4.66c3.81,13.4,14.28,23.84,27.69,27.61L141.34,137.3z
		 M159.72,122.25c-0.67-0.78-1.65-1.22-2.68-1.22c-1.03,0-2,0.45-2.68,1.22l-6.76,7.81c-13.49-3.41-24-13.88-27.45-27.36l7.85-6.8
		c0.78-0.67,1.22-1.65,1.22-2.68s-0.45-2-1.22-2.68l-7.85-6.8c3.45-13.48,13.95-23.95,27.45-27.36l6.76,7.81
		c0.67,0.78,1.65,1.22,2.68,1.22c1.03,0,2-0.45,2.68-1.22l6.73-7.77c13.47,3.45,23.94,13.95,27.35,27.44l-7.73,6.69
		c-0.78,0.67-1.22,1.65-1.22,2.68s0.45,2,1.22,2.68l7.73,6.69c-3.41,13.48-13.88,23.99-27.35,27.44L159.72,122.25z M166.26,162.02
		v-18.87h3.81c1.4,0,2.64-0.79,3.22-2.07c0.58-1.28,0.38-2.73-0.54-3.79l-4.73-5.46c13.39-3.81,23.83-14.28,27.6-27.68l5.51,4.77
		c1.06,0.92,2.51,1.13,3.79,0.54c1.28-0.58,2.07-1.82,2.07-3.22v-3.81h18.8C221.66,133.54,197.35,157.87,166.26,162.02z"/>
	<path style="fill:#778A97;" d="M20.73,43.98h20.35c3.92,0,7.11-3.19,7.11-7.11c0-3.92-3.19-7.11-7.11-7.11
		c-0.14,0-0.29,0-0.43,0.01c-0.53-1.39-1.54-2.53-2.89-3.21c-1.33-0.67-2.82-0.83-4.22-0.46c-1.76-3.33-5.75-4.94-9.38-3.62
		c-3.56,1.29-5.58,4.96-4.92,8.56c-2.92,0.7-5.1,3.37-5.05,6.48C14.23,41.08,17.17,43.98,20.73,43.98z M20.59,32.99l1.47-0.05
		l-0.5-1.38c-1.04-2.87,0.44-6.05,3.31-7.09c0.62-0.23,1.26-0.33,1.88-0.33c2.26,0,4.39,1.4,5.21,3.65l0.4,1.09l1.05-0.49
		c1.08-0.5,2.32-0.48,3.38,0.06c1.07,0.54,1.81,1.52,2.05,2.7l0.21,1.04l1.04-0.21c0.32-0.07,0.66-0.1,0.99-0.1
		c2.75,0,4.99,2.24,4.99,4.99s-2.24,4.99-4.99,4.99H20.73c-2.41,0-4.39-1.96-4.43-4.37C16.26,35.08,18.19,33.07,20.59,32.99z"/>
	<path style="fill:#778A97;" d="M292.22,149.81c-0.53-1.39-1.54-2.53-2.89-3.21c-1.33-0.67-2.82-0.83-4.22-0.46
		c-0.77-1.47-2-2.64-3.53-3.36c-1.85-0.87-3.93-0.96-5.86-0.26c-3.56,1.29-5.58,4.96-4.92,8.56c-2.92,0.7-5.09,3.37-5.05,6.48
		c0.05,3.56,2.99,6.46,6.55,6.46h20.35c3.92,0,7.11-3.19,7.11-7.12C299.76,152.84,296.29,149.56,292.22,149.81z M292.65,161.9H272.3
		c-2.41,0-4.39-1.96-4.43-4.37c-0.04-2.41,1.89-4.42,4.29-4.5l1.47-0.05l-0.5-1.38c-1.04-2.87,0.45-6.05,3.31-7.09
		c0.62-0.22,1.25-0.33,1.89-0.33c0.8,0,1.59,0.17,2.34,0.52c1.34,0.63,2.35,1.74,2.86,3.12l0.39,1.09l1.05-0.49
		c1.08-0.5,2.32-0.48,3.38,0.06c1.07,0.54,1.81,1.53,2.05,2.7l0.21,1.04l1.04-0.21c0.32-0.07,0.65-0.1,0.99-0.1
		c2.75,0,4.99,2.24,4.99,4.99C297.64,159.66,295.4,161.9,292.65,161.9z"/>
	<path style="fill:#778A97;" d="M275.98,40.06c1.04,1.81,2.72,3.11,4.73,3.65c0.68,0.18,1.37,0.28,2.06,0.28
		c1.35,0,2.67-0.35,3.87-1.04c3.74-2.14,5.03-6.93,2.89-10.66l-5.45-9.5c-0.27-0.47-0.78-0.77-1.33-0.77c0,0,0,0,0,0
		c-0.55,0-1.05,0.29-1.33,0.77l-5.45,9.5C274.61,34.69,274.61,37.67,275.98,40.06z M277.82,33.34l4.93-8.6l4.93,8.6
		c1.56,2.72,0.62,6.2-2.1,7.76c-1.32,0.76-2.85,0.95-4.32,0.56c-1.47-0.4-2.69-1.34-3.44-2.66
		C276.82,37.26,276.82,35.09,277.82,33.34z"/>
	<path style="fill:#778A97;" d="M37.96,152.32l-5.45-9.5c-0.27-0.47-0.78-0.77-1.33-0.77c0,0,0,0,0,0c-0.55,0-1.06,0.29-1.33,0.77
		l-5.45,9.5c-1.37,2.4-1.37,5.38,0,7.77c1.44,2.51,4.08,3.92,6.79,3.92c1.32,0,2.65-0.33,3.87-1.03c1.81-1.04,3.11-2.72,3.65-4.73
		C39.27,156.24,39,154.13,37.96,152.32z M36.67,157.7c-0.4,1.47-1.34,2.69-2.66,3.44c-2.72,1.56-6.2,0.62-7.76-2.1
		c-1-1.74-1-3.91,0-5.66l4.93-8.6l4.93,8.6C36.87,154.7,37.07,156.23,36.67,157.7z"/>
</g>
</svg>
