<svg xmlns="http://www.w3.org/2000/svg" viewBox="0 0 313.94 186.4"><g fill="#778a97"><path d="M140.62 105.06h5.89v-8.92h7.35v-5.06h-7.35v-5.05h8.86v-5.06h-14.75zm32.86-9.36c0-4.82-2.9-8.39-8.02-8.39-5.59 0-9.03 3.98-9.03 9.06 0 4.62 3.34 9.1 9.54 9.1 2.66 0 5.53-.91 7.41-2.53l-2.16-4.08c-1.41.94-3.07 1.75-4.78 1.75-1.85 0-3.6-.98-4.04-3.1h10.95c.06-.6.13-1.21.13-1.81zm-10.95-1.52c.3-1.38 1.11-2.59 2.8-2.59 1.48 0 2.39 1.18 2.39 2.59h-5.19zm-9.56-91.11c.44 0 .92.25.92.85 0 1.24-3.71 1.8-3.71 4.96 0 .29.04.59.1.92h5.94V8h-3.71c.11-1.1 3.57-1.62 3.57-4.29 0-1.82-1.52-2.63-2.93-2.63-1.55 0-2.52.88-3.02 1.85l1.56 1.04c.26-.46.72-.9 1.28-.9zm7.58 6.89c.95 0 1.97-.32 2.64-.9l-.77-1.45c-.5.34-1.09.62-1.7.62-.66 0-1.28-.35-1.44-1.1h3.9c.02-.22.05-.43.05-.65 0-1.72-1.03-2.99-2.85-2.99-1.99 0-3.21 1.42-3.21 3.23-.01 1.64 1.17 3.24 3.38 3.24zm-.23-4.94c.53 0 .85.42.85.92h-1.85c.11-.49.4-.92 1-.92zm3.35-2.09h2.9v1.76h-2.9zm-97.2 88.49c0-1.82-1.52-2.63-2.93-2.63-1.55 0-2.52.88-3.02 1.85l1.56 1.04c.25-.48.72-.91 1.27-.91.44 0 .92.25.92.85 0 1.24-3.71 1.8-3.71 4.96 0 .29.04.59.1.92h5.94v-1.8h-3.71c.11-1.09 3.58-1.61 3.58-4.28zm7.14 2.75c0-1.72-1.03-2.99-2.85-2.99-1.99 0-3.21 1.42-3.21 3.23 0 1.64 1.19 3.24 3.39 3.24.95 0 1.97-.32 2.64-.9l-.78-1.45c-.5.34-1.09.62-1.7.62-.66 0-1.28-.35-1.44-1.1h3.9c.02-.21.05-.43.05-.65zm-3.9-.54c.11-.49.4-.92 1-.92.53 0 .85.42.85.92h-1.85zm4.34-3h2.9v1.76h-2.9zm166.24 5.96c0 .29.04.59.1.92h5.94v-1.8h-3.71c.11-1.1 3.57-1.62 3.57-4.29 0-1.82-1.52-2.63-2.93-2.63-1.55 0-2.52.88-3.02 1.85l1.56 1.04c.25-.48.72-.91 1.27-.91.44 0 .92.25.92.85 0 1.24-3.7 1.8-3.7 4.97zm13.04-2.42c0-1.72-1.03-2.99-2.85-2.99-1.99 0-3.21 1.42-3.21 3.23 0 1.64 1.19 3.24 3.39 3.24.95 0 1.97-.32 2.64-.9l-.77-1.45c-.5.34-1.09.62-1.7.62-.66 0-1.28-.35-1.44-1.1h3.9c.01-.21.04-.43.04-.65zm-3.9-.54c.11-.49.4-.92 1-.92.53 0 .85.42.85.92h-1.85zm4.34-3h2.9v1.76h-2.9zm-97.69 88.48c0-1.82-1.52-2.63-2.93-2.63-1.55 0-2.52.88-3.02 1.85l1.56 1.04c.25-.48.72-.91 1.27-.91.44 0 .92.25.92.85 0 1.24-3.71 1.8-3.71 4.96 0 .29.04.59.1.92h5.94v-1.8h-3.71c.12-1.09 3.58-1.6 3.58-4.28zm7.14 2.76c0-1.72-1.03-2.99-2.85-2.99-1.99 0-3.21 1.42-3.21 3.23 0 1.64 1.19 3.24 3.39 3.24.95 0 1.97-.32 2.64-.9l-.77-1.45c-.5.34-1.09.62-1.7.62-.66 0-1.28-.35-1.44-1.1h3.9c.02-.22.04-.43.04-.65zm-3.89-.54c.11-.49.4-.92 1-.92.53 0 .85.42.85.92h-1.85zm4.34-3.01h2.9v1.76h-2.9zM117.14 59.49c-.26.31-.42.56-.42.56l-.02-.02s-.01-.41-.18-1.07l-1.53-5.92-1.05-.89-4.44 5.23 1.45 1.23 2.16-2.55c.26-.31.42-.56.42-.56l.02.02s.01.41.18 1.07l1.52 5.89 1.07.9 4.59-5.41-1.45-1.23-2.32 2.75zm3.12-9.88c-.87.76-.93 1.64-.83 2.22l-.02.02s-.11-.16-.25-.32l-.38-.43-1.59 1.39 4.31 4.94 1.66-1.45-1.95-2.23c-.61-.7-.81-1.61-.07-2.25.36-.32.71-.29 1.11.17l2.53 2.89 1.66-1.45-2.79-3.2c-1.21-1.38-2.39-1.17-3.39-.3zm73.18 6.09l-2.73-2.32c-.31-.26-.56-.42-.56-.42l.02-.02s.41-.01 1.07-.18l5.92-1.53.89-1.05-5.23-4.44-1.23 1.45 2.55 2.16c.31.26.56.42.56.42l-.02.02s-.4.01-1.07.18l-5.89 1.52-.9 1.07 5.41 4.59 1.21-1.45zm5.66-.66l-1.39-1.59-4.93 4.31 1.45 1.66 2.23-1.95c.7-.61 1.61-.81 2.25-.07.32.36.29.71-.17 1.11l-2.89 2.53 1.45 1.66 3.2-2.79c1.39-1.21 1.17-2.39.3-3.39-.76-.87-1.64-.93-2.22-.83l-.02-.02s.16-.11.32-.25l.42-.38zm1.74 75.32c-.26.31-.42.56-.42.56l-.02-.02s-.01-.41-.18-1.07l-1.52-5.89-1.07-.91-4.59 5.41 1.45 1.23 2.32-2.73c.26-.31.42-.56.42-.56l.02.02s.01.41.18 1.07l1.53 5.92 1.05.89 4.44-5.23-1.45-1.23-2.16 2.54zm-10.05.11l1.95 2.23c.61.7.81 1.61.07 2.25-.37.32-.71.29-1.12-.18l-2.53-2.89-1.66 1.45 2.79 3.2c1.21 1.39 2.39 1.17 3.39.3.87-.76.93-1.64.83-2.22l.02-.02s.11.16.25.32l.38.43 1.59-1.39-4.31-4.94-1.65 1.46zm-70.28.26l2.73 2.32c.31.26.56.42.56.42l-.02.02s-.41.01-1.07.18l-5.92 1.53-.89 1.05 5.23 4.45 1.24-1.45-2.55-2.17c-.31-.26-.56-.42-.56-.42l.02-.02s.41-.01 1.07-.18l5.9-1.52.91-1.06-5.41-4.6-1.24 1.45zm-5.66.68l1.39 1.59 4.94-4.31-1.45-1.66-2.23 1.95c-.7.61-1.61.81-2.25.07-.32-.36-.29-.71.17-1.11l2.89-2.53-1.45-1.66-3.2 2.79c-1.39 1.21-1.17 2.39-.3 3.39.76.87 1.64.93 2.22.83l.02.02s-.16.11-.32.25l-.43.38z"/><path d="M312.87 127.88h-90.84a73.89 73.89 0 008.07-25.74c.12-1-.19-2-.86-2.76a3.55 3.55 0 00-2.66-1.2h-23.85v6.51l-13.25-11.47 13.25-11.47v6.51h23.85c1.02 0 1.99-.44 2.66-1.2.67-.76.99-1.76.86-2.76-1.13-9.39-4-18.21-8.28-26.14h91.05c.59 0 1.06-.48 1.06-1.06s-.48-1.06-1.06-1.06H221.3L273.44 3.9v2.93c0 .59.48 1.06 1.06 1.06s1.06-.48 1.06-1.06v-5.5c0-.01-.01-.02-.01-.03 0-.13-.03-.25-.08-.37a.976.976 0 00-.23-.34c-.1-.1-.22-.18-.35-.23-.12-.05-.25-.07-.37-.08-.01 0-.02-.01-.03-.01H269c-.59 0-1.06.48-1.06 1.06s.48 1.06 1.06 1.06h2.93l-52.19 52.19a73.415 73.415 0 00-53.78-34.48c-1-.12-2.01.19-2.76.86a3.55 3.55 0 00-1.2 2.66v23.92h6.51l-11.47 13.25-11.47-13.25h6.51V23.6c0-1.02-.44-1.98-1.2-2.66-.76-.67-1.76-.99-2.76-.87-22.94 2.74-42.48 15.81-53.95 34.49L41.74 2.13h3.04c.59 0 1.06-.48 1.06-1.06S45.37 0 44.78 0h-5.5c-.59 0-1.06.48-1.06 1.06v5.49c0 .59.48 1.06 1.06 1.06s1.06-.48 1.06-1.06V3.73l52.3 52.3H1.06c-.58 0-1.06.48-1.06 1.07s.48 1.06 1.06 1.06H92.1a73.596 73.596 0 00-8.27 26.14c-.12 1 .2 2.01.87 2.76.67.76 1.64 1.2 2.66 1.2h24v-6.51l13.25 11.47-13.25 11.47v-6.51h-24c-1.02 0-1.98.44-2.66 1.2-.67.76-.99 1.76-.87 2.76a73.876 73.876 0 008.06 25.74H1.06c-.59 0-1.06.48-1.06 1.06S.48 130 1.06 130h91.97l-52.69 52.7v-2.89c0-.59-.48-1.06-1.06-1.06s-1.06.48-1.06 1.06v5.29c-.07.34.01.7.27.96.21.21.48.31.75.31h5.54c.59 0 1.06-.48 1.06-1.06s-.48-1.06-1.06-1.06H41.8l52.37-52.37c11.46 18.68 31.01 31.75 53.95 34.49.14.02.28.02.42.02.86 0 1.69-.31 2.34-.89a3.55 3.55 0 001.2-2.66v-23.93h-6.51l11.47-13.25 11.47 13.25H162v23.92c0 1.02.44 1.99 1.2 2.66.76.67 1.76.99 2.76.86a73.41 73.41 0 0054.03-34.87l52.8 52.8h-2.93c-.59 0-1.06.48-1.06 1.06s.48 1.06 1.06 1.06h5.5c.14 0 .28-.03.41-.08.12-.05.23-.13.33-.22.01-.01.01-.01.02-.01.01-.01.01-.01.01-.02.09-.09.17-.2.22-.33.05-.12.07-.25.08-.37 0-.01.01-.02.01-.03v-5.5c0-.59-.48-1.06-1.06-1.06s-1.06.48-1.06 1.06v2.93l-52.76-52.76h91.34c.59 0 1.06-.48 1.06-1.06s-.5-1.07-1.09-1.07zM172.75 49.15c.92-1.06 1.13-2.51.54-3.79a3.498 3.498 0 00-3.22-2.07h-3.81V24.42a69.156 69.156 0 0159.52 59.59h-18.8V80.2c0-1.4-.79-2.64-2.07-3.22a3.526 3.526 0 00-3.79.54l-5.51 4.77a40.042 40.042 0 00-27.6-27.68l4.74-5.46zm-59.78 28.37a3.488 3.488 0 00-3.79-.54 3.498 3.498 0 00-2.07 3.22v3.81H88.16c4.12-31.17 28.5-55.52 59.68-59.61v18.88h-3.81c-1.4 0-2.64.79-3.22 2.07s-.38 2.73.54 3.79l4.7 5.43a40.033 40.033 0 00-27.69 27.61l-5.39-4.66zm28.37 59.78a3.488 3.488 0 00-.54 3.79 3.498 3.498 0 003.22 2.07h3.81v18.88a69.15 69.15 0 01-59.68-59.61h18.95v3.81c0 1.41.79 2.64 2.07 3.22 1.28.58 2.73.37 3.79-.54l5.38-4.66a40.033 40.033 0 0027.69 27.61l-4.69 5.43zm18.38-15.05a3.526 3.526 0 00-2.68-1.22c-1.03 0-2 .45-2.68 1.22l-6.76 7.81a37.877 37.877 0 01-27.45-27.36l7.85-6.8c.78-.67 1.22-1.65 1.22-2.68s-.45-2-1.22-2.68l-7.85-6.8a37.86 37.86 0 0127.45-27.36l6.76 7.81c.67.78 1.65 1.22 2.68 1.22 1.03 0 2-.45 2.68-1.22l6.73-7.77a37.867 37.867 0 0127.35 27.44l-7.73 6.69c-.78.67-1.22 1.65-1.22 2.68s.45 2 1.22 2.68l7.73 6.69a37.883 37.883 0 01-27.35 27.44l-6.73-7.79zm6.54 39.77v-18.87h3.81c1.4 0 2.64-.79 3.22-2.07.58-1.28.38-2.73-.54-3.79l-4.73-5.46a40.042 40.042 0 0027.6-27.68l5.51 4.77c1.06.92 2.51 1.13 3.79.54a3.498 3.498 0 002.07-3.22v-3.81h18.8a69.176 69.176 0 01-59.53 59.59z"/><path d="M20.73 43.98h20.35c3.92 0 7.11-3.19 7.11-7.11 0-3.92-3.19-7.11-7.11-7.11-.14 0-.29 0-.43.01a5.938 5.938 0 00-2.89-3.21 5.962 5.962 0 00-4.22-.46c-1.76-3.33-5.75-4.94-9.38-3.62-3.56 1.29-5.58 4.96-4.92 8.56-2.92.7-5.1 3.37-5.05 6.48.04 3.56 2.98 6.46 6.54 6.46zm-.14-10.99l1.47-.05-.5-1.38c-1.04-2.87.44-6.05 3.31-7.09.62-.23 1.26-.33 1.88-.33 2.26 0 4.39 1.4 5.21 3.65l.4 1.09 1.05-.49c1.08-.5 2.32-.48 3.38.06 1.07.54 1.81 1.52 2.05 2.7l.21 1.04 1.04-.21a4.998 4.998 0 015.98 4.89c0 2.75-2.24 4.99-4.99 4.99H20.73c-2.41 0-4.39-1.96-4.43-4.37-.04-2.41 1.89-4.42 4.29-4.5zm271.63 116.82a5.938 5.938 0 00-2.89-3.21 5.962 5.962 0 00-4.22-.46c-.77-1.47-2-2.64-3.53-3.36a7.59 7.59 0 00-5.86-.26c-3.56 1.29-5.58 4.96-4.92 8.56-2.92.7-5.09 3.37-5.05 6.48.05 3.56 2.99 6.46 6.55 6.46h20.35c3.92 0 7.11-3.19 7.11-7.12 0-4.06-3.47-7.34-7.54-7.09zm.43 12.09H272.3c-2.41 0-4.39-1.96-4.43-4.37-.04-2.41 1.89-4.42 4.29-4.5l1.47-.05-.5-1.38a5.545 5.545 0 013.31-7.09c.62-.22 1.25-.33 1.89-.33a5.548 5.548 0 015.2 3.64l.39 1.09 1.05-.49c1.08-.5 2.32-.48 3.38.06 1.07.54 1.81 1.53 2.05 2.7l.21 1.04 1.04-.21a4.998 4.998 0 015.98 4.89c.01 2.76-2.23 5-4.98 5zM275.98 40.06a7.745 7.745 0 004.73 3.65c.68.18 1.37.28 2.06.28 1.35 0 2.67-.35 3.87-1.04 3.74-2.14 5.03-6.93 2.89-10.66l-5.45-9.5a1.533 1.533 0 00-2.66 0l-5.45 9.5a7.883 7.883 0 00.01 7.77zm1.84-6.72l4.93-8.6 4.93 8.6a5.69 5.69 0 01-6.42 8.32 5.614 5.614 0 01-3.44-2.66c-1-1.74-1-3.91 0-5.66zM37.96 152.32l-5.45-9.5c-.27-.47-.78-.77-1.33-.77s-1.06.29-1.33.77l-5.45 9.5a7.858 7.858 0 000 7.77 7.82 7.82 0 006.79 3.92c1.32 0 2.65-.33 3.87-1.03a7.745 7.745 0 003.65-4.73c.56-2.01.29-4.12-.75-5.93zm-1.29 5.38a5.614 5.614 0 01-2.66 3.44 5.69 5.69 0 01-7.76-2.1c-1-1.74-1-3.91 0-5.66l4.93-8.6 4.93 8.6c.76 1.32.96 2.85.56 4.32z"/></g></svg>